<svg width="64" height="64" viewBox="0 0 64 64" fill="none" xmlns="http://www.w3.org/2000/svg">
<path d="M14.304 37.192C12.704 37.192 11.456 36.7493 10.56 35.864C9.67467 34.9787 9.232 33.7147 9.232 32.072V25.8H11.824V31.976C11.824 33.9813 12.656 34.984 14.32 34.984C15.1307 34.984 15.7493 34.744 16.176 34.264C16.6027 33.7733 16.816 33.0107 16.816 31.976V25.8H19.376V32.072C19.376 33.7147 18.928 34.9787 18.032 35.864C17.1467 36.7493 15.904 37.192 14.304 37.192ZM28.8371 37L26.1331 33.112L23.4771 37H20.5011L24.6451 31.304L20.7091 25.8H23.6531L26.2291 29.432L28.7571 25.8H31.5571L27.6531 31.208L31.8291 37H28.8371ZM36.8458 23.528H39.0698L33.7898 38.6H31.5658L36.8458 23.528ZM44.6634 37.192C43.0634 37.192 41.8154 36.7493 40.9194 35.864C40.034 34.9787 39.5914 33.7147 39.5914 32.072V25.8H42.1834V31.976C42.1834 33.9813 43.0154 34.984 44.6794 34.984C45.49 34.984 46.1087 34.744 46.5354 34.264C46.962 33.7733 47.1754 33.0107 47.1754 31.976V25.8H49.7354V32.072C49.7354 33.7147 49.2874 34.9787 48.3914 35.864C47.506 36.7493 46.2634 37.192 44.6634 37.192ZM52.2968 25.8H54.8888V37H52.2968V25.8Z" fill="#423FD9"/>
<path d="M11 12C11 12.5523 10.5523 13 10 13C9.44772 13 9 12.5523 9 12C9 11.4477 9.44772 11 10 11C10.5523 11 11 11.4477 11 12Z" fill="#423FD9"/>
<path d="M13 13C13.5523 13 14 12.5523 14 12C14 11.4477 13.5523 11 13 11C12.4477 11 12 11.4477 12 12C12 12.5523 12.4477 13 13 13Z" fill="#423FD9"/>
<path d="M17 12C17 12.5523 16.5523 13 16 13C15.4477 13 15 12.5523 15 12C15 11.4477 15.4477 11 16 11C16.5523 11 17 11.4477 17 12Z" fill="#423FD9"/>
<path fill-rule="evenodd" clip-rule="evenodd" d="M52.9 49H58V8H6V49H43.1H45H51H52.9ZM56 10H8V14H56V10ZM56 16V47H52.9H43.1H8V16H56Z" fill="#423FD9"/>
<path fill-rule="evenodd" clip-rule="evenodd" d="M11 12C11 12.5523 10.5523 13 10 13C9.44772 13 9 12.5523 9 12C9 11.4477 9.44772 11 10 11C10.5523 11 11 11.4477 11 12ZM13 13C13.5523 13 14 12.5523 14 12C14 11.4477 13.5523 11 13 11C12.4477 11 12 11.4477 12 12C12 12.5523 12.4477 13 13 13ZM17 12C17 12.5523 16.5523 13 16 13C15.4477 13 15 12.5523 15 12C15 11.4477 15.4477 11 16 11C16.5523 11 17 11.4477 17 12Z" fill="#423FD9"/>
</svg>
