<svg width="64" height="64" viewBox="0 0 64 64" fill="none" xmlns="http://www.w3.org/2000/svg">
<path d="M32 11.9998C30.8954 11.9998 30 12.8952 30 13.9998H28C28 11.7907 29.7909 9.99982 32 9.99982C34.2091 9.99982 36 11.7907 36 13.9998H34C34 12.8952 33.1046 11.9998 32 11.9998Z" fill="#423FD9"/>
<path fill-rule="evenodd" clip-rule="evenodd" d="M29.4732 37.1987C29.7299 37.9433 30.2956 38.5215 31 38.8059V41.9998H33V38.8059C33.715 38.5172 34.287 37.9259 34.5381 37.1652L40.9971 39.4692C42.2828 39.9279 43.6401 38.9921 43.6686 37.6273L43.7493 33.763C43.7636 33.0793 43.4276 32.4358 42.8585 32.0567L37.1588 28.26L37.8893 25.7761C38.626 23.2715 39 20.6743 39 18.0636C39 14.0696 38.1247 10.1242 36.4357 6.50489L35.9933 5.55685C34.4109 2.16595 29.5891 2.16595 28.0067 5.55685L27.5643 6.50489C25.8753 10.1242 25 14.0696 25 18.0636C25 20.6743 25.374 23.2715 26.1107 25.7761L26.8585 28.3186L21.2467 32.0567C20.6776 32.4358 20.3416 33.0793 20.3559 33.763L20.4366 37.6273C20.4651 38.9921 21.8224 39.9279 23.1081 39.4692L29.4732 37.1987ZM34.6233 7.35067L34.1809 6.40262C33.3167 4.55069 30.6833 4.55069 29.8191 6.40262L29.3767 7.35067C27.8113 10.7051 27 14.3619 27 18.0636C27 20.4833 27.3467 22.8904 28.0294 25.2117L31 35.3118V30.9998H33V35.3118L35.9706 25.2117C36.6533 22.8904 37 20.4833 37 18.0636C37 14.3619 36.1887 10.7051 34.6233 7.35067ZM28.9053 35.2779L27.4495 30.328L22.3555 33.7212L22.4362 37.5855L28.9053 35.2779ZM41.669 37.5855L35.1047 35.2439L36.5678 30.2694L41.7498 33.7212L41.669 37.5855Z" fill="#423FD9"/>
<path d="M7 39.5419C10.6395 40.7035 13.4934 43.6295 14.5534 47.3145L14.7789 48.0985L15.5922 48.0351C15.8915 48.0117 16.1942 47.9998 16.5 47.9998C19.5205 47.9998 22.267 49.163 24.3198 51.0676L25.6802 49.6015C23.2721 47.3672 20.0446 45.9998 16.5 45.9998C16.4106 45.9998 16.3214 46.0007 16.2324 46.0024C14.5526 41.2469 10.167 37.6177 5 36.9998V63.9998H59V41.9998C54.6482 42.8832 50.8606 46.127 49.125 50.0967C48.5919 50.0327 48.0496 49.9998 47.5 49.9998C42.6143 49.9998 38.3356 52.5959 35.9671 56.4791L37.6745 57.5205C39.6951 54.2078 43.3403 51.9998 47.5 51.9998C48.2105 51.9998 48.9051 52.0641 49.5786 52.187L50.4075 52.3382L50.6971 51.547C51.7905 48.5599 54.0881 46.1529 57 44.9134V53.1177C56.511 53.0401 56.01 52.9998 55.5 52.9998C50.8243 52.9998 46.9393 56.3767 46.1473 60.8245L48.1163 61.1751C48.7414 57.6649 51.8105 54.9998 55.5 54.9998C56.0145 54.9998 56.5159 55.0515 57 55.1497V61.9998H7V55.0162C9.89122 55.2065 12.3369 57.0354 13.4134 59.5863L14.3754 61.8659L15.2674 59.5581C15.8466 58.0598 17.3008 56.9998 19 56.9998C21.2092 56.9998 23 58.7907 23 60.9998H25C25 57.6861 22.3138 54.9998 19 54.9998C17.1363 54.9998 15.4723 55.8493 14.3723 57.1809C12.7525 54.7881 10.0696 53.1719 7 53.0127V39.5419Z" fill="#423FD9"/>
<path fill-rule="evenodd" clip-rule="evenodd" d="M35 45.9998C35 47.6567 33.6569 52.9998 32 52.9998C30.3431 52.9998 29 47.6567 29 45.9998C29 44.343 30.3431 42.9998 32 42.9998C33.6569 42.9998 35 44.343 35 45.9998ZM33 45.9998C33 46.5176 32.737 48.0298 32.2347 49.4573C32.1569 49.6783 32.0782 49.8831 32 50.0699C31.9218 49.8831 31.8431 49.6783 31.7653 49.4573C31.263 48.0298 31 46.5176 31 45.9998C31 45.4475 31.4477 44.9998 32 44.9998C32.5523 44.9998 33 45.4475 33 45.9998ZM31.3533 51.2131C31.3533 51.2131 31.3652 51.1976 31.3897 51.1782C31.3657 51.2053 31.3533 51.2131 31.3533 51.2131ZM32.6103 51.1782C32.6348 51.1976 32.6467 51.2131 32.6467 51.2131C32.6467 51.2131 32.6343 51.2053 32.6103 51.1782Z" fill="#423FD9"/>
</svg>
