<svg width="50" height="50" viewBox="0 0 50 50" fill="none" xmlns="http://www.w3.org/2000/svg">
<g clip-path="url(#clip0)">
<path d="M49.0234 1.00098H0.976559C0.437205 1.00098 0 1.43828 0 1.97754V12.0223C0 12.5616 0.437205 12.9989 0.976559 12.9989H49.0234C49.5628 12.9989 50 12.5616 50 12.0223V1.97754C50 1.43828 49.5628 1.00098 49.0234 1.00098ZM48.0469 11.0458H1.95312V2.95409H48.0469V11.0458Z" fill="#423FD9"/>
<path d="M6.93359 4.78564C6.92089 4.72304 6.90234 4.66152 6.87792 4.60302C6.85351 4.54433 6.82324 4.48681 6.78808 4.43408C6.75293 4.38135 6.71191 4.33056 6.66699 4.28564C6.62206 4.24072 6.57226 4.19971 6.51855 4.16455C6.46582 4.12939 6.40917 4.09912 6.3496 4.07471C6.29101 4.05029 6.22949 4.03174 6.16699 4.01904C6.04101 3.99365 5.91113 3.99365 5.78515 4.01904C5.72265 4.03174 5.66113 4.05029 5.60254 4.07471C5.54394 4.09912 5.4873 4.12939 5.43457 4.16455C5.38086 4.19971 5.33105 4.24072 5.28516 4.28564C5.24023 4.33056 5.2002 4.38125 5.16406 4.43408C5.12891 4.48681 5.09863 4.54443 5.07422 4.60302C5.04981 4.66162 5.03125 4.72304 5.01855 4.78564C5.00586 4.84902 5 4.91259 5 4.97705C5 5.04043 5.00586 5.104 5.01855 5.16748C5.03125 5.22998 5.04981 5.2915 5.07422 5.35C5.09863 5.40869 5.12891 5.46533 5.16406 5.51894C5.2002 5.57167 5.24023 5.62246 5.28516 5.66738C5.33105 5.7123 5.38086 5.75341 5.43457 5.78847C5.4873 5.82363 5.54394 5.8539 5.60254 5.87831C5.66211 5.90273 5.72363 5.92128 5.78515 5.93398C5.84863 5.94667 5.91308 5.95253 5.97656 5.95253C6.04004 5.95253 6.10449 5.94657 6.16699 5.93398C6.22949 5.92138 6.29101 5.90273 6.3496 5.87831C6.4082 5.8539 6.46582 5.82363 6.51855 5.78847C6.57226 5.75341 6.62206 5.7123 6.66699 5.66738C6.84863 5.48486 6.95312 5.23388 6.95312 4.97705C6.95312 4.91259 6.94628 4.84902 6.93359 4.78564Z" fill="#423FD9"/>
<path d="M10.873 4.78564C10.8603 4.72304 10.8418 4.66152 10.8174 4.60302C10.793 4.54433 10.7627 4.48681 10.7275 4.43408C10.6924 4.38135 10.6514 4.33056 10.6064 4.28564C10.5615 4.24072 10.5117 4.19971 10.458 4.16455C10.4053 4.12939 10.3486 4.09912 10.2891 4.07471C10.2305 4.05029 10.1689 4.03174 10.1064 4.01904C9.98047 3.99365 9.85058 3.99365 9.72461 4.01904C9.66211 4.03174 9.60058 4.05029 9.54199 4.07471C9.4834 4.09912 9.42676 4.12939 9.37402 4.16455C9.32031 4.19971 9.27051 4.24072 9.22461 4.28564C9.17969 4.33056 9.13965 4.38125 9.10352 4.43408C9.06836 4.48681 9.03809 4.54443 9.01367 4.60302C8.98926 4.66162 8.9707 4.72304 8.95801 4.78564C8.94531 4.84902 8.93945 4.91259 8.93945 4.97705C8.93945 5.04043 8.94531 5.104 8.95801 5.16748C8.9707 5.22998 8.98926 5.2915 9.01367 5.35C9.03809 5.40869 9.06836 5.46533 9.10352 5.51894C9.13965 5.57167 9.17969 5.62246 9.22461 5.66738C9.27051 5.7123 9.32031 5.75341 9.37402 5.78847C9.42676 5.82363 9.4834 5.8539 9.54199 5.87831C9.60156 5.90273 9.66308 5.92128 9.72461 5.93398C9.78808 5.94667 9.85254 5.95253 9.91601 5.95253C9.97949 5.95253 10.0439 5.94657 10.1064 5.93398C10.1689 5.92138 10.2305 5.90273 10.2891 5.87831C10.3477 5.8539 10.4053 5.82363 10.458 5.78847C10.5117 5.75341 10.5615 5.7123 10.6064 5.66738C10.7881 5.48486 10.8926 5.23388 10.8926 4.97705C10.8926 4.91259 10.8857 4.84902 10.873 4.78564Z" fill="#423FD9"/>
<path d="M14.873 4.78564C14.8603 4.72304 14.8418 4.66152 14.8174 4.60302C14.793 4.54433 14.7627 4.48681 14.7275 4.43408C14.6924 4.38135 14.6514 4.33056 14.6064 4.28564C14.5615 4.24072 14.5117 4.19971 14.458 4.16455C14.4053 4.12939 14.3486 4.09912 14.2891 4.07471C14.2305 4.05029 14.1689 4.03174 14.1064 4.01904C13.9805 3.99365 13.8506 3.99365 13.7246 4.01904C13.6621 4.03174 13.6006 4.05029 13.542 4.07471C13.4834 4.09912 13.4268 4.12939 13.374 4.16455C13.3203 4.19971 13.2705 4.24072 13.2246 4.28564C13.1797 4.33056 13.1396 4.38125 13.1035 4.43408C13.0684 4.48681 13.0381 4.54443 13.0137 4.60302C12.9893 4.66162 12.9707 4.72304 12.958 4.78564C12.9453 4.84902 12.9395 4.91259 12.9395 4.97705C12.9395 5.04043 12.9453 5.104 12.958 5.16748C12.9707 5.22998 12.9893 5.2915 13.0137 5.35C13.0381 5.40869 13.0684 5.46533 13.1035 5.51894C13.1396 5.57167 13.1797 5.62246 13.2246 5.66738C13.2705 5.7123 13.3203 5.75341 13.374 5.78847C13.4268 5.82363 13.4834 5.8539 13.542 5.87831C13.6016 5.90273 13.6631 5.92128 13.7246 5.93398C13.7881 5.94667 13.8525 5.95253 13.916 5.95253C13.9795 5.95253 14.0439 5.94657 14.1064 5.93398C14.1689 5.92138 14.2305 5.90273 14.2891 5.87831C14.3477 5.8539 14.4053 5.82363 14.458 5.78847C14.5117 5.75341 14.5615 5.7123 14.6064 5.66738C14.7881 5.48486 14.8926 5.23388 14.8926 4.97705C14.8926 4.91259 14.8857 4.84902 14.873 4.78564Z" fill="#423FD9"/>
<path d="M45.2727 4H24.9766C24.4372 4 24 4.4373 24 4.97656C24 5.51582 24.4372 5.95312 24.9766 5.95312H45.2727C45.812 5.95312 46.2492 5.51582 46.2492 4.97656C46.2492 4.4373 45.812 4 45.2727 4Z" fill="#423FD9"/>
<path d="M30.744 14.3911H1.09179C0.55244 14.3911 0.115234 14.8284 0.115234 15.3677V34.6253C0.115234 35.1647 0.55244 35.6019 1.09179 35.6019H30.744C31.2834 35.6019 31.7206 35.1646 31.7206 34.6253V15.3677C31.7206 14.8284 31.2834 14.3911 30.744 14.3911ZM11.895 33.6486H3.60585L9.18834 27.1852L13.2313 31.8668L11.895 33.6486ZM14.3364 33.6486L16.1573 31.2208H20.8925C21.4319 31.2208 21.8691 30.7835 21.8691 30.2443C21.8691 29.705 21.4319 29.2677 20.8925 29.2677H17.6222L18.3074 28.3542H24.4391L28.4102 33.6486H14.3364ZM19.7721 26.4011L21.3732 24.2665L22.9742 26.4011H19.7721ZM29.7675 32.2031L22.1544 22.0528C21.9699 21.8069 21.6805 21.6622 21.3732 21.6622C21.0658 21.6622 20.7764 21.8069 20.5919 22.0528L14.4308 30.2675L9.9275 25.0527C9.74205 24.8379 9.47223 24.7144 9.18844 24.7144C8.90465 24.7144 8.63493 24.8379 8.44938 25.0527L2.06835 32.4406V16.3442H29.7675V32.2031Z" fill="#423FD9"/>
<path d="M13.4417 17.4653C11.538 17.4653 9.98926 19.0141 9.98926 20.9178C9.98926 22.8215 11.5381 24.3702 13.4417 24.3702C15.3454 24.3702 16.8941 22.8215 16.8941 20.9178C16.8941 19.0141 15.3454 17.4653 13.4417 17.4653ZM13.4417 22.4172C12.6149 22.4172 11.9424 21.7446 11.9424 20.9179C11.9424 20.0911 12.615 19.4185 13.4417 19.4185C14.2683 19.4185 14.941 20.0911 14.941 20.9179C14.941 21.7446 14.2684 22.4172 13.4417 22.4172Z" fill="#423FD9"/>
<path d="M49.0234 14.3911H34.0146C33.4753 14.3911 33.0381 14.8284 33.0381 15.3677V34.6253C33.0381 35.1646 33.4753 35.6019 34.0146 35.6019H49.0234C49.5627 35.6019 49.9999 35.1646 49.9999 34.6253V15.3677C49.9999 14.8284 49.5627 14.3911 49.0234 14.3911ZM48.0468 33.6487H34.9912V16.3442H48.0468V33.6487Z" fill="#423FD9"/>
<path d="M45.7728 17.9526H37.2646C36.7253 17.9526 36.2881 18.3899 36.2881 18.9292C36.2881 19.4685 36.7253 19.9058 37.2646 19.9058H45.7728C46.3122 19.9058 46.7494 19.4685 46.7494 18.9292C46.7494 18.3899 46.3122 17.9526 45.7728 17.9526Z" fill="#423FD9"/>
<path d="M45.7728 21.8721H37.2646C36.7253 21.8721 36.2881 22.3094 36.2881 22.8486C36.2881 23.3879 36.7253 23.8252 37.2646 23.8252H45.7728C46.3122 23.8252 46.7494 23.3879 46.7494 22.8486C46.7494 22.3094 46.3122 21.8721 45.7728 21.8721Z" fill="#423FD9"/>
<path d="M45.7728 25.791H37.2646C36.7253 25.791 36.2881 26.2283 36.2881 26.7676C36.2881 27.3068 36.7253 27.7441 37.2646 27.7441H45.7728C46.3122 27.7441 46.7494 27.3068 46.7494 26.7676C46.7494 26.2283 46.3122 25.791 45.7728 25.791Z" fill="#423FD9"/>
<path d="M38.2227 30.4959C38.21 30.4333 38.1914 30.3717 38.167 30.3132C38.1426 30.2546 38.1123 30.1979 38.0771 30.1443C38.041 30.0916 38.001 30.0408 37.9551 29.9959C37.7285 29.7693 37.3916 29.6647 37.0742 29.7293C37.0117 29.742 36.9502 29.7605 36.8916 29.7849C36.833 29.8093 36.7764 29.8396 36.7227 29.8748C36.6699 29.9099 36.6191 29.9509 36.5742 29.9959C36.5293 30.0408 36.4883 30.0915 36.4531 30.1443C36.418 30.198 36.3877 30.2547 36.3633 30.3132C36.3389 30.3718 36.3203 30.4333 36.3076 30.4959C36.2949 30.5592 36.2881 30.6228 36.2881 30.6862C36.2881 30.7507 36.2949 30.8142 36.3076 30.8776C36.3203 30.9402 36.3389 31.0017 36.3633 31.0603C36.3877 31.119 36.418 31.1756 36.4531 31.2293C36.4883 31.282 36.5293 31.3328 36.5742 31.3777C36.6191 31.4226 36.6699 31.4636 36.7227 31.4988C36.7764 31.5339 36.833 31.5642 36.8916 31.5886C36.9502 31.613 37.0117 31.6316 37.0742 31.6443C37.1377 31.657 37.2012 31.6638 37.2656 31.6638C37.5225 31.6638 37.7734 31.5593 37.9551 31.3776C38 31.3327 38.041 31.282 38.0771 31.2292C38.1123 31.1755 38.1426 31.1188 38.167 31.0602C38.1914 31.0016 38.21 30.9402 38.2227 30.8776C38.2353 30.8142 38.2412 30.7507 38.2412 30.6862C38.2412 30.6228 38.2353 30.5592 38.2227 30.4959Z" fill="#423FD9"/>
<path d="M45.7728 29.7104H40.9668C40.4274 29.7104 39.9902 30.1478 39.9902 30.687C39.9902 31.2263 40.4274 31.6636 40.9668 31.6636H45.7728C46.3122 31.6636 46.7494 31.2263 46.7494 30.687C46.7494 30.1478 46.3122 29.7104 45.7728 29.7104Z" fill="#423FD9"/>
</g>
<defs>
<clipPath id="clip0">
<rect width="50" height="50" fill="white"/>
</clipPath>
</defs>
</svg>
