<svg width="64" height="64" viewBox="0 0 64 64" fill="none" xmlns="http://www.w3.org/2000/svg">
<path d="M26 27H20V25H26V27Z" fill="#423FD9"/>
<path d="M29 27H35V25H29V27Z" fill="#423FD9"/>
<path d="M35 37H20V35H35V37Z" fill="#423FD9"/>
<path d="M44 30L29 30V32L44 32V30Z" fill="#423FD9"/>
<path d="M44 27H38V25H44V27Z" fill="#423FD9"/>
<path d="M38 37H44V35H38V37Z" fill="#423FD9"/>
<path d="M20 30H26V32H20V30Z" fill="#423FD9"/>
<path d="M13 20H19V22H15V39H19V41H13V20Z" fill="#423FD9"/>
<path d="M45 41H51V20L45 20V22L49 22V39H45V41Z" fill="#423FD9"/>
<path d="M11 12C11 12.5523 10.5523 13 10 13C9.44772 13 9 12.5523 9 12C9 11.4477 9.44772 11 10 11C10.5523 11 11 11.4477 11 12Z" fill="#423FD9"/>
<path d="M13 13C13.5523 13 14 12.5523 14 12C14 11.4477 13.5523 11 13 11C12.4477 11 12 11.4477 12 12C12 12.5523 12.4477 13 13 13Z" fill="#423FD9"/>
<path d="M17 12C17 12.5523 16.5523 13 16 13C15.4477 13 15 12.5523 15 12C15 11.4477 15.4477 11 16 11C16.5523 11 17 11.4477 17 12Z" fill="#423FD9"/>
<path fill-rule="evenodd" clip-rule="evenodd" d="M20 27H26V25H20V27ZM35 27H29V25H35V27ZM20 37H35V35H20V37ZM29 30L44 30V32L29 32V30ZM38 27H44V25H38V27ZM44 37H38V35H44V37ZM26 30H20V32H26V30ZM19 20H13V41H19V39H15V22H19V20ZM51 41H45V39H49V22L45 22V20L51 20V41Z" fill="#423FD9"/>
<path fill-rule="evenodd" clip-rule="evenodd" d="M52.9 49H58V8H6V49H43.1H45H51H52.9ZM56 10H8V14H56V10ZM56 16V47H52.9H43.1H8V16H56Z" fill="#423FD9"/>
<path fill-rule="evenodd" clip-rule="evenodd" d="M11 12C11 12.5523 10.5523 13 10 13C9.44772 13 9 12.5523 9 12C9 11.4477 9.44772 11 10 11C10.5523 11 11 11.4477 11 12ZM13 13C13.5523 13 14 12.5523 14 12C14 11.4477 13.5523 11 13 11C12.4477 11 12 11.4477 12 12C12 12.5523 12.4477 13 13 13ZM17 12C17 12.5523 16.5523 13 16 13C15.4477 13 15 12.5523 15 12C15 11.4477 15.4477 11 16 11C16.5523 11 17 11.4477 17 12Z" fill="#423FD9"/>
</svg>
