<svg width="108" height="43" viewBox="0 0 108 43" fill="none" xmlns="http://www.w3.org/2000/svg">
<path d="M12.3455 36.4377L4.3704 22.6873C4.16101 22.3263 4.05078 21.9168 4.05078 21.5C4.05078 21.0832 4.16101 20.6737 4.3704 20.3127L12.3455 6.5623C12.5546 6.2018 12.8553 5.90236 13.2173 5.69397C13.5793 5.48558 13.99 5.37558 14.4082 5.375H30.367C30.7838 5.37708 31.1927 5.48779 31.5531 5.6961C31.9135 5.90441 32.2128 6.20306 32.4211 6.5623L40.3962 20.3127C40.6056 20.6737 40.7159 21.0832 40.7159 21.5C40.7159 21.9168 40.6056 22.3263 40.3962 22.6873L32.4211 36.4377C32.212 36.7982 31.9114 37.0976 31.5494 37.306C31.1873 37.5144 30.7766 37.6244 30.3584 37.625H14.4039C13.9864 37.6237 13.5766 37.5133 13.2154 37.305C12.8542 37.0966 12.5543 36.7976 12.3455 36.4377Z" fill="#4386FA"/>
<path opacity="0.1" d="M27.3648 17.0723C27.3648 17.0723 29.5825 22.3658 26.5595 25.3662C23.5366 28.3666 18.0332 26.4464 18.0332 26.4464C18.0332 26.4464 26.215 34.6975 29.2294 37.6207H30.3662C30.7844 37.6201 31.1951 37.5101 31.5571 37.3017C31.9192 37.0934 32.2198 36.7939 32.4289 36.4334L37.7083 27.3336L27.3648 17.0723Z" fill="black"/>
<path d="M29.9832 27.9037L27.5329 25.4648C27.5064 25.4376 27.4759 25.4144 27.4425 25.3962C28.4793 24.0608 28.9656 22.3822 28.8022 20.7024C28.6389 19.0226 27.8382 17.4681 26.5633 16.3555C25.2884 15.2429 23.6353 14.656 21.9408 14.7144C20.2463 14.7729 18.638 15.4722 17.4435 16.67C16.2491 17.8678 15.5584 19.4738 15.5122 21.1608C15.4661 22.8478 16.0679 24.4889 17.1951 25.7496C18.3223 27.0103 19.89 27.7958 21.5788 27.9459C23.2675 28.0961 24.9503 27.5996 26.2841 26.5578C26.3015 26.5892 26.3232 26.6181 26.3487 26.6435L28.799 29.0824C28.8346 29.1179 28.8768 29.1461 28.9234 29.1653C28.9699 29.1845 29.0199 29.1944 29.0703 29.1944C29.1207 29.1944 29.1705 29.1845 29.2171 29.1653C29.2637 29.1461 29.3059 29.1179 29.3415 29.0824L29.9832 28.4437C30.0188 28.4083 30.0471 28.3662 30.0665 28.3199C30.0858 28.2735 30.0957 28.2239 30.0957 28.1737C30.0957 28.1235 30.0858 28.0738 30.0665 28.0275C30.0471 27.9812 30.0188 27.9391 29.9832 27.9037ZM22.176 26.3263C21.1846 26.3263 20.2155 26.0337 19.3912 25.4855C18.5669 24.9372 17.9245 24.158 17.5451 23.2464C17.1657 22.3347 17.0665 21.3315 17.2599 20.3637C17.4533 19.3959 17.9307 18.5069 18.6317 17.8091C19.3327 17.1114 20.2258 16.6362 21.1981 16.4437C22.1704 16.2512 23.1783 16.35 24.0942 16.7276C25.0101 17.1052 25.7929 17.7447 26.3437 18.5652C26.8945 19.3857 27.1884 20.3503 27.1884 21.3371C27.1884 21.9923 27.0588 22.641 26.8069 23.2464C26.555 23.8517 26.1858 24.4017 25.7203 24.865C25.2549 25.3283 24.7023 25.6958 24.0942 25.9465C23.486 26.1972 22.8342 26.3263 22.176 26.3263Z" fill="white"/>
<path d="M18.9727 21.0715V23.1332C19.2918 23.6939 19.7537 24.161 20.3119 24.4876V21.0586L18.9727 21.0715Z" fill="white"/>
<path d="M18.9727 21.0715V23.1332C19.2918 23.6939 19.7537 24.161 20.3119 24.4876V21.0586L18.9727 21.0715Z" fill="white"/>
<path d="M21.4785 19.3608V24.933C21.9212 25.0142 22.3751 25.0142 22.8178 24.933V19.3608H21.4785Z" fill="white"/>
<path d="M21.4785 19.3608V24.933C21.9212 25.0142 22.3751 25.0142 22.8178 24.933V19.3608H21.4785Z" fill="white"/>
<path d="M25.3549 23.1288V21.9072H24.0156V24.479C24.5732 24.1536 25.0351 23.688 25.3549 23.1288Z" fill="white"/>
<path d="M25.3549 23.1288V21.9072H24.0156V24.479C24.5732 24.1536 25.0351 23.688 25.3549 23.1288Z" fill="white"/>
<path d="M59.7893 12.5291H53.7416V14.3173H58.0414C57.8274 16.8285 55.7294 17.8936 53.7513 17.8936C53.1295 17.8979 52.5129 17.7799 51.937 17.5465C51.3611 17.313 50.8372 16.9688 50.3952 16.5333C49.9533 16.0979 49.602 15.58 49.3616 15.0092C49.1212 14.4383 48.9963 13.8259 48.9942 13.207V13.1263C48.9834 12.4996 49.0983 11.877 49.3322 11.2951C49.5662 10.7131 49.9143 10.1835 50.3564 9.73714C50.7985 9.29079 51.3256 8.9367 51.9069 8.69562C52.4881 8.45453 53.1119 8.33128 53.7416 8.33309C54.9524 8.33461 56.1151 8.80452 56.9843 9.64355L58.2425 8.35246C57.6378 7.77095 56.9239 7.31372 56.1416 7.00691C55.3593 6.70009 54.5239 6.54969 53.6832 6.5643C52.7986 6.5437 51.9189 6.70012 51.0961 7.0243C50.2734 7.34847 49.5245 7.8338 48.8937 8.45149C48.263 9.06917 47.7633 9.80665 47.4243 10.6202C47.0852 11.4337 46.9138 12.3067 46.9201 13.1874C46.9264 14.0681 47.1103 14.9386 47.4609 15.7473C47.8116 16.5559 48.3218 17.2862 48.9613 17.8949C49.6008 18.5036 50.3566 18.9783 51.1839 19.2907C52.0111 19.6032 52.893 19.7472 53.7772 19.714C57.3086 19.7076 59.9028 17.2965 59.9028 13.7298C59.9105 13.3311 59.8735 12.9327 59.7925 12.542L59.7893 12.5291Z" fill="#767677"/>
<path d="M64.7668 11.2382C64.2147 11.227 63.6658 11.3245 63.1515 11.525C62.6373 11.7255 62.1679 12.025 61.7703 12.4064C61.3726 12.7879 61.0545 13.2437 60.8342 13.7478C60.6139 14.2518 60.4957 14.7942 60.4864 15.3438V15.4342C60.48 16.5603 60.9233 17.6428 61.7187 18.4436C62.5141 19.2444 63.5966 19.6979 64.7279 19.7043C65.8592 19.7107 66.9468 19.2696 67.7514 18.4779C68.5559 17.6861 69.0115 16.6087 69.018 15.4826C69.018 12.681 66.8097 11.2382 64.7668 11.2382V11.2382ZM64.7895 12.9037C66.012 12.9037 67.1697 13.872 67.1697 15.4858C67.1697 17.0997 66.0153 18.0487 64.783 18.0487C63.4276 18.0487 62.3575 16.9674 62.3575 15.4665C62.3575 13.9656 63.4113 12.9101 64.7863 12.9101L64.7895 12.9037Z" fill="#767677"/>
<path d="M74.0409 11.2379C73.4899 11.2285 72.9423 11.3273 72.4296 11.5285C71.9169 11.7298 71.4491 12.0296 71.0528 12.4108C70.6565 12.7921 70.3395 13.2473 70.12 13.7505C69.9005 14.2538 69.7828 14.7951 69.7735 15.3436V15.434C69.7675 16.5598 70.211 17.6419 71.0064 18.4423C71.8017 19.2428 72.8839 19.6961 74.015 19.7025C75.1461 19.7089 76.2334 19.2679 77.0379 18.4766C77.8424 17.6852 78.2982 16.6082 78.3051 15.4824C78.3051 12.6839 76.0936 11.2411 74.0442 11.2411L74.0409 11.2379ZM74.0669 12.9034C75.2894 12.9034 76.447 13.8717 76.447 15.4856C76.447 17.0995 75.2926 18.0484 74.0604 18.0484C72.7049 18.0484 71.6348 16.9671 71.6348 15.4662C71.6348 13.9653 72.6887 12.9099 74.0636 12.9099L74.0669 12.9034Z" fill="#767677"/>
<path d="M83.1469 11.2383C80.877 11.2383 79.0708 13.2265 79.0708 15.4633C79.054 16.5541 79.4672 17.6081 80.2219 18.3991C80.9767 19.1902 82.0127 19.6553 83.108 19.6949C83.5505 19.718 83.9921 19.6364 84.3968 19.4569C84.8015 19.2774 85.1577 19.005 85.4363 18.662V19.498C85.4363 20.9569 84.5478 21.8349 83.2053 21.8349C82.7336 21.8289 82.2746 21.6824 81.8873 21.4143C81.5001 21.1463 81.2024 20.7688 81.0327 20.3308L79.4113 21.0021C79.9788 22.2125 81.1429 23.5036 83.2183 23.5036C85.4882 23.5036 87.223 22.0802 87.223 19.0978V11.4965H85.4363V12.2066C85.1464 11.8917 84.792 11.6424 84.3971 11.4754C84.0022 11.3083 83.5759 11.2275 83.1469 11.2383ZM83.3123 12.8876C84.431 12.8876 85.5822 13.8398 85.5822 15.4698C85.5822 17.0998 84.4343 18.0165 83.2864 18.0165C82.0703 18.0165 80.9386 17.0482 80.9386 15.473C80.9386 13.8592 82.1157 12.8909 83.3155 12.8909L83.3123 12.8876Z" fill="#767677"/>
<path d="M95.1352 11.2383C92.982 11.2383 91.1725 12.9425 91.1725 15.4601C91.1527 16.0142 91.2462 16.5665 91.4475 17.0835C91.6487 17.6004 91.9535 18.0713 92.3432 18.4674C92.733 18.8634 93.1996 19.1765 93.7146 19.3875C94.2297 19.5986 94.7825 19.7031 95.3394 19.6949C96.0409 19.6981 96.7325 19.5307 97.3542 19.2073C97.9759 18.8838 98.5087 18.4141 98.9065 17.839L97.4375 16.8707C97.2256 17.2289 96.9223 17.525 96.5584 17.729C96.1946 17.9331 95.783 18.0378 95.3654 18.0326C94.9284 18.0499 94.4962 17.936 94.125 17.7058C93.7538 17.4755 93.4606 17.1396 93.2836 16.7415L98.9778 14.3918L98.6827 13.7043C98.4086 12.9874 97.9245 12.3691 97.2931 11.9294C96.6617 11.4897 95.9121 11.2489 95.1416 11.2383H95.1352ZM95.2097 12.8521C95.531 12.8389 95.8494 12.9168 96.1279 13.0768C96.4063 13.2369 96.6333 13.4724 96.7825 13.7559L92.9787 15.3439C92.8134 14.1174 93.9807 12.8586 95.2097 12.8586V12.8521Z" fill="#767677"/>
<path d="M88.459 19.4431H90.33V6.9873H88.459V19.4431Z" fill="#767677"/>
<path d="M47.2949 33.7885V25.6223H50.2653C50.8861 25.613 51.4862 25.8445 51.9385 26.2679C52.1652 26.4652 52.3454 26.7098 52.4664 26.9843C52.5875 27.2587 52.6464 27.5563 52.639 27.8559C52.6582 28.2201 52.5609 28.581 52.361 28.8867C52.1612 29.1923 51.869 29.427 51.5267 29.5569V29.6021C51.9303 29.7275 52.2835 29.9773 52.5352 30.3155C52.7864 30.6496 52.9198 31.0569 52.9146 31.4742C52.9227 31.7877 52.8619 32.0992 52.7364 32.3869C52.611 32.6746 52.4239 32.9315 52.1882 33.1397C51.711 33.5754 51.0811 33.8072 50.4339 33.7853H47.2982L47.2949 33.7885ZM48.3488 26.6229V29.1212H50.262C50.4364 29.1255 50.6097 29.0942 50.7715 29.0292C50.9332 28.9643 51.0799 28.867 51.2024 28.7436C51.436 28.5217 51.5717 28.2166 51.5796 27.8953C51.5875 27.574 51.467 27.2626 51.2446 27.0296L51.2121 26.9973C51.0961 26.8752 50.9557 26.7784 50.7999 26.7134C50.6441 26.6484 50.4763 26.6165 50.3074 26.6197H48.3618L48.3488 26.6229ZM48.3488 30.1056V32.7847H50.4696C50.8276 32.7881 51.1725 32.65 51.4284 32.4007C51.6843 32.1514 51.8305 31.8113 51.8348 31.4548C51.835 31.2798 51.7994 31.1066 51.7303 30.9457C51.6612 30.7848 51.5599 30.6396 51.4327 30.5188C51.3009 30.3871 51.1434 30.2837 50.97 30.2149C50.7966 30.146 50.6108 30.1133 50.4242 30.1186H48.3456L48.3488 30.1056Z" fill="#767677"/>
<path d="M55.2879 26.2677C55.287 26.4386 55.2267 26.6039 55.1173 26.7355C55.0078 26.8671 54.8559 26.9569 54.6874 26.9895C54.5189 27.0222 54.3442 26.9958 54.1931 26.9148C54.042 26.8337 53.9238 26.7031 53.8585 26.5451C53.7932 26.387 53.785 26.2114 53.8352 26.048C53.8854 25.8846 53.9909 25.7435 54.1337 25.6488C54.2766 25.5541 54.448 25.5116 54.6188 25.5285C54.7897 25.5455 54.9493 25.6208 55.0706 25.7416C55.141 25.8099 55.1966 25.8918 55.234 25.9823C55.2713 26.0728 55.2897 26.1699 55.2879 26.2677ZM55.0706 28.2044V33.7948H54.0167V28.2044H55.0706Z" fill="#767677"/>
<path d="M58.8781 36.4348C58.5799 36.4369 58.2829 36.3966 57.9961 36.3153C57.7311 36.2443 57.4777 36.1356 57.2438 35.9926C57.0218 35.85 56.8246 35.6722 56.6601 35.4664C56.5015 35.2739 56.3776 35.0555 56.2937 34.8209L57.2924 34.4077C57.4013 34.7272 57.6105 35.0033 57.8891 35.1953C58.1745 35.3926 58.5145 35.4964 58.8619 35.4923C59.1095 35.5066 59.3573 35.4682 59.5888 35.3797C59.8203 35.2913 60.0302 35.1546 60.2044 34.979C60.5436 34.588 60.7169 34.0811 60.6876 33.5653V33.0134H60.6422C60.4394 33.3132 60.1609 33.5548 59.8348 33.7138C59.492 33.886 59.1129 33.9745 58.729 33.972C58.37 33.9739 58.0149 33.8984 57.688 33.7508C57.3611 33.6031 57.0702 33.3868 56.8352 33.1167C56.3164 32.5338 56.0374 31.7778 56.0537 30.9993C56.0339 30.2227 56.3122 29.4678 56.832 28.8883C57.065 28.615 57.3552 28.3956 57.6823 28.2457C58.0095 28.0957 58.3656 28.0187 58.7257 28.0201C59.1097 28.0175 59.4888 28.106 59.8315 28.2783C60.1577 28.4373 60.4361 28.6788 60.639 28.9787H60.6844V28.2041H61.6928V33.5556C61.7146 33.9409 61.6578 34.3266 61.5257 34.6894C61.3936 35.0522 61.189 35.3846 60.9243 35.6666C60.6524 35.9246 60.3312 36.1256 59.9796 36.2576C59.6281 36.3895 59.2535 36.4498 58.8781 36.4348ZM58.9138 33.0101C59.154 33.0166 59.3927 32.9699 59.6125 32.8733C59.8324 32.7768 60.0279 32.6328 60.185 32.4517C60.5176 32.0401 60.699 31.5276 60.699 30.9993C60.699 30.4709 60.5176 29.9585 60.185 29.5468C60.0291 29.3634 59.8342 29.217 59.6143 29.1181C59.3943 29.0193 59.155 28.9706 58.9138 28.9755C58.6728 28.9721 58.434 29.0216 58.2144 29.1203C57.9947 29.219 57.7995 29.3646 57.6427 29.5468C57.29 29.9485 57.1055 30.4695 57.1271 31.0025C57.1049 31.5337 57.2896 32.0529 57.6427 32.4517C57.7998 32.6333 57.9951 32.7783 58.2148 32.8765C58.4344 32.9746 58.6731 33.0236 58.9138 33.0198V33.0101Z" fill="#767677"/>
<path d="M72.6471 33.8013L71.817 34.3371L71.2527 33.5044C70.6405 33.8093 69.9658 33.9695 69.2812 33.9724C68.7219 33.9845 68.1663 33.8808 67.6494 33.668C67.1325 33.4552 66.6657 33.1379 66.2784 32.7362C65.4977 31.9165 65.0625 30.83 65.0625 29.7005C65.0625 28.571 65.4977 27.4845 66.2784 26.6648C66.6729 26.272 67.1412 25.9604 67.6567 25.7478C68.1723 25.5352 68.7248 25.4258 69.2828 25.4258C69.8408 25.4258 70.3933 25.5352 70.9088 25.7478C71.4243 25.9604 71.8927 26.272 72.2872 26.6648C72.6855 27.0604 72.9988 27.5325 73.2078 28.0525C73.4169 28.5724 73.5174 29.1293 73.5032 29.6892C73.5072 30.3048 73.3801 30.9142 73.1303 31.4774C72.8881 32.0324 72.5299 32.5297 72.0796 32.9363L72.6471 33.8013ZM69.2877 32.9686C69.767 32.9685 70.2398 32.858 70.6691 32.6458L69.6962 31.2062L70.5264 30.6479L71.4765 32.0745C71.7911 31.7664 72.0373 31.3961 72.1992 30.9875C72.3612 30.5789 72.4354 30.141 72.4169 29.7021C72.4327 29.272 72.3607 28.8431 72.2052 28.4414C72.0497 28.0397 71.8139 27.6736 71.5122 27.3653C71.2254 27.0643 70.8784 26.8266 70.4935 26.6676C70.1086 26.5086 69.6945 26.4318 69.2779 26.4421C68.8595 26.4322 68.4435 26.5091 68.0566 26.668C67.6697 26.827 67.3203 27.0644 67.0307 27.3653C66.4552 28.0089 66.1373 28.8405 66.1373 29.7021C66.1373 30.5638 66.4552 31.3954 67.0307 32.039C67.3208 32.3422 67.6716 32.5816 68.0603 32.7417C68.449 32.9018 68.8671 32.9791 69.2877 32.9686Z" fill="#767677"/>
<path d="M79.5023 33.7881H78.4938V33.0134H78.4484C78.2699 33.3057 78.0141 33.5435 77.709 33.7009C77.3925 33.8794 77.0351 33.9739 76.6713 33.9753C76.3799 33.994 76.0878 33.9513 75.814 33.8501C75.5402 33.7489 75.2909 33.5914 75.0824 33.3878C74.6862 32.9236 74.4883 32.3235 74.5311 31.7159V28.2041H75.585V31.6481C75.6088 32.5648 76.0693 33.0231 76.9664 33.0231C77.1691 33.0241 77.3694 32.9786 77.5516 32.8902C77.7338 32.8017 77.8931 32.6727 78.0171 32.5131C78.3014 32.1717 78.4522 31.7396 78.4419 31.2963V28.2041H79.4958V33.7881H79.5023Z" fill="#767677"/>
<path d="M83.2506 33.9722C82.8698 33.9832 82.4911 33.9134 82.1394 33.7676C81.7878 33.6218 81.4713 33.4033 81.2109 33.1266C80.6709 32.5489 80.3829 31.7817 80.41 30.993C80.3861 30.2098 80.6673 29.4477 81.1947 28.866C81.4525 28.601 81.7605 28.3894 82.1009 28.2436C82.4413 28.0977 82.8073 28.0205 83.1779 28.0163C83.5485 28.0121 83.9162 28.081 84.2598 28.2191C84.6035 28.3572 84.9162 28.5617 85.18 28.8208C85.7109 29.4503 85.9759 30.2602 85.9194 31.0802V31.1932H81.4865C81.4837 31.4394 81.5311 31.6836 81.6259 31.9111C81.7207 32.1385 81.8608 32.3445 82.0378 32.5165C82.2397 32.7128 82.4857 32.8585 82.7554 32.9413C83.0252 33.0242 83.3108 33.0419 83.5888 32.993C83.8667 32.9441 84.129 32.83 84.3538 32.6601C84.5787 32.4903 84.7596 32.2695 84.8817 32.0162L85.8221 32.4713C85.5827 32.9298 85.2201 33.3131 84.7747 33.5784C84.3125 33.8462 83.7853 33.9824 83.2506 33.9722ZM81.5644 30.3217H84.7844C84.7735 30.1369 84.7258 29.956 84.6439 29.7898C84.5621 29.6235 84.4478 29.4752 84.3077 29.3534C83.9857 29.087 83.5747 28.951 83.1566 28.9725C82.7816 28.965 82.417 29.0948 82.1319 29.3372C81.8385 29.5925 81.6388 29.9377 81.5644 30.3184V30.3217Z" fill="#767677"/>
<path d="M87.9289 33.788H86.875V28.204H87.8835V29.1175H87.9289C88.0529 28.7991 88.2815 28.5318 88.5774 28.359C88.8642 28.1613 89.2017 28.0493 89.5503 28.0362C89.8164 28.0299 90.0811 28.0771 90.3285 28.175L90.0042 29.1917C89.8043 29.1281 89.5945 29.1008 89.3849 29.111C89.1873 29.1117 88.9921 29.155 88.813 29.238C88.6338 29.3211 88.4749 29.4418 88.3472 29.592C88.0615 29.894 87.9035 30.2939 87.9062 30.7088V33.7912L87.9289 33.788Z" fill="#767677"/>
<path d="M96.1718 28.2041L92.6599 36.2734H91.5703L92.8674 33.4556L90.5586 28.2041H91.7065L93.3798 32.2226H93.4025L95.0238 28.2041H96.162H96.1718Z" fill="#767677"/>
</svg>
