<svg width="714" height="602" viewBox="0 0 714 602" fill="none" xmlns="http://www.w3.org/2000/svg">
<path d="M308.2 601.475C368.664 601.475 417.68 586.516 417.68 568.063C417.68 549.609 368.664 534.65 308.2 534.65C247.736 534.65 198.72 549.609 198.72 568.063C198.72 586.516 247.736 601.475 308.2 601.475Z" fill="#423FD9"/>
<path opacity="0.5" d="M308.2 601.475C368.664 601.475 417.68 586.516 417.68 568.063C417.68 549.609 368.664 534.65 308.2 534.65C247.736 534.65 198.72 549.609 198.72 568.063C198.72 586.516 247.736 601.475 308.2 601.475Z" fill="white"/>
<path d="M238.55 551.322C238.55 551.322 227.132 564.464 225.707 569.142C224.283 573.82 228.557 577.127 236.656 576.664C244.754 576.201 250.454 564.464 252.834 561.637C255.215 558.809 260.932 555.537 261.871 548.974C262.809 542.412 241.417 545.684 238.55 551.322Z" fill="white" stroke="#263238" stroke-linecap="round" stroke-linejoin="round"/>
<path d="M261.873 548.974C261.976 548.378 261.846 547.766 261.508 547.261C259.405 552.967 255.078 558.416 252.819 559.255C250.56 560.095 246.146 568.182 239.49 572.398C234.937 575.276 228.855 572.929 225.432 571.13C225.658 574.711 229.759 577.024 236.64 576.63C244.721 576.15 250.438 564.43 252.819 561.603C255.2 558.775 260.934 555.537 261.873 548.974Z" fill="#263238" stroke="#263238" stroke-linecap="round" stroke-linejoin="round"/>
<path d="M375.872 551.322C375.872 551.322 387.306 564.464 388.731 569.142C390.156 573.82 385.864 577.127 377.783 576.664C369.702 576.201 363.881 564.464 361.587 561.637C359.293 558.809 353.506 555.537 352.551 548.974C351.595 542.412 373.022 545.684 375.872 551.322Z" fill="white" stroke="#263238" stroke-linecap="round" stroke-linejoin="round"/>
<path d="M352.55 548.974C352.443 548.376 352.58 547.76 352.933 547.261C355.018 552.967 359.363 558.416 361.622 559.255C363.881 560.095 368.295 568.182 374.95 572.398C379.503 575.276 385.586 572.929 389.009 571.13C388.8 574.711 384.682 577.024 377.818 576.63C369.72 576.15 363.915 564.43 361.622 561.603C359.328 558.775 353.506 555.537 352.55 548.974Z" fill="#263238" stroke="#263238" stroke-linecap="round" stroke-linejoin="round"/>
<path d="M282.917 313.508C282.917 313.508 277.113 351.856 276.627 353.261C276.14 354.666 259.023 440.083 255.686 457.44C252.35 474.798 247.606 492.172 247.119 502.505C246.632 512.837 243.313 539.105 243.313 539.105C241.835 541.266 240.709 543.642 239.977 546.147C239.672 547.902 239.195 549.624 238.552 551.287C241.833 552.144 245.172 552.769 248.544 553.155C253.306 553.635 258.554 551.287 260.448 551.287C262.342 551.287 266.165 537.203 267.59 531.103C269.015 525.003 276.157 495.908 277.582 490.733C279.007 485.558 297.098 415.649 297.098 415.649L313.433 373.257L320.575 370.447L331.367 450.381L348.988 541.503L352.794 554.646C356.168 555.674 359.689 556.155 363.22 556.068C367.513 555.588 375.611 550.928 375.611 550.928C375.611 550.928 376.549 544.828 375.124 542.96C373.699 541.092 370.362 535.917 370.362 535.917C370.362 535.917 367.513 476.306 365.149 462.701C362.786 449.096 359.936 432.184 359.936 432.184C359.936 432.184 356.13 372.589 356.13 358.042C356.13 343.494 349.387 314.022 349.387 314.022C349.387 314.022 314.91 322.179 282.917 313.508Z" fill="#263238" stroke="#263238" stroke-linecap="round" stroke-linejoin="round"/>
<path d="M309.469 320.876L309.955 330.266C309.955 330.266 320.382 332.134 326.134 328.861V319.934L309.469 320.876Z" fill="white" stroke="#263238" stroke-linecap="round" stroke-linejoin="round"/>
<path d="M316.68 337.429L316.089 367.14" stroke="white" stroke-width="0.75" stroke-linecap="round" stroke-linejoin="round"/>
<path d="M317.271 351.41L320.817 348.498L321.407 335.681" stroke="white" stroke-width="0.75" stroke-linecap="round" stroke-linejoin="round"/>
<path d="M288.913 324.612C288.913 324.612 291.868 333.933 287.732 337.429C285.47 339.417 282.87 340.994 280.051 342.089" stroke="white" stroke-width="0.75" stroke-linecap="round" stroke-linejoin="round"/>
<path d="M340.906 324.029C340.906 324.029 343.86 333.351 352.132 334.516" stroke="white" stroke-width="0.75" stroke-linecap="round" stroke-linejoin="round"/>
<path d="M294.297 211.128C294.297 211.128 266.493 205.987 263.017 205.131C259.541 204.274 227.392 177.715 227.392 177.715L205.184 122.593L193.575 125.677C193.575 125.677 195.678 159.295 197.051 168.719C198.424 178.143 205.74 196.563 206.609 198.277C207.477 199.99 211.822 205.131 213.56 205.559C215.297 205.987 235.716 220.98 240.495 223.551C245.274 226.121 264.39 237.258 264.39 237.258C264.39 237.258 273.948 261.247 275.251 265.959C276.554 270.671 282.637 301.085 283.071 304.512C283.505 307.939 281.333 310.51 283.071 313.508C284.809 316.507 297.408 325.074 314.786 325.074C332.163 325.074 347.803 319.077 349.541 313.936C351.279 308.796 348.672 292.946 348.672 291.661C348.672 290.376 350.41 271.528 350.41 271.528C350.41 271.528 359.533 289.948 363.443 295.945C367.353 301.942 373.436 310.081 377.78 310.081C382.125 310.081 437.299 276.668 437.299 276.668L434.693 265.959C426.653 269.559 418.188 272.149 409.495 273.67C397.33 275.383 380.821 279.667 380.821 279.667C380.821 279.667 364.747 244.969 363.009 238.544C361.271 232.118 358.665 220.552 356.492 218.41C354.32 216.268 324.778 211.985 320.868 211.985C316.958 211.985 294.297 211.128 294.297 211.128Z" fill="white"/>
<path d="M349.387 313.937C351.125 308.796 348.518 292.947 348.518 291.661C348.518 290.788 349.318 281.826 349.839 276.154L349.596 277.868C349.596 277.868 345.668 295.328 345.668 302.439C345.668 309.55 346.311 317.963 334.512 320.551C322.712 323.138 312.876 311.486 302.38 302.439C291.884 293.392 285.993 283.043 284.69 276.583C283.386 270.123 298.453 285.63 298.453 285.63C298.453 285.63 284.029 265.599 279.441 254.599C274.854 243.598 266.982 218.393 266.982 218.393L267.642 237.79L258.466 224.87C258.466 224.87 255.842 218.393 253.253 212.585C250.664 206.776 247.345 218.393 247.345 218.393C247.345 218.393 231.618 190.601 227.03 186.711C222.442 182.821 229.637 209.346 229.637 209.346C222.56 203.88 215.779 198.052 209.322 191.886C205.854 188.48 202.724 184.757 199.973 180.765C202.579 188.973 205.916 197.198 206.489 198.311C207.358 200.025 211.703 205.165 213.44 205.594C215.178 206.022 235.597 221.015 240.376 223.585C245.155 226.155 264.271 237.293 264.271 237.293C264.271 237.293 273.828 261.282 275.132 265.994C276.435 270.706 282.517 301.12 282.952 304.547C283.386 307.974 281.214 310.544 282.952 313.543C284.69 316.541 297.288 325.108 314.666 325.108C332.044 325.108 347.649 319.077 349.387 313.937Z" fill="#423FD9"/>
<path d="M379.763 299.904C374.55 298.618 358.128 274.698 358.128 272.111C358.128 269.524 360.092 257.238 360.092 257.238L354.183 263.698L355.504 252.063L352.88 254.651L350.43 271.974C351.716 274.544 359.692 290.514 363.289 295.963C367.199 301.96 373.282 310.099 377.626 310.099C380.354 310.099 403.258 296.854 419.837 287.035C404.231 292.947 383.013 300.623 379.763 299.904Z" fill="#423FD9"/>
<g opacity="0.5">
<path opacity="0.5" d="M349.387 313.937C351.125 308.796 348.518 292.947 348.518 291.661C348.518 290.788 349.318 281.826 349.839 276.154L349.596 277.868C349.596 277.868 345.668 295.328 345.668 302.439C345.668 309.55 346.311 317.963 334.512 320.551C322.712 323.138 312.876 311.486 302.38 302.439C291.884 293.392 285.993 283.043 284.69 276.583C283.386 270.123 298.453 285.63 298.453 285.63C298.453 285.63 284.029 265.599 279.441 254.599C274.854 243.598 266.982 218.393 266.982 218.393L267.642 237.79L258.466 224.87C258.466 224.87 255.842 218.393 253.253 212.585C250.664 206.776 247.345 218.393 247.345 218.393C247.345 218.393 231.618 190.601 227.03 186.711C222.442 182.821 229.637 209.346 229.637 209.346C222.56 203.88 215.779 198.052 209.322 191.886C205.854 188.48 202.724 184.757 199.973 180.765C202.579 188.973 205.916 197.198 206.489 198.311C207.358 200.025 211.703 205.165 213.44 205.594C215.178 206.022 235.597 221.015 240.376 223.585C245.155 226.155 264.271 237.293 264.271 237.293C264.271 237.293 273.828 261.282 275.132 265.994C276.435 270.706 282.517 301.12 282.952 304.547C283.386 307.974 281.214 310.544 282.952 313.543C284.69 316.541 297.288 325.108 314.666 325.108C332.044 325.108 347.649 319.077 349.387 313.937Z" fill="white"/>
<path opacity="0.5" d="M379.763 299.904C374.55 298.618 358.128 274.698 358.128 272.111C358.128 269.524 360.092 257.238 360.092 257.238L354.183 263.698L355.504 252.063L352.88 254.651L350.43 271.974C351.716 274.544 359.692 290.514 363.289 295.963C367.199 301.96 373.282 310.099 377.626 310.099C380.354 310.099 403.258 296.854 419.837 287.035C404.231 292.947 383.013 300.623 379.763 299.904Z" fill="white"/>
</g>
<path d="M294.297 211.128C294.297 211.128 266.493 205.987 263.017 205.131C259.541 204.274 227.392 177.715 227.392 177.715L205.184 122.593L193.575 125.677C193.575 125.677 195.678 159.295 197.051 168.719C198.424 178.143 205.74 196.563 206.609 198.277C207.477 199.99 211.822 205.131 213.56 205.559C215.297 205.987 235.716 220.98 240.495 223.551C245.274 226.121 264.39 237.258 264.39 237.258C264.39 237.258 273.948 261.247 275.251 265.959C276.554 270.671 282.637 301.085 283.071 304.512C283.505 307.939 281.333 310.51 283.071 313.508C284.809 316.507 297.408 325.074 314.786 325.074C332.163 325.074 347.803 319.077 349.541 313.936C351.279 308.796 348.672 292.946 348.672 291.661C348.672 290.376 350.41 271.528 350.41 271.528C350.41 271.528 359.533 289.948 363.443 295.945C367.353 301.942 373.436 310.081 377.78 310.081C382.125 310.081 437.299 276.668 437.299 276.668L434.693 265.959C426.653 269.559 418.188 272.149 409.495 273.67C397.33 275.383 380.821 279.667 380.821 279.667C380.821 279.667 364.747 244.969 363.009 238.544C361.271 232.118 358.665 220.552 356.492 218.41C354.32 216.268 324.778 211.985 320.868 211.985C316.958 211.985 294.297 211.128 294.297 211.128Z" stroke="#263238" stroke-linecap="round" stroke-linejoin="round"/>
<path d="M427.186 269.695L431.321 280.061" stroke="#263238" stroke-linecap="round" stroke-linejoin="round"/>
<path d="M193.994 133.456L207.618 129.738" stroke="#263238" stroke-linecap="round" stroke-linejoin="round"/>
<path d="M289.087 282.237C289.087 282.237 312.547 308.796 336.876 314.793" stroke="#263238" stroke-linecap="round" stroke-linejoin="round"/>
<path d="M354.705 242.691L355.47 237.687" stroke="#263238" stroke-linecap="round" stroke-linejoin="round"/>
<path d="M350.256 271.529L353.957 247.523" stroke="#263238" stroke-linecap="round" stroke-linejoin="round"/>
<path d="M350.691 267.673L359.38 248.825" stroke="#263238" stroke-linecap="round" stroke-linejoin="round"/>
<path d="M258.067 208.353L257.285 204.703" stroke="#263238" stroke-linecap="round" stroke-linejoin="round"/>
<path d="M264.234 237.259L259.125 213.339" stroke="#263238" stroke-linecap="round" stroke-linejoin="round"/>
<path d="M247.516 201.19L245.118 196.135" stroke="#263238" stroke-linecap="round" stroke-linejoin="round"/>
<path d="M263.364 234.688L249.479 205.337" stroke="#263238" stroke-linecap="round" stroke-linejoin="round"/>
<path d="M226.525 179.857C226.525 179.857 230.87 196.992 236.518 205.559" stroke="#263238" stroke-linecap="round" stroke-linejoin="round"/>
<path d="M386.749 291.233L380.667 279.667L392.397 289.091" stroke="#263238" stroke-linecap="round" stroke-linejoin="round"/>
<path d="M303.336 228.263L311.59 241.114L310.287 313.509L318.976 326.36L326.362 307.94L314.197 239.829L319.41 229.548L312.459 217.982L303.336 228.263Z" fill="#263238" stroke="#263238" stroke-linecap="round" stroke-linejoin="round"/>
<path d="M300.938 203.607C300.938 203.607 295.429 203.315 293.709 205.594C292.488 207.603 291.695 209.836 291.38 212.157C291.38 212.157 293.987 221.272 294.577 224.699C295.168 228.126 297.167 236.694 297.167 236.694L312.216 226.139L329.281 235.837C329.281 235.837 326.101 217.297 324.936 211.317C323.772 205.337 320.887 203.898 315.969 203.332C310.959 203.072 305.935 203.164 300.938 203.607Z" fill="white" stroke="#263238" stroke-linecap="round" stroke-linejoin="round"/>
<path d="M294.854 191.338C294.854 191.338 298.034 206.451 299.199 209.295C300.363 212.139 310.181 226.121 312.215 226.121C314.248 226.121 320.608 210.7 320.904 208.164C321.199 205.628 321.199 199.597 321.199 199.597C321.199 199.597 311.363 202.167 306.741 199.031C302.118 195.896 298.052 188.202 296.314 188.202C294.576 188.202 294.854 191.338 294.854 191.338Z" fill="white"/>
<path d="M306.724 199.031C302.084 195.896 298.035 188.202 296.297 188.202C294.56 188.202 294.855 191.338 294.855 191.338C294.855 191.338 296.593 199.357 297.913 204.823C301.147 207.849 305.216 209.864 309.609 210.614C313.602 210.915 317.584 209.909 320.939 207.753C321.182 205.011 321.182 199.597 321.182 199.597C321.182 199.597 311.347 202.236 306.724 199.031Z" fill="#423FD9"/>
<path opacity="0.5" d="M306.724 199.031C302.084 195.896 298.035 188.202 296.297 188.202C294.56 188.202 294.855 191.338 294.855 191.338C294.855 191.338 296.593 199.357 297.913 204.823C301.147 207.849 305.216 209.864 309.609 210.614C313.602 210.915 317.584 209.909 320.939 207.753C321.182 205.011 321.182 199.597 321.182 199.597C321.182 199.597 311.347 202.236 306.724 199.031Z" fill="white"/>
<path d="M294.854 191.338C294.854 191.338 298.034 206.451 299.199 209.295C300.363 212.139 310.181 226.121 312.215 226.121C314.248 226.121 320.608 210.7 320.904 208.164C321.199 205.628 321.199 199.597 321.199 199.597C321.199 199.597 311.363 202.167 306.741 199.031C302.118 195.896 298.052 188.202 296.314 188.202C294.576 188.202 294.854 191.338 294.854 191.338Z" stroke="#263238" stroke-linecap="round" stroke-linejoin="round"/>
<path d="M329.28 157.394C329.28 157.394 330.149 171.376 331.018 177.647C331.887 183.918 332.165 191.355 328.985 196.187C325.804 201.019 322.624 204.172 315.969 205.028C309.313 205.885 300.937 201.893 298.33 197.9C295.723 193.908 293.412 189.915 293.412 189.915C291.494 189.856 289.616 189.364 287.921 188.476C285.314 187.054 283.003 180.491 283.872 177.921C284.741 175.351 289.085 175.077 289.085 175.077C289.085 175.077 287.069 166.235 285.905 160.238C285.304 157.111 285.925 153.875 287.643 151.18C289.361 148.485 292.049 146.53 295.167 145.708C302.397 143.412 313.101 143.703 318.593 146.565C324.084 149.426 327.838 152.545 329.28 157.394Z" fill="white"/>
<path d="M306.324 158.233C310.373 161.095 317.515 169.491 329.993 167.383C329.576 162.243 329.28 157.394 329.28 157.394C327.838 152.544 324.067 149.409 318.576 146.547C313.084 143.686 302.379 143.412 295.15 145.708C293.381 146.21 291.736 147.068 290.318 148.226C288.901 149.385 287.741 150.82 286.913 152.442L291.675 156.246C291.675 156.246 301.736 155.012 306.324 158.233Z" fill="#423FD9"/>
<path opacity="0.5" d="M306.324 158.233C310.373 161.095 317.515 169.491 329.993 167.383C329.576 162.243 329.28 157.394 329.28 157.394C327.838 152.544 324.067 149.409 318.576 146.547C313.084 143.686 302.379 143.412 295.15 145.708C293.381 146.21 291.736 147.068 290.318 148.226C288.901 149.385 287.741 150.82 286.913 152.442L291.675 156.246C291.675 156.246 301.736 155.012 306.324 158.233Z" fill="white"/>
<path d="M329.28 157.394C329.28 157.394 330.149 171.376 331.018 177.647C331.887 183.918 332.165 191.355 328.985 196.187C325.804 201.019 322.624 204.172 315.969 205.028C309.313 205.885 300.937 201.893 298.33 197.9C295.723 193.908 293.412 189.915 293.412 189.915C291.494 189.856 289.616 189.364 287.921 188.476C285.314 187.054 283.003 180.491 283.872 177.921C284.741 175.351 289.085 175.077 289.085 175.077C289.085 175.077 287.069 166.235 285.905 160.238C285.304 157.111 285.925 153.875 287.643 151.18C289.361 148.485 292.049 146.53 295.167 145.708C302.397 143.412 313.101 143.703 318.593 146.565C324.084 149.426 327.838 152.545 329.28 157.394Z" stroke="#263238" stroke-linecap="round" stroke-linejoin="round"/>
<path d="M325.232 163.956C324.199 163.824 323.15 163.909 322.153 164.204C321.156 164.499 320.233 164.999 319.445 165.67C316.838 167.948 320.609 178.778 320.609 180.491C320.609 182.205 315.101 183.627 315.101 183.627" stroke="#263238" stroke-linecap="round" stroke-linejoin="round"/>
<path d="M320.608 191.338C320.608 191.338 312.857 193.051 309.799 188.494" stroke="#263238" stroke-linecap="round" stroke-linejoin="round"/>
<path d="M309.94 167.384C309.213 166.874 308.386 166.52 307.511 166.344C306.637 166.168 305.736 166.174 304.864 166.361C303.992 166.548 303.169 166.912 302.449 167.431C301.728 167.949 301.125 168.61 300.678 169.371" stroke="#263238" stroke-linecap="round" stroke-linejoin="round"/>
<path d="M309.155 175.454C309.329 176.688 308.756 177.802 307.887 177.904C307.018 178.007 306.149 177.099 306.01 175.848C305.871 174.598 306.41 173.501 307.279 173.381C308.148 173.261 308.999 174.203 309.155 175.454Z" fill="#263238"/>
<path d="M325.077 173.741C325.233 174.992 324.66 176.088 323.791 176.191C322.922 176.294 322.053 175.386 321.914 174.135C321.775 172.884 322.331 171.787 323.2 171.668C324.069 171.548 324.903 172.49 325.077 173.741Z" fill="#263238"/>
<path d="M302.954 179.069L307.299 178.778" stroke="#263238" stroke-width="0.5" stroke-linecap="round" stroke-linejoin="round"/>
<path d="M328.414 175.643L323.791 177.082" stroke="#263238" stroke-width="0.5" stroke-linecap="round" stroke-linejoin="round"/>
<path d="M287.348 171.65L291.398 183.918C291.931 184.006 292.479 183.913 292.952 183.655C293.425 183.396 293.796 182.988 294.004 182.496C294.595 180.783 290.824 173.655 291.398 172.798C291.971 171.941 296.037 170.519 295.447 167.383C294.856 164.248 291.693 159.107 291.693 156.246C291.693 153.384 297.48 151.105 300.66 151.105C303.84 151.105 308.463 154.532 312.234 157.668C316.005 160.803 315.414 155.372 315.414 155.372C315.414 155.372 326.692 161.078 333.052 159.381C339.412 157.685 332.774 147.387 332.774 147.387C332.774 147.387 340.281 141.972 337.101 136.266C333.921 130.561 317.151 127.699 303.562 130.561C289.973 133.422 285.02 138.288 283.873 140.55C283.155 141.988 282.663 143.525 282.413 145.108C278.553 147.335 275.668 150.894 274.315 155.098C272.577 161.66 279.528 167.092 282.413 167.931C284.393 168.666 286.109 169.96 287.348 171.65Z" fill="#263238" stroke="#263238" stroke-linecap="round" stroke-linejoin="round"/>
<path d="M321.999 142.538C315.586 139.985 306.758 137.518 300.624 139.814C289.902 143.858 292.456 149.392 292.456 149.392C292.456 149.392 307.175 142.264 315.395 155.389" stroke="white" stroke-width="0.75" stroke-linecap="round" stroke-linejoin="round"/>
<path d="M330.253 146.358C330.253 146.358 328.845 145.587 326.586 144.525" stroke="white" stroke-width="0.75" stroke-linecap="round" stroke-linejoin="round"/>
<path d="M434.538 265.96C434.538 265.96 436.71 257.392 438.448 255.25C440.186 253.108 444.096 251.823 445.399 249.253C446.703 246.683 448.44 243.256 449.744 244.969C450.364 245.642 450.771 246.48 450.913 247.379C451.055 248.277 450.926 249.197 450.543 250.024C449.808 251.754 448.753 253.335 447.432 254.685C446.628 255.507 446.033 256.505 445.695 257.598C445.689 257.96 445.587 258.315 445.399 258.626L471.275 248.705C471.658 248.881 471.993 249.146 472.25 249.477C472.507 249.808 472.679 250.196 472.752 250.607C473.047 252.063 471.136 252.937 470.249 253.228C469.363 253.52 458.572 258.369 458.572 258.369L459.753 260.254L476.436 258.437C476.908 258.416 477.371 258.568 477.734 258.866C478.098 259.163 478.335 259.584 478.401 260.045C478.466 260.506 478.354 260.975 478.087 261.359C477.82 261.743 477.417 262.015 476.957 262.121L460.483 264.931L460.049 266.816L478.156 268.53C478.589 268.597 478.98 268.824 479.251 269.164C479.522 269.504 479.652 269.932 479.616 270.363C479.561 270.749 479.364 271.102 479.063 271.354C478.762 271.607 478.378 271.742 477.983 271.734L459.892 271.477C462.899 273.19 464.08 273.773 467.139 275.401C472.352 278.177 473.795 279.804 469.937 279.633C468.61 279.378 467.32 278.964 466.096 278.399L458.085 275.915C458.085 275.915 454.609 276.206 451.586 276.634C448.562 277.063 444.635 277.954 443.001 277.954C441.018 277.72 439.058 277.319 437.145 276.754L434.538 265.96Z" fill="white" stroke="#263238" stroke-linecap="round" stroke-linejoin="round"/>
<path d="M445.365 258.626V264.606C445.365 266.32 443.888 267.81 441.09 268.684" stroke="#263238" stroke-linecap="round" stroke-linejoin="round"/>
<path d="M204.194 122.559C204.194 122.559 210.641 116.442 211.666 113.888C212.691 111.335 211.875 107.36 213.404 104.961C214.933 102.562 217.175 99.3753 215.003 99.1183C214.105 98.9189 213.169 98.9849 212.309 99.308C211.45 99.631 210.706 100.197 210.172 100.935C209.017 102.428 208.151 104.118 207.617 105.921C207.294 107.035 206.697 108.053 205.879 108.885C205.566 109.074 205.309 109.339 205.132 109.656L200.961 82.5833C200.634 82.3707 200.263 82.234 199.874 82.1836C199.486 82.1331 199.091 82.1702 198.72 82.292C197.277 82.7546 197.468 84.8451 197.66 85.7189C197.851 86.5928 198.998 98.2616 198.998 98.2616H196.739L190.031 83.0116C189.829 82.5786 189.466 82.2389 189.017 82.0631C188.568 81.8873 188.068 81.889 187.62 82.0678C187.172 82.2466 186.812 82.5887 186.613 83.0231C186.415 83.4574 186.394 83.9504 186.555 84.3996L192.29 99.8208L190.847 101.157L180.299 86.5243C180.043 86.2294 179.688 86.0356 179.299 85.9784C178.91 85.9212 178.512 86.0045 178.18 86.213C177.849 86.4215 177.604 86.7411 177.492 87.1131C177.38 87.4851 177.408 87.8844 177.571 88.2377L186.816 103.659C183.809 101.946 182.715 101.226 179.76 99.4267C174.738 96.3767 172.566 95.9998 174.651 99.1355C175.533 100.143 176.537 101.041 177.64 101.808L183.862 107.343C183.862 107.343 185.373 110.53 186.468 113.272C187.563 116.013 188.762 119.869 189.579 121.256C190.777 122.838 192.108 124.317 193.558 125.677L204.194 122.559Z" fill="white" stroke="#263238" stroke-linecap="round" stroke-linejoin="round"/>
<path d="M205.255 109.707L200.041 112.672C198.495 113.545 197.956 115.55 198.581 118.378" stroke="#263238" stroke-linecap="round" stroke-linejoin="round"/>
<path opacity="0.5" d="M693.969 177.201H387.268V368.699H693.969V177.201Z" fill="white" stroke="#263238" stroke-miterlimit="10"/>
<path d="M483.336 154.943L477.41 138.169H381.311V382.63H699.933V154.943H483.336ZM693.99 368.682H387.271V177.201H693.99V368.682Z" fill="#423FD9" stroke="#263238" stroke-miterlimit="10"/>
<path d="M635.669 161.283H483.3V170.484H635.669V161.283Z" fill="white" stroke="#263238" stroke-miterlimit="10"/>
<path d="M394.638 159.81L390.241 163.99L394.812 168.805" stroke="#263238" stroke-linecap="round" stroke-linejoin="round"/>
<path d="M390.241 163.99H400.008" stroke="#263238" stroke-linecap="round" stroke-linejoin="round"/>
<path d="M419.559 159.81L423.955 163.99L419.402 168.805" stroke="#263238" stroke-linecap="round" stroke-linejoin="round"/>
<path d="M423.956 163.99H414.189" stroke="#263238" stroke-linecap="round" stroke-linejoin="round"/>
<path d="M444.947 163.425C444.661 162.461 444.074 161.61 443.269 160.995C442.463 160.379 441.481 160.03 440.463 159.998C439.297 159.998 438.179 160.455 437.354 161.268C436.53 162.081 436.066 163.184 436.066 164.333C436.066 165.483 436.53 166.586 437.354 167.399C438.179 168.212 439.297 168.669 440.463 168.669C441.478 168.676 442.462 168.33 443.243 167.692" stroke="#263238" stroke-linecap="round" stroke-linejoin="round"/>
<path d="M441.975 163.905H445.398V159.896" stroke="#263238" stroke-linecap="round" stroke-linejoin="round"/>
<path d="M468.233 162.483L464.184 159.244L460.309 162.483V169.525H468.233V162.483Z" stroke="#263238" stroke-linecap="round" stroke-linejoin="round"/>
<path d="M465.729 164.384H462.636V169.268H465.729V164.384Z" fill="#263238"/>
<path d="M460.309 162.483L457.998 164.59" stroke="#263238" stroke-linecap="round" stroke-linejoin="round"/>
<path d="M468.233 162.483L470.406 164.402" stroke="#263238" stroke-linecap="round" stroke-linejoin="round"/>
<path d="M466.774 146.855L472.943 153.127" stroke="#263238" stroke-linecap="round" stroke-linejoin="round"/>
<path d="M473.047 146.942L466.669 153.025" stroke="#263238" stroke-linecap="round" stroke-linejoin="round"/>
<path d="M677.81 162.962H690.026" stroke="#263238" stroke-linecap="round" stroke-linejoin="round"/>
<path d="M677.81 165.686H690.026" stroke="#263238" stroke-linecap="round" stroke-linejoin="round"/>
<path d="M677.81 168.394H690.026" stroke="#263238" stroke-linecap="round" stroke-linejoin="round"/>
<path d="M677.81 171.118H690.026" stroke="#263238" stroke-linecap="round" stroke-linejoin="round"/>
<path opacity="0.9" d="M258.222 33.2352H53.8066V160.855H258.222V33.2352Z" fill="white" stroke="#263238" stroke-miterlimit="10"/>
<path d="M114.794 112.657L121.899 82.7815C110.146 63.3804 108.429 49.3077 119.067 49.3077C128.977 49.3077 146.77 61.5191 163.555 78.8728H161.319C148.788 65.94 135.913 56.9556 128.847 56.9556C119.185 56.9556 124.041 73.7501 139.693 94.468C140.951 96.1327 142.242 97.7725 143.555 99.3814L137.86 104.764C135.767 102.278 133.722 99.7295 131.743 97.1302C130.516 95.5196 129.341 93.9268 128.222 92.3558L123.375 112.657H114.794Z" fill="url(#paint0_linear)"/>
<path d="M165.936 111.867C168.666 112.671 171.575 113.077 174.648 113.077C179.04 113.077 182.772 112.258 185.837 110.619C188.899 108.988 190.776 106.717 191.468 103.811L191.487 103.727C191.791 102.446 191.793 101.328 191.482 100.359C191.171 99.3904 190.545 98.557 189.571 97.8662C188.607 97.1681 187.446 96.5838 186.092 96.1003C184.735 95.6242 183.041 95.175 181.006 94.7547C177.646 94.0928 175.471 93.5083 174.481 93.0033C173.481 92.5055 173.106 91.7713 173.332 90.8171L173.352 90.7324C173.535 89.9641 174.128 89.3435 175.146 88.8529C176.161 88.3677 177.481 88.126 179.111 88.126C182.204 88.126 185.413 89.1073 188.745 91.0877L194.48 86.1167C190.898 83.5897 186.268 82.3216 180.606 82.3216C176.507 82.3216 172.964 83.1477 169.961 84.8072C166.969 86.4595 165.151 88.6382 164.51 91.3368L164.49 91.4215C164.293 92.2549 164.216 93.016 164.259 93.7141C164.313 94.4049 164.46 95.0253 164.702 95.5592C164.945 96.0931 165.322 96.5838 165.841 97.0328C166.353 97.4748 166.906 97.859 167.493 98.1801C168.082 98.4994 168.833 98.8059 169.749 99.1054C170.654 99.4031 171.541 99.6609 172.409 99.8809C173.278 100.094 174.314 100.323 175.51 100.557C177.642 100.97 179.234 101.376 180.3 101.753C181.365 102.139 182.062 102.523 182.376 102.915C182.693 103.306 182.775 103.79 182.637 104.374L182.617 104.459C182.409 105.335 181.733 106.019 180.598 106.524C179.465 107.024 177.992 107.273 176.2 107.273C172.199 107.273 168.522 106.062 165.171 103.642L158.894 108.299C160.855 109.867 163.199 111.055 165.936 111.867Z" fill="url(#paint1_linear)"/>
<path d="M191.933 144.951C201.699 144.951 201.051 133.093 191.791 116.142H187.842C191.913 125.727 191.423 131.982 185.527 131.982C179.631 131.982 169.69 125.727 159.28 116.142H148.179C164.745 133.093 182.168 144.951 191.933 144.951Z" fill="url(#paint2_linear)"/>
<path d="M152.305 82.7399L140.753 93.5895L141.299 94.3145C142.355 95.7124 143.434 97.0941 144.53 98.4524L150.555 93.1294L145.911 112.657H154.636L161.75 82.7399H152.305Z" fill="url(#paint3_linear)"/>
<path d="M117.844 18.4135L113.882 7.22447H49.8271V170.159H262.184V18.4135H117.844ZM258.222 160.872H53.8067V33.235H258.222V160.872Z" fill="#423FD9" stroke="#263238" stroke-miterlimit="10"/>
<path d="M219.365 22.6286H117.81V28.7628H219.365V22.6286Z" fill="white" stroke="#263238" stroke-miterlimit="10"/>
<path d="M58.724 21.6518L55.7871 24.4277L58.8282 27.649" stroke="#263238" stroke-linecap="round" stroke-linejoin="round"/>
<path d="M55.7871 24.4282H62.3038" stroke="#263238" stroke-linecap="round" stroke-linejoin="round"/>
<path d="M75.3211 21.6518L78.2579 24.4277L75.2168 27.649" stroke="#263238" stroke-linecap="round" stroke-linejoin="round"/>
<path d="M78.2579 24.4282H71.7412" stroke="#263238" stroke-linecap="round" stroke-linejoin="round"/>
<path d="M92.2459 24.0339C92.0569 23.3875 91.6632 22.8176 91.1223 22.4076C90.5814 21.9976 89.9217 21.7689 89.2395 21.755C88.7693 21.7556 88.3062 21.8676 87.889 22.0814C87.4718 22.2952 87.1127 22.6047 86.8421 22.9838C86.5714 23.3629 86.397 23.8005 86.3335 24.2599C86.2701 24.7192 86.3194 25.1869 86.4773 25.6236C86.6353 26.0602 86.8973 26.4531 87.2412 26.7692C87.5852 27.0853 88.0011 27.3153 88.454 27.44C88.9069 27.5646 89.3835 27.5802 89.8438 27.4854C90.304 27.3907 90.7345 27.1883 91.099 26.8954" stroke="#263238" stroke-linecap="round" stroke-linejoin="round"/>
<path d="M90.2666 24.3765H92.5605V21.7206" stroke="#263238" stroke-linecap="round" stroke-linejoin="round"/>
<path d="M107.764 23.4344L105.07 21.2754L102.498 23.4344V28.1293H107.764V23.4344Z" stroke="#263238" stroke-linecap="round" stroke-linejoin="round"/>
<path d="M106.079 24.7015H104.028V27.9571H106.079V24.7015Z" fill="#263238"/>
<path d="M102.498 23.434L100.951 24.839" stroke="#263238" stroke-linecap="round" stroke-linejoin="round"/>
<path d="M107.766 23.434L109.225 24.7191" stroke="#263238" stroke-linecap="round" stroke-linejoin="round"/>
<path d="M106.791 13.0162L110.91 17.1971" stroke="#263238" stroke-linecap="round" stroke-linejoin="round"/>
<path d="M110.978 13.085L106.721 17.1288" stroke="#263238" stroke-linecap="round" stroke-linejoin="round"/>
<path d="M247.447 23.7592H255.597" stroke="#263238" stroke-linecap="round" stroke-linejoin="round"/>
<path d="M247.447 25.5588H255.597" stroke="#263238" stroke-linecap="round" stroke-linejoin="round"/>
<path d="M247.447 27.3747H255.597" stroke="#263238" stroke-linecap="round" stroke-linejoin="round"/>
<path d="M247.447 29.1913H255.597" stroke="#263238" stroke-linecap="round" stroke-linejoin="round"/>
<path d="M247.135 285.664H49.8271V403.568H247.135V285.664Z" fill="#263238" stroke="#263238" stroke-miterlimit="10"/>
<path d="M247.135 386.143H49.8271V403.569H247.135V386.143Z" fill="#423FD9" stroke="#263238" stroke-miterlimit="10"/>
<path d="M145.804 371.424C163.041 371.424 177.015 357.646 177.015 340.65C177.015 323.654 163.041 309.876 145.804 309.876C128.567 309.876 114.594 323.654 114.594 340.65C114.594 357.646 128.567 371.424 145.804 371.424Z" fill="white" stroke="#263238" stroke-miterlimit="10"/>
<path d="M168.467 340.65L134.163 321.133V360.183L168.467 340.65Z" fill="#263238" stroke="#263238" stroke-miterlimit="10"/>
<path d="M237.352 391.66H59.6465V394.813H237.352V391.66Z" fill="#263238"/>
<path d="M65.8161 393.185C65.8161 392.63 65.649 392.086 65.3358 391.624C65.0226 391.162 64.5775 390.802 64.0568 390.589C63.536 390.377 62.963 390.321 62.4102 390.429C61.8573 390.538 61.3495 390.805 60.9509 391.198C60.5524 391.591 60.2809 392.092 60.171 392.637C60.061 393.182 60.1174 393.747 60.3331 394.261C60.5489 394.774 60.9141 395.213 61.3828 395.522C61.8515 395.831 62.4025 395.996 62.9662 395.996C63.7206 395.991 64.4429 395.694 64.9763 395.168C65.5098 394.642 65.8115 393.929 65.8161 393.185Z" fill="#423FD9" stroke="#263238" stroke-miterlimit="10"/>
<defs>
<linearGradient id="paint0_linear" x1="112" y1="96.6363" x2="199" y2="96.6363" gradientUnits="userSpaceOnUse">
<stop stop-color="#9C44F6"/>
<stop offset="1" stop-color="#4F40DD"/>
</linearGradient>
<linearGradient id="paint1_linear" x1="112" y1="96.6363" x2="199" y2="96.6363" gradientUnits="userSpaceOnUse">
<stop stop-color="#9C44F6"/>
<stop offset="1" stop-color="#4F40DD"/>
</linearGradient>
<linearGradient id="paint2_linear" x1="112" y1="96.6363" x2="199" y2="96.6363" gradientUnits="userSpaceOnUse">
<stop stop-color="#9C44F6"/>
<stop offset="1" stop-color="#4F40DD"/>
</linearGradient>
<linearGradient id="paint3_linear" x1="112" y1="96.6363" x2="199" y2="96.6363" gradientUnits="userSpaceOnUse">
<stop stop-color="#9C44F6"/>
<stop offset="1" stop-color="#4F40DD"/>
</linearGradient>
</defs>
</svg>
