<svg width="1491" height="1607" viewBox="0 0 1491 1607" fill="none" xmlns="http://www.w3.org/2000/svg">
<path opacity="0.2" d="M420.902 1185.39C235.779 1000.26 104.523 796.36 41.9494 616.361C-20.6371 436.326 -14.4646 280.381 74.9581 190.958C164.381 101.535 320.326 95.3629 500.361 157.949C680.36 220.523 884.264 351.779 1069.39 536.902C1254.51 722.025 1385.77 925.93 1448.34 1105.93C1510.93 1285.96 1504.75 1441.91 1415.33 1531.33C1325.91 1620.75 1169.96 1626.93 989.929 1564.34C809.93 1501.77 606.025 1370.51 420.902 1185.39Z" stroke="#423FD9"/>
<path opacity="0.2" d="M719.724 682.741C708.24 683.622 699.119 692.743 698.238 704.228L697.497 714L696.756 704.228C695.874 692.743 686.754 683.622 675.269 682.741L665.497 682L675.269 681.259C686.754 680.378 695.874 671.257 696.756 659.772L697.497 650L698.238 659.772C699.119 671.257 708.24 680.378 719.724 681.259L729.497 682L719.724 682.741Z" fill="#423FD9"/>
<path opacity="0.2" d="M572.389 20.4631C565.211 21.014 559.511 26.7146 558.96 33.8922L558.497 40L558.034 33.8922C557.483 26.7146 551.782 21.014 544.605 20.4631L538.497 20L544.605 19.5369C551.782 18.986 557.483 13.2854 558.034 6.10778L558.497 -8.74228e-07L558.96 6.10778C559.511 13.2854 565.211 18.986 572.389 19.5369L578.497 20L572.389 20.4631Z" fill="#423FD9"/>
</svg>
