<svg width="1491" height="1491" viewBox="0 0 1491 1491" fill="none" xmlns="http://www.w3.org/2000/svg">
<path opacity="0.2" d="M420.902 1069.39C235.779 884.264 104.523 680.36 41.9494 500.361C-20.6371 320.326 -14.4646 164.381 74.9581 74.9581C164.381 -14.4646 320.326 -20.6371 500.361 41.9493C680.36 104.523 884.264 235.779 1069.39 420.902C1254.51 606.025 1385.77 809.93 1448.34 989.928C1510.93 1169.96 1504.75 1325.91 1415.33 1415.33C1325.91 1504.75 1169.96 1510.93 989.929 1448.34C809.93 1385.77 606.025 1254.51 420.902 1069.39Z" stroke="#423FD9"/>
<path opacity="0.2" d="M924.228 1261.74C912.743 1262.62 903.622 1271.74 902.741 1283.23L902 1293L901.259 1283.23C900.378 1271.74 891.257 1262.62 879.772 1261.74L870 1261L879.772 1260.26C891.257 1259.38 900.378 1250.26 901.259 1238.77L902 1229L902.741 1238.77C903.622 1250.26 912.743 1259.38 924.228 1260.26L934 1261L924.228 1261.74Z" fill="#423FD9"/>
</svg>
