<svg width="87" height="96" viewBox="0 0 87 96" fill="none" xmlns="http://www.w3.org/2000/svg">
<path d="M2.79399 63.6569L9.89888 33.7816C-1.85397 14.3804 -3.57093 0.307739 7.06662 0.307739C16.9768 0.307739 34.7695 12.5191 51.5547 29.8729H49.3187C36.7882 16.94 23.9128 7.95567 16.8475 7.95567C7.1851 7.95567 12.0414 24.7502 27.6934 45.468C28.9506 47.1328 30.2419 48.7725 31.5547 50.3814L25.8597 55.7638C23.7673 53.2782 21.7218 50.7295 19.7426 48.1303C18.516 46.5196 17.3414 44.9269 16.2225 43.3558L11.3751 63.6569H2.79399Z" fill="url(#paint0_linear)"/>
<path d="M53.9361 62.8669C56.666 63.6713 59.5755 64.0772 62.6484 64.0772C67.0395 64.0772 70.7716 63.2583 73.8373 61.6187C76.8994 59.9881 78.7762 57.7172 79.4677 54.8113L79.4874 54.7266C79.7909 53.446 79.7928 52.3277 79.4821 51.359C79.1714 50.3904 78.5445 49.5571 77.5711 48.8662C76.6067 48.1681 75.4465 47.5839 74.0923 47.1003C72.7346 46.6242 71.041 46.175 69.0062 45.7548C65.6459 45.0928 63.4709 44.5083 62.4814 44.0033C61.481 43.5055 61.1056 42.7714 61.332 41.8172L61.3517 41.7325C61.5349 40.9641 62.1275 40.3435 63.1459 39.853C64.1606 39.3677 65.4807 39.126 67.1114 39.126C70.2041 39.126 73.4135 40.1073 76.745 42.0877L82.4796 37.1167C78.8984 34.5897 74.2683 33.3216 68.6057 33.3216C64.5072 33.3216 60.9637 34.1478 57.9609 35.8072C54.9688 37.4595 53.1512 39.6383 52.5101 42.3368L52.4904 42.4215C52.2928 43.2549 52.2155 44.016 52.2587 44.7141C52.3125 45.4049 52.4599 46.0253 52.7023 46.5592C52.9447 47.0931 53.3219 47.5839 53.841 48.0329C54.3527 48.4748 54.9059 48.859 55.4932 49.1801C56.0823 49.4995 56.833 49.806 57.749 50.1054C58.6541 50.4031 59.5413 50.661 60.4088 50.881C61.278 51.0939 62.3143 51.3229 63.5105 51.5574C65.6423 51.9704 67.2335 52.3763 68.3003 52.7534C69.3653 53.1393 70.0622 53.5235 70.3765 53.9149C70.6925 54.3063 70.7752 54.7897 70.6369 55.3741L70.6171 55.459C70.4088 56.3355 69.7335 57.0191 68.5985 57.5242C67.4652 58.0239 65.9925 58.2728 64.2001 58.2728C60.1987 58.2728 56.5223 57.0625 53.1711 54.6419L46.8941 59.299C48.8553 60.8665 51.1991 62.0552 53.9361 62.8669Z" fill="url(#paint1_linear)"/>
<path d="M79.9329 95.951C89.6994 95.951 89.0511 84.0934 79.791 67.1418H75.8416C79.9132 76.7268 79.4228 82.9823 73.5267 82.9823C67.6305 82.9823 57.6898 76.7268 47.2803 67.1418H36.1794C52.7455 84.0934 70.1682 95.951 79.9329 95.951Z" fill="url(#paint2_linear)"/>
<path d="M40.3047 33.74L28.753 44.5896L29.299 45.3146C30.355 46.7125 31.4344 48.0942 32.5299 49.4524L38.5555 44.1295L33.9111 63.6569H42.6359L49.7498 33.74H40.3047Z" fill="url(#paint3_linear)"/>
<defs>
<linearGradient id="paint0_linear" x1="1.16399e-06" y1="47.6364" x2="87" y2="47.6364" gradientUnits="userSpaceOnUse">
<stop stop-color="#9C44F6"/>
<stop offset="1" stop-color="#4F40DD"/>
</linearGradient>
<linearGradient id="paint1_linear" x1="1.16399e-06" y1="47.6364" x2="87" y2="47.6364" gradientUnits="userSpaceOnUse">
<stop stop-color="#9C44F6"/>
<stop offset="1" stop-color="#4F40DD"/>
</linearGradient>
<linearGradient id="paint2_linear" x1="1.16399e-06" y1="47.6364" x2="87" y2="47.6364" gradientUnits="userSpaceOnUse">
<stop stop-color="#9C44F6"/>
<stop offset="1" stop-color="#4F40DD"/>
</linearGradient>
<linearGradient id="paint3_linear" x1="1.16399e-06" y1="47.6364" x2="87" y2="47.6364" gradientUnits="userSpaceOnUse">
<stop stop-color="#9C44F6"/>
<stop offset="1" stop-color="#4F40DD"/>
</linearGradient>
</defs>
</svg>
