<svg width="43" height="48" viewBox="0 0 43 48" fill="none" xmlns="http://www.w3.org/2000/svg">
<path d="M1.38094 31.7927L4.89255 16.7993C-0.916329 7.06259 -1.76494 0 3.4927 0C8.39081 0 17.1849 6.12845 25.4811 14.8377H24.3759C18.1826 8.34715 11.819 3.83822 8.32692 3.83822C3.55125 3.83822 5.9515 12.2668 13.6875 22.6643C14.3089 23.4998 14.9471 24.3228 15.596 25.1302L12.7812 27.8314C11.7471 26.584 10.7361 25.3049 9.75785 24.0004C9.15156 23.1921 8.57103 22.3928 8.01801 21.6043L5.62218 31.7927H1.38094Z" fill="white"/>
<path d="M26.6581 31.3962C28.0073 31.7999 29.4453 32.0036 30.9642 32.0036C33.1345 32.0036 34.9791 31.5926 36.4943 30.7698C38.0078 29.9515 38.9354 28.8118 39.2771 27.3534L39.2869 27.3109C39.4369 26.6682 39.4378 26.107 39.2842 25.6208C39.1307 25.1347 38.8209 24.7165 38.3398 24.3698C37.8631 24.0194 37.2896 23.7262 36.6203 23.4836C35.9493 23.2446 35.1122 23.0192 34.1065 22.8083C32.4457 22.476 31.3707 22.1827 30.8816 21.9293C30.3872 21.6795 30.2016 21.311 30.3135 20.8321L30.3232 20.7896C30.4138 20.404 30.7067 20.0926 31.21 19.8464C31.7116 19.6028 32.364 19.4815 33.17 19.4815C34.6986 19.4815 36.2848 19.974 37.9314 20.9679L40.7658 18.4731C38.9958 17.2049 36.7073 16.5685 33.9085 16.5685C31.8829 16.5685 30.1315 16.9831 28.6473 17.8159C27.1685 18.6452 26.2702 19.7386 25.9533 21.0929L25.9435 21.1354C25.8459 21.5537 25.8077 21.9356 25.829 22.286C25.8556 22.6327 25.9284 22.944 26.0482 23.212C26.1681 23.4799 26.3545 23.7262 26.611 23.9516C26.864 24.1734 27.1374 24.3662 27.4277 24.5273C27.7189 24.6876 28.0899 24.8414 28.5426 24.9917C28.99 25.1411 29.4285 25.2705 29.8572 25.3809C30.2868 25.4878 30.799 25.6027 31.3902 25.7204C32.4439 25.9277 33.2304 26.1314 33.7576 26.3206C34.284 26.5143 34.6284 26.7071 34.7838 26.9036C34.94 27.1 34.9808 27.3426 34.9125 27.6359L34.9027 27.6785C34.7998 28.1184 34.466 28.4615 33.905 28.7149C33.3449 28.9657 32.617 29.0906 31.7311 29.0906C29.7534 29.0906 27.9363 28.4832 26.28 27.2684L23.1775 29.6056C24.1469 30.3923 25.3053 30.9889 26.6581 31.3962Z" fill="white"/>
<path d="M39.5071 48C44.3342 48 44.0138 42.0491 39.4369 33.5416H37.4849C39.4973 38.352 39.2549 41.4914 36.3408 41.4914C33.4266 41.4914 28.5133 38.352 23.3684 33.5416H17.8818C26.0696 42.0491 34.6808 48 39.5071 48Z" fill="white"/>
<path d="M19.9207 16.7785L14.2113 22.2235L14.4811 22.5873C15.003 23.2889 15.5366 23.9823 16.078 24.664L19.0561 21.9926L16.7607 31.7927H21.0729L24.589 16.7785H19.9207Z" fill="white"/>
</svg>
