<svg width="233" height="176" viewBox="0 0 233 176" fill="none" xmlns="http://www.w3.org/2000/svg">
<path d="M233 154.287H0V154.405H233V154.287Z" fill="#E0E0E0"/>
<path d="M183.22 157.857H175.363V157.974H183.22V157.857Z" fill="#E0E0E0"/>
<path d="M209.031 157.8H188.266V157.918H209.031V157.8Z" fill="#E0E0E0"/>
<path d="M149.458 158.59H123.609V158.707H149.458V158.59Z" fill="#E0E0E0"/>
<path d="M120.925 158.59H111.27V158.707H120.925V158.59Z" fill="#E0E0E0"/>
<path d="M70.6273 157.684H66.3867V157.801H70.6273V157.684Z" fill="#E0E0E0"/>
<path d="M80.2196 157.684H73.2109V157.801H80.2196V157.684Z" fill="#E0E0E0"/>
<path d="M62.1888 159.802H31.1719V159.919H62.1888V159.802Z" fill="#E0E0E0"/>
<path d="M110.441 133.338H20.4609C19.756 133.336 19.0804 133.053 18.5824 132.55C18.0844 132.047 17.8047 131.366 17.8047 130.655V3.15863C17.8108 2.45218 18.0932 1.7767 18.5906 1.2789C19.0879 0.781109 19.76 0.50121 20.4609 0.5H110.441C111.147 0.5 111.823 0.782579 112.322 1.28557C112.821 1.78857 113.102 2.47077 113.102 3.18212V130.655C113.102 131.367 112.821 132.049 112.322 132.552C111.823 133.055 111.147 133.338 110.441 133.338ZM20.4609 0.593945C19.7869 0.595189 19.1409 0.865945 18.6648 1.34678C18.1886 1.82762 17.9212 2.47925 17.9212 3.15863V130.655C17.9212 131.335 18.1886 131.986 18.6648 132.467C19.1409 132.948 19.7869 133.219 20.4609 133.22H110.441C111.115 133.219 111.762 132.948 112.239 132.468C112.716 131.987 112.984 131.335 112.985 130.655V3.15863C112.984 2.47881 112.716 1.8272 112.239 1.34649C111.762 0.865792 111.115 0.595187 110.441 0.593945H20.4609Z" fill="#E0E0E0"/>
<path d="M211.243 133.338H121.259C120.553 133.336 119.877 133.053 119.378 132.551C118.88 132.048 118.599 131.366 118.598 130.655V3.15863C118.605 2.45175 118.888 1.77627 119.387 1.27861C119.885 0.780945 120.557 0.501197 121.259 0.5H211.243C211.943 0.502445 212.614 0.78289 213.11 1.28055C213.607 1.77821 213.889 2.45299 213.895 3.15863V130.655C213.895 131.365 213.616 132.046 213.119 132.549C212.622 133.051 211.947 133.335 211.243 133.338ZM121.259 0.593945C120.584 0.595187 119.938 0.865792 119.461 1.34649C118.984 1.8272 118.715 2.47881 118.714 3.15863V130.655C118.715 131.335 118.984 131.987 119.461 132.468C119.938 132.948 120.584 133.219 121.259 133.22H211.243C211.918 133.219 212.564 132.948 213.041 132.468C213.518 131.987 213.786 131.335 213.787 130.655V3.15863C213.786 2.47881 213.518 1.8272 213.041 1.34649C212.564 0.865792 211.918 0.595187 211.243 0.593945H121.259Z" fill="#E0E0E0"/>
<path d="M148.089 97.0469H126.02V154.287H148.089V97.0469Z" fill="#E0E0E0"/>
<path d="M143.894 154.287H148.088V142.267H139.5L143.894 154.287Z" fill="#F0F0F0"/>
<path d="M65.6088 97.0469H43.5391V154.287H65.6088V97.0469Z" fill="#E0E0E0"/>
<path d="M148.089 97.0469H61.9531V146.913H148.089V97.0469Z" fill="#F0F0F0"/>
<path d="M106.426 100.668V131.886H144.838V100.668H106.426Z" fill="#E0E0E0"/>
<path d="M65.2031 100.673V131.891H103.616V100.673H65.2031Z" fill="#E0E0E0"/>
<path d="M144.836 142.267V139.97H106.424V142.267H144.836Z" fill="#E0E0E0"/>
<path d="M103.613 142.267V139.97H65.2009V142.267H103.613Z" fill="#E0E0E0"/>
<path d="M144.832 137.828V135.531H106.42V137.828H144.832Z" fill="#E0E0E0"/>
<path d="M103.609 137.833V135.536H65.197V137.833H103.609Z" fill="#E0E0E0"/>
<path d="M88.2099 104.032H80.6188C78.9855 104.032 77.3692 103.697 75.8686 103.047C74.368 102.396 73.0145 101.445 71.8906 100.25H96.9288C95.8063 101.444 94.4544 102.395 92.9554 103.046C91.4564 103.696 89.8418 104.031 88.2099 104.032Z" fill="#F0F0F0"/>
<path d="M129.816 104.032H122.22C120.587 104.032 118.971 103.697 117.47 103.047C115.969 102.397 114.616 101.446 113.492 100.25H138.544C137.421 101.446 136.067 102.397 134.567 103.047C133.066 103.697 131.45 104.032 129.816 104.032Z" fill="#F0F0F0"/>
<path d="M66.1471 154.287H61.9531V142.267H70.5415L66.1471 154.287Z" fill="#F0F0F0"/>
<path d="M147.615 9.42041H31.8516V76.074H147.615V9.42041Z" fill="#E0E0E0"/>
<path d="M154.021 7.36279H27.9629C27.806 7.36279 27.6554 7.42564 27.5445 7.53752C27.4335 7.64939 27.3711 7.80112 27.3711 7.95934C27.3705 8.03807 27.3854 8.11615 27.4148 8.18907C27.4443 8.26199 27.4878 8.32831 27.5428 8.3842C27.5978 8.4401 27.6633 8.48446 27.7354 8.51473C27.8075 8.545 27.8848 8.56059 27.9629 8.56059H154.021C154.099 8.56059 154.176 8.545 154.248 8.51473C154.32 8.48446 154.386 8.4401 154.441 8.3842C154.496 8.32831 154.539 8.26199 154.569 8.18907C154.598 8.11615 154.613 8.03807 154.612 7.95934C154.612 7.80112 154.55 7.64939 154.439 7.53752C154.328 7.42564 154.178 7.36279 154.021 7.36279Z" fill="#E0E0E0"/>
<path d="M150.15 9.42041H33.0352V76.074H150.15V9.42041Z" fill="#E6E6E6"/>
<path d="M147.615 76.0732H31.8516V80.8221H147.615V76.0732Z" fill="#E0E0E0"/>
<path d="M154.373 76.0732H37.2578V80.8221H154.373V76.0732Z" fill="#E6E6E6"/>
<path d="M146.594 72.4946V12.9995L36.5805 12.9995V72.4946H146.594Z" fill="#F5F5F5"/>
<path d="M91.0273 72.4946L111.862 12.9995H121.695L100.86 72.4946H91.0273Z" fill="#FAFAFA"/>
<path d="M102.977 72.4946L123.811 12.9995H127.642L106.812 72.4946H102.977Z" fill="#FAFAFA"/>
<path d="M146.594 72.4946V12.9995H146.142V72.4946H146.594Z" fill="#E0E0E0"/>
<path d="M36.621 6.2915H30.5117V63.701H36.621V6.2915Z" fill="#EBEBEB"/>
<path d="M39.004 6.2915H34.2461V63.701H39.004V6.2915Z" fill="#E0E0E0"/>
<path d="M42.7343 6.2915H36.625V63.701H42.7343V6.2915Z" fill="#EBEBEB"/>
<path d="M45.1133 6.2915H40.3555V63.701H45.1133V6.2915Z" fill="#E0E0E0"/>
<path d="M48.8397 6.2915H42.7305V63.701H48.8397V6.2915Z" fill="#EBEBEB"/>
<path d="M144.319 6.2915H140.801V63.701H144.319V6.2915Z" fill="#EBEBEB"/>
<path d="M145.702 6.2915H142.957V63.701H145.702V6.2915Z" fill="#E0E0E0"/>
<path d="M147.843 6.2915H144.324V63.701H147.843V6.2915Z" fill="#EBEBEB"/>
<path d="M149.217 6.2915H146.473V63.701H149.217V6.2915Z" fill="#E0E0E0"/>
<path d="M151.362 6.2915H147.844V63.701H151.362V6.2915Z" fill="#EBEBEB"/>
<path d="M183.388 31.1963H175.578V52.6767H183.388V31.1963Z" fill="#E6E6E6"/>
<path d="M172.605 56.2607L170.797 61.2257H172.605L183.663 56.2607H172.605Z" fill="#F0F0F0"/>
<path d="M170.797 56.2607V61.2257L181.86 56.2607H170.797Z" fill="#E0E0E0"/>
<path d="M191.523 56.2607L189.715 61.2257H191.523L202.581 56.2607H191.523Z" fill="#F0F0F0"/>
<path d="M189.715 56.2607V61.2257L200.778 56.2607H189.715Z" fill="#E0E0E0"/>
<path d="M162.683 56.4907H174.711V52.7095H162.683V56.4907Z" fill="#E0E0E0"/>
<path d="M209.028 52.71H174.707V56.4912H209.028V52.71Z" fill="#F0F0F0"/>
<path d="M196.397 52.6767H177.388L175.035 26.6494H194.043L196.397 52.6767Z" fill="#E0E0E0"/>
<path d="M197.38 52.6767H178.372L176.023 26.6494H195.032L197.38 52.6767Z" fill="#F0F0F0"/>
<path d="M180.972 49.7973L179.141 29.5288H192.431L194.262 49.7973H180.972Z" fill="#FAFAFA"/>
<path d="M73.354 88.6904C73.354 88.6904 65.157 74.4531 76.5274 63.1187C76.5274 63.1187 79.4958 65.068 79.4492 67.6891C79.4026 70.3101 76.2711 70.9771 76.9468 73.1566C77.6225 75.3361 80.577 77.4922 78.6337 79.3006C76.6905 81.109 78.946 82.7155 78.8155 84.9373C78.685 87.1591 73.354 88.6904 73.354 88.6904Z" fill="#E0E0E0"/>
<path d="M73.9716 89.9916C73.9716 89.9916 77.2942 73.8754 62.96 66.731C62.96 66.731 60.7559 69.5258 61.618 71.9966C62.4801 74.4673 65.6582 74.1056 65.7048 76.3932C65.7514 78.6807 63.6171 81.6587 66.0217 82.7579C68.4262 83.857 66.7952 86.1023 67.6154 88.1597C68.4355 90.2171 73.9716 89.9916 73.9716 89.9916Z" fill="#E0E0E0"/>
<path d="M61.418 86.4214C61.418 86.4214 61.6882 97.0465 72.136 97.0465C82.5837 97.0465 82.854 86.4214 82.854 86.4214H61.418Z" fill="#F0F0F0"/>
<path d="M184.699 154.287H185.766L188.805 139.181L189.341 136.536L192.654 120.096H205.371L212.263 154.287H213.33L206.308 119.443C206.283 119.324 206.219 119.218 206.125 119.142C206.032 119.066 205.915 119.025 205.795 119.025H192.23C192.11 119.024 191.994 119.065 191.901 119.141C191.808 119.218 191.745 119.324 191.722 119.443L188.809 133.901L188.264 136.546L184.699 154.287Z" fill="#EBEBEB"/>
<path d="M164.281 154.287H165.348L172.241 120.077H184.958L188.262 136.546L188.793 139.181L191.836 154.287H192.922L189.347 136.536L188.807 133.901L185.894 119.443C185.87 119.324 185.805 119.218 185.712 119.142C185.618 119.066 185.502 119.024 185.382 119.025H171.816C171.696 119.024 171.58 119.066 171.486 119.142C171.393 119.218 171.329 119.324 171.304 119.443L164.281 154.287Z" fill="#EBEBEB"/>
<path d="M195.633 119.551H172.267C170.123 119.551 168.064 118.703 166.533 117.19C165.001 115.677 164.119 113.619 164.075 111.458L163.204 75.6557C163.192 74.8592 163.337 74.0683 163.631 73.3289C163.925 72.5895 164.362 71.9162 164.916 71.3481C165.47 70.7801 166.13 70.3286 166.859 70.0198C167.587 69.711 168.369 69.5511 169.159 69.5493H183.806C185.272 69.549 186.687 70.0928 187.781 71.077C188.875 72.0611 189.572 73.4168 189.738 74.8854L195.633 119.551Z" fill="#E6E6E6"/>
<path d="M182.887 115.037H205.753C206.602 115.037 207.417 115.377 208.017 115.982C208.617 116.587 208.955 117.408 208.955 118.264V118.377C208.955 118.688 208.832 118.987 208.614 119.207C208.395 119.427 208.099 119.551 207.79 119.551H182.887V115.037Z" fill="#E6E6E6"/>
<path d="M116.501 175.5C166.402 175.5 206.854 173.119 206.854 170.182C206.854 167.246 166.402 164.865 116.501 164.865C66.6007 164.865 26.1484 167.246 26.1484 170.182C26.1484 173.119 66.6007 175.5 116.501 175.5Z" fill="#F5F5F5"/>
<path d="M86.9301 34.9214C86.9319 34.0465 86.8617 33.173 86.7204 32.3097C86.0958 28.4944 84.157 25.0231 81.2448 22.5059C78.3325 19.9888 74.6332 18.587 70.7971 18.5469H70.6573C68.0838 18.5484 65.5474 19.1669 63.2577 20.3511C60.9679 21.5354 58.9904 23.2515 57.4882 25.3579C57.2412 25.7008 57.0222 26.053 56.7985 26.4053C56.7803 26.4286 56.7647 26.4538 56.7519 26.4805C55.2222 29.0307 54.4162 31.9553 54.4219 34.9355V34.9684C54.4315 38.4321 55.5299 41.8035 57.5592 44.5987C59.5886 47.3938 62.4446 49.4687 65.717 50.5254C68.9894 51.5822 72.5099 51.5663 75.7728 50.4802C79.0357 49.3941 81.8732 47.2935 83.8778 44.4803C84.1201 44.1374 84.3438 43.7898 84.5628 43.4328C84.581 43.4095 84.5966 43.3843 84.6094 43.3576C86.1372 40.8139 86.9402 37.895 86.9301 34.9214ZM55.1162 34.5503C55.1701 31.8684 55.9135 29.2464 57.2738 26.9408H62.3579C61.581 29.4024 61.1741 31.9673 61.1509 34.5503H55.1162ZM63.0709 26.9408H70.3218V34.5503H61.8499C61.8654 31.9656 62.2772 29.3987 63.0709 26.9408ZM71.0208 26.2362V19.228C72.0287 19.3201 72.9939 19.6817 73.8168 20.2755C75.5457 21.4685 76.9949 23.5635 78.0108 26.2362H71.0208ZM78.2625 26.9408C78.839 28.7004 79.2142 30.5207 79.3809 32.3661C79.4508 33.0989 79.4834 33.827 79.4927 34.5503H71.0208V26.9408H78.2625ZM69.2966 19.4253C69.6312 19.3294 69.9748 19.2696 70.3218 19.2468V26.2503H63.3318C64.6366 22.7086 66.7523 20.1345 69.2966 19.4112V19.4253ZM70.3218 35.269V42.8785H63.0848C62.5082 41.1146 62.1361 39.2893 61.9758 37.4391C61.9105 36.7064 61.8732 35.9783 61.8639 35.2549L70.3218 35.269ZM70.3218 43.5831V50.5914C69.3141 50.4986 68.349 50.137 67.5258 49.5439C65.8016 48.3508 64.3524 46.2558 63.3318 43.5831H70.3218ZM72.046 50.4082C71.7116 50.5044 71.3679 50.5642 71.0208 50.5867V43.569H78.0108C76.706 47.0966 74.5904 49.6754 72.046 50.3941V50.4082ZM71.0208 42.8926V35.2596H79.4927C79.4795 37.8446 79.0676 40.4117 78.2718 42.8691L71.0208 42.8926ZM80.1917 35.2596H86.2497C86.1933 37.9412 85.4501 40.5625 84.0921 42.8691H78.9848C79.7617 40.4076 80.1685 37.8426 80.1917 35.2596ZM86.2497 34.555H80.1917C80.1917 33.8129 80.1451 33.0613 80.0752 32.3051C79.9162 30.4844 79.5583 28.687 79.0081 26.9455H84.0828C85.0635 28.6239 85.7256 30.4716 86.0353 32.3943C86.1463 33.108 86.2117 33.8282 86.2311 34.5503L86.2497 34.555ZM79.7863 22.1872C81.3094 23.2931 82.6227 24.6662 83.6634 26.2409H78.7518C77.7079 23.3334 76.1375 21.0317 74.2129 19.6977L74.0638 19.5991C76.1187 20.0629 78.0591 20.9417 79.7676 22.1825L79.7863 22.1872ZM67.2649 19.6084C65.303 20.9096 63.6906 23.277 62.6049 26.2409H57.7119L58.052 25.7383C60.265 22.6244 63.5379 20.4406 67.2462 19.6038L67.2649 19.6084ZM55.1489 35.2596H61.1836C61.1836 36.0018 61.2302 36.7533 61.3001 37.5096C61.4614 39.3299 61.8192 41.127 62.3672 42.8691H57.2645C56.2818 41.1917 55.6196 39.3436 55.312 37.4203C55.196 36.7057 55.1306 35.9836 55.1162 35.2596H55.1489ZM57.7305 43.5737H62.6049C63.6487 46.4813 65.2191 48.7829 67.1437 50.1169L67.2975 50.2156C63.3819 49.3192 59.9573 46.9416 57.7305 43.5737ZM74.0918 50.2015C76.049 48.905 77.6613 46.533 78.7518 43.569H83.6354C83.5236 43.7381 83.4118 43.9072 83.2953 44.0716C81.0804 47.187 77.8035 49.3696 74.0918 50.2015Z" fill="#407BFF"/>
<path opacity="0.8" d="M86.9301 34.9214C86.9319 34.0465 86.8617 33.173 86.7204 32.3097C86.0958 28.4944 84.157 25.0231 81.2448 22.5059C78.3325 19.9888 74.6332 18.587 70.7971 18.5469H70.6573C68.0838 18.5484 65.5474 19.1669 63.2577 20.3511C60.9679 21.5354 58.9904 23.2515 57.4882 25.3579C57.2412 25.7008 57.0222 26.053 56.7985 26.4053C56.7803 26.4286 56.7647 26.4538 56.7519 26.4805C55.2222 29.0307 54.4162 31.9553 54.4219 34.9355V34.9684C54.4315 38.4321 55.5299 41.8035 57.5592 44.5987C59.5886 47.3938 62.4446 49.4687 65.717 50.5254C68.9894 51.5822 72.5099 51.5663 75.7728 50.4802C79.0357 49.3941 81.8732 47.2935 83.8778 44.4803C84.1201 44.1374 84.3438 43.7898 84.5628 43.4328C84.581 43.4095 84.5966 43.3843 84.6094 43.3576C86.1372 40.8139 86.9402 37.895 86.9301 34.9214ZM55.1162 34.5503C55.1701 31.8684 55.9135 29.2464 57.2738 26.9408H62.3579C61.581 29.4024 61.1741 31.9673 61.1509 34.5503H55.1162ZM63.0709 26.9408H70.3218V34.5503H61.8499C61.8654 31.9656 62.2772 29.3987 63.0709 26.9408ZM71.0208 26.2362V19.228C72.0287 19.3201 72.9939 19.6817 73.8168 20.2755C75.5457 21.4685 76.9949 23.5635 78.0108 26.2362H71.0208ZM78.2625 26.9408C78.839 28.7004 79.2142 30.5207 79.3809 32.3661C79.4508 33.0989 79.4834 33.827 79.4927 34.5503H71.0208V26.9408H78.2625ZM69.2966 19.4253C69.6312 19.3294 69.9748 19.2696 70.3218 19.2468V26.2503H63.3318C64.6366 22.7086 66.7523 20.1345 69.2966 19.4112V19.4253ZM70.3218 35.269V42.8785H63.0848C62.5082 41.1146 62.1361 39.2893 61.9758 37.4391C61.9105 36.7064 61.8732 35.9783 61.8639 35.2549L70.3218 35.269ZM70.3218 43.5831V50.5914C69.3141 50.4986 68.349 50.137 67.5258 49.5439C65.8016 48.3508 64.3524 46.2558 63.3318 43.5831H70.3218ZM72.046 50.4082C71.7116 50.5044 71.3679 50.5642 71.0208 50.5867V43.569H78.0108C76.706 47.0966 74.5904 49.6754 72.046 50.3941V50.4082ZM71.0208 42.8926V35.2596H79.4927C79.4795 37.8446 79.0676 40.4117 78.2718 42.8691L71.0208 42.8926ZM80.1917 35.2596H86.2497C86.1933 37.9412 85.4501 40.5625 84.0921 42.8691H78.9848C79.7617 40.4076 80.1685 37.8426 80.1917 35.2596ZM86.2497 34.555H80.1917C80.1917 33.8129 80.1451 33.0613 80.0752 32.3051C79.9162 30.4844 79.5583 28.687 79.0081 26.9455H84.0828C85.0635 28.6239 85.7256 30.4716 86.0353 32.3943C86.1463 33.108 86.2117 33.8282 86.2311 34.5503L86.2497 34.555ZM79.7863 22.1872C81.3094 23.2931 82.6227 24.6662 83.6634 26.2409H78.7518C77.7079 23.3334 76.1375 21.0317 74.2129 19.6977L74.0638 19.5991C76.1187 20.0629 78.0591 20.9417 79.7676 22.1825L79.7863 22.1872ZM67.2649 19.6084C65.303 20.9096 63.6906 23.277 62.6049 26.2409H57.7119L58.052 25.7383C60.265 22.6244 63.5379 20.4406 67.2462 19.6038L67.2649 19.6084ZM55.1489 35.2596H61.1836C61.1836 36.0018 61.2302 36.7533 61.3001 37.5096C61.4614 39.3299 61.8192 41.127 62.3672 42.8691H57.2645C56.2818 41.1917 55.6196 39.3436 55.312 37.4203C55.196 36.7057 55.1306 35.9836 55.1162 35.2596H55.1489ZM57.7305 43.5737H62.6049C63.6487 46.4813 65.2191 48.7829 67.1437 50.1169L67.2975 50.2156C63.3819 49.3192 59.9573 46.9416 57.7305 43.5737ZM74.0918 50.2015C76.049 48.905 77.6613 46.533 78.7518 43.569H83.6354C83.5236 43.7381 83.4118 43.9072 83.2953 44.0716C81.0804 47.187 77.8035 49.3696 74.0918 50.2015Z" fill="#FAFAFA"/>
<path d="M193.057 42.728H46.5469V78.5115H193.057V42.728Z" fill="#407BFF"/>
<path opacity="0.6" d="M193.057 42.728H46.5469V78.5115H193.057V42.728Z" fill="#FAFAFA"/>
<path d="M189.749 46.0591H43.2383V81.8425H189.749V46.0591Z" fill="#407BFF"/>
<path opacity="0.3" d="M189.749 46.0591H43.2383V81.8425H189.749V46.0591Z" fill="black"/>
<path d="M186.448 49.3892H39.9375V85.1726H186.448V49.3892Z" fill="#407BFF"/>
<path opacity="0.1" d="M186.448 49.3892H39.9375V85.1726H186.448V49.3892Z" fill="#FAFAFA"/>
<path d="M179.457 78.1264V56.4346L46.9266 56.4346V78.1264H179.457Z" fill="#407BFF"/>
<path opacity="0.9" d="M179.457 78.1264V56.4346L46.9266 56.4346V78.1264H179.457Z" fill="#FAFAFA"/>
<path d="M157.164 56.4347V78.1265H157.942V56.4347H157.164Z" fill="#407BFF"/>
<path opacity="0.6" d="M157.164 56.4347V78.1265H157.942V56.4347H157.164Z" fill="#FAFAFA"/>
<path d="M50.2305 59.4272V75.1348H51.0087V59.4272H50.2305Z" fill="#407BFF"/>
<path opacity="0.6" d="M50.2305 59.4272V75.1348H51.0087V59.4272H50.2305Z" fill="#FAFAFA"/>
<path d="M167.957 70.0195C167.392 70.0193 166.835 69.8785 166.336 69.6097C165.838 69.3408 165.413 68.9522 165.099 68.4782C164.785 68.0042 164.591 67.4595 164.536 66.8922C164.481 66.325 164.565 65.7528 164.781 65.2262C164.998 64.6996 165.34 64.235 165.777 63.8734C166.214 63.5118 166.733 63.2644 167.287 63.1531C167.842 63.0419 168.415 63.0701 168.956 63.2355C169.497 63.4008 169.99 63.6981 170.39 64.101C170.871 64.5858 171.199 65.2036 171.332 65.8763C171.464 66.5489 171.396 67.2462 171.136 67.8798C170.875 68.5134 170.434 69.0549 169.869 69.4358C169.303 69.8167 168.638 70.0198 167.957 70.0195ZM167.957 64.0306C167.377 64.0307 166.815 64.2337 166.367 64.6049C165.918 64.9761 165.612 65.4925 165.499 66.0661C165.386 66.6398 165.474 67.2351 165.748 67.7506C166.022 68.2661 166.464 68.67 167.001 68.8933C167.537 69.1166 168.133 69.1455 168.688 68.9752C169.243 68.8048 169.722 68.4457 170.044 67.9591C170.366 67.4725 170.51 66.8884 170.453 66.3065C170.395 65.7246 170.139 65.1809 169.728 64.768C169.498 64.5288 169.223 64.3383 168.919 64.2076C168.615 64.0769 168.288 64.0088 167.957 64.0071V64.0306Z" fill="#407BFF"/>
<path d="M172.417 71.4938C172.356 71.4936 172.295 71.481 172.238 71.4568C172.181 71.4326 172.13 71.3973 172.087 71.3529L169.733 68.9808C169.684 68.9387 169.645 68.8869 169.617 68.8286C169.589 68.7703 169.573 68.7068 169.571 68.6421C169.568 68.5775 169.579 68.513 169.602 68.4527C169.626 68.3924 169.661 68.3377 169.707 68.2919C169.752 68.2461 169.807 68.2103 169.866 68.1867C169.926 68.163 169.99 68.1521 170.054 68.1546C170.118 68.1571 170.181 68.173 170.239 68.2012C170.297 68.2294 170.348 68.2693 170.39 68.3185L172.744 70.6906C172.83 70.7786 172.879 70.8976 172.879 71.0217C172.879 71.1458 172.83 71.2649 172.744 71.3529C172.658 71.4414 172.54 71.492 172.417 71.4938Z" fill="#407BFF"/>
<g opacity="0.6">
<path opacity="0.6" d="M167.957 70.019C167.392 70.0188 166.835 69.878 166.336 69.6092C165.838 69.3403 165.413 68.9517 165.099 68.4777C164.785 68.0037 164.591 67.459 164.536 66.8917C164.481 66.3245 164.565 65.7523 164.781 65.2257C164.998 64.6991 165.34 64.2345 165.777 63.8729C166.214 63.5113 166.733 63.2639 167.287 63.1526C167.842 63.0414 168.415 63.0697 168.956 63.235C169.497 63.4003 169.99 63.6976 170.39 64.1005C170.871 64.5853 171.199 65.2032 171.332 65.8758C171.464 66.5484 171.396 67.2457 171.136 67.8793C170.875 68.5129 170.434 69.0544 169.869 69.4353C169.303 69.8162 168.638 70.0193 167.957 70.019ZM167.957 64.0301C167.377 64.0302 166.815 64.2332 166.367 64.6044C165.918 64.9756 165.612 65.492 165.499 66.0656C165.386 66.6393 165.474 67.2346 165.748 67.7501C166.022 68.2657 166.464 68.6695 167.001 68.8928C167.537 69.1161 168.133 69.145 168.688 68.9747C169.243 68.8044 169.722 68.4453 170.044 67.9586C170.366 67.472 170.51 66.888 170.453 66.3061C170.395 65.7242 170.139 65.1804 169.728 64.7675C169.498 64.5283 169.223 64.3378 168.919 64.2071C168.615 64.0764 168.288 64.0083 167.957 64.0066V64.0301Z" fill="#FAFAFA"/>
<path opacity="0.6" d="M172.417 71.4943C172.356 71.494 172.295 71.4815 172.238 71.4573C172.181 71.4331 172.13 71.3978 172.087 71.3534L169.733 68.9813C169.684 68.9392 169.645 68.8874 169.617 68.8291C169.589 68.7708 169.573 68.7073 169.571 68.6426C169.568 68.5779 169.579 68.5134 169.602 68.4532C169.626 68.3929 169.661 68.3381 169.707 68.2924C169.752 68.2466 169.807 68.2108 169.866 68.1872C169.926 68.1635 169.99 68.1526 170.054 68.1551C170.118 68.1576 170.181 68.1735 170.239 68.2017C170.297 68.2299 170.348 68.2698 170.39 68.319L172.744 70.6911C172.83 70.7791 172.879 70.8981 172.879 71.0222C172.879 71.1463 172.83 71.2654 172.744 71.3534C172.658 71.4419 172.54 71.4925 172.417 71.4943Z" fill="#FAFAFA"/>
</g>
<path d="M136.342 21.0977H121.691V21.464H136.342V21.0977Z" fill="#407BFF"/>
<path d="M136.342 22.6523H121.691V23.0187H136.342V22.6523Z" fill="#407BFF"/>
<path d="M136.342 24.2119H121.691V24.5783H136.342V24.2119Z" fill="#407BFF"/>
<path d="M136.342 25.7666H121.691V26.133H136.342V25.7666Z" fill="#407BFF"/>
<path d="M136.342 27.3213H121.691V27.6877H136.342V27.3213Z" fill="#407BFF"/>
<path d="M131.244 28.8809H121.691V29.2472H131.244V28.8809Z" fill="#407BFF"/>
<g opacity="0.5">
<path opacity="0.5" d="M136.342 21.0977H121.691V21.464H136.342V21.0977Z" fill="#FAFAFA"/>
<path opacity="0.5" d="M136.342 22.653H121.691V23.0193H136.342V22.653Z" fill="#FAFAFA"/>
<path opacity="0.5" d="M136.342 24.2122H121.691V24.5785H136.342V24.2122Z" fill="#FAFAFA"/>
<path opacity="0.5" d="M136.342 25.7673H121.691V26.1337H136.342V25.7673Z" fill="#FAFAFA"/>
<path opacity="0.5" d="M136.342 27.3219H121.691V27.6883H136.342V27.3219Z" fill="#FAFAFA"/>
<path opacity="0.5" d="M131.244 28.8811H121.691V29.2475H131.244V28.8811Z" fill="#FAFAFA"/>
</g>
<path d="M48.1579 88.2634H32.5469V88.4983H48.1579V88.2634Z" fill="#407BFF"/>
<path d="M48.1579 89.259H32.5469V89.4938H48.1579V89.259Z" fill="#407BFF"/>
<path d="M48.1579 90.2549H32.5469V90.4898H48.1579V90.2549Z" fill="#407BFF"/>
<path d="M48.1579 91.251H32.5469V91.4858H48.1579V91.251Z" fill="#407BFF"/>
<path d="M48.1579 92.2469H32.5469V92.4818H48.1579V92.2469Z" fill="#407BFF"/>
<path d="M42.3608 93.2471H32.5469V93.4819H42.3608V93.2471Z" fill="#407BFF"/>
<g opacity="0.4">
<path opacity="0.4" d="M48.1579 88.2634H32.5469V88.4983H48.1579V88.2634Z" fill="#FAFAFA"/>
<path opacity="0.4" d="M48.1579 89.2595H32.5469V89.4943H48.1579V89.2595Z" fill="#FAFAFA"/>
<path opacity="0.4" d="M48.1579 90.2554H32.5469V90.4903H48.1579V90.2554Z" fill="#FAFAFA"/>
<path opacity="0.4" d="M48.1579 91.251H32.5469V91.4858H48.1579V91.251Z" fill="#FAFAFA"/>
<path opacity="0.4" d="M48.1579 92.2469H32.5469V92.4818H48.1579V92.2469Z" fill="#FAFAFA"/>
<path opacity="0.4" d="M42.3608 93.2476H32.5469V93.4824H42.3608V93.2476Z" fill="#FAFAFA"/>
</g>
<path d="M99.4646 23.4038C98.6836 23.4038 97.9344 23.7166 97.3821 24.2733C96.8298 24.83 96.5195 25.5851 96.5195 26.3725V36.1662C96.5195 36.9535 96.8298 37.7086 97.3821 38.2653C97.9344 38.822 98.6836 39.1348 99.4646 39.1348C100.246 39.1348 100.995 38.822 101.547 38.2653C102.099 37.7086 102.41 36.9535 102.41 36.1662V26.3725C102.41 25.5851 102.099 24.83 101.547 24.2733C100.995 23.7166 100.246 23.4038 99.4646 23.4038Z" fill="#407BFF"/>
<path opacity="0.2" d="M99.4646 23.4038C98.6836 23.4038 97.9344 23.7166 97.3821 24.2733C96.8298 24.83 96.5195 25.5851 96.5195 26.3725V36.1662C96.5195 36.9535 96.8298 37.7086 97.3821 38.2653C97.9344 38.822 98.6836 39.1348 99.4646 39.1348C100.246 39.1348 100.995 38.822 101.547 38.2653C102.099 37.7086 102.41 36.9535 102.41 36.1662V26.3725C102.41 25.5851 102.099 24.83 101.547 24.2733C100.995 23.7166 100.246 23.4038 99.4646 23.4038Z" fill="#FAFAFA"/>
<path d="M106.845 17.565C106.067 17.5687 105.321 17.8831 104.772 18.4394C104.222 18.9958 103.914 19.7487 103.914 20.5336V36.166C103.914 36.9533 104.224 37.7084 104.777 38.2651C105.329 38.8219 106.078 39.1346 106.859 39.1346C107.64 39.1346 108.389 38.8219 108.942 38.2651C109.494 37.7084 109.804 36.9533 109.804 36.166V20.5336C109.804 20.1426 109.728 19.7554 109.579 19.3943C109.43 19.0332 109.212 18.7053 108.937 18.4295C108.662 18.1536 108.335 17.9352 107.977 17.7869C107.618 17.6385 107.233 17.5631 106.845 17.565Z" fill="#407BFF"/>
<path opacity="0.3" d="M106.845 17.565C106.067 17.5687 105.321 17.8831 104.772 18.4394C104.222 18.9958 103.914 19.7487 103.914 20.5336V36.166C103.914 36.9533 104.224 37.7084 104.777 38.2651C105.329 38.8219 106.078 39.1346 106.859 39.1346C107.64 39.1346 108.389 38.8219 108.942 38.2651C109.494 37.7084 109.804 36.9533 109.804 36.166V20.5336C109.804 20.1426 109.728 19.7554 109.579 19.3943C109.43 19.0332 109.212 18.7053 108.937 18.4295C108.662 18.1536 108.335 17.9352 107.977 17.7869C107.618 17.6385 107.233 17.5631 106.845 17.565Z" fill="black"/>
<path d="M114.222 29.2422C113.441 29.2422 112.692 29.555 112.14 30.1117C111.588 30.6684 111.277 31.4235 111.277 32.2108V36.1659C111.277 36.9532 111.588 37.7083 112.14 38.265C112.692 38.8218 113.441 39.1345 114.222 39.1345C114.61 39.1352 114.993 39.0588 115.351 38.9099C115.709 38.761 116.034 38.5424 116.308 38.2667C116.582 37.991 116.799 37.6635 116.948 37.303C117.096 36.9426 117.172 36.5561 117.172 36.1659V32.2108C117.172 31.8206 117.096 31.4342 116.948 31.0737C116.799 30.7132 116.582 30.3857 116.308 30.11C116.034 29.8343 115.709 29.6157 115.351 29.4668C114.993 29.3179 114.61 29.2416 114.222 29.2422Z" fill="#407BFF"/>
<path opacity="0.6" d="M114.222 29.2422C113.441 29.2422 112.692 29.555 112.14 30.1117C111.588 30.6684 111.277 31.4235 111.277 32.2108V36.1659C111.277 36.9532 111.588 37.7083 112.14 38.265C112.692 38.8218 113.441 39.1345 114.222 39.1345C114.61 39.1352 114.993 39.0588 115.351 38.9099C115.709 38.761 116.034 38.5424 116.308 38.2667C116.582 37.991 116.799 37.6635 116.948 37.303C117.096 36.9426 117.172 36.5561 117.172 36.1659V32.2108C117.172 31.8206 117.096 31.4342 116.948 31.0737C116.799 30.7132 116.582 30.3857 116.308 30.11C116.034 29.8343 115.709 29.6157 115.351 29.4668C114.993 29.3179 114.61 29.2416 114.222 29.2422Z" fill="#FAFAFA"/>
<path d="M176.428 96.385H188.335L168.008 75.1348L176.428 96.385Z" fill="#407BFF"/>
<g opacity="0.1">
<path opacity="0.1" d="M176.428 96.385H188.335L168.008 75.1348L176.428 96.385Z" fill="black"/>
</g>
<g style="mix-blend-mode:multiply">
<path d="M164.984 85.168L168.009 75.1348L169.724 85.168H164.984Z" fill="#407BFF"/>
</g>
<path d="M168.008 75.1348V104.868L170.114 102.75L176.428 96.385L168.008 75.1348Z" fill="#407BFF"/>
<path opacity="0.3" d="M168.008 75.1348V104.868L170.114 102.75L176.428 96.385L168.008 75.1348Z" fill="#FAFAFA"/>
<path d="M189.06 11.3555H162.964C161.642 11.3604 160.375 11.8919 159.439 12.8341C158.503 13.7764 157.975 15.0531 157.969 16.3862V29.9706C157.975 31.3029 158.503 32.5789 159.437 33.521C160.372 34.4631 161.638 34.9951 162.96 35.0013H182.108L181.968 39.7502L186.8 35.0013H189.051C190.374 34.9964 191.641 34.4649 192.576 33.5227C193.512 32.5804 194.04 31.3037 194.046 29.9706V16.3862C194.04 15.0547 193.513 13.7794 192.58 12.8374C191.646 11.8954 190.381 11.3629 189.06 11.3555ZM162.377 17.1425C162.377 16.7687 162.524 16.4103 162.787 16.146C163.049 15.8817 163.404 15.7333 163.775 15.7333H169.782C170.153 15.7333 170.508 15.8817 170.77 16.146C171.033 16.4103 171.18 16.7687 171.18 17.1425C171.18 17.5162 171.033 17.8746 170.77 18.1389C170.508 18.4032 170.153 18.5516 169.782 18.5516H163.77C163.4 18.5504 163.046 18.4014 162.785 18.1372C162.524 17.8731 162.377 17.5154 162.377 17.1425ZM187.578 30.2947H177.196C176.995 30.3302 176.789 30.3209 176.592 30.2675C176.395 30.2141 176.212 30.1179 176.055 29.9856C175.899 29.8534 175.774 29.6882 175.688 29.5018C175.601 29.3154 175.557 29.1123 175.557 28.9067C175.557 28.701 175.601 28.4979 175.688 28.3115C175.774 28.1251 175.899 27.9599 176.055 27.8277C176.212 27.6954 176.395 27.5992 176.592 27.5458C176.789 27.4924 176.995 27.4831 177.196 27.5186H187.578C187.779 27.4831 187.986 27.4924 188.183 27.5458C188.38 27.5992 188.563 27.6954 188.719 27.8277C188.875 27.9599 189.001 28.1251 189.087 28.3115C189.173 28.4979 189.218 28.701 189.218 28.9067C189.218 29.1123 189.173 29.3154 189.087 29.5018C189.001 29.6882 188.875 29.8534 188.719 29.9856C188.563 30.1179 188.38 30.2141 188.183 30.2675C187.986 30.3209 187.779 30.3302 187.578 30.2947ZM187.578 24.4185H165.168C164.968 24.4539 164.761 24.4447 164.564 24.3913C164.367 24.3379 164.184 24.2417 164.028 24.1094C163.872 23.9771 163.746 23.812 163.66 23.6256C163.574 23.4392 163.529 23.2361 163.529 23.0304C163.529 22.8248 163.574 22.6216 163.66 22.4352C163.746 22.2488 163.872 22.0837 164.028 21.9514C164.184 21.8192 164.367 21.723 164.564 21.6696C164.761 21.6162 164.968 21.6069 165.168 21.6424H187.578C187.779 21.6069 187.986 21.6162 188.183 21.6696C188.38 21.723 188.563 21.8192 188.719 21.9514C188.875 22.0837 189.001 22.2488 189.087 22.4352C189.173 22.6216 189.218 22.8248 189.218 23.0304C189.218 23.2361 189.173 23.4392 189.087 23.6256C189.001 23.812 188.875 23.9771 188.719 24.1094C188.563 24.2417 188.38 24.3379 188.183 24.3913C187.986 24.4447 187.779 24.4539 187.578 24.4185ZM187.578 18.5422H174.311C173.941 18.5422 173.585 18.3938 173.323 18.1295C173.061 17.8652 172.913 17.5068 172.913 17.1331C172.913 16.7593 173.061 16.4009 173.323 16.1366C173.585 15.8724 173.941 15.7239 174.311 15.7239H187.578C187.949 15.7239 188.305 15.8724 188.567 16.1366C188.829 16.4009 188.976 16.7593 188.976 17.1331C188.976 17.5068 188.829 17.8652 188.567 18.1295C188.305 18.3938 187.949 18.5422 187.578 18.5422Z" fill="#407BFF"/>
<path d="M146.813 66.5953C145.698 63.5093 143.997 60.6723 141.803 58.2437H104.752C102.558 60.6723 100.857 63.5093 99.7422 66.5953L104.868 92.3173C108.79 96.6023 114.062 99.3868 119.789 100.198C125.516 101.009 131.346 99.7959 136.287 96.7657C141.227 93.7355 144.975 89.0745 146.893 83.5747C148.811 78.0749 148.781 72.0754 146.808 66.5953H146.813Z" fill="#407BFF"/>
<path opacity="0.1" d="M146.813 66.5953C145.698 63.5093 143.997 60.6723 141.803 58.2437H104.752C102.558 60.6723 100.857 63.5093 99.7422 66.5953L104.868 92.3173C108.79 96.6023 114.062 99.3868 119.789 100.198C125.516 101.009 131.346 99.7959 136.287 96.7657C141.227 93.7355 144.975 89.0745 146.893 83.5747C148.811 78.0749 148.781 72.0754 146.808 66.5953H146.813Z" fill="#FAFAFA"/>
<path d="M148.291 76.38C148.026 82.3111 145.689 87.9566 141.692 92.3177H104.878C101.77 88.9137 99.6489 84.7152 98.745 80.1796C97.8411 75.6441 98.1895 70.9454 99.7522 66.5957H146.818C147.949 69.7263 148.449 73.0524 148.291 76.38Z" fill="#407BFF"/>
<path opacity="0.9" d="M148.291 76.38C148.026 82.3111 145.689 87.9566 141.692 92.3177H104.878C101.77 88.9137 99.6489 84.7152 98.745 80.1796C97.8411 75.6441 98.1895 70.9454 99.7522 66.5957H146.818C147.949 69.7263 148.449 73.0524 148.291 76.38Z" fill="#FAFAFA"/>
<path opacity="0.3" d="M148.293 76.3802C148.003 82.6216 145.422 88.5314 141.05 92.9614C136.679 97.3913 130.83 100.025 124.639 100.35C118.449 100.676 112.36 98.6703 107.555 94.7229C102.75 90.7756 99.5725 85.1686 98.6399 78.9915C97.7073 72.8145 99.0862 66.5085 102.509 61.2991C105.931 56.0896 111.153 52.3488 117.159 50.8034C123.165 49.258 129.527 50.0186 135.007 52.9372C140.488 55.8558 144.697 60.724 146.816 66.5959C147.946 69.7266 148.448 73.0524 148.293 76.3802Z" fill="white"/>
<path opacity="0.4" d="M137.394 54.3734L101.391 87.47C101.21 87.135 101.033 86.7968 100.859 86.4554C99.7584 84.234 98.9935 81.8591 98.5898 79.4096L129.686 50.8223C132.438 51.5532 135.045 52.7543 137.394 54.3734Z" fill="white"/>
<path opacity="0.4" d="M147.026 67.201L113.199 98.3155C109.69 96.755 106.584 94.4021 104.121 91.4387L141.084 57.459C143.778 60.2055 145.81 63.5384 147.026 67.201Z" fill="white"/>
<path d="M148.283 60.6628C145.428 55.6717 141.168 51.6465 136.042 49.0967C130.916 46.5468 125.155 45.5867 119.488 46.338C113.821 47.0893 108.502 49.5182 104.205 53.3173C99.9072 57.1164 96.8244 62.115 95.3462 67.6806C93.8679 73.2463 94.0607 79.1288 95.9001 84.584C97.7396 90.0392 101.143 94.8218 105.68 98.3267C110.216 101.832 115.683 103.901 121.387 104.274C127.091 104.647 132.776 103.305 137.724 100.42C144.35 96.5557 149.185 90.1981 151.164 82.7438C153.144 75.2894 152.108 67.3477 148.283 60.6628ZM103.547 86.7042C101.294 82.7709 100.249 78.2525 100.543 73.7203C100.838 69.1881 102.459 64.8457 105.202 61.2422C107.945 57.6387 111.686 54.936 115.952 53.4757C120.219 52.0154 124.82 51.8632 129.172 53.0384C133.525 54.2135 137.434 56.6632 140.405 60.0777C143.376 63.4922 145.276 67.7181 145.865 72.221C146.454 76.724 145.704 81.3018 143.712 85.3756C141.719 89.4493 138.573 92.8361 134.672 95.1076C132.081 96.6158 129.221 97.5949 126.255 97.9888C123.289 98.3827 120.275 98.1839 117.385 97.4035C114.495 96.6232 111.786 95.2766 109.413 93.4408C107.039 91.605 105.048 89.3159 103.552 86.7042H103.547Z" fill="#407BFF"/>
<path opacity="0.1" d="M148.283 60.6628C145.428 55.6717 141.168 51.6465 136.042 49.0967C130.916 46.5468 125.155 45.5867 119.488 46.338C113.821 47.0893 108.502 49.5182 104.205 53.3173C99.9072 57.1164 96.8244 62.115 95.3462 67.6806C93.8679 73.2463 94.0607 79.1288 95.9001 84.584C97.7396 90.0392 101.143 94.8218 105.68 98.3267C110.216 101.832 115.683 103.901 121.387 104.274C127.091 104.647 132.776 103.305 137.724 100.42C144.35 96.5557 149.185 90.1981 151.164 82.7438C153.144 75.2894 152.108 67.3477 148.283 60.6628ZM103.547 86.7042C101.294 82.7709 100.249 78.2525 100.543 73.7203C100.838 69.1881 102.459 64.8457 105.202 61.2422C107.945 57.6387 111.686 54.936 115.952 53.4757C120.219 52.0154 124.82 51.8632 129.172 53.0384C133.525 54.2135 137.434 56.6632 140.405 60.0777C143.376 63.4922 145.276 67.7181 145.865 72.221C146.454 76.724 145.704 81.3018 143.712 85.3756C141.719 89.4493 138.573 92.8361 134.672 95.1076C132.081 96.6158 129.221 97.5949 126.255 97.9888C123.289 98.3827 120.275 98.1839 117.385 97.4035C114.495 96.6232 111.786 95.2766 109.413 93.4408C107.039 91.605 105.048 89.3159 103.552 86.7042H103.547Z" fill="black"/>
<path d="M102.698 90.5514C98.9052 93.3698 95.0141 96.0472 91.1044 98.6635C87.1946 101.28 83.2336 103.83 79.254 106.334C75.2743 108.838 71.2574 111.29 67.2265 113.671C65.2134 114.883 63.1816 116.057 61.1685 117.25C60.1685 117.892 59.0782 118.378 57.9345 118.693C57.3242 118.856 56.7002 118.961 56.0705 119.007C55.3714 119.065 54.6678 119.028 53.9781 118.899C53.4853 118.801 53.0165 118.606 52.5986 118.325C52.1807 118.043 51.8219 117.682 51.5427 117.261C51.2636 116.84 51.0695 116.368 50.9716 115.871C50.8738 115.374 50.874 114.863 50.9724 114.366C51.0043 114.207 51.0479 114.05 51.1029 113.897C51.3279 113.231 51.6414 112.599 52.0349 112.018C52.3859 111.495 52.7854 111.008 53.2279 110.562C54.0706 109.721 55.0335 109.011 56.0845 108.457C58.1209 107.288 60.1433 106.109 62.1937 104.948C66.2759 102.623 70.3953 100.359 74.5241 98.1233C78.6528 95.8875 82.8329 93.722 87.0362 91.6083C91.2395 89.4945 95.4754 87.4372 99.7999 85.5395C100.453 85.2486 101.189 85.2111 101.867 85.434C102.546 85.657 103.118 86.1247 103.475 86.7474C103.833 87.3701 103.949 88.1038 103.802 88.8077C103.655 89.5115 103.256 90.1359 102.68 90.5608L102.698 90.5514Z" fill="#407BFF"/>
<path opacity="0.1" d="M102.698 90.5514C98.9052 93.3698 95.0141 96.0472 91.1044 98.6635C87.1946 101.28 83.2336 103.83 79.254 106.334C75.2743 108.838 71.2574 111.29 67.2265 113.671C65.2134 114.883 63.1816 116.057 61.1685 117.25C60.1685 117.892 59.0782 118.378 57.9345 118.693C57.3242 118.856 56.7002 118.961 56.0705 119.007C55.3714 119.065 54.6678 119.028 53.9781 118.899C53.4853 118.801 53.0165 118.606 52.5986 118.325C52.1807 118.043 51.8219 117.682 51.5427 117.261C51.2636 116.84 51.0695 116.368 50.9716 115.871C50.8738 115.374 50.874 114.863 50.9724 114.366C51.0043 114.207 51.0479 114.05 51.1029 113.897C51.3279 113.231 51.6414 112.599 52.0349 112.018C52.3859 111.495 52.7854 111.008 53.2279 110.562C54.0706 109.721 55.0335 109.011 56.0845 108.457C58.1209 107.288 60.1433 106.109 62.1937 104.948C66.2759 102.623 70.3953 100.359 74.5241 98.1233C78.6528 95.8875 82.8329 93.722 87.0362 91.6083C91.2395 89.4945 95.4754 87.4372 99.7999 85.5395C100.453 85.2486 101.189 85.2111 101.867 85.434C102.546 85.657 103.118 86.1247 103.475 86.7474C103.833 87.3701 103.949 88.1038 103.802 88.8077C103.655 89.5115 103.256 90.1359 102.68 90.5608L102.698 90.5514Z" fill="black"/>
<path d="M65.1167 94.2061C64.6885 94.7087 64.1991 95.2698 63.7801 95.8216C63.361 96.3735 62.9022 96.9346 62.4863 97.505C61.6564 98.611 60.9091 99.7776 60.2504 100.995L60.0271 101.442L59.9446 101.612C59.9201 101.658 59.9017 101.723 59.8773 101.778C59.7788 102.062 59.7001 102.353 59.6418 102.648C59.5133 103.289 59.4154 103.986 59.3359 104.692C59.1921 106.104 59.0973 107.58 59.0086 109.029L57.3294 109.18C57.005 107.682 56.8004 106.159 56.7177 104.627C56.6744 103.83 56.6846 103.03 56.7483 102.234C56.7797 101.794 56.8483 101.356 56.9532 100.927C56.9869 100.807 57.0113 100.693 57.0572 100.566C57.1031 100.44 57.1459 100.301 57.1796 100.221L57.409 99.6539C57.7216 98.9136 58.0781 98.1929 58.4764 97.4957C58.8588 96.8051 59.2839 96.1515 59.6999 95.5102C60.1158 94.869 60.5899 94.2462 61.0701 93.6604C61.3087 93.3521 61.5534 93.0438 61.8011 92.7633C62.0489 92.4827 62.2966 92.1898 62.5841 91.8784L65.1167 94.2061Z" fill="#E4897B"/>
<path d="M65.6703 94.9829C65.3644 95.5533 65.0188 96.1051 64.6854 96.62C64.1104 97.511 63.5537 98.2818 63.1561 98.812C62.7983 99.2899 62.5689 99.5705 62.5689 99.5705L58.0391 96.4597C58.0391 96.4597 60.7918 91.0582 62.9114 90.7129C65.0953 90.3645 67.0926 92.424 65.6703 94.9829Z" fill="#407BFF"/>
<path opacity="0.3" d="M65.6703 94.9829C65.3644 95.5533 65.0188 96.1051 64.6854 96.62C64.1104 97.511 63.5537 98.2818 63.1561 98.812C62.7983 99.2899 62.5689 99.5705 62.5689 99.5705L58.0391 96.4597C58.0391 96.4597 60.7918 91.0582 62.9114 90.7129C65.0953 90.3645 67.0926 92.424 65.6703 94.9829Z" fill="black"/>
<path d="M73.6484 160.856H75.8935L76.1167 155.612H73.8717L73.6484 160.856Z" fill="#E4897B"/>
<path d="M51.8008 151.086L53.6237 152.411L57.9241 149.072L56.1012 147.747L51.8008 151.086Z" fill="#E4897B"/>
<path d="M76.1191 155.612L76.0059 158.316H73.7578L73.871 155.612H76.1191Z" fill="#CE6F64"/>
<path d="M56.1003 147.747L57.9232 149.072L55.7027 150.793L53.8828 149.467L56.1003 147.747Z" fill="#CE6F64"/>
<path d="M71.3722 110.408C71.3722 110.408 71.6291 126.526 69.6196 132.846C66.4387 142.857 56.8285 150.965 56.8285 150.965L53.3906 148.465C53.3906 148.465 61.3889 141.614 62.8723 133.185C64.1906 125.61 63.6309 116.595 63.6309 110.408H71.3722Z" fill="#407BFF"/>
<path opacity="0.7" d="M71.3722 110.408C71.3722 110.408 71.6291 126.526 69.6196 132.846C66.4387 142.857 56.8285 150.965 56.8285 150.965L53.3906 148.465C53.3906 148.465 61.3889 141.614 62.8723 133.185C64.1906 125.61 63.6309 116.595 63.6309 110.408H71.3722Z" fill="white"/>
<path d="M59.0876 108.613L59.8981 110.081L57.0597 110.506C57.0597 110.506 56.7692 109.273 57.4696 108.422L59.0876 108.613Z" fill="#E4897B"/>
<path d="M60.3252 112.032L57.9639 112.273L57.0586 110.506L59.897 110.081L60.3252 112.032Z" fill="#E4897B"/>
<path d="M73.4163 82.4168C73.4438 82.5956 73.5598 82.7251 73.6789 82.7251C73.798 82.7251 73.8651 82.5432 73.8377 82.3644C73.8102 82.1856 73.6941 82.0562 73.5751 82.0562C73.456 82.0562 73.3888 82.2349 73.4163 82.4168Z" fill="#263238"/>
<path d="M73.5469 82.731C73.8458 83.2481 74.2142 83.7211 74.6417 84.1366C74.5342 84.2458 74.4043 84.33 74.2612 84.3833C74.118 84.4365 73.965 84.4575 73.8129 84.4449L73.5469 82.731Z" fill="#DE5753"/>
<path d="M72.6109 81.5164C72.5973 81.5168 72.5837 81.5145 72.5709 81.5097C72.5581 81.5048 72.5465 81.4974 72.5365 81.4879C72.5266 81.4785 72.5186 81.4672 72.513 81.4546C72.5074 81.442 72.5043 81.4285 72.5039 81.4147C72.5039 81.3998 72.5068 81.385 72.5126 81.3712C72.5184 81.3574 72.5269 81.345 72.5375 81.3346C72.655 81.2132 72.7996 81.1219 72.9592 81.0682C73.1188 81.0146 73.2888 81.0002 73.455 81.0263C73.4688 81.0289 73.4819 81.0342 73.4936 81.042C73.5053 81.0498 73.5153 81.0599 73.523 81.0717C73.5307 81.0836 73.536 81.0968 73.5385 81.1107C73.541 81.1246 73.5407 81.1389 73.5376 81.1527C73.535 81.1663 73.5298 81.1792 73.5222 81.1908C73.5147 81.2023 73.505 81.2122 73.4936 81.22C73.4822 81.2277 73.4694 81.2331 73.456 81.2358C73.4425 81.2386 73.4287 81.2386 73.4152 81.2359C73.283 81.2178 73.1483 81.2315 73.0223 81.276C72.8963 81.3204 72.7826 81.3944 72.6905 81.4918C72.6797 81.5013 72.667 81.5085 72.6533 81.5128C72.6396 81.517 72.6252 81.5183 72.6109 81.5164Z" fill="#263238"/>
<path d="M67.4422 84.4048C67.7664 86.0604 68.0875 89.0972 66.9375 90.2009C66.9375 90.2009 67.3871 91.8843 70.4396 91.8843C73.8041 91.8843 72.0454 90.2009 72.0454 90.2009C70.2102 89.76 70.2592 88.3912 70.5803 87.1179L67.4422 84.4048Z" fill="#E4897B"/>
<path d="M65.6892 91.3235C66.0531 90.7501 65.4414 89.3689 65.4414 89.3689C65.4414 89.3689 70.8521 87.9969 73.0604 90.1027C73.5192 90.5374 73.0115 91.1786 73.0115 91.1786L65.6892 91.3235Z" fill="#407BFF"/>
<path d="M54.5832 153.496C54.2988 153.496 53.8829 152.935 53.7667 152.734C53.7609 152.726 53.7578 152.715 53.7578 152.705C53.7578 152.695 53.7609 152.684 53.7667 152.676C53.7728 152.668 53.7808 152.662 53.7899 152.658C53.799 152.654 53.8089 152.653 53.8187 152.654C53.8493 152.654 54.5863 152.814 54.7575 153.107C54.777 153.138 54.7896 153.173 54.7944 153.209C54.7991 153.245 54.796 153.282 54.785 153.317C54.7422 153.449 54.6627 153.486 54.6046 153.493L54.5832 153.496ZM53.9257 152.79C54.1184 153.073 54.4364 153.406 54.5954 153.388C54.6107 153.388 54.6566 153.388 54.6872 153.283C54.6934 153.263 54.695 153.242 54.6918 153.221C54.6886 153.2 54.6808 153.18 54.6688 153.163C54.4632 152.965 54.2051 152.831 53.9257 152.778V152.79Z" fill="#407BFF"/>
<path d="M54.1764 152.793C54.0475 152.797 53.9187 152.781 53.7941 152.747C53.7866 152.742 53.7804 152.735 53.7761 152.727C53.7718 152.719 53.7695 152.71 53.7695 152.701C53.7695 152.692 53.7718 152.683 53.7761 152.675C53.7804 152.667 53.7866 152.66 53.7941 152.655C53.8156 152.636 54.3201 152.229 54.6535 152.263C54.6942 152.268 54.7335 152.28 54.7692 152.301C54.805 152.321 54.8363 152.348 54.8614 152.38C54.8895 152.41 54.9065 152.448 54.9093 152.489C54.9121 152.529 54.9006 152.569 54.8767 152.602C54.7666 152.738 54.4547 152.793 54.1764 152.793ZM53.9348 152.67C54.2192 152.713 54.6871 152.67 54.7758 152.541C54.783 152.525 54.7854 152.508 54.7827 152.491C54.78 152.473 54.7722 152.458 54.7605 152.445C54.7446 152.424 54.7243 152.406 54.7011 152.394C54.6779 152.381 54.6523 152.373 54.626 152.371C54.3708 152.398 54.1298 152.502 53.9348 152.67Z" fill="#407BFF"/>
<path d="M76.798 160.973C76.5673 160.97 76.3372 160.948 76.11 160.908C76.0993 160.906 76.0894 160.901 76.0817 160.893C76.074 160.886 76.0689 160.876 76.0672 160.865C76.0653 160.854 76.0669 160.842 76.0719 160.832C76.0768 160.823 76.0848 160.814 76.0947 160.809C76.1283 160.791 76.9112 160.338 77.2873 160.442C77.3222 160.45 77.3551 160.465 77.384 160.487C77.413 160.508 77.4373 160.535 77.4555 160.566C77.4795 160.6 77.4924 160.641 77.4924 160.683C77.4924 160.725 77.4795 160.766 77.4555 160.8C77.3669 160.933 77.0886 160.973 76.798 160.973ZM76.2812 160.828C76.7002 160.889 77.269 160.883 77.373 160.738C77.3881 160.7 77.3881 160.657 77.373 160.618C77.3615 160.599 77.3459 160.582 77.3275 160.569C77.309 160.557 77.288 160.548 77.2659 160.544C77.0274 160.483 76.5565 160.686 76.2812 160.828Z" fill="#407BFF"/>
<path d="M76.1266 160.896H76.096C76.0884 160.89 76.0823 160.883 76.0786 160.874C76.0748 160.865 76.0734 160.856 76.0746 160.846C76.0998 160.524 76.225 160.218 76.4324 159.971C76.4747 159.936 76.5235 159.909 76.576 159.893C76.6286 159.878 76.6837 159.872 76.7383 159.878C76.7839 159.873 76.8299 159.886 76.8664 159.914C76.9029 159.942 76.9271 159.984 76.934 160.029C76.9768 160.285 76.4386 160.775 76.1694 160.899L76.1266 160.896ZM76.6771 159.971C76.6092 159.972 76.5435 159.996 76.4905 160.039C76.3207 160.235 76.2141 160.479 76.1847 160.738C76.463 160.569 76.8269 160.184 76.7964 160.033C76.7964 160.033 76.7964 159.98 76.6924 159.971H76.6771Z" fill="#407BFF"/>
<path d="M53.8818 152.393L52.1354 150.543C52.104 150.511 52.0627 150.49 52.0183 150.485C51.9739 150.479 51.929 150.489 51.8907 150.512L50.1442 151.585C50.1072 151.607 50.0749 151.636 50.0492 151.671C50.0234 151.706 50.0048 151.746 49.9943 151.788C49.9838 151.83 49.9816 151.874 49.9879 151.917C49.9942 151.96 50.0089 152.001 50.031 152.038C50.0459 152.062 50.0633 152.083 50.083 152.103C50.6948 152.719 51.0373 153.006 51.805 153.814C52.2791 154.31 53.5668 156.055 54.2183 156.743C54.8698 157.43 55.6314 156.866 55.4234 156.527C54.5058 155.004 54.0592 153.493 54.0348 152.741C54.0287 152.61 53.9741 152.485 53.8818 152.393Z" fill="#263238"/>
<path d="M75.8803 160.587H73.4335C73.3891 160.587 73.346 160.602 73.3114 160.63C73.2768 160.659 73.253 160.698 73.2438 160.742L72.7973 162.746C72.778 162.831 72.793 162.92 72.8388 162.994C72.8847 163.068 72.9577 163.12 73.042 163.14C73.0684 163.143 73.0951 163.143 73.1215 163.14C74.0085 163.14 75.287 163.072 76.4003 163.072C77.7002 163.072 78.8227 163.143 80.349 163.143C81.2666 163.143 81.5265 162.203 81.1412 162.12C79.3825 161.731 77.948 161.688 76.4278 160.745C76.2631 160.643 76.0737 160.588 75.8803 160.587Z" fill="#263238"/>
<path opacity="0.3" d="M64.6856 96.6204C64.1105 97.5114 63.5539 98.2821 63.1562 98.8124C63.2021 97.7519 63.4193 96.0377 64.2359 94.7305C64.5326 95.0264 64.6519 95.791 64.6856 96.6204Z" fill="black"/>
<path d="M77.0446 92.9478C77.167 93.142 77.3902 93.438 77.5952 93.7123C77.8001 93.9867 78.0356 94.2673 78.2681 94.5448C78.736 95.0966 79.2132 95.6454 79.7117 96.1726C80.6718 97.2203 81.7242 98.1779 82.856 99.0337C83.119 99.2274 83.3915 99.4074 83.6726 99.5732L83.8592 99.6811C83.8806 99.6811 83.8898 99.7089 83.9296 99.7212L83.9785 99.7428L84.0458 99.7644C84.0959 99.78 84.147 99.7923 84.1987 99.8014C84.8081 99.8872 85.427 99.8789 86.0339 99.7767C87.467 99.5482 88.8833 99.2227 90.2731 98.8025L90.998 100.344C89.6354 101.232 88.1587 101.928 86.6089 102.413C85.7325 102.699 84.8135 102.829 83.8929 102.798C83.7545 102.791 83.6167 102.777 83.4799 102.755L83.2689 102.715L83.0426 102.659C82.884 102.616 82.7286 102.561 82.5776 102.496L82.4828 102.456L82.4064 102.419L82.2534 102.345C81.8589 102.151 81.4765 101.938 81.1034 101.707C79.7266 100.803 78.4509 99.7516 77.2985 98.5712C76.7326 97.9947 76.1821 97.4089 75.6652 96.7861C75.4021 96.4778 75.1483 96.1695 74.8944 95.8242C74.617 95.467 74.3626 95.0921 74.1328 94.702L77.0446 92.9478Z" fill="#E4897B"/>
<path d="M89.9102 99.2131L91.4028 97.4219L92.4182 100.036C92.4182 100.036 91.1305 100.653 90.1273 100.298L89.9102 99.2131Z" fill="#E4897B"/>
<path d="M93.5932 97.0332L94.0091 99.1235L92.4186 100.036L91.4062 97.4217L93.5932 97.0332Z" fill="#E4897B"/>
<path d="M67.3863 82.9746C67.8634 85.1697 68.0347 86.48 69.3224 87.4419C71.2585 88.891 73.8155 87.4419 73.9959 85.1512C74.158 83.0856 73.3475 79.8422 71.0597 79.2934C70.555 79.1711 70.0276 79.1811 69.5278 79.3224C69.028 79.4637 68.5724 79.7316 68.2045 80.1007C67.8365 80.4697 67.5684 80.9276 67.4257 81.4307C67.283 81.9337 67.2705 82.4653 67.3893 82.9746H67.3863Z" fill="#E4897B"/>
<path d="M66.464 78.6861C64.5524 78.7385 64.323 80.6345 65.2712 81.1926C65.2712 81.1926 64.1701 81.7259 64.7359 82.9992C65.5984 84.9323 67.2501 87.0565 68.9384 86.9394C71.0336 86.7945 71.63 84.4945 71.5566 82.2254C72.6608 81.1741 71.994 80.6623 73.0859 80.021C75.019 78.8865 75.9977 75.6338 72.7801 75.6832C69.4829 75.7356 71.3425 78.5535 66.464 78.6861Z" fill="#263238"/>
<path d="M65.5083 80.9153C65.5083 80.9153 64.7713 81.3006 63.6367 80.6348C64.0312 81.6089 65.2422 82.0096 65.5083 80.9153Z" fill="#263238"/>
<path d="M70.4083 82.7709C70.4676 83.3265 70.7074 83.8468 71.0904 84.2508C71.5981 84.778 72.0967 84.4203 72.1609 83.7544C72.219 83.1563 72.0233 82.1605 71.4146 81.883C70.8059 81.6055 70.3441 82.0988 70.4083 82.7709Z" fill="#E4897B"/>
<path d="M58.2871 150.235L56.8771 151.083L53.1211 148.351L54.3721 147.386L58.2871 150.235Z" fill="#407BFF"/>
<path d="M69.1256 113.176C68.7005 116.08 70.2023 124.167 70.7222 126.816C71.2667 121.864 71.3676 115.991 71.3768 112.785C70.2757 112.032 69.3214 111.838 69.1256 113.176Z" fill="#407BFF"/>
<path opacity="0.4" d="M69.1256 113.176C68.7005 116.08 70.2023 124.167 70.7222 126.816C71.2667 121.864 71.3676 115.991 71.3768 112.785C70.2757 112.032 69.3214 111.838 69.1256 113.176Z" fill="white"/>
<path d="M75.6278 110.408C75.6278 110.408 79.0137 124.867 79.2523 131.773C79.5184 139.521 76.836 157.791 76.836 157.791H73.031C73.031 157.791 72.5631 139.379 72.3918 132.322C72.2083 124.63 67.7305 110.408 67.7305 110.408H75.6278Z" fill="#407BFF"/>
<path opacity="0.7" d="M75.6278 110.408C75.6278 110.408 79.0137 124.867 79.2523 131.773C79.5184 139.521 76.836 157.791 76.836 157.791H73.031C73.031 157.791 72.5631 139.379 72.3918 132.322C72.2083 124.63 67.7305 110.408 67.7305 110.408H75.6278Z" fill="white"/>
<path d="M77.5718 156.271C77.5902 156.271 77.3577 157.862 77.3577 157.862H72.727L72.6016 156.441L77.5718 156.271Z" fill="#407BFF"/>
<path d="M76.6036 98.2143C76.6036 98.985 76.5852 99.8329 76.5424 100.767C76.4323 103.307 76.157 106.474 75.6248 110.408H63.6136C63.5311 108.558 64.6903 99.4752 62.9102 90.7132C64.2446 90.455 65.5942 90.284 66.9506 90.2014C68.6518 90.1028 70.3573 90.1028 72.0585 90.2014C73.2243 90.3189 74.3797 90.525 75.5147 90.818C75.5147 90.818 76.6066 92.0913 76.6036 98.2143Z" fill="#407BFF"/>
<path opacity="0.3" d="M76.6036 98.2143C76.6036 98.985 76.5852 99.8329 76.5424 100.767C76.4323 103.307 76.157 106.474 75.6248 110.408H63.6136C63.5311 108.558 64.6903 99.4752 62.9102 90.7132C64.2446 90.455 65.5942 90.284 66.9506 90.2014C68.6518 90.1028 70.3573 90.1028 72.0585 90.2014C73.2243 90.3189 74.3797 90.525 75.5147 90.818C75.5147 90.818 76.6066 92.0913 76.6036 98.2143Z" fill="black"/>
<path opacity="0.3" d="M76.6012 98.2138C76.6012 98.9846 76.5828 99.8324 76.54 100.767C75.13 99.3792 75.0352 96.5459 75.0352 96.5459L76.6012 98.2138Z" fill="black"/>
<path d="M72.2984 93.4724C72.5645 95.6305 77.4216 100.175 77.4216 100.175L81.7954 96.6818C80.6964 95.0415 79.4102 93.5369 77.963 92.1991C74.8004 89.4305 71.9773 90.8918 72.2984 93.4724Z" fill="#407BFF"/>
<path opacity="0.3" d="M72.2984 93.4724C72.5645 95.6305 77.4216 100.175 77.4216 100.175L81.7954 96.6818C80.6964 95.0415 79.4102 93.5369 77.963 92.1991C74.8004 89.4305 71.9773 90.8918 72.2984 93.4724Z" fill="black"/>
</svg>
