<svg width="50" height="50" viewBox="0 0 50 50" fill="none" xmlns="http://www.w3.org/2000/svg">
<g clip-path="url(#clip0)">
<path d="M34.6866 38.5423C34.3547 38.1977 33.7423 38.0989 33.2922 38.5296C33.2891 38.5326 33.2858 38.5357 33.2826 38.5388C32.8384 38.9757 32.9187 39.5907 33.2531 39.9329C33.4307 40.1147 33.6868 40.2267 33.9551 40.2267C34.1919 40.2267 34.438 40.1395 34.6477 39.9361C35.0949 39.5024 35.0188 38.8866 34.6866 38.5423Z" fill="#9944F6"/>
<path d="M43.5297 19.7423C43.3422 19.2366 42.7805 18.9786 42.2747 19.1658C41.769 19.3531 41.5108 19.9148 41.6982 20.4206C42.5412 22.6963 42.9687 25.0924 42.9687 27.5424C42.9687 38.8488 33.7688 48.0472 22.4609 48.0472C18.2648 48.0472 14.2312 46.7892 10.7956 44.4091C10.3525 44.102 9.74393 44.2122 9.43672 44.6556C9.12943 45.0989 9.23981 45.7071 9.68328 46.0143C13.4471 48.6218 17.8655 50.0001 22.461 50.0001C28.4606 50.0001 34.1009 47.664 38.3433 43.4222C42.5856 39.1805 44.922 33.5409 44.922 27.5423C44.9218 24.8602 44.4534 22.2359 43.5297 19.7423Z" fill="#9944F6"/>
<path d="M30.0244 6.38977C27.6015 5.52353 25.0568 5.08441 22.461 5.08441C16.4614 5.08441 10.8211 7.42046 6.57868 11.6621C2.33638 15.904 0 21.5436 0 27.5422C0 32.1941 1.40996 36.6572 4.07774 40.4489C4.26784 40.7192 4.5701 40.8637 4.87739 40.8637C5.07145 40.8637 5.26752 40.806 5.4383 40.6858C5.8795 40.3754 5.98552 39.7664 5.67528 39.3253C3.2402 35.8642 1.95314 31.7897 1.95314 27.5421C1.95314 16.2357 11.153 7.03728 22.4609 7.03728C24.8321 7.03728 27.1555 7.4381 29.3666 8.22857C29.8744 8.41025 30.4335 8.14575 30.6149 7.63792C30.7966 7.13026 30.5321 6.57145 30.0244 6.38977Z" fill="#9944F6"/>
<path d="M49.9257 8.09771C49.7745 7.73276 49.4185 7.49497 49.0234 7.49497H43.8921L44.444 6.94321C44.8253 6.56196 44.8253 5.94359 44.444 5.56226C44.0626 5.18101 43.4443 5.18101 43.0628 5.56226L42.5039 6.12107V0.976509C42.5039 0.581652 42.2659 0.225517 41.9011 0.0743268C41.5361 -0.0768628 41.1161 0.00671147 40.8369 0.285908L32.228 8.89381C32.0448 9.07692 31.9419 9.32529 31.9419 9.58424V12.9715C29.125 11.1291 25.8776 10.1619 22.4609 10.1619C12.8761 10.1619 5.07812 17.9587 5.07812 27.5422C5.07812 37.1257 12.876 44.9226 22.4608 44.9226C25.6421 44.9226 28.7545 44.0551 31.4614 42.4142C31.9226 42.1345 32.0697 41.5341 31.7901 41.0729C31.5105 40.6119 30.91 40.4646 30.4488 40.7443C28.0472 42.2002 25.2849 42.9698 22.4607 42.9698C13.9528 42.9698 7.03101 36.0491 7.03101 27.5422C7.03101 19.0354 13.9528 12.1147 22.4607 12.1147C25.9349 12.1147 29.2115 13.2405 31.9418 15.3705V16.6816L30.1621 18.461C28.0838 16.6963 25.3947 15.6297 22.4607 15.6297C15.8913 15.6297 10.5467 20.9736 10.5467 27.5421C10.5467 34.1106 15.8913 39.4545 22.4607 39.4545C29.0302 39.4545 34.3748 34.1106 34.3748 27.5421C34.3748 24.6086 33.3083 21.92 31.5431 19.8419L33.3298 18.0555H34.629C36.7343 20.7532 37.8903 24.1092 37.8903 27.5422C37.8903 30.4209 37.0924 33.2285 35.5831 35.6617C35.2987 36.1199 35.4399 36.7219 35.8984 37.0061C36.0586 37.1055 36.2364 37.1528 36.4121 37.1528C36.7389 37.1528 37.0581 36.9889 37.243 36.691C38.9444 33.9485 39.8436 30.785 39.8436 27.5422C39.8436 24.1694 38.8528 20.8625 37.026 18.0555H40.4143C40.6733 18.0555 40.9216 17.9526 41.1048 17.7695L49.7138 9.16167C49.9933 8.88255 50.0768 8.46258 49.9257 8.09771ZM32.422 27.5422C32.422 33.0339 27.9535 37.5018 22.4611 37.5018C16.9687 37.5018 12.5001 33.0338 12.5001 27.5422C12.5001 22.0506 16.9687 17.5827 22.4611 17.5827C24.8564 17.5827 27.0567 18.4326 28.7769 19.8464L26.5528 22.0702C25.4113 21.2147 23.9944 20.7073 22.4612 20.7073C18.6918 20.7073 15.6253 23.7735 15.6253 27.5422C15.6253 31.311 18.6919 34.3772 22.4612 34.3772C26.2305 34.3772 29.2971 31.311 29.2971 27.5422C29.2971 26.0092 28.7896 24.5925 27.9339 23.4511L30.1581 21.2273C31.572 22.9472 32.422 25.1472 32.422 27.5422ZM21.7705 28.2327C21.9612 28.4235 22.2111 28.5187 22.461 28.5187C22.7109 28.5187 22.9607 28.4234 23.1515 28.2327L26.5328 24.852C27.0446 25.624 27.3438 26.5486 27.3438 27.5422C27.3438 30.2342 25.1534 32.4244 22.461 32.4244C19.7686 32.4244 17.5781 30.2342 17.5781 27.5422C17.5781 24.8502 19.7686 22.66 22.461 22.66C23.4548 22.66 24.3795 22.9592 25.1517 23.471L21.7705 26.8518C21.3891 27.233 21.3891 27.8513 21.7705 28.2327ZM33.8951 14.7287V9.98867L40.5509 3.33381V8.07386L33.8951 14.7287ZM40.0099 16.1027H35.2833L41.9391 9.44783H46.6658L40.0099 16.1027Z" fill="#9944F6"/>
<path d="M7.94046 42.0215C7.75892 41.8399 7.50699 41.7353 7.25009 41.7353C6.99211 41.7353 6.74026 41.8398 6.55965 42.0215C6.37702 42.2031 6.27344 42.455 6.27344 42.7118C6.27344 42.9687 6.37693 43.2205 6.55965 43.4022C6.74118 43.5838 6.9922 43.6883 7.25009 43.6883C7.50699 43.6883 7.75884 43.5838 7.94046 43.4022C8.12216 43.2206 8.22675 42.9687 8.22675 42.7118C8.22675 42.455 8.12225 42.2041 7.94046 42.0215Z" fill="#9944F6"/>
</g>
<defs>
<clipPath id="clip0">
<rect width="50" height="50" fill="white"/>
</clipPath>
</defs>
</svg>
