<svg width="50" height="50" viewBox="0 0 50 50" fill="none" xmlns="http://www.w3.org/2000/svg">
<g clip-path="url(#clip0)">
<path d="M24.2529 45.0166H25.914V46.6777H24.2529V45.0166Z" fill="#9944F6"/>
<path d="M38.583 39.7658L39.7574 38.5913L40.9318 39.7658L39.7574 40.9402L38.583 39.7658Z" fill="#9944F6"/>
<path d="M45.0166 24.2524H46.6777V25.9135H45.0166V24.2524Z" fill="#9944F6"/>
<path d="M49.1694 19.2694H43.2808C42.9595 18.256 42.5524 17.2718 42.0641 16.3275L46.226 12.1647C46.5502 11.8403 46.5502 11.3146 46.226 10.9903L42.7019 7.46698C33.0646 -2.35594 17.289 -2.50607 7.46637 7.13154C-2.35631 16.7691 -2.50643 32.5451 7.13093 42.368C7.24129 42.4804 7.35269 42.5918 7.46512 42.7022L10.9883 46.2263C11.3126 46.5505 11.8384 46.5505 12.1627 46.2263L16.3254 42.0643C17.2706 42.5525 18.2555 42.9592 19.2697 43.2803V49.1698C19.2697 49.6285 19.6416 50.0004 20.1002 50.0004H30.0668C30.5255 50.0004 30.8974 49.6285 30.8974 49.1698V43.2811C31.9106 42.96 32.8948 42.5532 33.8392 42.0651L38.0019 46.2271C38.3262 46.5513 38.8519 46.5513 39.1763 46.2271L46.2235 39.1797C46.5477 38.8554 46.5477 38.3297 46.2235 38.0053L42.0616 33.8425C42.5507 32.8972 42.9583 31.9119 43.28 30.8973H49.1694C49.6281 30.8973 50 30.5254 50 30.0667V20.0999C50 19.6411 49.6281 19.2694 49.1694 19.2694ZM8.63869 8.63808C17.4905 -0.216708 31.765 -0.470135 40.9254 8.06499L39.7527 9.23775C30.9883 1.14927 17.3266 1.69734 9.23834 10.4619C1.60499 18.7335 1.60499 31.4812 9.23834 39.7528L8.06561 40.9256C-0.469304 31.7648 -0.215988 17.4901 8.63869 8.63808ZM32.1307 18.036C35.9911 21.9598 35.9397 28.2702 32.016 32.1307C28.1374 35.9468 21.915 35.9468 18.0363 32.1307C17.712 31.8065 17.1863 31.8065 16.8619 32.1307L10.4136 38.5792C2.95826 30.4789 3.48109 17.8685 11.5812 10.413C19.2107 3.39076 30.9497 3.39076 38.5791 10.413L32.1307 16.8607C31.8062 17.1848 31.8059 17.7108 32.1301 18.0353C32.1302 18.0356 32.1304 18.0358 32.1307 18.036ZM48.3389 29.2362H42.6612C42.2881 29.236 41.9606 29.4846 41.8606 29.8442C41.4958 31.147 40.9769 32.4017 40.3149 33.5817C40.1315 33.9072 40.188 34.315 40.4528 34.5784L44.4635 38.59L38.5916 44.4622L34.58 40.4513C34.3166 40.1865 33.9088 40.13 33.5834 40.3135C32.4034 40.9754 31.1487 41.4943 29.8459 41.8592C29.4864 41.9591 29.2377 42.2867 29.2379 42.6598V48.3392H20.9308V42.6615C20.931 42.2884 20.6824 41.9608 20.3228 41.8608C19.02 41.496 17.7654 40.9771 16.5854 40.3151C16.2599 40.1317 15.8521 40.1882 15.5887 40.453L11.5772 44.4638L9.22838 42.115L17.4716 33.8724C22.3266 38.0758 29.6699 37.5474 33.8731 32.6922C37.6557 28.3229 37.6554 21.8385 33.8724 17.4695L42.1147 9.22613L44.4635 11.575L40.4528 15.5866C40.188 15.85 40.1315 16.2578 40.3149 16.5833C40.977 17.7632 41.4959 19.0179 41.8606 20.3209C41.9606 20.6804 42.2881 20.929 42.6612 20.9288H48.3389V29.2362Z" fill="#9944F6"/>
<path d="M25.9143 21.8786V12.6244C25.9143 12.1657 25.5424 11.7939 25.0838 11.7939C24.6251 11.7939 24.2532 12.1657 24.2532 12.6244V21.8786C23.091 22.1825 22.1834 23.0901 21.8795 24.2524H15.9477C15.4891 24.2524 15.1172 24.6243 15.1172 25.083C15.1172 25.5416 15.4891 25.9135 15.9477 25.9135H21.8795C22.334 27.6874 24.1405 28.7569 25.9143 28.3023C27.6881 27.8478 28.7576 26.0413 28.3031 24.2674C28.0025 23.0948 27.0868 22.1791 25.9143 21.8786ZM25.0838 26.7441C24.1663 26.7441 23.4227 26.0004 23.4227 25.083C23.4227 24.1655 24.1663 23.4218 25.0838 23.4218C26.0012 23.4218 26.7449 24.1655 26.7449 25.083C26.7449 26.0003 26.0011 26.7441 25.0838 26.7441Z" fill="#9944F6"/>
<path d="M25.0835 9.30216C24.6248 9.30216 24.2529 8.93028 24.2529 8.47159V6.81046C24.2529 6.35178 24.6248 5.97989 25.0835 5.97989C25.5422 5.97989 25.914 6.35178 25.914 6.81046V8.47159C25.914 8.93028 25.5422 9.30216 25.0835 9.30216Z" fill="#9944F6"/>
<path d="M33.3893 11.5281C32.9306 11.5276 32.5592 11.1554 32.5596 10.6967C32.5597 10.5511 32.5981 10.4083 32.6709 10.2822L33.5014 8.84285C33.7334 8.44719 34.2423 8.31451 34.638 8.54655C35.0299 8.77641 35.1645 9.27848 34.9399 9.67342L34.1094 11.1128C33.9608 11.37 33.6862 11.5284 33.3893 11.5281Z" fill="#9944F6"/>
<path d="M16.7785 11.5281C16.4815 11.5284 16.2069 11.3701 16.0584 11.1128L15.2278 9.67343C15.0011 9.27465 15.1405 8.76759 15.5393 8.54084C15.9343 8.31628 16.4365 8.45083 16.6664 8.84286L17.4969 10.2822C17.7262 10.6795 17.5901 11.1874 17.1929 11.4168C17.0669 11.4896 16.9239 11.5279 16.7785 11.5281Z" fill="#9944F6"/>
<path d="M10.6979 17.6078C10.552 17.6082 10.4088 17.5697 10.2826 17.4965L8.84328 16.666C8.44752 16.434 8.31484 15.9251 8.54677 15.5294C8.77663 15.1374 9.2788 15.0029 9.67382 15.2274L11.1132 16.058C11.5104 16.2873 11.6465 16.7953 11.4171 17.1926C11.2687 17.4495 10.9945 17.6078 10.6979 17.6078Z" fill="#9944F6"/>
<path d="M8.47309 25.9135H6.81199C6.35332 25.9135 5.98145 25.5416 5.98145 25.0829C5.98145 24.6243 6.35332 24.2524 6.81199 24.2524H8.47309C8.93176 24.2524 9.30364 24.6243 9.30364 25.0829C9.30364 25.5416 8.93176 25.9135 8.47309 25.9135Z" fill="#9944F6"/>
<path d="M9.26023 35.0498C8.80157 35.0498 8.42969 34.6779 8.42969 34.2192C8.42969 33.9225 8.58801 33.6483 8.84496 33.4999L10.2843 32.6694C10.68 32.4373 11.1889 32.57 11.4209 32.9657C11.6529 33.3613 11.5203 33.8703 11.1246 34.1023C11.1214 34.1042 11.1182 34.1061 11.115 34.1079L9.67561 34.9385C9.54937 35.0117 9.406 35.0501 9.26023 35.0498Z" fill="#9944F6"/>
<path d="M25.0839 33.3886C22.8799 33.3947 20.7654 32.5169 19.2136 30.9517C18.8841 30.6326 18.8758 30.1067 19.1949 29.7773C19.5141 29.4478 20.0399 29.4395 20.3693 29.7586C20.3762 29.7653 20.383 29.7721 20.3897 29.779C22.9551 32.3996 27.1593 32.4443 29.7799 29.8787C32.4004 27.3132 32.4451 23.109 29.8796 20.4883C29.8467 20.4547 29.8135 20.4215 29.7799 20.3886C29.4495 20.0704 29.4396 19.5446 29.7578 19.2141C30.076 18.8838 30.6018 18.8739 30.9322 19.1921C30.9392 19.1988 30.9459 19.2055 30.9526 19.2125C34.1946 22.4574 34.1923 27.7164 30.9475 30.9585C29.3918 32.5129 27.283 33.3869 25.0839 33.3886Z" fill="#9944F6"/>
</g>
<defs>
<clipPath id="clip0">
<rect width="50" height="50" fill="white"/>
</clipPath>
</defs>
</svg>
