<svg width="1160" height="744" viewBox="0 0 1160 744" fill="none" xmlns="http://www.w3.org/2000/svg">
<path opacity="0.2" d="M90.4059 1185.72C-94.7173 1000.59 -225.973 796.689 -288.547 616.691C-351.133 436.656 -344.961 280.71 -255.538 191.287C-166.116 101.865 -10.1701 95.6922 169.865 158.279C349.864 220.852 553.768 352.108 738.891 537.231C924.014 722.355 1055.27 926.259 1117.84 1106.26C1180.43 1286.29 1174.26 1442.24 1084.84 1531.66C995.413 1621.08 839.467 1627.26 659.432 1564.67C479.434 1502.1 275.529 1370.84 90.4059 1185.72Z" stroke="#423FD9"/>
<path opacity="0.2" d="M389.228 683.07C377.744 683.952 368.623 693.073 367.741 704.557L367 714.329L366.26 704.557C365.378 693.073 356.257 683.952 344.773 683.07L335 682.329L344.773 681.588C356.257 680.707 365.378 671.586 366.26 660.102L367 650.329L367.741 660.102C368.623 671.586 377.744 680.707 389.228 681.588L399 682.329L389.228 683.07Z" fill="#423FD9"/>
<path opacity="0.2" d="M241.893 20.7924C234.715 21.3433 229.014 27.0439 228.464 34.2216L228 40.3293L227.537 34.2216C226.987 27.0439 221.286 21.3433 214.108 20.7924L208 20.3293L214.108 19.8663C221.286 19.3154 226.987 13.6148 227.537 6.43713L228 0.329345L228.464 6.43713C229.014 13.6148 234.715 19.3154 241.893 19.8663L248 20.3293L241.893 20.7924Z" fill="#423FD9"/>
</svg>
