<svg width="64" height="64" viewBox="0 0 64 64" fill="none" xmlns="http://www.w3.org/2000/svg">
<path d="M32 12.0001C30.8954 12.0001 30 12.8955 30 14.0001H28C28 11.7909 29.7909 10.0001 32 10.0001C34.2091 10.0001 36 11.7909 36 14.0001H34C34 12.8955 33.1046 12.0001 32 12.0001Z" fill="#423FD9"/>
<path fill-rule="evenodd" clip-rule="evenodd" d="M29.4732 37.199C29.7299 37.9435 30.2956 38.5217 31 38.8061V42.0001H33V38.8061C33.715 38.5175 34.287 37.9262 34.5381 37.1655L40.9971 39.4695C42.2828 39.9281 43.6401 38.9923 43.6686 37.6275L43.7493 33.7632C43.7636 33.0796 43.4276 32.436 42.8585 32.0569L37.1588 28.2603L37.8893 25.7763C38.626 23.2717 39 20.6745 39 18.0639C39 14.0699 38.1247 10.1244 36.4357 6.50514L35.9933 5.55709C34.4109 2.16619 29.5891 2.16619 28.0067 5.55709L27.5643 6.50514C25.8753 10.1244 25 14.0699 25 18.0639C25 20.6745 25.374 23.2717 26.1107 25.7763L26.8585 28.3189L21.2467 32.0569C20.6776 32.436 20.3416 33.0796 20.3559 33.7632L20.4366 37.6275C20.4651 38.9923 21.8224 39.9281 23.1081 39.4695L29.4732 37.199ZM34.6233 7.35091L34.1809 6.40286C33.3167 4.55093 30.6833 4.55093 29.8191 6.40286L29.3767 7.35091C27.8113 10.7054 27 14.3621 27 18.0639C27 20.4835 27.3467 22.8907 28.0294 25.212L31 35.312V31.0001H33V35.312L35.9706 25.212C36.6533 22.8907 37 20.4835 37 18.0639C37 14.3621 36.1887 10.7054 34.6233 7.35091ZM28.9053 35.2781L27.4495 30.3283L22.3555 33.7214L22.4362 37.5857L28.9053 35.2781ZM41.669 37.5857L35.1047 35.2442L36.5678 30.2697L41.7498 33.7214L41.669 37.5857Z" fill="#423FD9"/>
<path d="M7 39.5422C10.6395 40.7037 13.4934 43.6297 14.5534 47.3148L14.7789 48.0987L15.5922 48.0353C15.8915 48.012 16.1942 48 16.5 48C19.5205 48 22.267 49.1632 24.3198 51.0679L25.6802 49.6018C23.2721 47.3675 20.0446 46 16.5 46C16.4106 46 16.3214 46.0009 16.2324 46.0026C14.5526 41.2472 10.167 37.618 5 37.0001V64.0001H59V42.0001C54.6482 42.8835 50.8606 46.1273 49.125 50.0969C48.5919 50.0329 48.0496 50 47.5 50C42.6143 50 38.3356 52.5961 35.9671 56.4793L37.6745 57.5208C39.6951 54.2081 43.3403 52 47.5 52C48.2105 52 48.9051 52.0644 49.5786 52.1872L50.4075 52.3384L50.6971 51.5472C51.7905 48.5602 54.0881 46.1532 57 44.9136V53.118C56.511 53.0403 56.01 53.0001 55.5 53.0001C50.8243 53.0001 46.9393 56.377 46.1473 60.8248L48.1163 61.1754C48.7414 57.6651 51.8105 55.0001 55.5 55.0001C56.0145 55.0001 56.5159 55.0517 57 55.1499V62.0001H7V55.0165C9.89122 55.2068 12.3369 57.0356 13.4134 59.5866L14.3754 61.8662L15.2674 59.5583C15.8466 58.06 17.3008 57.0001 19 57.0001C21.2092 57.0001 23 58.7909 23 61.0001H25C25 57.6864 22.3138 55.0001 19 55.0001C17.1363 55.0001 15.4723 55.8496 14.3723 57.1811C12.7525 54.7883 10.0696 53.1722 7 53.013V39.5422Z" fill="#423FD9"/>
<path fill-rule="evenodd" clip-rule="evenodd" d="M35 46.0001C35 47.6569 33.6569 53.0001 32 53.0001C30.3431 53.0001 29 47.6569 29 46.0001C29 44.3432 30.3431 43.0001 32 43.0001C33.6569 43.0001 35 44.3432 35 46.0001ZM33 46.0001C33 46.5179 32.737 48.0301 32.2347 49.4575C32.1569 49.6786 32.0782 49.8833 32 50.0702C31.9218 49.8833 31.8431 49.6786 31.7653 49.4575C31.263 48.0301 31 46.5179 31 46.0001C31 45.4478 31.4477 45.0001 32 45.0001C32.5523 45.0001 33 45.4478 33 46.0001ZM31.3533 51.2133C31.3533 51.2133 31.3652 51.1979 31.3897 51.1785C31.3657 51.2055 31.3533 51.2133 31.3533 51.2133ZM32.6103 51.1785C32.6348 51.1979 32.6467 51.2133 32.6467 51.2133C32.6467 51.2133 32.6343 51.2055 32.6103 51.1785Z" fill="#423FD9"/>
</svg>
