<svg width="64" height="64" viewBox="0 0 64 64" fill="none" xmlns="http://www.w3.org/2000/svg">
<path fill-rule="evenodd" clip-rule="evenodd" d="M17 18V9H47V18H17ZM19 11H45V16H19V11Z" fill="#423FD9"/>
<path d="M14.8723 22H8V49H31V54H21V56H43V54H33V49H56V22H49.1277V24H54V47H10V24H14.8723V22Z" fill="#423FD9"/>
<path fill-rule="evenodd" clip-rule="evenodd" d="M17 21V30H47V21H17ZM45 23H19V28H45V23Z" fill="#423FD9"/>
<path fill-rule="evenodd" clip-rule="evenodd" d="M17 42V33H47V42H17ZM19 35H45V40H19V35Z" fill="#423FD9"/>
</svg>
