<svg width="64" height="64" viewBox="0 0 64 64" fill="none" xmlns="http://www.w3.org/2000/svg">
<path fill-rule="evenodd" clip-rule="evenodd" d="M32 11.5834L37.9104 24.5862L36.0896 25.4138L34.9925 23H29.0075L27.9104 25.4138L26.0896 24.5862L32 11.5834ZM32 16.4166L34.0834 21H29.9166L32 16.4166Z" fill="#423FD9"/>
<path fill-rule="evenodd" clip-rule="evenodd" d="M28.3077 31L32 39L35.6923 31H44C45.6569 31 47 29.6569 47 28V11C47 9.34314 45.6569 8 44 8H20C18.3431 8 17 9.34314 17 11V28C17 29.6569 18.3431 31 20 31H28.3077ZM32 34.2274L29.5873 29H20C19.4477 29 19 28.5523 19 28V11C19 10.4477 19.4477 10 20 10H44C44.5523 10 45 10.4477 45 11V28C45 28.5523 44.5523 29 44 29H34.4127L32 34.2274Z" fill="#423FD9"/>
<path d="M9 31C8.44772 31 8 31.4477 8 32V54C8 54.5523 8.44772 55 9 55H55C55.5523 55 56 54.5523 56 54V32C56 31.4477 55.5523 31 55 31H48.6667V29H55C56.6569 29 58 30.3431 58 32V54C58 55.6569 56.6569 57 55 57H9C7.34315 57 6 55.6569 6 54V32C6 30.3431 7.34315 29 9 29H15.3333V31H9Z" fill="#423FD9"/>
<path d="M21 38H14V40H21V38Z" fill="#423FD9"/>
<path d="M14 43H21V45H14V43Z" fill="#423FD9"/>
<path d="M21 48H14V50H21V48Z" fill="#423FD9"/>
<path d="M43 38H50V40H43V38Z" fill="#423FD9"/>
<path d="M50 43H43V45H50V43Z" fill="#423FD9"/>
<path d="M34 43H40V45H34V43Z" fill="#423FD9"/>
<path d="M40 38H34V40H40V38Z" fill="#423FD9"/>
<path d="M24 43H30V45H24V43Z" fill="#423FD9"/>
<path d="M40 50V48H24V50H40Z" fill="#423FD9"/>
<path d="M24 38H30V40H24V38Z" fill="#423FD9"/>
<path d="M50 48H43V50H50V48Z" fill="#423FD9"/>
</svg>
