<svg width="64" height="64" viewBox="0 0 64 64" fill="none" xmlns="http://www.w3.org/2000/svg">
<path d="M10 15C10.5523 15 11 14.5523 11 14C11 13.4477 10.5523 13 10 13C9.44772 13 9 13.4477 9 14C9 14.5523 9.44772 15 10 15Z" fill="#423FD9"/>
<path d="M14 14C14 14.5523 13.5523 15 13 15C12.4477 15 12 14.5523 12 14C12 13.4477 12.4477 13 13 13C13.5523 13 14 13.4477 14 14Z" fill="#423FD9"/>
<path d="M16 15C16.5523 15 17 14.5523 17 14C17 13.4477 16.5523 13 16 13C15.4477 13 15 13.4477 15 14C15 14.5523 15.4477 15 16 15Z" fill="#423FD9"/>
<path fill-rule="evenodd" clip-rule="evenodd" d="M36 43C36 45.2091 34.2091 47 32 47C29.7909 47 28 45.2091 28 43C28 42.2274 28.2191 41.5059 28.5985 40.8943L18.0689 26.6748C17.902 26.4495 17.9408 26.1331 18.1569 25.9547C18.3731 25.7763 18.6911 25.7984 18.8806 26.0049L30.9359 39.1431C31.2747 39.0498 31.6315 39 32 39C34.2091 39 36 40.7909 36 43ZM34 43C34 44.1046 33.1046 45 32 45C30.8954 45 30 44.1046 30 43C30 41.8954 30.8954 41 32 41C33.1046 41 34 41.8954 34 43Z" fill="#423FD9"/>
<path d="M32 26C30.0124 26 28.0979 26.3049 26.2996 26.8697L25.7004 24.9616C27.6903 24.3367 29.8068 24 32 24C43.598 24 53 33.4021 53 45C53 45.7081 52.9649 46.4082 52.8964 47.0988L50.9061 46.9012C50.9682 46.2761 51 45.642 51 45C51 34.5066 42.4934 26 32 26Z" fill="#423FD9"/>
<path d="M17.7497 32.4326C14.793 35.7826 13 40.1807 13 45C13 45.642 13.0318 46.2761 13.0939 46.9012L11.1036 47.0988C11.0351 46.4082 11 45.7081 11 45C11 39.6748 12.9834 34.8105 16.2503 31.1091L17.7497 32.4326Z" fill="#423FD9"/>
<path fill-rule="evenodd" clip-rule="evenodd" d="M6 51V10H58V51H6ZM8 12H56V16H8V12ZM8 18H56V49H8V18Z" fill="#423FD9"/>
</svg>
