<svg width="64" height="64" viewBox="0 0 64 64" fill="none" xmlns="http://www.w3.org/2000/svg">
<path d="M34.0001 9H23.0001V36.7097H25.0001V11H32.0001V46H34.0001V9Z" fill="#423FD9"/>
<path d="M37.0001 15H48.0001V38.5H46.0001V17H39.0001V43H37.0001V15Z" fill="#423FD9"/>
<path d="M9.00012 26H20.0001V40.2H18.0001V28H11.0001V45H9.00012V26Z" fill="#423FD9"/>
<path fill-rule="evenodd" clip-rule="evenodd" d="M53.9309 41.2312L33.1083 54.545L22.7476 44.1762L5.56126 55.8277L4.43896 54.1723L22.9938 41.593L33.3861 51.9935L52.8164 39.5699L50.4071 35.9788L61.4417 34.8607L56.5863 45.1891L53.9309 41.2312ZM56.2792 41.1415L53.925 37.6326L58.1289 37.2066L56.2792 41.1415Z" fill="#423FD9"/>
</svg>
