<svg width="54" height="32" viewBox="0 0 54 32" fill="none" xmlns="http://www.w3.org/2000/svg">
<path fill-rule="evenodd" clip-rule="evenodd" d="M2.02551 0H7.93192C9.4416 0 10.0087 0.66021 10.5759 2.29322C13.4656 10.69 18.3377 18.0305 20.3389 18.0305C21.0924 18.0305 21.4353 17.6856 21.4353 15.7804V7.10063C21.3001 4.62976 20.4349 3.56093 19.7941 2.76931C19.3985 2.28059 19.0884 1.89753 19.0884 1.35545C19.0884 0.695244 19.6529 0 20.59 0H29.875C31.1281 0 31.5629 0.668294 31.5629 2.16657V13.8456C31.5629 15.0932 32.1058 15.5325 32.4812 15.5325C33.2319 15.5325 33.8585 15.0932 35.2359 13.7189C39.4921 8.97347 42.4953 1.66804 42.4953 1.66804C42.8707 0.792253 43.5648 0 45.0663 0H50.9728C52.7606 0 53.1387 0.918904 52.7606 2.16657C52.0098 5.60236 44.8125 15.7184 44.8125 15.7184C44.1859 16.7181 43.9348 17.2167 44.8125 18.3404C45.1222 18.7733 45.7831 19.4196 46.5386 20.1585C47.3114 20.9143 48.1833 21.767 48.8797 22.5873C51.4184 25.4356 53.3304 27.8393 53.8625 29.4939C54.3513 31.1565 53.506 32 51.8181 32H45.909C44.327 32 43.5311 31.116 41.8097 29.2042C41.0803 28.394 40.1846 27.3993 38.9925 26.209C35.4843 22.8379 33.9854 22.4013 33.1077 22.4013C31.9194 22.4013 31.5629 22.7382 31.5629 24.4224V29.7095C31.5629 31.1565 31.0984 32 27.3418 32C21.0843 32 14.2056 28.2085 9.32547 21.213C2.00121 10.973 0 3.2283 0 1.66804C0 0.792253 0.337585 0 2.02551 0Z" fill="#7D81A4"/>
</svg>
