<svg width="92" height="35" viewBox="0 0 92 35" fill="none" xmlns="http://www.w3.org/2000/svg">
<path d="M12.5136 19.2261V30.6781H15.7789V0.80957H10.9025C6.11243 0.80957 2.08474 3.93798 2.08474 10.2089C2.08474 14.6821 3.85405 17.1028 6.52959 18.4334L0.847656 30.6781H4.63082L9.7949 19.2261H12.5136ZM12.5136 16.5507H10.7731C7.93928 16.5507 5.59459 15.0077 5.59459 10.2089C5.59459 5.2403 8.14067 3.52746 10.7731 3.52746H12.5136V16.5507Z" fill="#EA4335"/>
<path d="M48.5467 28.0024H46.8493V9.62832H36.9239V11.4261C36.9239 17.0176 36.7082 23.5292 34.7518 28.0024H33.4428V34.8113H36.4061V30.6778H45.5691V34.8113H48.5467V28.0024ZM62.9313 29.2481L62.169 26.7425C61.3203 27.3371 59.8243 28.1723 57.9686 28.1723C55.3363 28.1723 53.9697 25.6667 53.9697 20.8962H62.8882V19.0985C62.8882 11.964 60.5579 9.33105 56.9905 9.33105C52.4449 9.33105 50.5318 14.2572 50.5318 21.0236C50.5318 27.4928 53.2505 30.9609 57.6666 30.9609C59.7955 30.9609 61.5648 30.2956 62.9313 29.2481ZM28.2644 9.62832V18.5606H23.3448V9.62832H20.022V30.6778H23.3448V21.236H28.2644V30.6778H31.5297V9.62832H28.2644ZM75.2302 30.6778H78.8408L72.7704 19.5231L78.0784 9.62832H74.7267L69.5914 19.3533V9.62832H66.283V30.6778H69.5914V20.1885L75.2302 30.6778ZM86.6085 30.9609C88.5648 30.9609 89.9169 30.3381 91.0677 29.3755L90.3053 26.9549C89.5429 27.6202 88.3058 28.243 86.6948 28.243C84.0192 28.243 82.7534 25.242 82.7534 19.9761C82.7534 14.6819 84.4364 12.0489 86.8242 12.0489C88.1764 12.0489 89.4566 12.7567 90.3485 13.507L90.8088 10.421C89.8738 9.8265 88.7662 9.33105 86.8674 9.33105C81.8615 9.33105 79.2723 13.5494 79.2723 20.146C79.2723 27.3371 82.0198 30.9609 86.6085 30.9609ZM43.584 28.0024H37.8877C39.6714 23.5292 39.8872 17.0601 39.8872 12.6293V12.2613H43.584V28.0024ZM56.9905 12.0065C58.9036 12.0065 59.4934 14.6394 59.4934 18.2208H54.0129C54.2286 14.4696 54.9479 12.0065 56.9905 12.0065Z" fill="black"/>
</svg>
