<svg width="46" height="46" viewBox="0 0 46 46" fill="none" xmlns="http://www.w3.org/2000/svg">
<path d="M12.6211 14.4568C12.4188 16.6149 12.2768 20.4341 13.551 22.0597C13.551 22.0597 12.9512 17.8643 18.3286 12.6005C20.4937 10.4815 20.9942 7.59934 20.2382 5.43774C19.8087 4.21319 19.0243 3.2016 18.3428 2.49526C17.9452 2.07998 18.2505 1.39494 18.829 1.41979C22.3288 1.57596 28.0008 2.5485 30.4108 8.59673C31.4686 11.2517 31.5466 13.9954 31.0426 16.7853C30.7232 18.5671 29.5874 22.5282 32.1784 23.0145C34.0277 23.3624 34.9221 21.8929 35.3232 20.8352C35.4901 20.395 36.0686 20.285 36.381 20.6364C39.5045 24.1894 39.7707 28.3741 39.1247 31.9768C37.8753 38.9408 30.8226 44.0094 23.816 44.0094C15.0631 44.0094 8.09556 39.0011 6.2889 29.9359C5.56127 26.2764 5.93041 19.0356 11.574 13.9244C11.9928 13.5411 12.6779 13.8818 12.6211 14.4568Z" fill="url(#paint0_radial)"/>
<path d="M27.0146 27.4797C23.7882 23.3269 25.2328 18.5884 26.0243 16.7001C26.1308 16.4516 25.8469 16.2174 25.6232 16.37C24.2354 17.3141 21.3923 19.5361 20.0684 22.6631C18.2759 26.8905 18.4037 28.9598 19.465 31.487C20.1039 33.0097 19.362 33.3327 18.9894 33.3895C18.6273 33.4463 18.2937 33.2049 18.0275 32.9529C17.2616 32.2177 16.7159 31.2836 16.4515 30.2554C16.3947 30.0353 16.1072 29.975 15.9759 30.156C14.982 31.5296 14.4674 33.7338 14.4425 35.292C14.3644 40.1086 18.3434 44.0129 23.1564 44.0129C29.2224 44.0129 33.6414 37.3045 30.1559 31.6964C29.1443 30.0637 28.193 28.9953 27.0146 27.4797Z" fill="url(#paint1_radial)"/>
<defs>
<radialGradient id="paint0_radial" cx="0" cy="0" r="1" gradientUnits="userSpaceOnUse" gradientTransform="translate(22.0824 44.1197) rotate(-179.751) scale(25.0546 41.1096)">
<stop offset="0.314" stop-color="#FF9800"/>
<stop offset="0.662" stop-color="#FF6D00"/>
<stop offset="0.972" stop-color="#F44336"/>
</radialGradient>
<radialGradient id="paint1_radial" cx="0" cy="0" r="1" gradientUnits="userSpaceOnUse" gradientTransform="translate(23.49 19.1877) rotate(90.5787) scale(26.2148 19.7286)">
<stop offset="0.214" stop-color="#FFF176"/>
<stop offset="0.328" stop-color="#FFF27D"/>
<stop offset="0.487" stop-color="#FFF48F"/>
<stop offset="0.672" stop-color="#FFF7AD"/>
<stop offset="0.793" stop-color="#FFF9C4"/>
<stop offset="0.822" stop-color="#FFF8BD" stop-opacity="0.804"/>
<stop offset="0.863" stop-color="#FFF6AB" stop-opacity="0.529"/>
<stop offset="0.91" stop-color="#FFF38D" stop-opacity="0.209"/>
<stop offset="0.941" stop-color="#FFF176" stop-opacity="0"/>
</radialGradient>
</defs>
</svg>
