<svg width="80" height="81" viewBox="0 0 80 81" fill="none" xmlns="http://www.w3.org/2000/svg">
<g clip-path="url(#clip0)">
<path d="M40 80.24C62.0914 80.24 80 62.3314 80 40.24C80 18.1486 62.0914 0.23999 40 0.23999C17.9086 0.23999 0 18.1486 0 40.24C0 62.3314 17.9086 80.24 40 80.24Z" fill="#FFD93B"/>
<path d="M79.9998 40.24C79.9998 62.34 62.0873 80.24 39.9998 80.24C27.4248 80.24 16.1998 74.44 8.8623 65.3525C15.7248 70.9025 24.4623 74.215 33.9748 74.215C56.0623 74.215 73.9748 56.315 73.9748 34.215C73.9748 24.7025 70.6623 15.965 65.1123 9.10254C74.1873 16.44 79.9998 27.665 79.9998 40.24Z" fill="#F4C534"/>
<path d="M77.2504 23.4926C77.3654 23.8026 77.2504 24.1551 76.9829 24.3701C76.4654 24.7826 75.9454 25.1901 75.4229 25.5926C74.7229 26.1301 74.3629 26.9676 74.4104 27.8076C74.6179 31.3426 74.0379 34.9901 73.1404 38.5376C72.3154 41.5201 70.7079 42.1001 67.6579 42.7351C59.3404 44.5201 50.0029 44.6051 48.2404 44.3576C46.5679 44.1451 45.1504 43.1476 44.5254 41.6026C43.7629 39.7276 42.9979 37.1601 42.3504 34.7101C42.0954 33.6976 41.1154 32.9926 40.0129 32.9901C38.8929 32.9951 37.9129 33.6976 37.6579 34.7101C37.0104 37.1626 36.2479 39.7326 35.4829 41.6026C34.8429 43.1476 33.4404 44.1551 31.7679 44.3576C30.0029 44.6051 20.6729 44.5201 12.3504 42.7351C9.30039 42.1026 7.67289 41.5201 6.86789 38.5376C5.95539 34.9026 5.36039 31.1476 5.62789 27.5251C5.69289 26.6626 5.33289 25.8126 4.62289 25.2626C4.11039 24.8651 3.60539 24.4676 3.10039 24.0651C2.83539 23.8451 2.72289 23.4976 2.83539 23.1876C3.15539 22.2051 3.47289 21.2251 3.78789 20.2426C3.93539 19.7801 4.45289 19.5576 4.90039 19.7551C6.53789 20.4651 8.19039 21.1476 9.85789 21.8001C10.0579 21.8851 10.2729 21.9276 10.4879 21.9551C22.4354 23.1251 28.0054 26.6151 39.9954 26.8051C44.0354 26.8001 48.0529 26.3176 51.9404 25.3676C58.2629 23.8476 64.1979 22.4951 70.6754 21.8326C70.9004 21.8026 71.1229 21.7626 71.3329 21.6726C72.6254 21.1526 73.9104 20.6126 75.1854 20.0576C75.6304 19.8751 76.1504 20.0876 76.2979 20.5451C76.6129 21.5251 76.9329 22.5101 77.2504 23.4926Z" fill="#3E4347"/>
<path d="M32.7654 40.6026C32.5179 41.1876 32.0429 41.5926 31.4329 41.8026C29.6254 42.5026 17.4129 41.2726 13.2354 40.2201C11.5254 39.8576 10.4479 39.8001 10.0079 38.0001C9.06292 34.4676 8.16543 28.2725 9.39293 24.925C17.9479 26.075 27.9129 28.4276 35.5704 30.2651C35.0104 33.7626 34.0829 37.2701 32.7654 40.6026Z" fill="#5A5F63"/>
<path d="M44.4307 30.265C52.1057 28.425 62.0457 26.0675 70.6082 24.925C71.8332 28.27 70.9357 34.465 69.9907 38C69.5507 39.7925 68.4732 39.8575 66.7632 40.2175C62.6032 41.2775 50.3757 42.4975 48.5657 41.8C47.9557 41.595 47.4807 41.1825 47.2332 40.6C45.9182 37.2725 44.9932 33.7625 44.4307 30.265Z" fill="#5A5F63"/>
<path d="M70.607 24.925C68.3795 25.2225 66.0545 25.605 63.7045 26.035L48.167 41.5725C48.302 41.6475 48.4145 41.75 48.567 41.8C49.2495 42.0625 51.422 42.0525 54.0795 41.8825L70.697 25.2651C70.662 25.1576 70.6445 25.0275 70.607 24.925Z" fill="#777B7E"/>
<path d="M57.3925 27.29L46.3975 38.2851C46.635 38.9926 46.8875 39.695 47.1575 40.3875L60.995 26.55C59.79 26.79 58.5875 27.035 57.3925 27.29Z" fill="#777B7E"/>
<path d="M20.4029 26.8376L9.86035 37.3801C9.91035 37.5851 9.96035 37.8101 10.0104 38.0026C10.4504 39.8026 11.5279 39.8601 13.2379 40.2226C13.2379 40.2226 13.2429 40.2226 13.2454 40.2226L25.5379 27.9301C23.8429 27.5526 22.1279 27.1876 20.4029 26.8376Z" fill="#777B7E"/>
<path d="M16.1674 26.0125L9.06738 33.1125C9.17738 33.9675 9.31738 34.7875 9.46738 35.575L18.5724 26.47C17.7699 26.315 16.9674 26.16 16.1674 26.0125Z" fill="#777B7E"/>
<path d="M61.4427 55.3849C62.9702 56.2624 54.3377 68.7924 40.0002 68.7924C25.3552 68.7924 17.0277 56.2649 18.5552 55.3849C19.7027 54.2224 28.3102 62.0224 40.0002 62.0224C51.6827 62.0224 60.2952 54.2174 61.4427 55.3849Z" fill="#3E4347"/>
</g>
<defs>
<clipPath id="clip0">
<rect width="80" height="80" fill="white" transform="translate(0 0.23999)"/>
</clipPath>
</defs>
</svg>
