<svg width="535" height="398" viewBox="0 0 535 398" fill="none" xmlns="http://www.w3.org/2000/svg">
<path d="M81.6307 266.551L47.7949 208.073H118.82L81.6307 266.551Z" fill="#9944F6"/>
<path d="M69.9313 214.003C69.9313 214.003 57.6221 176.218 103.811 145.093C149.999 113.967 196.115 123.657 212.039 92.7742H245.062C245.062 92.7742 230.067 119.927 195.389 132.274C169.523 141.492 95.5949 147.322 95.5949 214.003H69.9313Z" fill="#9944F6"/>
<g opacity="0.8">
<path d="M448.033 265.221L481.869 206.743H410.844L448.033 265.221Z" fill="#423FD9"/>
<path d="M461.62 214.003C461.62 214.003 473.929 176.218 427.755 145.093C381.581 113.967 335.436 123.657 319.512 92.7742H286.489C286.489 92.7742 301.484 119.927 336.162 132.274C362.043 141.492 435.956 147.322 435.956 214.003H461.62Z" fill="#423FD9"/>
</g>
<path d="M446.975 92.9888C446.975 93.1043 366.204 93.2034 266.588 93.2034C166.971 93.2034 86.1836 93.1043 86.1836 92.9888C86.1836 92.8732 166.938 92.7742 266.588 92.7742C366.237 92.7742 446.975 92.8649 446.975 92.9888Z" fill="#263238"/>
<path d="M393.069 33.4384C393.307 33.4384 393.5 33.6285 393.5 33.863V38.3208C393.5 39.9893 393.343 41.6207 393.041 43.2032C390.709 55.4957 379.726 64.7854 366.561 64.6959C351.789 64.5955 339.967 52.8269 340 38.2614C340.033 23.7221 351.997 11.9451 366.75 11.9451C373.978 11.9451 380.536 14.7724 385.351 19.3651C385.525 19.5309 385.529 19.8041 385.358 19.9727L378.962 26.2793C378.798 26.4416 378.532 26.4459 378.363 26.2875C375.341 23.4512 371.252 21.7099 366.75 21.7099C357.453 21.7099 349.967 29.039 349.904 38.2055C349.84 47.4322 357.407 54.9317 366.75 54.9317C374.33 54.9317 380.742 49.9941 382.856 43.2032H367.181C366.943 43.2032 366.75 43.0132 366.75 42.7787V33.8629C366.75 33.6284 366.943 33.4383 367.181 33.4383H393.069V33.4384Z" fill="#2196F3"/>
<path d="M393.07 33.4386H389.84C390.078 33.4386 390.271 33.6287 390.271 33.8632V38.321C390.271 39.9895 390.114 41.6209 389.812 43.2034C387.587 54.9306 377.489 63.9246 365.134 64.6493C365.607 64.6768 366.082 64.6928 366.562 64.6961C379.727 64.7857 390.71 55.4958 393.042 43.2034C393.343 41.6209 393.5 39.9895 393.5 38.321V33.8631C393.5 33.6287 393.307 33.4386 393.07 33.4386Z" fill="#1E88E5"/>
<path d="M351.448 31.3643L343.324 25.5765C347.882 17.4484 356.665 11.9451 366.75 11.9451C373.978 11.9451 380.536 14.7724 385.351 19.365C385.525 19.5308 385.53 19.804 385.359 19.9726L378.962 26.2791C378.798 26.4412 378.532 26.4463 378.364 26.2882C375.342 23.4514 371.253 21.7099 366.75 21.7099C359.965 21.7099 354.117 25.6646 351.448 31.3643Z" fill="#F44336"/>
<path d="M349.103 29.6935L351.448 31.3644C353.884 26.1619 358.969 22.4151 364.997 21.8005C365.042 21.7957 365.086 21.7898 365.132 21.7855C364.602 21.7358 364.064 21.7098 363.52 21.7098C357.391 21.7098 352.05 24.8959 349.103 29.6935Z" fill="#E53935"/>
<path d="M382.122 19.3651C382.296 19.5309 382.301 19.8041 382.13 19.9728L376.938 25.0916C377.436 25.4646 377.912 25.8635 378.364 26.2876C378.532 26.446 378.798 26.4417 378.963 26.2794L385.359 19.9728C385.53 19.8041 385.526 19.531 385.352 19.3651C380.537 14.7724 373.979 11.9451 366.751 11.9451C366.208 11.9451 365.67 11.9629 365.136 11.9943C371.723 12.3812 377.669 15.117 382.122 19.3651Z" fill="#E53935"/>
<path d="M386.373 56.2459C381.488 61.4436 374.504 64.6968 366.75 64.6968C356.277 64.6968 347.21 58.7626 342.819 50.1174L351.113 44.5132C353.602 50.6195 359.666 54.9319 366.75 54.9319C371.196 54.9319 375.239 53.2337 378.249 50.4592L386.373 56.2459Z" fill="#4CAF50"/>
<path d="M351.114 44.5132L348.668 46.1657C351.509 51.3836 357.095 54.9319 363.521 54.9319C364.064 54.9319 364.602 54.9056 365.132 54.8561C358.753 54.2564 353.411 50.1489 351.114 44.5132Z" fill="#43A047"/>
<path d="M366.75 64.6968C374.504 64.6968 381.488 61.4435 386.373 56.2458L384.383 54.8284C379.796 60.457 372.916 64.191 365.14 64.6488C365.673 64.6801 366.209 64.6968 366.75 64.6968Z" fill="#43A047"/>
<path d="M349.903 38.3209C349.903 40.5095 350.333 42.5994 351.113 44.5131L342.819 50.1172C341.015 46.5679 340 42.5612 340 38.3209C340 33.6986 341.206 29.3543 343.324 25.5768L351.448 31.3646C350.457 33.4799 349.903 35.8373 349.903 38.3209Z" fill="#FFC107"/>
<path d="M348.667 46.1653L351.113 44.5128C350.333 42.5991 349.903 40.5092 349.903 38.3206C349.903 35.837 350.456 33.4796 351.448 31.3643L349.103 29.6935C347.58 32.1729 346.696 35.0823 346.674 38.2054C346.654 41.0855 347.378 43.7974 348.667 46.1653Z" fill="#FFB300"/>
<g clip-path="url(#clip0)">
<path d="M175.102 11.1936H167.43C159.657 11.1936 151.814 16.9334 151.814 29.7567C151.814 36.3989 154.629 41.5721 159.789 44.5141L150.344 61.6097C149.897 62.4182 149.885 63.3345 150.313 64.0608C150.731 64.77 151.495 65.1936 152.357 65.1936H157.135C158.22 65.1936 159.066 64.669 159.472 63.7499L168.328 46.4286H168.974V63.0348C168.974 64.205 169.962 65.1936 171.13 65.1936H175.304C176.615 65.1936 177.53 64.2783 177.53 62.9678V13.5564C177.531 12.1653 176.532 11.1936 175.102 11.1936ZM168.974 38.7342H167.834C163.413 38.7342 160.774 35.1257 160.774 29.0814C160.774 21.5658 164.108 18.8881 167.228 18.8881H168.974V38.7342Z" fill="#D7143A"/>
</g>
<g clip-path="url(#clip1)">
<path d="M96.4999 207.342C111.688 207.342 124 195.03 124 179.842C124 164.655 111.688 152.343 96.4999 152.343C81.3121 152.343 69 164.655 69 179.842C69 195.03 81.3121 207.342 96.4999 207.342Z" fill="#FEE565"/>
<path d="M77.5445 179.842C77.5445 166.108 87.6154 154.725 100.774 152.673C99.3818 152.456 97.9533 152.343 96.4999 152.343C81.3122 152.343 69 164.655 69 179.842C69 195.03 81.3122 207.342 96.4999 207.342C97.9532 207.342 99.3825 207.229 100.775 207.012C87.6162 204.96 77.5445 193.577 77.5445 179.842Z" fill="#FDD62F"/>
<path d="M96.4997 193.135C94.0988 193.135 91.7963 192.406 89.8409 191.027C87.9297 189.678 86.487 187.813 85.6686 185.631C85.5069 185.201 85.7251 184.72 86.156 184.559C86.5867 184.397 87.0671 184.615 87.2288 185.046C88.67 188.888 92.3957 191.469 96.4997 191.469C100.604 191.469 104.329 188.888 105.771 185.046C105.932 184.615 106.413 184.397 106.843 184.559C107.274 184.72 107.493 185.201 107.331 185.631C106.513 187.813 105.07 189.678 103.159 191.027C101.203 192.406 98.9006 193.135 96.4997 193.135Z" fill="#685E67"/>
<path d="M90.7201 176.748C90.2599 176.748 89.8869 176.375 89.8869 175.914C89.8869 174.058 88.3769 172.549 86.5208 172.549C84.6647 172.549 83.1547 174.059 83.1547 175.914C83.1547 176.375 82.7817 176.748 82.3215 176.748C81.8613 176.748 81.4883 176.375 81.4883 175.914C81.4883 173.14 83.7459 170.882 86.5208 170.882C89.2957 170.882 91.5533 173.14 91.5533 175.914C91.5533 176.375 91.1804 176.748 90.7201 176.748Z" fill="#685E67"/>
<path d="M110.789 176.748C110.329 176.748 109.956 176.375 109.956 175.914C109.956 174.058 108.446 172.549 106.59 172.549C104.734 172.549 103.224 174.059 103.224 175.914C103.224 176.375 102.851 176.748 102.391 176.748C101.931 176.748 101.558 176.375 101.558 175.914C101.558 173.14 103.815 170.882 106.59 170.882C109.365 170.882 111.623 173.14 111.623 175.914C111.623 176.375 111.25 176.748 110.789 176.748Z" fill="#685E67"/>
<path d="M73.7426 184.338C73.6523 184.338 73.5604 184.323 73.4702 184.292C73.0353 184.142 72.8048 183.667 72.9552 183.232L74.1837 179.681C74.3341 179.246 74.8086 179.015 75.2435 179.166C75.6785 179.316 75.909 179.791 75.7586 180.225L74.5301 183.777C74.4108 184.122 74.088 184.338 73.7426 184.338Z" fill="#F37E7F"/>
<path d="M77.6001 184.338C77.5097 184.338 77.4179 184.323 77.3277 184.292C76.8927 184.142 76.6622 183.667 76.8126 183.232L78.0411 179.681C78.1915 179.246 78.6659 179.015 79.101 179.166C79.5359 179.316 79.7664 179.791 79.616 180.225L78.3875 183.777C78.2682 184.122 77.9453 184.338 77.6001 184.338Z" fill="#F37E7F"/>
<path d="M114.283 184.338C114.192 184.338 114.1 184.323 114.01 184.292C113.575 184.142 113.345 183.667 113.495 183.232L114.724 179.681C114.874 179.246 115.349 179.015 115.784 179.166C116.219 179.316 116.449 179.791 116.299 180.225L115.07 183.777C114.951 184.122 114.628 184.338 114.283 184.338Z" fill="#F37E7F"/>
<path d="M118.14 184.338C118.05 184.338 117.958 184.323 117.868 184.292C117.433 184.142 117.202 183.667 117.353 183.232L118.581 179.681C118.732 179.246 119.206 179.015 119.641 179.166C120.076 179.316 120.306 179.791 120.156 180.225L118.928 183.777C118.808 184.122 118.485 184.338 118.14 184.338Z" fill="#F37E7F"/>
</g>
<g clip-path="url(#clip2)">
<path d="M428.5 207.342C443.688 207.342 456 195.03 456 179.842C456 164.655 443.688 152.343 428.5 152.343C413.312 152.343 401 164.655 401 179.842C401 195.03 413.312 207.342 428.5 207.342Z" fill="#FEE565"/>
<path d="M409.544 179.842C409.544 166.108 419.615 154.725 432.774 152.673C431.382 152.456 429.953 152.343 428.5 152.343C413.312 152.343 401 164.655 401 179.842C401 195.03 413.312 207.342 428.5 207.342C429.953 207.342 431.383 207.229 432.775 207.012C419.616 204.96 409.544 193.577 409.544 179.842Z" fill="#FDD62F"/>
<path d="M428.5 184.505C426.099 184.505 423.796 185.234 421.841 186.614C419.93 187.962 418.487 189.828 417.669 192.009C417.507 192.44 417.725 192.92 418.156 193.082C418.587 193.244 419.067 193.025 419.229 192.594C420.67 188.753 424.396 186.172 428.5 186.172C432.604 186.172 436.329 188.753 437.771 192.594C437.932 193.025 438.413 193.244 438.843 193.082C439.274 192.92 439.493 192.44 439.331 192.009C438.513 189.828 437.07 187.962 435.159 186.614C433.203 185.234 430.901 184.505 428.5 184.505Z" fill="#685E67"/>
<path d="M422.72 176.748C422.26 176.748 421.887 176.375 421.887 175.914C421.887 174.058 420.377 172.549 418.521 172.549C416.665 172.549 415.155 174.059 415.155 175.914C415.155 176.375 414.782 176.748 414.321 176.748C413.861 176.748 413.488 176.375 413.488 175.914C413.488 173.14 415.746 170.882 418.521 170.882C421.296 170.882 423.553 173.14 423.553 175.914C423.553 176.375 423.18 176.748 422.72 176.748Z" fill="#685E67"/>
<path d="M442.789 176.748C442.329 176.748 441.956 176.375 441.956 175.914C441.956 174.058 440.446 172.549 438.59 172.549C436.734 172.549 435.224 174.059 435.224 175.914C435.224 176.375 434.851 176.748 434.391 176.748C433.931 176.748 433.558 176.375 433.558 175.914C433.558 173.14 435.815 170.882 438.59 170.882C441.365 170.882 443.623 173.14 443.623 175.914C443.623 176.375 443.25 176.748 442.789 176.748Z" fill="#685E67"/>
</g>
<path d="M532.649 313.757C533.948 313.757 535 312.719 535 311.439V281.964C535 278.982 532.539 276.556 529.514 276.556H491.841C490.542 276.556 489.489 277.593 489.489 278.873C489.489 280.153 490.542 281.191 491.841 281.191H529.514C529.946 281.191 530.298 281.538 530.298 281.964V296.032H379.202V281.964C379.202 281.538 379.554 281.191 379.986 281.191H481.018C482.317 281.191 483.369 280.153 483.369 278.873C483.369 277.593 482.317 276.556 481.018 276.556H379.986C376.961 276.556 374.5 278.982 374.5 281.964V391.966C374.5 394.948 376.961 397.374 379.986 397.374H397.795C399.093 397.374 400.146 396.337 400.146 395.057C400.146 393.777 399.093 392.739 397.795 392.739H379.986C379.554 392.739 379.202 392.392 379.202 391.966V300.668H426.433V315.38H399.637C396.612 315.38 394.151 317.806 394.151 320.787V372.653C394.151 375.634 396.612 378.061 399.637 378.061H426.433V392.739H408.617C407.318 392.739 406.266 393.777 406.266 395.057C406.266 396.337 407.318 397.374 408.617 397.374H529.514C532.539 397.374 535 394.948 535 391.966V322.107C535 320.827 533.948 319.79 532.649 319.79C531.35 319.79 530.298 320.827 530.298 322.107V391.966C530.298 392.392 529.946 392.739 529.514 392.739H483.067V300.668H530.298V311.439C530.298 312.719 531.35 313.757 532.649 313.757ZM398.853 372.652V320.787C398.853 320.361 399.205 320.015 399.637 320.015H478.365V373.425H399.637C399.205 373.425 398.853 373.079 398.853 372.652ZM431.135 392.739V378.061H478.365V392.739H431.135ZM478.365 315.379H431.135V300.668H478.365V315.379Z" fill="#423FD9"/>
<path d="M389.369 286.294C388.07 286.294 387.018 287.332 387.018 288.612C387.018 289.892 388.07 290.929 389.369 290.929H389.404C390.703 290.929 391.755 289.892 391.755 288.612C391.755 287.332 390.703 286.294 389.404 286.294H389.369Z" fill="#423FD9"/>
<path d="M396.467 286.294C395.169 286.294 394.116 287.332 394.116 288.612C394.116 289.892 395.169 290.929 396.467 290.929H396.502C397.801 290.929 398.854 289.892 398.854 288.612C398.854 287.332 397.801 286.294 396.502 286.294H396.467Z" fill="#423FD9"/>
<path d="M403.566 286.294C402.267 286.294 401.215 287.332 401.215 288.612C401.215 289.892 402.267 290.929 403.566 290.929H403.601C404.9 290.929 405.952 289.892 405.952 288.612C405.952 287.332 404.9 286.294 403.601 286.294H403.566Z" fill="#423FD9"/>
<path d="M520.13 290.929C521.429 290.929 522.481 289.892 522.481 288.612C522.481 287.332 521.429 286.294 520.13 286.294H515.755C514.457 286.294 513.404 287.332 513.404 288.612C513.404 289.892 514.457 290.929 515.755 290.929H520.13Z" fill="#423FD9"/>
<path d="M412.117 332.762H435.627C436.926 332.762 437.979 331.724 437.979 330.444C437.979 329.164 436.926 328.127 435.627 328.127H412.117C410.818 328.127 409.766 329.164 409.766 330.444C409.766 331.724 410.818 332.762 412.117 332.762Z" fill="#423FD9"/>
<path d="M462.586 339.015H412.117C410.818 339.015 409.766 340.052 409.766 341.332C409.766 342.612 410.818 343.65 412.117 343.65H462.586C463.885 343.65 464.938 342.612 464.938 341.332C464.938 340.052 463.885 339.015 462.586 339.015Z" fill="#423FD9"/>
<path d="M459.452 345.463H412.117C410.818 345.463 409.766 346.501 409.766 347.781C409.766 349.061 410.818 350.098 412.117 350.098H459.452C460.75 350.098 461.803 349.061 461.803 347.781C461.803 346.501 460.75 345.463 459.452 345.463Z" fill="#423FD9"/>
<path d="M430.76 352.738H415.836C412.259 352.738 409.349 355.607 409.349 359.134C409.349 362.66 412.259 365.53 415.836 365.53H430.76C434.337 365.53 437.248 362.66 437.248 359.134C437.248 355.607 434.337 352.738 430.76 352.738ZM430.76 360.895H415.836C414.852 360.895 414.051 360.105 414.051 359.134C414.051 358.163 414.852 357.374 415.836 357.374H430.76C431.745 357.374 432.546 358.163 432.546 359.134C432.546 360.105 431.744 360.895 430.76 360.895Z" fill="#423FD9"/>
<path d="M517.074 350.977H497.72C496.421 350.977 495.369 352.014 495.369 353.294C495.369 354.574 496.421 355.612 497.72 355.612H517.074C518.372 355.612 519.425 354.574 519.425 353.294C519.425 352.014 518.372 350.977 517.074 350.977Z" fill="#423FD9"/>
<path d="M517.073 357.718H507.23C505.931 357.718 504.879 358.755 504.879 360.035C504.879 361.315 505.931 362.353 507.23 362.353H517.073C518.371 362.353 519.424 361.315 519.424 360.035C519.424 358.755 518.371 357.718 517.073 357.718Z" fill="#423FD9"/>
<path d="M497.72 362.353H501.07C502.369 362.353 503.421 361.315 503.421 360.035C503.421 358.755 502.369 357.718 501.07 357.718H497.72C496.421 357.718 495.369 358.755 495.369 360.035C495.369 361.315 496.422 362.353 497.72 362.353Z" fill="#423FD9"/>
<path d="M497.72 369.094H517.074C518.372 369.094 519.425 368.057 519.425 366.776C519.425 365.496 518.372 364.459 517.074 364.459H497.72C496.421 364.459 495.369 365.496 495.369 366.776C495.369 368.057 496.422 369.094 497.72 369.094Z" fill="#423FD9"/>
<path d="M507.933 327.007C506.981 326.136 505.494 326.191 504.61 327.129C503.727 328.068 503.782 329.534 504.734 330.405L506.848 332.339L504.734 334.273C503.783 335.143 503.727 336.61 504.61 337.548C505.074 338.04 505.703 338.289 506.334 338.289C506.906 338.289 507.48 338.084 507.933 337.67L511.904 334.038C512.383 333.599 512.655 332.983 512.655 332.339C512.655 331.694 512.383 331.079 511.904 330.64L507.933 327.007Z" fill="#423FD9"/>
<path d="M507.396 319.94C500.461 319.94 494.818 325.502 494.818 332.338C494.818 339.175 500.461 344.738 507.396 344.738C514.331 344.738 519.974 339.175 519.974 332.338C519.974 325.502 514.331 319.94 507.396 319.94ZM507.396 340.102C503.053 340.102 499.521 336.619 499.521 332.338C499.521 328.058 503.054 324.575 507.396 324.575C511.739 324.575 515.272 328.058 515.272 332.338C515.272 336.619 511.739 340.102 507.396 340.102Z" fill="#423FD9"/>
<path d="M160.499 279.784V394.175C160.499 395.949 159.052 397.388 157.27 397.388H3.22943C1.44669 397.388 0 395.949 0 394.175V279.784C0 278.01 1.44669 276.57 3.22943 276.57H157.27C159.052 276.57 160.499 278.01 160.499 279.784Z" fill="url(#paint0_linear)"/>
<path d="M16.2005 327.685H0V364.189H16.2005C17.9832 364.189 19.4299 362.75 19.4299 360.976V330.898C19.4299 329.124 17.9832 327.685 16.2005 327.685Z" fill="white"/>
<path d="M16.2005 327.685H0V339.14H19.4299V330.898C19.4299 329.124 17.9832 327.685 16.2005 327.685Z" fill="#6455D1"/>
<path d="M160.5 279.784V394.175C160.5 395.949 159.053 397.388 157.27 397.388H118.589C154.318 366.613 153.524 295.057 152.681 276.57H157.27C159.053 276.57 160.5 278.01 160.5 279.784Z" fill="#5F5F68"/>
<path d="M160.5 313.444V378.429H64.8564C63.073 378.429 61.627 376.991 61.627 375.216V316.658C61.627 314.883 63.0727 313.444 64.8564 313.444H160.5Z" fill="#9944F6"/>
<path d="M160.5 313.444V378.429H133.936C145.187 358.956 149.937 334.177 151.813 313.444H160.5Z" fill="#423FD9"/>
<path d="M160.499 279.784V296.824H0V279.784C0 278.01 1.44669 276.57 3.22943 276.57H157.27C159.052 276.57 160.499 278.01 160.499 279.784Z" fill="#7878FF"/>
<path d="M160.499 279.784V296.824H152.803C153.068 288 152.878 280.857 152.681 276.57H157.27C159.052 276.57 160.499 278.01 160.499 279.784Z" fill="#423FD9"/>
<path d="M12.9319 289.108H12.8956C11.558 289.108 10.4736 288.029 10.4736 286.698C10.4736 285.367 11.558 284.288 12.8956 284.288H12.9319C14.2696 284.288 15.3539 285.367 15.3539 286.698C15.3539 288.029 14.2696 289.108 12.9319 289.108Z" fill="#FF7070"/>
<path d="M20.2444 289.108H20.208C18.8704 289.108 17.7861 288.029 17.7861 286.698C17.7861 285.367 18.8704 284.288 20.208 284.288H20.2444C21.582 284.288 22.6663 285.367 22.6663 286.698C22.6663 288.029 21.582 289.108 20.2444 289.108Z" fill="#FFF27D"/>
<path d="M27.5569 289.108H27.5206C26.183 289.108 25.0986 288.029 25.0986 286.698C25.0986 285.367 26.183 284.288 27.5206 284.288H27.5569C28.8946 284.288 29.9789 285.367 29.9789 286.698C29.9789 288.029 28.8946 289.108 27.5569 289.108Z" fill="#4BE96D"/>
<path d="M147.603 289.108H143.096C141.758 289.108 140.674 288.029 140.674 286.698C140.674 285.367 141.758 284.288 143.096 284.288H147.603C148.941 284.288 150.025 285.367 150.025 286.698C150.025 288.029 148.94 289.108 147.603 289.108Z" fill="url(#paint1_linear)"/>
<path d="M74.8665 330.898V360.976C74.8665 362.75 73.4198 364.189 71.6371 364.189H39.3437C37.561 364.189 36.1143 362.75 36.1143 360.976V330.898C36.1143 329.124 37.561 327.685 39.3437 327.685H71.6371C73.4198 327.685 74.8665 329.124 74.8665 330.898Z" fill="white"/>
<path d="M74.8665 330.898V339.14H36.1143V330.898C36.1143 329.124 37.561 327.685 39.3437 327.685H71.6371C73.4198 327.685 74.8665 329.124 74.8665 330.898Z" fill="#6455D1"/>
<path d="M95.6164 355.877C101.435 355.877 106.152 351.184 106.152 345.394C106.152 339.604 101.435 334.91 95.6164 334.91C89.7979 334.91 85.0811 339.604 85.0811 345.394C85.0811 351.184 89.7979 355.877 95.6164 355.877Z" fill="white"/>
<path d="M94.5224 351.582C93.8723 351.582 93.2237 351.323 92.7466 350.811C91.8366 349.835 91.8939 348.31 92.8742 347.405L95.0519 345.394L92.8742 343.383C91.8936 342.477 91.8363 340.952 92.7466 339.977C93.656 339.001 95.1892 338.944 96.1691 339.85L100.26 343.627C100.753 344.084 101.034 344.724 101.034 345.394C101.034 346.064 100.754 346.704 100.26 347.16L96.1691 350.938C95.703 351.368 95.1118 351.582 94.5224 351.582Z" fill="url(#paint2_linear)"/>
<path d="M124.169 330.095H116.096C114.758 330.095 113.674 329.016 113.674 327.685C113.674 326.354 114.758 325.275 116.096 325.275H124.169C125.507 325.275 126.591 326.354 126.591 327.685C126.591 329.016 125.507 330.095 124.169 330.095Z" fill="url(#paint3_linear)"/>
<path d="M129.336 336.787H116.096C114.758 336.787 113.674 335.708 113.674 334.377C113.674 333.046 114.758 331.967 116.096 331.967H129.336C130.674 331.967 131.758 333.046 131.758 334.377C131.758 335.708 130.674 336.787 129.336 336.787Z" fill="url(#paint4_linear)"/>
<path d="M152.103 345.395C152.103 346.726 151.018 347.805 149.681 347.805H116.096C114.759 347.805 113.674 346.726 113.674 345.395C113.674 344.062 114.759 342.985 116.096 342.985H149.681C151.018 342.985 152.103 344.062 152.103 345.395Z" fill="white"/>
<path d="M152.104 352.404C152.104 353.734 151.019 354.814 149.682 354.814H129.337C128 354.814 126.915 353.734 126.915 352.404C126.915 351.074 128 349.994 129.337 349.994H149.682C151.019 349.994 152.104 351.074 152.104 352.404Z" fill="white"/>
<path d="M121.909 354.814H116.096C114.758 354.814 113.674 353.735 113.674 352.404C113.674 351.073 114.758 349.994 116.096 349.994H121.909C123.246 349.994 124.33 351.073 124.33 352.404C124.331 353.735 123.246 354.814 121.909 354.814Z" fill="white"/>
<path d="M152.103 359.412C152.103 360.746 151.018 361.822 149.681 361.822H116.096C114.759 361.822 113.674 360.746 113.674 359.412C113.674 358.082 114.759 357.002 116.096 357.002H149.681C151.018 357.002 152.103 358.082 152.103 359.412Z" fill="white"/>
<path d="M41.6057 320.645H38.0528C36.7152 320.645 35.6309 319.566 35.6309 318.234C35.6309 316.903 36.7152 315.824 38.0528 315.824H41.6057C42.9433 315.824 44.0276 316.903 44.0276 318.234C44.0276 319.566 42.9433 320.645 41.6057 320.645Z" fill="white"/>
<path d="M152.103 359.412C152.103 360.746 151.018 361.822 149.681 361.822H141.644C142.238 360.228 142.797 358.622 143.329 357.002H149.681C151.018 357.003 152.103 358.082 152.103 359.412Z" fill="#D1D0D8"/>
<path d="M152.104 352.404C152.104 353.734 151.019 354.814 149.682 354.814H144.03C144.527 353.217 144.999 351.607 145.445 349.994H149.682C151.018 349.994 152.104 351.074 152.104 352.404Z" fill="#D1D0D8"/>
<path d="M149.681 347.805H146.032C146.449 346.205 146.843 344.595 147.217 342.985H149.681C151.018 342.985 152.103 344.062 152.103 345.395C152.104 346.726 151.018 347.805 149.681 347.805Z" fill="#D1D0D8"/>
<path d="M246.9 318.033L241.034 315.891L242.923 311.969L246.546 315.251L246.9 318.033Z" fill="black"/>
<path d="M252.908 307.617C252.908 307.617 253.156 311.376 253.215 312.563C253.274 313.75 248.175 317.463 246.9 318.079L246.546 315.298C245.395 316.676 244.42 318.189 243.642 319.802C242.663 321.501 241.423 324.701 238.72 326.901C234.719 330.16 228.451 331.824 222.054 332.092C215.657 332.359 211.986 330.823 210.156 329.461C208.327 328.1 207.737 326.505 208.185 324.899C208.634 323.293 252.908 307.617 252.908 307.617Z" fill="#263238"/>
<path d="M235.723 294.815L235.628 292.638C234.448 292.638 234.318 295.769 232.618 298.55C230.14 302.712 227.134 306.545 223.671 309.956C217.215 315.775 211.443 319.511 208.563 322.153C204.704 325.644 211.538 331.23 221.984 330.602C227.165 330.288 236.36 327.669 238.933 324.631C241.506 321.594 243.076 316.88 245.13 314.669C247.184 312.458 251.633 310.235 252.908 307.558C253.605 306.092 253.215 302.682 252.778 299.784C252.365 297.119 252.271 293.034 250.748 293.371L250.642 294.815C250.028 295.978 248.6 297.91 244.422 298.632C242.332 298.934 236.112 299.144 235.723 294.815Z" fill="#455A64"/>
<path opacity="0.15" d="M241.07 298.702C239.076 298.539 236.916 297.899 236.077 296.13V296.071C236.197 296.826 236.138 297.597 235.907 298.325C235.676 299.054 235.278 299.72 234.744 300.273C232.891 302.437 221.17 317.73 221.17 317.73C221.17 317.73 232.088 305.138 234.154 302.775C237.258 299.283 238.237 298.853 241.094 298.736L241.07 298.702Z" fill="black"/>
<path d="M208.563 322.164C210.995 319.93 215.492 316.939 220.72 312.54C219.611 314.285 218.006 315.647 217.852 316.229C217.451 317.649 221.747 319.616 224.368 320.291C226.988 320.966 229.939 317.241 233.81 313.89C237.682 310.538 241.069 314.413 242.403 319.092C241.452 321.053 240.302 322.913 238.968 324.643C236.395 327.681 227.165 330.3 222.019 330.614C211.537 331.242 204.703 325.691 208.563 322.164Z" fill="#37474F"/>
<path opacity="0.15" d="M238.484 302.74C238.499 302.864 238.551 302.98 238.633 303.075C238.715 303.169 238.824 303.237 238.946 303.271C239.067 303.304 239.196 303.302 239.316 303.263C239.436 303.224 239.541 303.151 239.619 303.053C239.697 302.955 239.744 302.837 239.753 302.713C239.762 302.589 239.734 302.465 239.672 302.356C239.61 302.248 239.517 302.16 239.404 302.104C239.291 302.048 239.164 302.027 239.039 302.042C238.956 302.05 238.875 302.075 238.801 302.116C238.728 302.156 238.663 302.21 238.612 302.275C238.56 302.34 238.522 302.415 238.5 302.495C238.478 302.575 238.473 302.658 238.484 302.74Z" fill="black"/>
<path opacity="0.15" d="M235.415 306.115C235.424 306.198 235.449 306.278 235.49 306.351C235.53 306.424 235.585 306.488 235.651 306.54C235.717 306.592 235.793 306.631 235.874 306.654C235.955 306.677 236.04 306.683 236.123 306.674C236.207 306.665 236.288 306.639 236.362 306.599C236.436 306.559 236.501 306.505 236.553 306.44C236.606 306.375 236.645 306.301 236.669 306.221C236.692 306.142 236.699 306.058 236.69 305.976C236.681 305.893 236.655 305.813 236.614 305.74C236.574 305.668 236.519 305.604 236.453 305.552C236.387 305.5 236.312 305.461 236.231 305.438C236.15 305.415 236.065 305.408 235.982 305.417C235.814 305.437 235.66 305.522 235.554 305.652C235.449 305.783 235.399 305.949 235.415 306.115Z" fill="black"/>
<path opacity="0.15" d="M232.347 309.49C232.366 309.657 232.451 309.81 232.584 309.914C232.716 310.019 232.886 310.068 233.055 310.049C233.224 310.031 233.379 309.947 233.485 309.816C233.591 309.685 233.64 309.517 233.622 309.351C233.601 309.185 233.515 309.034 233.383 308.929C233.251 308.825 233.082 308.776 232.913 308.792C232.745 308.813 232.592 308.897 232.486 309.028C232.38 309.158 232.33 309.324 232.347 309.49Z" fill="black"/>
<path opacity="0.15" d="M229.29 312.865C229.305 312.989 229.356 313.105 229.439 313.2C229.521 313.294 229.629 313.362 229.751 313.396C229.872 313.429 230.001 313.427 230.121 313.388C230.241 313.349 230.347 313.276 230.424 313.178C230.502 313.08 230.549 312.962 230.558 312.838C230.568 312.714 230.539 312.59 230.477 312.482C230.415 312.373 230.322 312.286 230.209 312.23C230.097 312.174 229.97 312.152 229.844 312.167C229.677 312.188 229.525 312.273 229.421 312.403C229.317 312.534 229.27 312.7 229.29 312.865Z" fill="black"/>
<path opacity="0.15" d="M226.221 316.241C226.23 316.323 226.256 316.403 226.296 316.476C226.337 316.549 226.392 316.613 226.457 316.665C226.523 316.717 226.599 316.755 226.68 316.778C226.761 316.801 226.845 316.809 226.929 316.799C227.013 316.79 227.094 316.765 227.167 316.725C227.241 316.685 227.306 316.631 227.359 316.566C227.411 316.501 227.451 316.427 227.474 316.347C227.497 316.267 227.505 316.183 227.495 316.101C227.477 315.934 227.392 315.782 227.259 315.677C227.126 315.572 226.956 315.524 226.787 315.542C226.618 315.561 226.464 315.645 226.357 315.776C226.251 315.907 226.202 316.074 226.221 316.241Z" fill="black"/>
<path d="M239.134 302.961C239.196 302.951 239.253 302.922 239.299 302.88C239.344 302.83 239.37 302.766 239.37 302.699C239.37 302.633 239.344 302.568 239.299 302.519C237.327 300.722 234.737 299.728 232.052 299.738C231.983 299.738 231.917 299.765 231.868 299.813C231.819 299.861 231.792 299.926 231.792 299.994C231.792 300.062 231.819 300.127 231.868 300.175C231.917 300.223 231.983 300.25 232.052 300.25C234.586 300.255 237.028 301.193 238.898 302.88C238.927 302.911 238.964 302.935 239.006 302.949C239.047 302.963 239.091 302.967 239.134 302.961Z" fill="#263238"/>
<path d="M236.065 306.29C236.129 306.285 236.188 306.255 236.231 306.208C236.279 306.16 236.306 306.096 236.306 306.028C236.306 305.96 236.279 305.896 236.231 305.848C234.261 304.053 231.677 303.06 228.995 303.066C228.927 303.075 228.865 303.108 228.822 303.16C228.778 303.212 228.756 303.278 228.759 303.345C228.761 303.378 228.769 303.411 228.784 303.441C228.798 303.471 228.819 303.497 228.844 303.519C228.87 303.541 228.899 303.557 228.931 303.568C228.963 303.578 228.997 303.581 229.031 303.578C231.568 303.582 234.011 304.525 235.877 306.22C235.93 306.263 235.996 306.287 236.065 306.29Z" fill="#263238"/>
<path d="M233.008 309.677C233.071 309.666 233.128 309.638 233.174 309.595C233.222 309.547 233.249 309.482 233.249 309.415C233.249 309.347 233.222 309.282 233.174 309.235C231.208 307.434 228.621 306.439 225.938 306.453C225.904 306.456 225.871 306.465 225.841 306.481C225.81 306.497 225.783 306.518 225.761 306.544C225.739 306.57 225.723 306.6 225.713 306.632C225.703 306.665 225.699 306.698 225.702 306.732C225.704 306.765 225.712 306.798 225.727 306.828C225.741 306.858 225.762 306.884 225.787 306.906C225.813 306.928 225.842 306.944 225.874 306.954C225.907 306.964 225.94 306.968 225.974 306.965C228.51 306.972 230.952 307.915 232.82 309.607C232.873 309.65 232.94 309.674 233.008 309.677Z" fill="#263238"/>
<path d="M229.939 313.052C230.001 313.041 230.059 313.013 230.105 312.97C230.153 312.922 230.18 312.857 230.18 312.79C230.18 312.722 230.153 312.657 230.105 312.609C228.135 310.815 225.55 309.821 222.869 309.828C222.835 309.831 222.802 309.84 222.771 309.856C222.741 309.872 222.714 309.893 222.692 309.919C222.67 309.945 222.654 309.975 222.643 310.007C222.633 310.04 222.63 310.074 222.633 310.107C222.634 310.14 222.643 310.173 222.657 310.203C222.672 310.233 222.693 310.259 222.718 310.281C222.743 310.303 222.773 310.319 222.805 310.329C222.837 310.34 222.871 310.343 222.904 310.34C225.442 310.344 227.885 311.287 229.75 312.982C229.804 313.024 229.87 313.049 229.939 313.052Z" fill="#263238"/>
<path d="M226.882 316.427C226.941 316.419 226.996 316.39 227.035 316.345C227.061 316.322 227.081 316.294 227.095 316.263C227.109 316.232 227.116 316.199 227.116 316.165C227.116 316.131 227.109 316.097 227.095 316.066C227.081 316.035 227.061 316.007 227.035 315.984C225.068 314.187 222.481 313.197 219.8 313.214C219.767 313.217 219.735 313.227 219.706 313.242C219.677 313.257 219.652 313.277 219.631 313.302C219.61 313.327 219.595 313.356 219.585 313.387C219.575 313.417 219.572 313.45 219.575 313.482C219.577 313.515 219.585 313.548 219.6 313.578C219.614 313.608 219.635 313.634 219.66 313.656C219.686 313.678 219.715 313.694 219.748 313.704C219.78 313.714 219.813 313.718 219.847 313.715C222.383 313.722 224.825 314.665 226.693 316.357C226.746 316.401 226.812 316.426 226.882 316.427Z" fill="#263238"/>
<path d="M282.947 335.141C282.794 340.18 283.29 343.579 284.836 346.686C286.382 349.793 289.711 351.004 293.24 350.445C296.769 349.886 301.396 347.955 302.765 343.707C304.134 339.459 304.205 336.479 303.839 331.754L282.947 335.141Z" fill="#263238"/>
<path d="M299.921 299.97C301.337 300.203 301.101 306.953 301.373 313.808C301.609 321.117 303.533 324.282 303.793 330.299C304.088 337.154 303.45 340.145 300.676 344.033C297.903 347.92 289.027 351.213 285.332 344.975C282.334 339.889 282.665 334.582 283.574 327.832C284.491 322.137 285.109 316.4 285.427 310.642C285.604 305.545 285.686 300.587 286.973 300.168C286.973 300.925 286.973 301.879 287.044 302.612C287.115 303.345 286.973 305.941 287.764 306.045C287.876 305.411 287.935 304.769 287.941 304.125C287.903 303.546 288.094 302.975 288.472 302.531C288.94 302.168 289.518 301.972 290.113 301.972C291.535 301.804 292.965 301.71 294.397 301.693C295.117 301.693 295.825 301.693 296.534 301.786C297.146 301.827 297.747 301.965 298.316 302.193C298.482 302.262 298.631 302.365 298.753 302.496C298.875 302.626 298.968 302.781 299.024 302.95C299.071 303.207 299.071 303.472 299.024 303.729C298.965 304.197 298.965 304.67 299.024 305.138C299.024 305.347 299.177 305.603 299.39 305.568C299.602 305.533 299.638 305.347 299.661 305.173C299.732 304.358 299.661 303.753 299.732 302.845C299.732 302.403 299.732 301.797 299.732 301.355C299.732 300.913 299.909 300.412 299.921 299.97Z" fill="#455A64"/>
<path opacity="0.15" d="M298.422 331.521C298.424 331.587 298.412 331.651 298.388 331.712C298.364 331.773 298.328 331.828 298.281 331.874C298.235 331.921 298.18 331.958 298.119 331.983C298.058 332.009 297.993 332.022 297.927 332.022C297.795 332.022 297.669 331.97 297.576 331.879C297.483 331.787 297.431 331.663 297.431 331.533C297.429 331.469 297.441 331.405 297.464 331.345C297.487 331.285 297.523 331.23 297.568 331.184C297.613 331.137 297.666 331.1 297.726 331.074C297.785 331.048 297.85 331.034 297.915 331.033C297.981 331.031 298.047 331.043 298.108 331.066C298.17 331.09 298.226 331.126 298.273 331.172C298.32 331.217 298.358 331.272 298.384 331.332C298.409 331.392 298.422 331.456 298.422 331.521Z" fill="black"/>
<path opacity="0.15" d="M298.363 326.808C298.363 326.937 298.31 327.062 298.217 327.153C298.124 327.245 297.998 327.297 297.867 327.297C297.735 327.297 297.609 327.245 297.516 327.153C297.423 327.062 297.371 326.937 297.371 326.808C297.371 326.678 297.423 326.554 297.516 326.462C297.609 326.371 297.735 326.319 297.867 326.319C297.998 326.319 298.124 326.371 298.217 326.462C298.31 326.554 298.363 326.678 298.363 326.808Z" fill="black"/>
<path opacity="0.15" d="M298.304 322.35C298.306 322.415 298.294 322.478 298.271 322.538C298.247 322.598 298.212 322.653 298.167 322.699C298.122 322.746 298.069 322.783 298.009 322.809C297.949 322.835 297.885 322.849 297.82 322.851C297.719 322.855 297.619 322.83 297.532 322.778C297.446 322.726 297.377 322.65 297.335 322.559C297.293 322.468 297.279 322.366 297.296 322.268C297.313 322.169 297.359 322.078 297.429 322.006C297.499 321.933 297.59 321.883 297.689 321.862C297.788 321.841 297.891 321.849 297.985 321.886C298.079 321.923 298.16 321.987 298.217 322.07C298.273 322.153 298.304 322.25 298.304 322.35Z" fill="black"/>
<path opacity="0.15" d="M298.256 317.963C298.253 318.093 298.201 318.217 298.109 318.309C298.016 318.402 297.892 318.457 297.761 318.463C297.688 318.474 297.614 318.47 297.544 318.45C297.474 318.43 297.408 318.395 297.353 318.348C297.297 318.301 297.253 318.243 297.222 318.178C297.192 318.112 297.176 318.041 297.176 317.969C297.176 317.896 297.192 317.825 297.222 317.76C297.253 317.694 297.297 317.636 297.353 317.589C297.408 317.542 297.474 317.507 297.544 317.488C297.614 317.468 297.688 317.463 297.761 317.474C297.891 317.477 298.015 317.529 298.108 317.62C298.2 317.712 298.253 317.834 298.256 317.963Z" fill="black"/>
<path opacity="0.15" d="M288.872 317.742C288.874 317.807 288.862 317.872 288.838 317.933C288.814 317.993 288.778 318.048 288.731 318.095C288.685 318.142 288.63 318.179 288.569 318.204C288.508 318.229 288.443 318.242 288.377 318.242C288.311 318.244 288.245 318.232 288.183 318.208C288.122 318.185 288.066 318.149 288.018 318.103C287.971 318.058 287.934 318.003 287.908 317.943C287.882 317.883 287.869 317.819 287.869 317.754C287.869 317.623 287.921 317.497 288.014 317.404C288.106 317.31 288.232 317.256 288.365 317.253C288.497 317.256 288.622 317.308 288.716 317.399C288.811 317.49 288.866 317.612 288.872 317.742Z" fill="black"/>
<path opacity="0.15" d="M288.92 322.164C288.922 322.229 288.91 322.292 288.887 322.352C288.863 322.412 288.828 322.467 288.783 322.514C288.738 322.56 288.685 322.597 288.625 322.623C288.566 322.649 288.501 322.663 288.436 322.665C288.37 322.666 288.304 322.655 288.243 322.631C288.181 322.607 288.125 322.571 288.078 322.526C288.031 322.48 287.993 322.426 287.968 322.366C287.942 322.306 287.929 322.241 287.929 322.176C287.929 322.045 287.981 321.92 288.073 321.826C288.166 321.733 288.292 321.679 288.424 321.676C288.556 321.676 288.682 321.727 288.775 321.819C288.868 321.91 288.92 322.035 288.92 322.164Z" fill="black"/>
<path opacity="0.15" d="M288.979 326.622C288.979 326.751 288.927 326.876 288.834 326.967C288.741 327.059 288.615 327.111 288.484 327.111C288.352 327.111 288.226 327.059 288.133 326.967C288.04 326.876 287.988 326.751 287.988 326.622C287.985 326.557 287.995 326.493 288.018 326.432C288.041 326.372 288.076 326.316 288.121 326.269C288.166 326.223 288.221 326.185 288.281 326.16C288.341 326.134 288.406 326.121 288.472 326.121C288.539 326.12 288.606 326.132 288.668 326.156C288.73 326.181 288.787 326.218 288.834 326.264C288.882 326.311 288.919 326.367 288.944 326.429C288.969 326.49 288.981 326.556 288.979 326.622Z" fill="black"/>
<path opacity="0.15" d="M289.037 331.335C289.041 331.4 289.03 331.464 289.008 331.525C288.985 331.586 288.95 331.641 288.904 331.688C288.859 331.735 288.805 331.772 288.744 331.797C288.684 331.823 288.619 331.836 288.553 331.836C288.487 331.837 288.422 331.826 288.36 331.802C288.299 331.778 288.243 331.742 288.195 331.697C288.148 331.651 288.11 331.597 288.085 331.537C288.059 331.477 288.046 331.412 288.046 331.347C288.046 331.217 288.098 331.093 288.191 331.001C288.284 330.909 288.41 330.858 288.542 330.858C288.673 330.858 288.799 330.909 288.892 331.001C288.985 331.093 289.037 331.217 289.037 331.347V331.335Z" fill="black"/>
<path d="M303.793 330.299C303.658 327.905 303.299 325.529 302.719 323.2C302.477 323.389 302.267 323.613 302.093 323.863C301.715 324.496 301.44 325.183 301.279 325.9C301.019 326.773 300.736 327.774 300.523 328.542C299.945 330.567 299.248 332.743 297.407 334.035C296.175 334.78 294.714 335.065 293.288 334.838C292.035 334.829 290.787 334.676 289.57 334.384C288.012 333.849 287.764 332.394 287.41 330.998C286.973 329.24 286.525 327.506 286.017 325.749C285.837 324.884 285.43 324.082 284.837 323.421C284.655 323.249 284.443 323.111 284.211 323.014C284.01 324.527 283.786 326.133 283.55 327.855C282.641 334.605 282.311 339.912 285.309 344.998C288.991 351.236 297.867 347.954 300.653 344.056C303.439 340.157 304.088 337.154 303.793 330.299Z" fill="#37474F"/>
<path opacity="0.15" d="M293.028 333.907L292.119 300.937L293.949 301.065L293.028 333.907Z" fill="black"/>
<path d="M297.926 331.778H297.844C294.87 330.776 291.657 330.699 288.637 331.556C288.606 331.57 288.573 331.576 288.539 331.576C288.506 331.576 288.472 331.57 288.441 331.557C288.411 331.544 288.383 331.524 288.36 331.5C288.336 331.476 288.318 331.448 288.307 331.417C288.283 331.355 288.285 331.287 288.311 331.226C288.337 331.165 288.387 331.117 288.448 331.091C291.576 330.181 294.914 330.254 297.997 331.3C298.029 331.31 298.059 331.325 298.085 331.346C298.111 331.367 298.133 331.393 298.148 331.423C298.164 331.452 298.173 331.484 298.175 331.517C298.178 331.55 298.173 331.583 298.162 331.615C298.145 331.663 298.113 331.704 298.071 331.733C298.029 331.763 297.978 331.778 297.926 331.778Z" fill="#263238"/>
<path d="M297.866 327.064C297.824 327.076 297.779 327.076 297.736 327.064C295.376 325.667 291.186 325.9 288.577 326.866C288.513 326.889 288.442 326.886 288.38 326.857C288.319 326.829 288.27 326.778 288.247 326.715C288.223 326.655 288.225 326.588 288.252 326.529C288.278 326.47 288.327 326.424 288.388 326.401C291.115 325.365 295.47 325.167 297.996 326.633C298.04 326.664 298.074 326.707 298.092 326.756C298.11 326.806 298.112 326.86 298.098 326.911C298.084 326.962 298.054 327.008 298.012 327.041C297.971 327.075 297.92 327.095 297.866 327.099V327.064Z" fill="#263238"/>
<path d="M297.808 322.606C297.766 322.618 297.721 322.618 297.678 322.606C295.318 321.222 291.139 321.443 288.519 322.409C288.488 322.422 288.455 322.429 288.421 322.429C288.388 322.429 288.354 322.422 288.323 322.409C288.292 322.396 288.265 322.377 288.241 322.353C288.218 322.329 288.2 322.3 288.189 322.269C288.165 322.207 288.166 322.139 288.193 322.078C288.219 322.017 288.268 321.969 288.33 321.943C291.057 320.908 295.412 320.71 297.938 322.176C297.982 322.206 298.016 322.249 298.034 322.299C298.052 322.349 298.054 322.403 298.04 322.454C298.026 322.505 297.996 322.55 297.954 322.584C297.913 322.618 297.862 322.638 297.808 322.641V322.606Z" fill="#263238"/>
<path d="M297.748 318.219C297.706 318.229 297.661 318.229 297.619 318.219C295.258 316.834 291.08 317.055 288.459 318.021C288.395 318.044 288.324 318.04 288.263 318.012C288.201 317.984 288.153 317.933 288.129 317.87C288.116 317.839 288.11 317.807 288.11 317.774C288.111 317.741 288.119 317.708 288.134 317.679C288.148 317.649 288.169 317.623 288.195 317.601C288.22 317.58 288.25 317.565 288.282 317.556C291.009 316.52 295.364 316.322 297.878 317.788C297.932 317.812 297.975 317.854 298 317.907C298.026 317.96 298.031 318.02 298.015 318.076C297.999 318.132 297.964 318.181 297.915 318.213C297.866 318.246 297.807 318.26 297.748 318.254V318.219Z" fill="#263238"/>
<path d="M288.814 123.408C291.871 129.355 295.707 140.865 296.439 148.511C299.425 180.109 300.806 227.825 300.806 227.825C301.137 231.119 301.715 236.88 303.391 251.404C305.362 268.559 303.049 315.542 303.049 315.542C303.049 315.542 291.8 320.535 283.975 315.542C283.975 315.542 273.505 258.667 270.991 241.617C268.819 226.731 262.564 181.564 262.564 181.564L259.212 236.985C259.212 236.985 259.991 250.392 259.684 259.097C259.33 269.187 253.157 303.788 253.157 303.788C253.157 303.788 239.429 309.607 229.113 301.949C229.113 301.949 230.541 254.582 230.152 242.443C229.397 218.643 230.152 161.092 230.884 136.477L288.814 123.408Z" fill="#37474F"/>
<path opacity="0.2" d="M262.587 181.564L260.651 169.926C260.651 169.926 249.025 170.228 242.84 164.851C242.84 164.851 245.33 172.102 257.145 172.87L258.963 182.553L259.931 231.282L262.587 181.564Z" fill="black"/>
<path d="M126.849 104.274C126.719 101.702 132.585 102.215 137.838 102.657C142.677 103.064 150.408 103.89 151.093 103.087C152.049 101.924 147.965 99.2934 147.327 96.4071C146.643 93.3462 148.508 92.4035 150.302 94.1725C151.825 95.6972 155.023 97.0704 157.525 99.7472C159.201 101.615 161.484 102.85 163.982 103.239C169.388 103.576 199.604 97.1054 199.604 97.1054C199.604 97.1054 217.226 80.3696 221.959 75.598C227.377 70.1979 230.104 65.2982 240.727 61.8184C243.087 62.2141 247.809 80.6955 241.128 88.5164C241.128 88.5164 225.784 102.831 218.702 108.848C211.62 114.865 209.613 116.995 203.853 117.437C192.841 118.252 189.17 117.938 180.648 118.496C170.332 119.16 166.885 119.66 165.693 119.951C162.294 120.638 159.556 121.65 156.817 122.174C153.191 122.898 149.466 123.001 145.805 122.477C144.672 122.298 143.641 121.724 142.901 120.859C142.323 120.126 142.453 119.253 141.721 118.601C141.211 118.277 140.729 117.911 140.281 117.507C140.082 117.217 139.952 116.886 139.901 116.539C139.85 116.193 139.879 115.839 139.986 115.505C140.063 115.214 140.07 114.908 140.006 114.613C139.943 114.318 139.81 114.042 139.62 113.806C139.195 113.282 138.581 112.875 138.44 112.188C138.37 111.524 138.55 110.857 138.947 110.315C139.183 109.896 139.738 109.035 139.042 108.732C138.345 108.429 137.79 108.464 134.025 107.568C130.26 106.672 126.931 106.032 126.849 104.274Z" fill="#FFBDA7"/>
<path d="M240.727 61.2017C230.965 64.4138 229.525 66.0432 221.133 74.8766C212.741 83.71 199.663 96.2559 199.663 96.2559L172.516 102.354C173.731 103.513 174.698 104.9 175.361 106.433C176.024 107.966 176.369 109.614 176.375 111.281C176.564 117.205 174.015 118.985 174.015 118.985C174.015 118.985 197.22 118.194 202.697 118.241C208.173 118.287 209.165 117.647 214.335 113.876C219.504 110.105 237.776 92.7645 237.776 92.7645L240.727 61.2017Z" fill="#BA68C8"/>
<path opacity="0.2" d="M240.727 61.2017C230.965 64.4138 229.525 66.0432 221.133 74.8766C212.741 83.71 199.663 96.2559 199.663 96.2559L172.516 102.354C173.731 103.513 174.698 104.9 175.361 106.433C176.024 107.966 176.369 109.614 176.375 111.281C176.564 117.205 174.015 118.985 174.015 118.985C174.015 118.985 197.22 118.194 202.697 118.241C208.173 118.287 209.165 117.647 214.335 113.876C219.504 110.105 237.776 92.7645 237.776 92.7645L240.727 61.2017Z" fill="black"/>
<path d="M147.327 107.44C150.408 108.092 153.937 107.987 154.74 109.593C154.882 109.918 154.952 110.269 154.943 110.623C154.934 110.977 154.848 111.325 154.69 111.642C154.532 111.96 154.305 112.24 154.026 112.463C153.748 112.686 153.423 112.846 153.075 112.933C153.479 113.081 153.837 113.331 154.112 113.658C154.387 113.985 154.571 114.377 154.645 114.795C154.691 115.208 154.62 115.625 154.441 116.001C154.262 116.377 153.982 116.696 153.63 116.925C153.875 117.131 154.075 117.385 154.216 117.67C154.358 117.955 154.439 118.266 154.455 118.583C154.47 118.9 154.42 119.217 154.306 119.515C154.193 119.812 154.019 120.083 153.795 120.312C154.751 119.998 156.309 118.764 155.058 117.263C155.058 117.263 156.805 115.098 155.129 113.492C155.129 113.492 156.923 115.401 160.842 114.551C158.862 114.39 156.997 113.569 155.554 112.223C155.853 111.655 155.991 111.018 155.953 110.379C155.916 109.74 155.705 109.123 155.342 108.592C154.055 106.963 147.327 107.44 147.327 107.44Z" fill="#F0997A"/>
<path d="M295.977 63.5991C295.977 63.5991 297.594 69.7091 298.338 74.2363C298.739 76.7153 299.27 83.4189 297.948 95.3015C297.075 103.181 296.898 109.465 296.261 116.902L297.169 153.539C289.167 162.372 248.068 162.977 230.127 150.432C230.127 150.432 230.635 94.7545 232.275 79.4386C233.385 69.0341 236.937 64.309 240.655 61.2132C244.834 59.8865 252.376 58.3386 257.074 56.6627C261.93 55.2681 267.045 54.9855 272.029 55.8364C280.94 57.1399 295.977 63.5991 295.977 63.5991Z" fill="#333333"/>
<path d="M279.134 7.93389C285.366 14.6142 284.056 23.0635 282.026 31.2103C279.665 40.3928 281.282 44.3964 276.006 46.7938C276.643 18.094 267.496 51.8797 243.736 30.0348C239.439 26.0895 238.932 13.6133 243.925 7.92225C250.995 -0.317592 266.953 -4.65864 279.134 7.93389Z" fill="#455A64"/>
<path d="M283.56 40.2181C280.374 42.3944 277.364 39.2056 277.364 39.2056L277.021 58.234C277.021 58.234 277.163 60.6431 271.639 63.7621C263.566 68.3359 248.835 66.8462 255.882 57.7103V52.5546C254.159 52.5664 252.437 52.4809 250.724 52.2985C246.675 51.8097 244.031 48.7489 242.674 44.4777C240.49 37.6228 240.596 27.2183 242.827 13.6947C247.23 10.0985 262.031 9.03944 271.722 14.6607C271.545 22.5863 273.894 26.0312 273.976 28.9058C274.438 29.7342 275.055 30.4688 275.794 31.0705C277.316 32.2925 278.402 28.9873 279.594 27.6605C280.787 26.3338 284.788 24.4717 286.936 28.6032C289.084 32.7348 286.311 38.356 283.56 40.2181Z" fill="#FFBDA7"/>
<path d="M260.792 21.7018L264.805 24.0295C265.107 23.487 265.184 22.8499 265.019 22.2527C264.854 21.6554 264.46 21.1449 263.92 20.8289C263.657 20.6793 263.367 20.5832 263.066 20.5462C262.766 20.5092 262.46 20.5321 262.169 20.6135C261.877 20.6949 261.605 20.8332 261.369 21.0201C261.132 21.207 260.936 21.4388 260.792 21.7018Z" fill="#37474F"/>
<path d="M243.807 23.0635L248.245 21.6203C248.165 21.331 248.025 21.0609 247.835 20.8264C247.645 20.5919 247.409 20.398 247.141 20.2565C246.872 20.1149 246.578 20.0287 246.274 20.0031C245.971 19.9774 245.666 20.0129 245.377 20.1073C244.781 20.3074 244.285 20.7259 243.993 21.2761C243.701 21.8263 243.634 22.4662 243.807 23.0635Z" fill="#37474F"/>
<path d="M263.518 27.4392C263.518 27.8098 263.407 28.1721 263.198 28.4802C262.989 28.7884 262.693 29.0285 262.345 29.1704C261.998 29.3122 261.616 29.3493 261.247 29.277C260.879 29.2047 260.54 29.0262 260.274 28.7642C260.009 28.5021 259.828 28.1682 259.754 27.8048C259.681 27.4413 259.719 27.0645 259.862 26.7221C260.006 26.3798 260.25 26.0871 260.562 25.8812C260.875 25.6753 261.242 25.5654 261.618 25.5654C262.122 25.5654 262.605 25.7628 262.962 26.1142C263.318 26.4656 263.518 26.9423 263.518 27.4392Z" fill="#263238"/>
<path d="M248.375 27.0087C248.377 27.3825 248.267 27.7487 248.058 28.0605C247.848 28.3723 247.55 28.6158 247.2 28.7599C246.85 28.904 246.465 28.9424 246.093 28.87C245.721 28.7976 245.379 28.6178 245.111 28.3534C244.843 28.089 244.66 27.752 244.587 27.3852C244.514 27.0184 244.552 26.6384 244.699 26.2934C244.845 25.9484 245.092 25.6541 245.408 25.4478C245.724 25.2415 246.095 25.1326 246.475 25.1349C246.979 25.1349 247.462 25.3323 247.818 25.6837C248.175 26.0351 248.375 26.5117 248.375 27.0087Z" fill="#263238"/>
<path d="M255.646 21.0616L254.583 33.8636L248.398 32.5253C249.284 28.6847 252.919 22.7957 255.646 21.0616Z" fill="#F0997A"/>
<path d="M273.775 27.4858C273.917 35.3067 270.329 36.8779 267.354 37.7624C262.633 39.1706 260.131 35.2369 254.512 34.9692C251.29 34.8179 248.988 35.8421 246.085 37.6577C245.388 38.0789 244.643 38.4187 243.866 38.6702C242.686 38.903 241.446 38.4607 241.364 37.3202C241.077 34.0847 241.029 30.8329 241.222 27.5906L241.281 25.7168C241.281 25.7168 240.407 36.1098 240.785 40.1366C241.163 44.1635 242.331 48.1089 244.621 49.9593C247.761 52.5198 254.453 53.8698 262.598 52.287C270.742 50.7042 273.787 48.039 274.814 45.2342C278.131 36.1098 276.95 31.7571 278.048 30.0346C279.146 28.3121 273.775 27.4858 273.775 27.4858Z" fill="#455A64"/>
<path d="M252.601 37.4365C248.8 37.8438 246.936 39.3335 246.936 41.7659C246.936 44.1984 247.762 47.1894 250.016 48.0507C252.271 48.9119 251.999 46.5609 251.633 45.2807C251.267 44.0005 252.046 44.2915 253.286 44.2915C254.525 44.2915 255.033 44.1053 254.643 45.4553C254.254 46.8054 253.699 48.5744 256.26 48.2951C258.821 48.0157 260.615 45.5601 260.981 42.4759C261.347 39.3917 258.337 36.808 252.601 37.4365Z" fill="#FFBDA7"/>
<path d="M258.101 38.9495L250.854 39.9271C250.891 40.4027 251.026 40.8658 251.252 41.2878C251.478 41.7097 251.789 42.0816 252.166 42.3804C252.543 42.6792 252.978 42.8986 253.445 43.0251C253.911 43.1516 254.399 43.1826 254.878 43.1159C255.858 42.9687 256.742 42.452 257.343 41.6747C257.945 40.8974 258.216 39.9203 258.101 38.9495Z" fill="#B16668"/>
<path d="M257.145 40.0317C257.442 40.023 257.74 40.0504 258.03 40.1131C257.887 40.8746 257.506 41.5731 256.941 42.1113C256.376 42.6495 255.655 43.0007 254.879 43.116C254.488 43.1811 254.089 43.1811 253.698 43.116C253.753 42.2608 254.144 41.4603 254.787 40.8845C255.431 40.3086 256.276 40.0027 257.145 40.0317Z" fill="#F28F8F"/>
<path d="M326.43 115.89C322.063 101.737 317.389 90.3553 314.12 81.4521C309.811 69.8139 304.205 67.6609 295.376 65.8569C290.242 68.7898 287.763 80.8586 294.326 94.4054C298.386 104.379 307.156 125.235 307.156 125.235C306.577 128.145 303.863 146.882 300.522 154.761C299.342 157.578 297.088 158.45 295.199 159.172C291.658 160.51 289.581 164.712 286.783 166.772C284.6 168.378 283.042 168.773 283.172 169.425C283.36 170.251 284.8 171.008 287.208 170.798C288.852 170.637 290.44 170.121 291.859 169.286C292.512 168.788 293.212 168.351 293.948 167.982C295.128 167.575 294.928 168.587 294.727 169.309C294.291 170.547 293.687 171.721 292.933 172.8C291.811 174.706 290.54 176.523 289.132 178.235C288.095 179.411 286.932 180.473 285.662 181.401C284.343 182.455 283.123 183.624 282.015 184.892C281.543 185.404 280.834 186.289 280.953 187.034C281.071 187.779 282.345 188.198 283.136 188.046C283.927 187.895 284.576 187.592 285.332 187.523C286.89 187.36 288.412 188.302 289.97 188.128C290.533 188.022 291.089 187.882 291.634 187.709C292.511 187.53 293.407 187.456 294.302 187.488C295.027 187.559 295.759 187.499 296.462 187.313C297.147 187.045 297.843 186.789 298.528 186.51L303.78 184.415C304.944 183.789 305.902 182.849 306.542 181.703C309.726 177.169 312.12 172.142 313.624 166.83C315.477 160.219 322.335 144.88 324.53 136.792C328.071 123.617 328.295 121.906 326.43 115.89Z" fill="#FFBDA7"/>
<path d="M295.978 63.5994C301.605 64.8167 306.56 68.0784 309.858 72.7353C313.647 78.2401 317.778 88.086 323.054 103.693C328.33 119.299 328.956 119.986 327.079 129.297C325.203 138.607 317.873 155.017 317.873 155.017C317.873 155.017 311.015 156.693 302.009 150.455L307.155 125.258C307.155 125.258 293.133 95.418 291.009 90.5766C288.884 85.7351 288.624 65.6011 295.978 63.5994Z" fill="#BA68C8"/>
<path opacity="0.2" d="M295.978 63.5994C301.605 64.8167 306.56 68.0784 309.858 72.7353C313.647 78.2401 317.778 88.086 323.054 103.693C328.33 119.299 328.956 119.986 327.079 129.297C325.203 138.607 317.873 155.017 317.873 155.017C317.873 155.017 311.015 156.693 302.009 150.455L307.155 125.258C307.155 125.258 293.133 95.418 291.009 90.5766C288.884 85.7351 288.624 65.6011 295.978 63.5994Z" fill="black"/>
<defs>
<linearGradient id="paint0_linear" x1="80.2495" y1="276.57" x2="80.2495" y2="397.388" gradientUnits="userSpaceOnUse">
<stop stop-color="#F3F3F3"/>
<stop offset="1" stop-color="#7B79E9"/>
</linearGradient>
<linearGradient id="paint1_linear" x1="145.349" y1="284.288" x2="145.349" y2="289.108" gradientUnits="userSpaceOnUse">
<stop stop-color="#43A047"/>
<stop offset="0.244792" stop-color="#4CAF50"/>
</linearGradient>
<linearGradient id="paint2_linear" x1="96.567" y1="339.206" x2="96.567" y2="351.582" gradientUnits="userSpaceOnUse">
<stop stop-color="#FFE700"/>
<stop offset="1" stop-color="#F5482F"/>
</linearGradient>
<linearGradient id="paint3_linear" x1="120.132" y1="325.275" x2="120.132" y2="330.095" gradientUnits="userSpaceOnUse">
<stop stop-color="#FFF8B6"/>
<stop offset="1" stop-color="#F5482F"/>
</linearGradient>
<linearGradient id="paint4_linear" x1="122.716" y1="331.967" x2="122.716" y2="336.787" gradientUnits="userSpaceOnUse">
<stop stop-color="#FFF8B6"/>
<stop offset="1" stop-color="#F5482F"/>
</linearGradient>
<clipPath id="clip0">
<rect width="54" height="54" fill="white" transform="translate(137 10.7681)"/>
</clipPath>
<clipPath id="clip1">
<rect width="55" height="55" fill="white" transform="translate(69 152.343)"/>
</clipPath>
<clipPath id="clip2">
<rect width="55" height="55" fill="white" transform="translate(401 152.343)"/>
</clipPath>
</defs>
</svg>
