<svg width="80" height="80" viewBox="0 0 80 80" fill="none" xmlns="http://www.w3.org/2000/svg">
<g clip-path="url(#clip0)">
<path d="M17.633 14.6875C14.9845 12.8336 12.3351 12.8327 9.6875 14.6875C11.5415 12.039 11.5406 9.38963 9.6875 6.742C12.336 8.59419 14.9845 8.59596 17.633 6.742C15.7782 9.38963 15.7799 12.0381 17.633 14.6875Z" fill="url(#paint0_linear)"/>
<path d="M72.2003 58.0941C71.4236 57.7181 71.0986 56.7837 71.4744 56.007C73.9021 50.9903 75.133 45.605 75.133 40C75.133 19.667 58.591 3.12498 38.258 3.12498C30.2879 3.12498 22.6088 5.66602 16.2488 10.4473C16.3066 9.21199 16.7679 7.97691 17.633 6.742C16.3977 7.60675 15.1623 8.06777 13.9269 8.12559C20.891 2.76512 29.4602 -1.52588e-05 38.258 -1.52588e-05C60.3141 -1.52588e-05 78.258 17.9439 78.258 40C78.258 46.0803 76.9221 51.9237 74.2874 57.3681C73.9116 58.1448 72.9774 58.4698 72.2003 58.0941Z" fill="url(#paint1_linear)"/>
<path d="M38.2578 69.6875C22.9756 69.6875 8.57031 57.5491 8.57031 40C8.57031 23.7452 21.7733 10.3125 38.2578 10.3125C54.7391 10.3125 67.9453 23.737 67.9453 40C67.9453 56.2548 54.7423 69.6875 38.2578 69.6875ZM29.8947 65.2125C26.6658 61.3742 24.7117 55.8961 23.7005 50.9375H14.0528C17.0947 57.6423 22.8431 62.8673 29.8947 65.2125ZM11.6953 40C11.6953 42.7178 12.1064 45.3414 12.8684 47.8125L23.1652 47.8141C22.8142 45.2991 22.6328 42.675 22.6328 40C22.6328 37.325 22.8142 34.7025 23.1652 32.1875H12.8684C12.1064 34.6586 11.6953 37.2822 11.6953 40ZM14.053 29.0625H23.7006C24.7116 24.105 26.6655 18.6263 29.8948 14.7875C22.8431 17.1327 17.0947 22.3577 14.053 29.0625ZM36.6953 13.6545C32.3953 14.8533 28.6995 20.912 26.9094 29.0625H36.6953V13.6545ZM36.6953 32.1875H26.333C25.9598 34.6689 25.7578 37.295 25.7578 40C25.7578 42.705 25.96 45.3311 26.333 47.8125H36.6953V32.1875ZM36.6953 50.9375H26.9094C28.6995 59.0881 32.3953 65.1467 36.6953 66.3455V50.9375ZM39.8203 66.3455C44.1203 65.1467 47.8161 59.088 49.6063 50.9375H39.8203V66.3455ZM39.8203 47.8125H50.1827C50.5558 45.3311 50.7578 42.705 50.7578 40C50.7578 37.295 50.5556 34.6689 50.1827 32.1875H39.8203V47.8125ZM39.8203 13.6545V29.0641L49.6063 29.0625C47.8161 20.9119 44.1203 14.8533 39.8203 13.6545ZM46.6209 14.7875C49.8512 18.6273 51.8047 24.107 52.8152 29.0641H62.4628C59.4209 22.3577 53.6725 17.1327 46.6209 14.7875ZM64.8203 40C64.8203 37.2822 64.4092 34.6586 63.6472 32.1875H53.3505C53.7014 34.7025 53.8828 37.325 53.8828 40C53.8828 42.675 53.7014 45.2975 53.3505 47.8125H63.6472C64.4092 45.3414 64.8203 42.7178 64.8203 40ZM52.815 50.9375C51.8041 55.895 49.8502 61.3737 46.6208 65.2125C53.6723 62.8673 59.4209 57.6423 62.4625 50.9375H52.815Z" fill="url(#paint2_linear)"/>
<path d="M60.6248 65.4379C63.2733 67.2918 65.9227 67.2927 68.5703 65.4379C66.7164 68.0864 66.7172 70.7357 68.5703 73.3834C65.9218 71.5312 63.2733 71.5294 60.6248 73.3834C62.4796 70.7357 62.4779 68.0872 60.6248 65.4379Z" fill="url(#paint3_linear)"/>
<path d="M6.05748 22.0313C6.8342 22.4072 7.1592 23.3416 6.78342 24.1183C4.35576 29.1351 3.12482 34.5204 3.12482 40.1254C3.12482 60.4583 19.6668 77.0004 39.9998 77.0004C47.97 77.0004 55.649 74.4593 62.009 69.6781C61.9512 70.9134 61.4899 72.1485 60.6248 73.3834C61.8602 72.5186 63.0955 72.0576 64.3309 71.9998C57.3668 77.3602 48.7976 80.1254 39.9998 80.1254C17.9437 80.1254 -0.000175476 62.1815 -0.000175476 40.1254C-0.000175476 34.0451 1.33575 28.2016 3.97044 22.7572C4.34623 21.9805 5.28045 21.6555 6.05748 22.0313Z" fill="url(#paint4_linear)"/>
</g>
<defs>
<linearGradient id="paint0_linear" x1="43.9727" y1="58.2504" x2="43.9727" y2="-1.52588e-05" gradientUnits="userSpaceOnUse">
<stop stop-color="#FFF8B6"/>
<stop offset="1" stop-color="#F5482F"/>
</linearGradient>
<linearGradient id="paint1_linear" x1="43.9727" y1="58.2504" x2="43.9727" y2="-1.52588e-05" gradientUnits="userSpaceOnUse">
<stop stop-color="#FFF8B6"/>
<stop offset="1" stop-color="#F5482F"/>
</linearGradient>
<linearGradient id="paint2_linear" x1="38.2578" y1="69.6875" x2="38.2578" y2="10.3125" gradientUnits="userSpaceOnUse">
<stop stop-color="#FFF8B6"/>
<stop offset="1" stop-color="#F5482F"/>
</linearGradient>
<linearGradient id="paint3_linear" x1="34.2851" y1="21.875" x2="34.2851" y2="80.1254" gradientUnits="userSpaceOnUse">
<stop stop-color="#FFF8B6"/>
<stop offset="1" stop-color="#F5482F"/>
</linearGradient>
<linearGradient id="paint4_linear" x1="34.2851" y1="21.875" x2="34.2851" y2="80.1254" gradientUnits="userSpaceOnUse">
<stop stop-color="#FFF8B6"/>
<stop offset="1" stop-color="#F5482F"/>
</linearGradient>
<clipPath id="clip0">
<rect width="80" height="80" fill="white" transform="matrix(1 0 0 -1 0 80)"/>
</clipPath>
</defs>
</svg>
