<svg width="635" height="280" viewBox="0 0 635 280" fill="none" xmlns="http://www.w3.org/2000/svg">
<path d="M513.271 250.14C580.182 250.14 634.425 246.824 634.425 242.734C634.425 238.644 580.182 235.328 513.271 235.328C446.359 235.328 392.116 238.644 392.116 242.734C392.116 246.824 446.359 250.14 513.271 250.14Z" fill="#423FD9"/>
<path opacity="0.7" d="M513.271 250.14C580.182 250.14 634.425 246.824 634.425 242.734C634.425 238.644 580.182 235.328 513.271 235.328C446.359 235.328 392.116 238.644 392.116 242.734C392.116 246.824 446.359 250.14 513.271 250.14Z" fill="white"/>
<rect width="1.78023" height="5.64191" rx="0.890115" transform="matrix(0.858028 -0.513602 0.513576 0.858044 496 45.9187)" fill="#263238"/>
<rect x="500.678" y="41.6194" width="1.82506" height="5.47519" rx="0.912531" fill="#263238"/>
<rect width="1.78023" height="5.64191" rx="0.890115" transform="matrix(0.866026 0.499999 -0.500001 0.866025 505.592 45.0044)" fill="#263238"/>
<path d="M539.795 47.6563L539.446 50.5728L541.048 51.1331C541.071 52.1328 541.212 53.1265 541.468 54.0942L540.079 55.0876L541.248 57.7939L542.934 57.4818C543.459 58.3357 544.083 59.1264 544.794 59.8379L544.09 61.3917L546.479 63.1492L547.771 62.0667C548.659 62.549 549.602 62.9253 550.58 63.1874L550.761 64.8749L553.712 65.2251L554.287 63.6395C555.301 63.6166 556.309 63.4777 557.29 63.2256L558.304 64.5883L561.055 63.423L560.752 61.7674C561.615 61.249 562.415 60.6336 563.135 59.9335L564.71 60.6275L566.493 58.2715L565.389 56.9979C565.879 56.1251 566.26 55.1972 566.525 54.2343L568.237 54.056L568.592 51.1395L566.984 50.5728C566.964 49.5749 566.823 48.583 566.564 47.6181L567.959 46.6184L566.784 43.912L565.104 44.2177C564.576 43.366 563.95 42.5775 563.238 41.868L563.935 40.3206L561.527 38.5886L560.235 39.6775C559.351 39.2005 558.415 38.8245 557.445 38.5567L557.264 36.8693L554.306 36.5254L553.732 38.1046C552.72 38.1292 551.714 38.2703 550.735 38.5249L549.721 37.1558L546.976 38.3084L547.286 39.964C546.426 40.4746 545.629 41.0815 544.91 41.7725L543.341 41.0847L541.552 43.4408L542.656 44.7144C542.167 45.5901 541.786 46.52 541.519 47.4844L539.795 47.6563ZM546.66 49.9933C546.833 48.5594 547.433 47.2083 548.386 46.111C549.338 45.0138 550.598 44.2197 552.008 43.8293C553.418 43.4389 554.914 43.4698 556.306 43.918C557.699 44.3662 558.925 45.2116 559.829 46.3471C560.734 47.4827 561.277 48.8574 561.389 50.2972C561.501 51.737 561.177 53.1772 560.458 54.4355C559.74 55.6938 558.659 56.7136 557.352 57.3658C556.045 58.018 554.572 58.2734 553.118 58.0995V58.0995C551.172 57.8668 549.4 56.8827 548.189 55.3631C546.978 53.8434 546.429 51.9123 546.66 49.9933Z" stroke="#263238" stroke-width="1.57112" stroke-linejoin="round"/>
<path d="M462.64 119.422L462.323 122.064L463.776 122.574C463.797 123.479 463.925 124.379 464.157 125.254L462.866 126.159L463.925 128.61L465.449 128.324C465.926 129.096 466.491 129.812 467.135 130.457L466.489 131.864L468.704 133.469L469.873 132.482C470.676 132.921 471.531 133.263 472.417 133.501L472.579 135.029L475.259 135.347L475.776 133.908C476.694 133.889 477.606 133.763 478.494 133.533L479.411 134.774L481.891 133.724L481.62 132.195C482.404 131.725 483.13 131.167 483.784 130.533L485.211 131.17L486.825 129.043L485.824 127.878C486.268 127.087 486.615 126.247 486.858 125.375L488.408 125.21L488.724 122.567L487.271 122.058C487.251 121.153 487.123 120.253 486.89 119.377L488.182 118.473L487.116 116.021L485.598 116.295C485.117 115.526 484.547 114.815 483.9 114.175L484.546 112.767L482.331 111.182L481.155 112.169C480.355 111.733 479.505 111.393 478.624 111.156L478.462 109.628L475.782 109.31L475.265 110.749C474.347 110.768 473.435 110.894 472.546 111.124L471.629 109.908L469.143 110.952L469.421 112.455C468.637 112.925 467.911 113.483 467.257 114.117L465.83 113.48L464.215 115.614L465.216 116.773C464.774 117.566 464.427 118.408 464.183 119.282L462.64 119.422ZM468.859 121.536C469.016 120.238 469.56 119.015 470.423 118.022C471.285 117.029 472.426 116.311 473.702 115.957C474.979 115.604 476.333 115.631 477.593 116.036C478.853 116.442 479.964 117.206 480.783 118.233C481.603 119.261 482.095 120.505 482.198 121.808C482.301 123.111 482.01 124.415 481.361 125.555C480.713 126.695 479.736 127.62 478.554 128.212C477.373 128.805 476.039 129.039 474.723 128.884C472.957 128.675 471.348 127.784 470.249 126.406C469.149 125.028 468.649 123.277 468.859 121.536Z" fill="#263238"/>
<path d="M493.619 35.5005H477.965V39.0601H493.619V35.5005Z" fill="#423FD9"/>
<path d="M488.253 40.6455H477.965V44.2053H488.253V40.6455Z" fill="#423FD9"/>
<path d="M483.887 45.7908H477.965V49.3501H483.887V45.7908Z" fill="#423FD9"/>
<path opacity="0.2" d="M493.619 35.5005H477.965V39.0601H493.619V35.5005Z" fill="black"/>
<path opacity="0.2" d="M488.253 40.6455H477.965V44.2053H488.253V40.6455Z" fill="black"/>
<path opacity="0.2" d="M483.887 45.7908H477.965V49.3501H483.887V45.7908Z" fill="black"/>
<path d="M456.092 74.9299H450.783V85.6533H456.092V74.9299Z" fill="#423FD9"/>
<path d="M463.758 78.6169H458.449V85.6594H463.758V78.6169Z" fill="#423FD9"/>
<path d="M471.43 81.6033H466.121V85.6597H471.43V81.6033Z" fill="#423FD9"/>
<path opacity="0.2" d="M456.092 74.9299H450.783V85.6533H456.092V74.9299Z" fill="black"/>
<path opacity="0.2" d="M463.758 78.6169H458.449V85.6594H463.758V78.6169Z" fill="black"/>
<path opacity="0.2" d="M471.43 81.6033H466.121V85.6597H471.43V81.6033Z" fill="black"/>
<path d="M513.872 93.7722H449.594C448.712 93.7739 447.838 93.604 447.022 93.2722C446.207 92.9405 445.465 92.4534 444.841 91.8389C444.217 91.2244 443.721 90.4944 443.383 89.6909C443.045 88.8874 442.871 88.026 442.871 87.1561V34.832C442.875 33.0783 443.583 31.3974 444.84 30.1574C446.098 28.9173 447.803 28.2192 449.581 28.2158H513.859C514.741 28.215 515.614 28.3855 516.43 28.7175C517.245 29.0495 517.986 29.5366 518.61 30.151C519.234 30.7654 519.73 31.495 520.068 32.2981C520.406 33.1013 520.581 33.9623 520.582 34.832V87.1561C520.582 88.9108 519.875 90.5936 518.616 91.8344C517.358 93.0751 515.651 93.7722 513.872 93.7722ZM449.594 28.8208C447.971 28.8241 446.416 29.4612 445.269 30.5926C444.121 31.7239 443.475 33.2574 443.472 34.8574V87.1815C443.475 88.7815 444.121 90.315 445.269 91.4464C446.416 92.5778 447.971 93.2148 449.594 93.2182H513.872C515.494 93.2148 517.05 92.5778 518.197 91.4464C519.344 90.315 519.991 88.7815 519.994 87.1815V34.832C519.991 33.232 519.344 31.6985 518.197 30.5671C517.05 29.4357 515.494 28.7987 513.872 28.7953L449.594 28.8208Z" fill="#263238"/>
<path d="M513.045 75.2227H490.125V75.8022H513.045V75.2227Z" fill="#263238"/>
<path d="M513.045 77.6489H490.125V78.2283H513.045V77.6489Z" fill="#263238"/>
<path d="M513.045 80.0686H490.125V80.6482H513.045V80.0686Z" fill="#263238"/>
<path d="M513.045 82.4883H490.125V83.0676H513.045V82.4883Z" fill="#263238"/>
<path d="M513.045 84.9082H490.125V85.4878H513.045V84.9082Z" fill="#263238"/>
<path d="M472.999 35.7422H450.079V36.322H472.999V35.7422Z" fill="#263238"/>
<path d="M472.999 38.1621H450.079V38.7415H472.999V38.1621Z" fill="#263238"/>
<path d="M472.999 40.582H450.079V41.1614H472.999V40.582Z" fill="#263238"/>
<path d="M472.999 43.0017H450.079V43.5811H472.999V43.0017Z" fill="#263238"/>
<path d="M472.999 45.4214H450.079V46.0012H472.999V45.4214Z" fill="#263238"/>
<path d="M513.563 63.3585L518.667 60.7305L518.081 74.8459L505.909 67.2925L511.012 64.6724L507.169 57.5046C506.491 57.5054 505.833 57.2838 505.299 56.8751L498.896 54.5435V54.5041C498.925 53.702 498.631 52.9209 498.077 52.3299C497.524 51.7388 496.755 51.3854 495.937 51.3461C495.12 51.3068 494.319 51.5848 493.709 52.1199C493.099 52.6549 492.729 53.4041 492.678 54.2052C492.67 54.3047 492.67 54.4046 492.678 54.5041C492.682 54.9408 492.777 55.372 492.959 55.7709L484.132 65.2127C483.849 65.1255 483.555 65.0804 483.258 65.0789C483.104 65.079 482.951 65.0949 482.801 65.1261L470.091 49.3033C470.381 48.5717 470.372 47.7584 470.066 47.0331C469.759 46.3078 469.179 45.7267 468.446 45.4109C467.713 45.0952 466.884 45.0693 466.132 45.3386C465.38 45.6079 464.763 46.1517 464.41 46.8563C464.234 47.237 464.144 47.6502 464.145 48.068C464.155 48.3807 464.209 48.6905 464.306 48.9886L449.823 63.5446C449.247 63.3408 448.622 63.3086 448.027 63.4521C447.433 63.5956 446.895 63.9083 446.481 64.351C446.067 64.7936 445.795 65.3464 445.701 65.9398C445.607 66.5332 445.693 67.1408 445.95 67.686C446.207 68.2312 446.623 68.6897 447.145 69.0039C447.667 69.3181 448.272 69.474 448.884 69.4518C449.496 69.4296 450.088 69.2305 450.584 68.8794C451.081 68.5283 451.461 68.041 451.676 67.4787C451.798 67.1426 451.86 66.7888 451.861 66.4322C451.862 66.1821 451.827 65.9331 451.757 65.6926L466.4 50.9556C466.687 51.0492 466.988 51.097 467.291 51.0972C467.482 51.0984 467.673 51.0799 467.86 51.0422L480.498 66.7784C480.101 67.4963 480.011 68.3393 480.248 69.1221C480.485 69.9049 481.029 70.5633 481.761 70.9525C482.493 71.3416 483.353 71.4297 484.151 71.1973C484.95 70.9649 485.621 70.4311 486.018 69.7132C486.242 69.314 486.371 68.8701 486.395 68.415C486.403 68.3129 486.403 68.2103 486.395 68.1081C486.39 67.7899 486.336 67.4742 486.235 67.1718L495.269 57.5255C495.441 57.5568 495.616 57.5726 495.791 57.5727C496.408 57.5725 497.012 57.3917 497.524 57.0534L504.047 54.2944C504.06 53.8903 504.154 53.4927 504.325 53.1248C504.496 52.7569 504.74 52.4261 505.043 52.1516C505.346 51.8772 505.701 51.6646 506.089 51.5263C506.476 51.388 506.888 51.3267 507.299 51.346C507.711 51.3653 508.115 51.4649 508.487 51.6389C508.859 51.8128 509.192 52.0577 509.467 52.3593C509.742 52.6608 509.952 53.013 510.087 53.3952C510.221 53.7774 510.276 54.1821 510.25 54.5855C510.219 55.1506 510.028 55.696 509.696 56.1591L513.563 63.3585Z" fill="#263238"/>
<path d="M514.021 100.528C513.01 100.53 512.041 100.927 511.327 101.633C510.612 102.338 510.211 103.294 510.211 104.291V136.901C510.211 137.897 510.612 138.853 511.327 139.558C512.042 140.262 513.011 140.658 514.021 140.658H554.062C555.073 140.658 556.043 140.262 556.758 139.558C557.474 138.854 557.877 137.898 557.878 136.901V104.272C557.877 103.275 557.474 102.32 556.758 101.615C556.043 100.911 555.073 100.515 554.062 100.515L514.021 100.528Z" stroke="#263238" stroke-linejoin="round"/>
<path d="M516.411 104.973H513.369V105.375H516.411V104.973Z" fill="#263238"/>
<path d="M516.411 108.246H513.369V108.647H516.411V108.246Z" fill="#263238"/>
<path d="M516.411 111.519H513.369V111.92H516.411V111.519Z" fill="#263238"/>
<path d="M516.411 114.799H513.369V115.2H516.411V114.799Z" fill="#263238"/>
<path d="M516.294 108.246H513.252V108.647H516.294V108.246Z" fill="#263238"/>
<path d="M516.411 118.072H513.369V118.473H516.411V118.072Z" fill="#263238"/>
<path d="M536.359 135.787C539.245 135.845 542.084 135.059 544.517 133.526C546.949 131.993 548.866 129.783 550.024 127.175C551.182 124.568 551.53 121.681 551.022 118.878C550.515 116.076 549.177 113.485 547.175 111.434C545.174 109.382 542.601 107.962 539.781 107.353C536.961 106.744 534.021 106.974 531.334 108.013C528.646 109.053 526.332 110.855 524.683 113.192C523.035 115.528 522.127 118.295 522.074 121.141C522.001 124.95 523.465 128.632 526.143 131.378C528.822 134.124 532.496 135.71 536.359 135.787ZM536.869 111.245C538.913 111.286 540.898 111.923 542.574 113.077C544.25 114.23 545.542 115.847 546.285 117.724C547.029 119.601 547.191 121.654 546.752 123.622C546.313 125.59 545.291 127.385 543.817 128.781C542.343 130.177 540.482 131.11 538.47 131.463C536.458 131.816 534.385 131.572 532.513 130.763C530.641 129.954 529.054 128.616 527.954 126.918C526.853 125.22 526.288 123.238 526.33 121.224C526.386 118.522 527.528 115.954 529.504 114.083C531.481 112.211 534.13 111.191 536.869 111.245Z" fill="#423FD9"/>
<path opacity="0.2" d="M536.359 135.787C539.245 135.845 542.084 135.059 544.517 133.526C546.949 131.993 548.866 129.783 550.024 127.175C551.182 124.568 551.53 121.681 551.022 118.878C550.515 116.076 549.177 113.485 547.175 111.434C545.174 109.382 542.601 107.962 539.781 107.353C536.961 106.744 534.021 106.974 531.334 108.013C528.646 109.053 526.332 110.855 524.683 113.192C523.035 115.528 522.127 118.295 522.074 121.141C522.001 124.95 523.465 128.632 526.143 131.378C528.822 134.124 532.496 135.71 536.359 135.787ZM536.869 111.245C538.913 111.286 540.898 111.923 542.574 113.077C544.25 114.23 545.542 115.847 546.285 117.724C547.029 119.601 547.191 121.654 546.752 123.622C546.313 125.59 545.291 127.385 543.817 128.781C542.343 130.177 540.482 131.11 538.47 131.463C536.458 131.816 534.385 131.572 532.513 130.763C530.641 129.954 529.054 128.616 527.954 126.918C526.853 125.22 526.288 123.238 526.33 121.224C526.386 118.522 527.528 115.954 529.504 114.083C531.481 112.211 534.13 111.191 536.869 111.245Z" fill="black"/>
<path d="M526.181 131.699C527.554 133.065 529.187 134.151 530.986 134.895C532.785 135.639 534.715 136.026 536.666 136.034C538.617 136.042 540.55 135.672 542.356 134.943C544.161 134.214 545.804 133.142 547.189 131.788C547.24 131.732 547.268 131.659 547.268 131.584C547.268 131.509 547.24 131.436 547.189 131.38L544.16 128.375C544.133 128.347 544.101 128.325 544.066 128.31C544.03 128.294 543.992 128.286 543.953 128.286C543.875 128.29 543.801 128.319 543.74 128.368C542.788 129.31 541.651 130.051 540.398 130.545C539.146 131.038 537.804 131.275 536.456 131.24H535.739C533.546 131.119 531.456 130.289 529.791 128.878C529.642 128.744 529.487 128.61 529.345 128.47C527.644 126.795 526.597 124.582 526.391 122.22C526.184 119.858 526.83 117.5 528.215 115.563C528.228 115.545 528.239 115.526 528.247 115.505C528.312 115.416 528.383 115.34 528.46 115.251C529.454 114.01 530.735 113.024 532.196 112.374C533.657 111.725 535.256 111.431 536.856 111.519C536.894 111.52 536.932 111.513 536.968 111.5C537.003 111.486 537.036 111.466 537.063 111.44C537.091 111.414 537.113 111.382 537.128 111.348C537.144 111.314 537.152 111.276 537.153 111.239L537.237 107.017C537.239 106.94 537.21 106.866 537.157 106.81C537.104 106.754 537.031 106.721 536.953 106.718C533.997 106.669 531.093 107.491 528.613 109.079C526.133 110.666 524.191 112.948 523.034 115.631C521.877 118.314 521.558 121.276 522.119 124.139C522.68 127.001 524.094 129.633 526.181 131.699Z" fill="#263238"/>
<path d="M536.96 106.725C540.985 106.729 544.844 108.309 547.688 111.118C550.533 113.927 552.129 117.734 552.127 121.703C552.125 125.672 550.524 129.478 547.677 132.284C544.83 135.089 540.969 136.666 536.944 136.666C532.918 136.666 529.058 135.089 526.211 132.284C523.363 129.478 521.763 125.672 521.761 121.703C521.759 117.734 523.355 113.927 526.199 111.118C529.043 108.309 532.902 106.729 536.928 106.725H536.96ZM536.366 135.488C539.193 135.545 541.975 134.774 544.358 133.273C546.742 131.771 548.62 129.607 549.755 127.053C550.891 124.499 551.233 121.67 550.738 118.925C550.243 116.179 548.933 113.64 546.974 111.628C545.015 109.617 542.495 108.223 539.733 107.624C536.971 107.024 534.091 107.246 531.456 108.261C528.822 109.276 526.552 111.038 524.934 113.325C523.316 115.612 522.421 118.321 522.365 121.109C522.288 124.847 523.72 128.462 526.346 131.159C528.971 133.856 532.575 135.415 536.366 135.494V135.488ZM536.876 110.946C538.973 110.988 541.01 111.643 542.73 112.826C544.45 114.01 545.775 115.67 546.538 117.596C547.301 119.523 547.468 121.629 547.017 123.648C546.566 125.668 545.518 127.51 544.005 128.943C542.491 130.375 540.582 131.332 538.517 131.694C536.452 132.056 534.324 131.806 532.403 130.976C530.482 130.146 528.854 128.772 527.725 127.03C526.595 125.287 526.016 123.253 526.059 121.186C526.116 118.414 527.288 115.778 529.317 113.857C531.345 111.937 534.065 110.89 536.876 110.946ZM536.456 131.266C538.437 131.306 540.385 130.765 542.055 129.714C543.724 128.662 545.04 127.145 545.835 125.356C546.63 123.567 546.87 121.585 546.523 119.662C546.176 117.739 545.258 115.96 543.886 114.551C542.514 113.142 540.749 112.166 538.814 111.746C536.879 111.326 534.861 111.481 533.016 112.192C531.171 112.903 529.58 114.138 528.447 115.74C527.313 117.341 526.686 119.239 526.646 121.192C526.594 123.809 527.599 126.34 529.438 128.228C531.277 130.115 533.802 131.206 536.456 131.259V131.266Z" fill="#263238"/>
<path d="M461.387 152.655V191.282" stroke="#263238" stroke-width="0.879169" stroke-linecap="round" stroke-linejoin="round"/>
<path d="M467.683 167.231H464.357V189.346H467.683V167.231Z" fill="#263238"/>
<path d="M472.437 176.254H469.111V189.34H472.437V176.254Z" fill="#423FD9"/>
<path d="M478.023 160.08H474.697V189.346H478.023V160.08Z" fill="white" stroke="#263238" stroke-width="0.879169" stroke-linejoin="round"/>
<path d="M487.297 171.571H483.971V189.34H487.297V171.571Z" fill="#263238"/>
<path d="M492.056 181.062H488.73V189.346H492.056V181.062Z" fill="#423FD9"/>
<path d="M497.643 183.268H494.317V189.346H497.643V183.268Z" fill="white" stroke="#263238" stroke-width="0.879169" stroke-linejoin="round"/>
<path d="M511.192 172.599H507.866V189.34H511.192V172.599Z" fill="#263238"/>
<path d="M515.952 175.17H512.626V189.34H515.952V175.17Z" fill="#423FD9"/>
<path d="M521.539 181.019H518.213V189.34H521.539V181.019Z" fill="white" stroke="#263238" stroke-width="0.879169" stroke-linejoin="round"/>
<path d="M457.816 184.227H459.676" stroke="#263238" stroke-width="0.879169" stroke-linecap="round" stroke-linejoin="round"/>
<path d="M457.816 179.457H459.676" stroke="#263238" stroke-width="0.879169" stroke-linecap="round" stroke-linejoin="round"/>
<path d="M457.816 174.694H459.676" stroke="#263238" stroke-width="0.879169" stroke-linecap="round" stroke-linejoin="round"/>
<path d="M457.816 169.925H459.676" stroke="#263238" stroke-width="0.879169" stroke-linecap="round" stroke-linejoin="round"/>
<path d="M457.816 165.155H459.676" stroke="#263238" stroke-width="0.879169" stroke-linecap="round" stroke-linejoin="round"/>
<path d="M457.816 160.386H459.676" stroke="#263238" stroke-width="0.879169" stroke-linecap="round" stroke-linejoin="round"/>
<path d="M457.816 155.616H459.676" stroke="#263238" stroke-width="0.879169" stroke-linecap="round" stroke-linejoin="round"/>
<path d="M459.185 189.346H523.869" stroke="#263238" stroke-width="0.879169" stroke-linecap="round" stroke-linejoin="round"/>
<path opacity="0.3" d="M472.437 176.254H469.111V189.34H472.437V176.254Z" fill="black"/>
<path opacity="0.3" d="M492.056 181.062H488.73V189.346H492.056V181.062Z" fill="black"/>
<path opacity="0.3" d="M515.952 175.17H512.626V189.34H515.952V175.17Z" fill="black"/>
<path d="M455.175 147.293C454.06 147.295 452.992 147.732 452.204 148.509C451.416 149.286 450.972 150.34 450.971 151.439V189.334C450.972 190.433 451.416 191.487 452.204 192.265C452.991 193.043 454.06 193.482 455.175 193.485H526.505C527.621 193.482 528.69 193.043 529.479 192.266C530.268 191.488 530.712 190.434 530.716 189.334V151.426C530.714 150.325 530.27 149.27 529.481 148.492C528.691 147.714 527.621 147.276 526.505 147.274L455.175 147.293Z" stroke="#263238" stroke-linejoin="round"/>
<path d="M398.73 232.004C398.73 232.004 400.222 241.823 396.612 242.829C393.002 243.836 390.496 242.511 390.044 241.04C389.592 239.569 392.788 229.062 392.788 229.062L398.73 232.004Z" fill="white"/>
<path d="M461.522 234.176L477.215 237.844C477.215 237.844 478.403 238.481 478.274 239.531C478.145 240.582 470.983 243.275 468.974 243.613C466.966 243.95 455.373 245.441 453.727 244.046C452.08 242.651 455.561 231.533 455.561 231.533L461.522 234.176Z" fill="white"/>
<path d="M433.107 55.0943C433.107 55.0943 435.315 58.3801 435.348 60.0421C435.38 61.7041 435.173 63.6016 436.207 64.5823C437.24 65.5629 438.034 66.6327 437.608 67.1294C437.182 67.6261 436.362 68.594 436.362 68.594C436.362 68.594 437.427 74.1912 436.045 75.2037C434.663 76.2162 430.511 75.2037 430.511 75.2037V78.8206C430.511 78.8206 424.608 76.9102 420.533 77.2668L419.81 69.5173C419.81 69.5173 428.664 52.7319 433.107 55.0943Z" fill="white"/>
<path d="M469.414 77.993C469.414 77.993 468.885 74.0194 470.848 71.625C470.848 71.625 468.497 71.2302 468.781 70.3896C469.065 69.549 472.656 70.6507 472.656 70.6507L471.687 68.7403C471.687 68.7403 468.297 67.6322 468.717 66.5943C469.136 65.5563 474.109 68.1098 474.109 68.1098C474.109 68.1098 471.158 65.6773 471.571 64.6648C471.984 63.6522 474.987 63.6714 476.589 68.9186L477.403 67.9188C477.403 67.9188 477.693 61.9456 478.527 61.6208C478.527 61.6208 479.818 62.3213 479.818 65.7537C479.818 65.7537 481.11 67.2884 480.29 68.5874C479.469 69.8865 477.538 72.8094 475.898 73.9047C474.258 75 474.264 79.2729 474.264 79.2729L469.414 77.993Z" fill="white"/>
<path d="M417.439 45.333L418.182 44.3524C418.182 44.3524 426.494 40.6972 426.287 39.5574C426.08 38.4175 421.372 39.9904 420.475 39.3854C420.475 39.3854 421.334 28.5983 420.475 28.2481C419.616 27.8978 418.66 33.3105 418.66 33.3105C418.66 33.3105 417.452 27.7577 416.522 27.9169C415.592 28.0761 415.98 33.648 415.98 33.648C415.98 33.648 414.204 30.0756 413.513 30.4068C412.822 30.7379 413.855 35.0935 413.855 35.0935C413.855 35.0935 412.564 33.5971 412.047 34.0492C412.217 36.2991 412.843 38.4925 413.887 40.4998L412.092 43.4927L417.439 45.333Z" fill="white"/>
<path d="M468.517 78.0182L474.245 78.8078C474.245 78.8078 470.054 113.831 468.82 118.154C467.587 122.478 466.476 125.586 462.265 125.796C458.054 126.006 443.052 113.57 443.052 113.57L442.355 130.763L443.33 137.895C443.33 137.895 424.982 147.402 406.325 139.13L406.745 130.763L400.022 92.4922L394.732 74.3185L411.801 42.4094L417.988 45.5933L407.074 74.6369L410.129 84.335L413.545 82.985L417.323 78.2347C417.323 78.2347 423.729 74.9552 431.834 79.5082L433.126 83.4945C433.126 83.4945 442.632 84.2013 458.681 106.138L468.517 78.0182Z" fill="#423FD9"/>
<path opacity="0.2" d="M427.565 78.0183L428.289 82.9215C428.289 82.9215 433.623 86.4111 435.767 87.621C435.767 87.621 441.011 120.275 437.13 126.7L433.042 133.011C433.042 133.011 437.22 133.011 439.145 130.126C439.145 130.126 436.749 138.009 430.536 140.13C430.536 140.13 440.075 139.149 443.355 137.901L442.38 130.769L443.95 91.0023C443.95 91.0023 445.429 88.3405 433.132 83.571L431.318 79.2728L427.565 78.0183Z" fill="black"/>
<path d="M433.107 55.54C433.107 55.54 435.109 58.431 435.348 60.042C435.587 61.6531 434.876 63.4297 436.207 64.5823C437.537 65.7348 438.144 66.4926 437.608 67.1294C437.072 67.7661 436.362 68.5939 436.362 68.5939C436.362 68.5939 436.904 74.0511 436.045 75.2037C435.186 76.3562 430.511 75.2037 430.511 75.2037V78.8206" stroke="#263238" stroke-linecap="round" stroke-linejoin="round"/>
<path d="M430.51 68.352C430.51 68.352 428.638 63.5825 427.236 64.7351C425.835 65.8877 427.081 72.1918 430.51 70.8099" stroke="#263238" stroke-linecap="round" stroke-linejoin="round"/>
<path d="M430 67.2441C430 67.2441 432.228 67.0658 430.82 61.9142C429.412 56.7627 432.461 57.4568 435.735 55.9922C439.009 54.5276 439.791 51.8403 439.087 50.2293C438.383 48.6182 437.214 47.7649 433.081 48.5355C433.081 48.5355 428.56 43.3839 424.194 49.0767C424.194 49.0767 414.365 48.9239 411.717 53.5342C409.069 58.1445 412.576 69.9122 417.723 73.8348C422.87 77.7574 427.901 74.618 428.947 70.9311C428.947 70.9311 425.441 69.0653 427.236 64.7607C427.236 64.7352 428.87 64.1621 430 67.2441Z" fill="#263238"/>
<path d="M399.512 89.5886C399.512 89.5886 423.297 72.5802 444.028 89.5886L442.355 130.737L443.33 137.869C443.33 137.869 425.803 145.963 406.325 139.105L406.745 130.737L399.512 89.5886Z" stroke="#263238" stroke-linecap="round" stroke-linejoin="round"/>
<path d="M413.229 83.4056L417.323 78.2603C417.323 78.2603 425.35 75.5221 431.834 79.5339L433.126 83.5203" stroke="#263238" stroke-linecap="round" stroke-linejoin="round"/>
<path d="M444.027 89.5886L464.739 113.073" stroke="#263238" stroke-linecap="round" stroke-linejoin="round"/>
<path d="M443.071 113.092C443.071 113.092 456.795 125.681 462.265 125.828C467.735 125.974 468.645 119.46 468.645 119.46L474.245 78.8335L468.516 78.0439L458.661 106.209" stroke="#263238" stroke-linecap="round" stroke-linejoin="round"/>
<path d="M474.149 78.7061C474.149 78.7061 474.866 74.1149 476.732 73.0706C478.598 72.0262 480.813 67.9763 480.103 66.811C479.393 65.6457 477.223 69.4346 475.266 70.1605C473.309 70.8864 471.72 74.4524 471.449 75.9997" stroke="#263238" stroke-linecap="round" stroke-linejoin="round"/>
<path d="M479.501 66.6453C479.501 66.6453 479.501 61.3409 478.513 61.5893C477.525 61.8376 477.39 68.5557 477.39 68.5557" stroke="#263238" stroke-linecap="round" stroke-linejoin="round"/>
<path d="M476.667 69.2369C476.667 69.2369 476.021 66.2631 474.245 64.8112C472.469 63.3593 471.358 64.1425 471.558 64.6329C471.759 65.1232 474.787 69.0904 474.716 70.4404" stroke="#263238" stroke-linecap="round" stroke-linejoin="round"/>
<path d="M473.593 67.7661C473.593 67.7661 468.717 65.5629 468.704 66.881C468.691 68.1991 471.675 68.7086 471.675 68.7086L472.644 70.6189C472.644 70.6189 468.536 69.3453 468.769 70.3578C469.001 71.3703 470.835 71.5932 470.835 71.5932C470.835 71.5932 468.84 73.5417 469.402 77.9609" stroke="#263238" stroke-linecap="round" stroke-linejoin="round"/>
<path d="M440.507 138.347L441.754 146.956C441.754 146.956 453.23 180.903 454.973 187.538C456.717 194.173 457.718 209.189 458.202 216.072C458.687 222.956 462.723 234.539 462.723 234.539C462.723 234.539 462.226 239.213 453.746 238.474C453.746 238.474 450.253 224.701 446.513 216.582C442.774 208.463 442.225 196.147 442.225 196.147L424.013 163.188C424.013 163.188 420.287 182.38 417.781 189.506C415.198 196.854 397.587 237.627 398.82 234.768C398.82 234.768 396.327 236.246 391.07 232.552C391.07 232.552 394.81 220.256 395.804 213.614C396.799 206.973 402.043 191.722 402.043 191.722C402.043 191.722 403.289 162.946 405.272 154.088C405.272 154.088 403.98 144.333 406.738 137.443C417.668 140.962 429.399 141.277 440.507 138.347Z" fill="#263238"/>
<path d="M414.036 157.406L422.212 159.749L423.401 162.608" stroke="white" stroke-linecap="round" stroke-linejoin="round"/>
<path d="M453.928 237.468C453.928 237.468 452.824 242.925 453.728 244.046C454.206 244.632 455.627 244.524 456.311 244.537C457.887 244.568 459.469 244.466 461.045 244.365C464.196 244.161 467.425 244.193 470.467 243.231C473.03 242.472 475.478 241.377 477.746 239.977C478.985 239.162 477.746 237.844 477.746 237.844L462.73 234.52" stroke="#263238" stroke-linecap="round" stroke-linejoin="round"/>
<path d="M453.851 242.123C453.851 242.123 470.726 244.854 477.746 237.844" stroke="#263238" stroke-linecap="round" stroke-linejoin="round"/>
<path d="M391.723 232.005C391.723 232.005 389.785 238.557 390.069 240.62C390.354 242.683 392.453 243.167 394.907 243.11C397.361 243.053 398.368 241.97 398.73 240.334C399.091 238.697 398.73 233.406 398.73 233.406" stroke="#263238" stroke-linecap="round" stroke-linejoin="round"/>
<path d="M390.044 239.62L398.73 240.334" stroke="#263238" stroke-linecap="round" stroke-linejoin="round"/>
<path d="M412.718 42.6135C413.454 41.2889 413.887 40.4802 413.887 40.4802C413.887 40.4802 411.491 34.7682 412.092 34.0677C412.692 33.3672 414.081 35.3413 414.081 35.3413C414.081 35.3413 412.66 30.8009 413.558 30.4125C414.455 30.024 416.057 34.2333 416.057 34.2333C416.057 34.2333 415.637 28.1519 416.567 27.8653C417.497 27.5787 418.614 33.6474 418.614 33.6474C418.614 33.6474 419.816 28.2474 420.552 28.1964C421.288 28.1455 420.552 39.334 420.552 39.334C422.037 40.0536 426.403 38.296 426.364 39.7161C426.325 41.1361 417.969 44.4029 417.969 44.4029C417.822 44.5899 417.695 44.7903 417.588 45.0015" stroke="#263238" stroke-linecap="round" stroke-linejoin="round"/>
<path d="M399.511 89.5886L394.732 74.3186L411.801 42.4285L417.988 45.6188L407.074 74.6624L410.129 84.3606" stroke="#263238" stroke-linecap="round" stroke-linejoin="round"/>
<path d="M400.067 71.9051C400.067 71.9051 406.189 71.8541 407.074 74.6624C404.392 74.5154 401.736 75.2402 399.512 76.7256" stroke="#263238" stroke-linecap="round" stroke-linejoin="round"/>
<path d="M420.294 77.5979V73.1724" stroke="#263238" stroke-linecap="round" stroke-linejoin="round"/>
<path opacity="0.2" d="M443.923 101.904L445.454 111.946C445.454 111.946 446.707 105.393 447.488 105.393C448.27 105.393 447.488 113.073 447.488 113.073C447.488 113.073 460.327 124.535 465.881 124.599C465.881 124.599 462.794 126.739 459.7 125.147C456.607 123.555 443.045 113.048 443.045 113.048L443.923 101.904Z" fill="black"/>
<path opacity="0.2" d="M416.891 45.052L405.15 73.1722C405.15 73.1722 401.062 73.1086 399.512 76.7255L405.789 75.6175L407.901 85.1692L410.129 84.335L407.074 74.6368L417.988 45.5933L416.891 45.052Z" fill="black"/>
<path d="M376.116 258.689H348.428V258.896H376.116V258.689Z" fill="#EBEBEB"/>
<path d="M276.901 260.931H269.636V261.138H276.901V260.931Z" fill="#EBEBEB"/>
<path d="M347.592 251.04H331.549V251.246H347.592V251.04Z" fill="#EBEBEB"/>
<path d="M79.9633 252.425H43.8564V252.63H79.9633V252.425Z" fill="#EBEBEB"/>
<path d="M92.704 252.425H87.4121V252.63H92.704V252.425Z" fill="#EBEBEB"/>
<path d="M188.226 255.903H109.909V256.109H188.226V255.903Z" fill="#EBEBEB"/>
<path d="M418 245.426H0V245.632H418V245.426Z" fill="#EBEBEB"/>
<path d="M358.46 46.3147V51.2606C361.613 51.5283 364.602 52.7652 367.004 54.7969L370.574 51.2771C367.212 48.3347 362.947 46.5876 358.46 46.3147Z" fill="#F0F0F0"/>
<path d="M356.019 80.985C352.446 80.6993 349.093 79.1702 346.558 76.6711C344.023 74.172 342.473 70.8657 342.183 67.343H337.167C337.454 72.1876 339.53 76.761 343.003 80.1994C346.476 83.6377 351.106 85.7029 356.019 86.0049V80.985Z" fill="#E6E6E6"/>
<path d="M342.183 64.9441C342.474 61.421 344.025 58.1145 346.559 55.6142C349.094 53.114 352.446 51.5827 356.019 51.2935V46.3477C351.107 46.6446 346.476 48.7029 342.997 52.1345C339.518 55.5661 337.433 60.134 337.134 64.9771L342.183 64.9441Z" fill="#EBEBEB"/>
<path d="M372.321 52.9752L368.751 56.495C370.554 58.5827 371.737 61.1207 372.169 63.8291C372.602 66.5376 372.268 69.3112 371.203 71.8442C370.139 74.3772 368.386 76.5712 366.137 78.1842C363.889 79.7971 361.232 80.7665 358.46 80.9853V85.9312C362.226 85.7043 365.852 84.4387 368.924 82.2787C371.996 80.1186 374.391 77.1511 375.836 73.7142C377.281 70.2772 377.718 66.5092 377.096 62.8396C376.474 59.1699 374.82 55.7463 372.321 52.9587V52.9752Z" fill="#E0E0E0"/>
<path d="M205.548 56.9485H209.259C209.869 56.9485 210.454 57.1873 210.885 57.6124C211.316 58.0376 211.558 58.6141 211.558 59.2153V165.625H203.24V59.2153C203.24 58.917 203.3 58.6215 203.416 58.346C203.532 58.0704 203.702 57.8201 203.917 57.6095C204.131 57.3989 204.385 57.2321 204.665 57.1187C204.945 57.0052 205.245 56.9474 205.548 56.9485Z" fill="#E6E6E6"/>
<path d="M208.106 56.9485H205.815C205.134 56.9485 204.48 57.2148 203.997 57.6892C203.515 58.1635 203.242 58.8072 203.24 59.4791V165.625H205.531V59.4791C205.533 58.8072 205.805 58.1635 206.288 57.6892C206.771 57.2148 207.424 56.9485 208.106 56.9485Z" fill="#F0F0F0"/>
<path d="M213.975 158.61H200.883V245.632H213.975V158.61Z" fill="#EBEBEB"/>
<path d="M196.226 242.113H218.63C219.477 242.113 220.29 242.444 220.889 243.035C221.488 243.625 221.824 244.426 221.824 245.261V245.624H193.032V245.261C193.032 244.426 193.369 243.625 193.968 243.035C194.566 242.444 195.379 242.113 196.226 242.113Z" fill="#E6E6E6"/>
<path d="M331.407 202.645H352.516C354.336 202.642 356.08 201.929 357.367 200.66C358.654 199.391 359.378 197.671 359.38 195.877V165.444C359.38 165.116 359.248 164.801 359.012 164.569C358.777 164.338 358.458 164.207 358.126 164.207C357.793 164.207 357.474 164.338 357.239 164.569C357.004 164.801 356.872 165.116 356.872 165.444V195.877C356.872 197.016 356.413 198.108 355.596 198.914C354.779 199.719 353.671 200.172 352.516 200.172H331.407V202.645Z" fill="#E0E0E0"/>
<path d="M325.371 231.808V203.469L323.699 202.949C322.774 202.662 321.966 202.092 321.392 201.321C320.817 200.55 320.507 199.619 320.506 198.663H336.431C336.431 199.62 336.122 200.551 335.547 201.322C334.973 202.093 334.164 202.663 333.238 202.949L331.566 203.469V231.808L344.783 237.677V240.15L328.456 234.52L312.129 240.15V237.677L325.371 231.808Z" fill="#E0E0E0"/>
<path d="M307.647 200.171H349.288C349.882 200.171 350.47 200.056 351.019 199.832C351.568 199.608 352.066 199.279 352.486 198.865C352.906 198.451 353.24 197.96 353.467 197.418C353.694 196.877 353.811 196.298 353.811 195.712C353.809 194.531 353.331 193.399 352.484 192.564C351.636 191.729 350.486 191.261 349.288 191.261H307.647C306.45 191.261 305.302 191.73 304.455 192.564C303.608 193.399 303.133 194.531 303.133 195.712C303.132 196.297 303.248 196.877 303.474 197.418C303.7 197.959 304.033 198.451 304.452 198.865C304.871 199.279 305.369 199.608 305.918 199.832C306.466 200.056 307.054 200.171 307.647 200.171Z" fill="#F0F0F0"/>
<path d="M356.621 176.152L358.87 144.465C358.953 143.289 358.559 142.129 357.775 141.239C356.992 140.349 355.882 139.802 354.69 139.717C353.496 139.633 352.317 140.02 351.413 140.793C350.508 141.566 349.952 142.661 349.866 143.839L347.617 175.525C347.534 176.702 347.928 177.863 348.711 178.754C349.495 179.646 350.604 180.195 351.797 180.281C352.992 180.363 354.171 179.974 355.075 179.2C355.979 178.426 356.535 177.329 356.621 176.152Z" fill="#EBEBEB"/>
<path d="M341.924 241.89C341.924 242.447 342.092 242.992 342.406 243.456C342.72 243.92 343.166 244.281 343.689 244.494C344.211 244.708 344.786 244.764 345.341 244.655C345.895 244.546 346.405 244.278 346.805 243.883C347.205 243.489 347.477 242.987 347.587 242.44C347.697 241.893 347.641 241.326 347.424 240.811C347.208 240.296 346.842 239.856 346.371 239.546C345.901 239.236 345.348 239.071 344.783 239.071C344.408 239.071 344.036 239.144 343.689 239.285C343.342 239.427 343.027 239.635 342.761 239.896C342.496 240.158 342.285 240.469 342.141 240.811C341.998 241.153 341.924 241.52 341.924 241.89Z" fill="#E0E0E0"/>
<path d="M309.271 241.89C309.271 242.447 309.438 242.992 309.752 243.456C310.067 243.92 310.513 244.281 311.035 244.494C311.558 244.708 312.133 244.764 312.687 244.655C313.242 244.546 313.752 244.278 314.151 243.883C314.551 243.489 314.824 242.987 314.934 242.44C315.044 241.893 314.988 241.326 314.771 240.811C314.555 240.296 314.188 239.856 313.718 239.546C313.248 239.236 312.695 239.071 312.13 239.071C311.371 239.071 310.644 239.368 310.108 239.896C309.572 240.425 309.271 241.142 309.271 241.89Z" fill="#E0E0E0"/>
<path d="M83.9097 202.645H62.8006C60.9795 202.645 59.2329 201.932 57.9444 200.663C56.6559 199.394 55.9309 197.673 55.9287 195.877V165.444C55.9287 165.116 56.0608 164.801 56.296 164.569C56.5312 164.338 56.8501 164.207 57.1827 164.207C57.5153 164.207 57.8343 164.338 58.0694 164.569C58.3046 164.801 58.4367 165.116 58.4367 165.444V195.877C58.4389 197.017 58.8997 198.109 59.7178 198.914C60.536 199.719 61.6447 200.172 62.8006 200.172H83.9097V202.645Z" fill="#E0E0E0"/>
<path d="M89.9452 231.808V203.469L91.6172 202.949C92.5414 202.662 93.3486 202.091 93.9214 201.32C94.4942 200.55 94.8028 199.619 94.8023 198.663H78.9183C78.9197 199.619 79.23 200.55 79.8042 201.321C80.3784 202.092 81.1867 202.662 82.1118 202.949L83.7838 203.469V231.808L70.5332 237.677V240.15L86.8603 234.52L103.187 240.15V237.677L89.9452 231.808Z" fill="#E0E0E0"/>
<path d="M107.676 200.171H66.0437C64.8456 200.169 63.6974 199.698 62.851 198.862C62.0047 198.026 61.5293 196.893 61.5293 195.712C61.5293 194.531 62.0049 193.399 62.8515 192.564C63.6981 191.73 64.8464 191.261 66.0437 191.261H107.676C108.875 191.261 110.024 191.729 110.872 192.564C111.72 193.399 112.197 194.531 112.199 195.712C112.199 196.895 111.723 198.029 110.875 198.865C110.026 199.702 108.876 200.171 107.676 200.171Z" fill="#F0F0F0"/>
<path d="M58.6874 176.151L56.4386 144.465C56.3558 143.289 56.7494 142.129 57.533 141.239C58.3166 140.349 59.4263 139.802 60.6186 139.717C61.8125 139.633 62.9913 140.02 63.8958 140.793C64.8004 141.566 65.3566 142.661 65.4423 143.839L67.7162 175.533C67.799 176.71 67.4057 177.871 66.6223 178.762C65.8389 179.654 64.7292 180.203 63.5362 180.289C62.9419 180.333 62.3448 180.261 61.779 180.076C61.2132 179.892 60.69 179.599 60.2394 179.214C59.7889 178.83 59.4198 178.361 59.1534 177.835C58.8871 177.31 58.7287 176.738 58.6874 176.151Z" fill="#EBEBEB"/>
<path d="M73.3843 241.89C73.3843 242.448 73.2164 242.993 72.9018 243.457C72.5873 243.921 72.1403 244.282 71.6173 244.495C71.0944 244.708 70.5191 244.764 69.9643 244.654C69.4094 244.545 68.9 244.275 68.5005 243.88C68.101 243.485 67.8293 242.982 67.7199 242.435C67.6106 241.887 67.6684 241.32 67.8861 240.805C68.1037 240.29 68.4715 239.851 68.9428 239.542C69.4141 239.233 69.9677 239.069 70.5335 239.071C70.9086 239.071 71.28 239.144 71.6264 239.286C71.9728 239.427 72.2874 239.635 72.5523 239.897C72.8171 240.159 73.0269 240.47 73.1697 240.812C73.3124 241.154 73.3854 241.52 73.3843 241.89Z" fill="#E0E0E0"/>
<path d="M106.039 241.89C106.039 242.448 105.871 242.993 105.556 243.457C105.242 243.921 104.795 244.282 104.272 244.495C103.749 244.708 103.173 244.764 102.619 244.654C102.064 244.545 101.554 244.275 101.155 243.88C100.755 243.485 100.484 242.982 100.374 242.435C100.265 241.887 100.323 241.32 100.54 240.805C100.758 240.29 101.126 239.851 101.597 239.542C102.068 239.233 102.622 239.069 103.188 239.071C103.563 239.071 103.934 239.144 104.281 239.286C104.627 239.427 104.942 239.635 105.207 239.897C105.471 240.159 105.681 240.47 105.824 240.812C105.967 241.154 106.04 241.52 106.039 241.89Z" fill="#E0E0E0"/>
<path d="M173.62 245.632H157.318L155.646 215.149H175.292L173.62 245.632Z" fill="#EBEBEB"/>
<path d="M161.081 245.632H154.393V244.272L161.081 243.448V245.632Z" fill="#E0E0E0"/>
<path d="M158.13 212.676H172.81C173.475 212.676 174.113 212.937 174.584 213.401C175.054 213.864 175.318 214.493 175.318 215.149H155.639C155.639 214.493 155.903 213.864 156.373 213.401C156.844 212.937 157.482 212.676 158.147 212.676H158.13Z" fill="#E0E0E0"/>
<path d="M140.181 166.573H114.081V163.49L140.181 161.841V166.573Z" fill="#E0E0E0"/>
<path d="M178.77 169.714H101.582V180.248H178.77V169.714Z" fill="#F0F0F0"/>
<path d="M194.771 166.573H85.8564V172.854H194.771V166.573Z" fill="#FAFAFA"/>
<path d="M184.655 245.632H189.571L181.06 172.854H175.292L184.655 245.632Z" fill="#E6E6E6"/>
<path d="M105.336 172.854H99.5677L91.0488 245.632H95.9729L105.336 172.854Z" fill="#E6E6E6"/>
<path d="M166.607 165.007C164.378 154.093 162.148 143.174 159.919 132.249C159.601 130.691 157.177 131.35 157.495 132.908L163.857 164.1H150.063C149.73 164.1 149.411 164.23 149.176 164.462C148.941 164.694 148.809 165.009 148.809 165.337C148.809 165.664 148.941 165.979 149.176 166.211C149.411 166.443 149.73 166.573 150.063 166.573H165.386C165.58 166.572 165.77 166.527 165.943 166.442C166.116 166.357 166.267 166.234 166.384 166.084C166.502 165.933 166.583 165.757 166.622 165.571C166.66 165.384 166.655 165.191 166.607 165.007Z" fill="#E0E0E0"/>
<path d="M150.99 156.219L155.287 95.6497C156.874 96.7662 158.144 98.2661 158.974 100.005C159.804 101.745 160.167 103.665 160.027 105.583L157.093 147.004C156.962 148.927 156.332 150.784 155.263 152.398C154.195 154.012 152.723 155.328 150.99 156.219Z" fill="#FAFAFA"/>
<path d="M184.472 148.966H177.483C176.144 148.966 175.059 150.036 175.059 151.356V164.182C175.059 165.503 176.144 166.573 177.483 166.573H184.472C185.811 166.573 186.896 165.503 186.896 164.182V151.356C186.896 150.036 185.811 148.966 184.472 148.966Z" fill="#F5F5F5"/>
<path d="M179.741 142.413C177.893 142.413 176.396 142.866 176.396 143.418C176.396 143.971 177.901 143.22 179.741 143.22C179.977 143.208 180.214 143.208 180.451 143.22V147.21H181.504V143.377C182.458 143.55 183.093 143.74 183.093 143.377C183.085 142.882 181.588 142.413 179.741 142.413Z" fill="#E0E0E0"/>
<path d="M182.866 145.957H179.096V149.675H182.866V145.957Z" fill="#F0F0F0"/>
<path d="M236.547 180.257H313.734V169.722H236.547V180.257Z" fill="#F0F0F0"/>
<path d="M220.545 172.863H329.459V166.581H220.545V172.863Z" fill="#FAFAFA"/>
<path d="M230.66 245.632H225.736L234.247 172.854H240.015L230.66 245.632Z" fill="#E6E6E6"/>
<path d="M309.98 172.854H315.749L324.259 245.632H319.335L309.98 172.854Z" fill="#E6E6E6"/>
<path d="M291.455 166.573H317.547V163.49L291.455 161.841V166.573Z" fill="#263238"/>
<path opacity="0.6" d="M291.455 166.573H317.547V163.49L291.455 161.841V166.573Z" fill="white"/>
<path d="M238.963 111.287V166.573H242.591L243.427 161.668C243.579 160.8 244.037 160.013 244.721 159.446C245.405 158.878 246.27 158.568 247.164 158.569H280.897C281.79 158.568 282.656 158.878 283.339 159.446C284.023 160.013 284.482 160.8 284.634 161.668L285.47 166.573H289.089V111.287H238.963Z" fill="#FAFAFA"/>
<path d="M255.189 165.007C257.418 154.093 259.648 143.174 261.877 132.249C262.195 130.691 264.611 131.35 264.293 132.908L257.923 164.1H271.7C272.032 164.1 272.351 164.23 272.587 164.462C272.822 164.694 272.954 165.009 272.954 165.337C272.954 165.664 272.822 165.979 272.587 166.211C272.351 166.443 272.032 166.573 271.7 166.573H256.393C256.201 166.569 256.013 166.522 255.842 166.437C255.671 166.351 255.522 166.228 255.406 166.077C255.291 165.926 255.211 165.752 255.173 165.567C255.136 165.381 255.141 165.19 255.189 165.007Z" fill="#E0E0E0"/>
<path d="M270.798 156.219L266.501 95.6497C264.915 96.7679 263.647 98.268 262.818 100.007C261.988 101.746 261.624 103.665 261.761 105.583L264.695 147.004C264.827 148.926 265.458 150.783 266.526 152.397C267.595 154.011 269.066 155.327 270.798 156.219Z" fill="#E0E0E0"/>
<path d="M60.042 46.1333V65.8262L67.449 84.1177C71.5679 82.2672 74.9364 79.1052 77.0131 75.1396C79.0899 71.1741 79.7543 66.6352 78.8997 62.2524C78.045 57.8697 75.7209 53.8974 72.3008 50.974C68.8807 48.0506 64.5632 46.3457 60.042 46.1333Z" fill="#E0E0E0"/>
<path d="M58.2941 65.5788V46.1333C53.2719 46.3684 48.5341 48.5003 45.0632 52.0869C41.5922 55.6736 39.6543 60.4399 39.6514 65.3975C39.6514 65.6393 39.6514 65.8783 39.6514 66.1146C39.6514 66.3619 39.6514 66.6009 39.6514 66.8482C39.6487 69.9241 40.3924 72.9559 41.8204 75.6905C43.2483 78.4252 45.3191 80.7833 47.8597 82.5679C50.4004 84.3526 53.3372 85.512 56.4249 85.9493C59.5127 86.3867 62.6617 86.0893 65.6091 85.082L58.2941 65.5788Z" fill="#F0F0F0"/>
<path d="M204.97 279.478C294.491 279.478 367.062 275.3 367.062 270.147C367.062 264.994 294.491 260.816 204.97 260.816C115.449 260.816 42.8779 264.994 42.8779 270.147C42.8779 275.3 115.449 279.478 204.97 279.478Z" fill="#F5F5F5"/>
<path d="M187.832 265.803L203.482 250.372L219.132 265.803C219.536 266.199 220.083 266.421 220.654 266.421C221.079 266.422 221.495 266.298 221.85 266.066C222.204 265.833 222.48 265.502 222.643 265.114C222.806 264.726 222.848 264.3 222.765 263.888C222.682 263.477 222.476 263.099 222.175 262.802L203.482 244.371L184.756 262.802C184.454 263.099 184.249 263.477 184.166 263.888C184.082 264.3 184.125 264.726 184.288 265.114C184.451 265.502 184.727 265.833 185.081 266.066C185.435 266.298 185.852 266.422 186.277 266.421C186.565 266.426 186.851 266.373 187.118 266.267C187.385 266.161 187.628 266.003 187.832 265.803Z" fill="#9944F6"/>
<path opacity="0.2" d="M204.009 244.898H202.956L198.157 249.622V255.4H198.383L203.483 250.372L208.582 255.4H208.808V249.622L204.009 244.898Z" fill="black"/>
<path d="M200.28 196.767H206.684V263.948C206.684 264.604 206.42 265.233 205.949 265.697C205.479 266.16 204.841 266.421 204.176 266.421H202.788C202.123 266.421 201.485 266.16 201.015 265.697C200.545 265.233 200.28 264.604 200.28 263.948V196.767Z" fill="#9944F6"/>
<path opacity="0.2" d="M206.684 196.767H200.28V221.521H206.684V196.767Z" fill="black"/>
<path d="M317.461 212.644H89.501C87.2505 212.639 85.0935 211.755 83.5029 210.185C81.9123 208.615 81.0178 206.488 81.0156 204.269V29.8945H325.964V204.269C325.961 206.491 325.065 208.621 323.47 210.191C321.876 211.761 319.715 212.644 317.461 212.644ZM83.8831 32.7219V204.269C83.8831 205.738 84.4747 207.148 85.528 208.188C86.5814 209.229 88.0103 209.814 89.501 209.816H317.461C318.952 209.814 320.381 209.229 321.434 208.188C322.488 207.148 323.079 205.738 323.079 204.269V32.7219H83.8831Z" fill="#9944F6"/>
<g opacity="0.8">
<path opacity="0.8" d="M317.461 212.644H89.501C87.2505 212.639 85.0935 211.755 83.5029 210.185C81.9123 208.615 81.0178 206.488 81.0156 204.269V29.8945H325.964V204.269C325.961 206.491 325.065 208.621 323.47 210.191C321.876 211.761 319.715 212.644 317.461 212.644ZM83.8831 32.7219V204.269C83.8831 205.738 84.4747 207.148 85.528 208.188C86.5814 209.229 88.0103 209.814 89.501 209.816H317.461C318.952 209.814 320.381 209.229 321.434 208.188C322.488 207.148 323.079 205.738 323.079 204.269V32.7219H83.8831Z" fill="white"/>
</g>
<path d="M83.8838 32.7219V204.269C83.8838 205.738 84.4754 207.148 85.5287 208.188C86.5821 209.229 88.011 209.814 89.5017 209.816H317.462C318.953 209.814 320.382 209.229 321.435 208.188C322.488 207.148 323.08 205.738 323.08 204.269V32.7219H83.8838Z" fill="white"/>
<path d="M248.914 129.742V193.674C248.914 194.666 248.105 195.47 247.109 195.47H161.017C160.02 195.47 159.212 194.666 159.212 193.675V129.742C159.212 128.75 160.02 127.946 161.017 127.946H247.109C248.105 127.946 248.914 128.751 248.914 129.742Z" fill="url(#paint0_linear)"/>
<path d="M168.266 156.513H159.212V176.916H168.266C169.263 176.916 170.071 176.111 170.071 175.12V158.309C170.071 157.318 169.263 156.513 168.266 156.513Z" fill="white"/>
<path d="M168.266 156.513H159.212V162.916H170.071V158.309C170.071 157.318 169.263 156.513 168.266 156.513Z" fill="#6455D1"/>
<path d="M248.914 129.742V193.674C248.914 194.666 248.105 195.47 247.109 195.47H225.49C245.459 178.27 245.015 138.278 244.544 127.946H247.109C248.105 127.946 248.914 128.751 248.914 129.742Z" fill="#5F5F68"/>
<path d="M248.914 148.555V184.874H195.459C194.462 184.874 193.654 184.07 193.654 183.078V150.351C193.654 149.359 194.462 148.555 195.459 148.555H248.914Z" fill="#9944F6"/>
<path d="M248.914 148.555V184.874H234.067C240.355 173.991 243.01 160.142 244.059 148.555H248.914Z" fill="#423FD9"/>
<path d="M248.914 129.742V139.266H159.212V129.742C159.212 128.75 160.02 127.946 161.017 127.946H247.109C248.105 127.946 248.914 128.751 248.914 129.742Z" fill="#7878FF"/>
<path d="M248.913 129.742V139.266H244.612C244.76 134.334 244.654 130.342 244.544 127.946H247.109C248.105 127.946 248.913 128.751 248.913 129.742Z" fill="#423FD9"/>
<path d="M166.44 134.953H166.42C165.672 134.953 165.066 134.35 165.066 133.606C165.066 132.862 165.672 132.26 166.42 132.26H166.44C167.188 132.26 167.794 132.862 167.794 133.606C167.794 134.35 167.188 134.953 166.44 134.953Z" fill="#FF7070"/>
<path d="M170.526 134.953H170.506C169.758 134.953 169.152 134.35 169.152 133.606C169.152 132.862 169.758 132.26 170.506 132.26H170.526C171.274 132.26 171.88 132.862 171.88 133.606C171.88 134.35 171.274 134.953 170.526 134.953Z" fill="#FFF27D"/>
<path d="M174.613 134.953H174.593C173.845 134.953 173.239 134.35 173.239 133.606C173.239 132.862 173.845 132.26 174.593 132.26H174.613C175.361 132.26 175.967 132.862 175.967 133.606C175.967 134.35 175.361 134.953 174.613 134.953Z" fill="#4BE96D"/>
<path d="M241.706 134.953H239.188C238.44 134.953 237.834 134.35 237.834 133.606C237.834 132.862 238.44 132.26 239.188 132.26H241.706C242.454 132.26 243.06 132.862 243.06 133.606C243.06 134.35 242.454 134.953 241.706 134.953Z" fill="url(#paint1_linear)"/>
<path d="M201.055 158.309V175.12C201.055 176.111 200.246 176.916 199.25 176.916H181.201C180.205 176.916 179.396 176.111 179.396 175.12V158.309C179.396 157.318 180.205 156.513 181.201 156.513H199.25C200.246 156.513 201.055 157.318 201.055 158.309Z" fill="white"/>
<path d="M201.055 158.309V162.916H179.396V158.309C179.396 157.318 180.205 156.513 181.201 156.513H199.25C200.246 156.513 201.055 157.318 201.055 158.309Z" fill="#6455D1"/>
<path d="M212.651 172.27C215.903 172.27 218.539 169.647 218.539 166.411C218.539 163.175 215.903 160.552 212.651 160.552C209.399 160.552 206.763 163.175 206.763 166.411C206.763 169.647 209.399 172.27 212.651 172.27Z" fill="white"/>
<path d="M212.04 169.869C211.676 169.869 211.314 169.724 211.047 169.439C210.539 168.893 210.571 168.041 211.118 167.535L212.336 166.411L211.118 165.287C210.57 164.781 210.538 163.929 211.047 163.384C211.555 162.838 212.412 162.806 212.96 163.313L215.246 165.424C215.522 165.679 215.679 166.037 215.679 166.411C215.679 166.786 215.522 167.144 215.246 167.398L212.96 169.51C212.7 169.75 212.369 169.869 212.04 169.869Z" fill="url(#paint2_linear)"/>
<path d="M228.61 157.861H224.098C223.35 157.861 222.744 157.258 222.744 156.514C222.744 155.77 223.35 155.167 224.098 155.167H228.61C229.358 155.167 229.964 155.77 229.964 156.514C229.964 157.258 229.357 157.861 228.61 157.861Z" fill="url(#paint3_linear)"/>
<path d="M231.498 161.601H224.098C223.35 161.601 222.744 160.998 222.744 160.254C222.744 159.51 223.35 158.906 224.098 158.906H231.498C232.245 158.906 232.851 159.51 232.851 160.254C232.851 160.998 232.245 161.601 231.498 161.601Z" fill="url(#paint4_linear)"/>
<path d="M244.222 166.412C244.222 167.155 243.616 167.759 242.869 167.759H224.098C223.351 167.759 222.744 167.155 222.744 166.412C222.744 165.667 223.351 165.065 224.098 165.065H242.868C243.616 165.065 244.222 165.667 244.222 166.412Z" fill="white"/>
<path d="M244.222 170.329C244.222 171.072 243.616 171.676 242.869 171.676H231.498C230.751 171.676 230.145 171.072 230.145 170.329C230.145 169.585 230.751 168.982 231.498 168.982H242.869C243.616 168.982 244.222 169.585 244.222 170.329Z" fill="white"/>
<path d="M227.346 171.676H224.098C223.35 171.676 222.744 171.073 222.744 170.329C222.744 169.585 223.35 168.982 224.098 168.982H227.346C228.094 168.982 228.7 169.585 228.7 170.329C228.7 171.073 228.094 171.676 227.346 171.676Z" fill="white"/>
<path d="M244.222 174.246C244.222 174.991 243.616 175.593 242.869 175.593H224.098C223.351 175.593 222.744 174.991 222.744 174.246C222.744 173.502 223.351 172.899 224.098 172.899H242.868C243.616 172.899 244.222 173.502 244.222 174.246Z" fill="white"/>
<path d="M182.465 152.579H180.48C179.732 152.579 179.126 151.976 179.126 151.232C179.126 150.488 179.732 149.885 180.48 149.885H182.465C183.213 149.885 183.819 150.488 183.819 151.232C183.819 151.976 183.213 152.579 182.465 152.579Z" fill="white"/>
<path d="M244.221 174.246C244.221 174.991 243.615 175.593 242.867 175.593H238.375C238.707 174.702 239.019 173.804 239.317 172.899H242.867C243.614 172.899 244.221 173.502 244.221 174.246Z" fill="#D1D0D8"/>
<path d="M244.221 170.329C244.221 171.073 243.615 171.676 242.868 171.676H239.709C239.987 170.783 240.251 169.883 240.5 168.982H242.868C243.615 168.982 244.221 169.585 244.221 170.329Z" fill="#D1D0D8"/>
<path d="M242.867 167.759H240.827C241.06 166.865 241.28 165.965 241.49 165.065H242.867C243.614 165.065 244.22 165.666 244.22 166.412C244.22 167.155 243.614 167.759 242.867 167.759Z" fill="#D1D0D8"/>
<path d="M331.482 28.1306H75.4824V34.4941H331.482V28.1306Z" fill="#9944F6"/>
<path opacity="0.5" d="M331.482 28.1306H75.4824V31.3125H331.482V28.1306Z" fill="white"/>
<path d="M154.051 116.082C154.051 116.082 230.328 114.68 253.821 49.1355L253.012 116.232L154.051 116.082Z" fill="#9944F6"/>
<path opacity="0.7" d="M154.051 116.082C154.051 116.082 230.328 114.68 253.821 49.1355L253.012 116.232L154.051 116.082Z" fill="white"/>
<path d="M154.641 116.461C154.522 116.464 154.407 116.42 154.322 116.34C154.236 116.259 154.186 116.148 154.183 116.031C154.18 115.914 154.224 115.801 154.306 115.716C154.388 115.632 154.5 115.583 154.619 115.58C158.32 115.408 177.821 114.09 198.82 105.064C225.639 93.5257 243.929 74.6538 253.137 48.9595C253.183 48.859 253.266 48.7791 253.369 48.7357C253.472 48.6924 253.587 48.6885 253.693 48.7251C253.798 48.7616 253.886 48.8358 253.939 48.9331C253.992 49.0303 254.005 49.1435 253.978 49.2503C248.904 63.4197 240.939 75.6939 230.288 85.7557C221.625 93.9488 211.153 100.714 199.16 105.87C178.018 114.963 158.369 116.289 154.645 116.448L154.641 116.461Z" fill="#9944F6"/>
<path d="M158.619 120.586C158.5 120.586 158.387 120.54 158.303 120.457C158.219 120.374 158.172 120.262 158.172 120.145V116.483C158.172 116.366 158.219 116.254 158.303 116.171C158.387 116.089 158.5 116.042 158.619 116.042C158.737 116.042 158.851 116.089 158.935 116.171C159.019 116.254 159.066 116.366 159.066 116.483V120.145C159.066 120.262 159.019 120.374 158.935 120.457C158.851 120.54 158.737 120.586 158.619 120.586Z" fill="#9944F6"/>
<path d="M174.133 120.604C174.014 120.604 173.9 120.557 173.816 120.475C173.733 120.392 173.686 120.28 173.686 120.163V116.501C173.686 116.384 173.733 116.272 173.816 116.189C173.9 116.106 174.014 116.06 174.133 116.06C174.251 116.06 174.365 116.106 174.449 116.189C174.532 116.272 174.579 116.384 174.579 116.501V120.163C174.579 120.28 174.532 120.392 174.449 120.475C174.365 120.557 174.251 120.604 174.133 120.604Z" fill="#9944F6"/>
<path d="M189.647 120.617C189.529 120.617 189.415 120.571 189.331 120.488C189.247 120.405 189.2 120.293 189.2 120.176V116.514C189.2 116.397 189.247 116.285 189.331 116.202C189.415 116.12 189.529 116.073 189.647 116.073C189.766 116.073 189.879 116.12 189.963 116.202C190.047 116.285 190.094 116.397 190.094 116.514V120.176C190.094 120.293 190.047 120.405 189.963 120.488C189.879 120.571 189.766 120.617 189.647 120.617Z" fill="#9944F6"/>
<path d="M205.162 120.63C205.043 120.63 204.93 120.584 204.846 120.501C204.762 120.419 204.715 120.307 204.715 120.19V116.527C204.715 116.41 204.762 116.298 204.846 116.216C204.93 116.133 205.043 116.086 205.162 116.086C205.28 116.086 205.394 116.133 205.478 116.216C205.562 116.298 205.609 116.41 205.609 116.527V120.19C205.609 120.307 205.562 120.419 205.478 120.501C205.394 120.584 205.28 120.63 205.162 120.63Z" fill="#9944F6"/>
<path d="M220.677 120.643C220.559 120.643 220.445 120.597 220.361 120.514C220.278 120.432 220.23 120.319 220.23 120.203V116.545C220.23 116.428 220.278 116.316 220.361 116.233C220.445 116.15 220.559 116.104 220.677 116.104C220.796 116.104 220.91 116.15 220.994 116.233C221.077 116.316 221.125 116.428 221.125 116.545V120.203C221.125 120.319 221.077 120.432 220.994 120.514C220.91 120.597 220.796 120.643 220.677 120.643Z" fill="#9944F6"/>
<path d="M236.187 120.661C236.069 120.661 235.955 120.615 235.871 120.532C235.787 120.45 235.74 120.338 235.74 120.221V116.558C235.74 116.441 235.787 116.329 235.871 116.247C235.955 116.164 236.069 116.117 236.187 116.117C236.306 116.117 236.419 116.164 236.503 116.247C236.587 116.329 236.634 116.441 236.634 116.558V120.221C236.634 120.338 236.587 120.45 236.503 120.532C236.419 120.615 236.306 120.661 236.187 120.661Z" fill="#9944F6"/>
<path d="M251.698 120.675C251.579 120.675 251.466 120.628 251.382 120.545C251.298 120.463 251.251 120.351 251.251 120.234V116.571C251.251 116.454 251.298 116.342 251.382 116.259C251.466 116.177 251.579 116.13 251.698 116.13C251.817 116.13 251.93 116.177 252.014 116.259C252.098 116.342 252.145 116.454 252.145 116.571V120.234C252.145 120.351 252.098 120.463 252.014 120.545C251.93 120.628 251.817 120.675 251.698 120.675Z" fill="#9944F6"/>
<path d="M154.256 53.2122H152.254C152.135 53.2122 152.021 53.1657 151.938 53.0831C151.854 53.0005 151.807 52.8884 151.807 52.7716C151.807 52.6548 151.854 52.5427 151.938 52.4601C152.021 52.3775 152.135 52.3311 152.254 52.3311H154.256C154.375 52.3311 154.488 52.3775 154.572 52.4601C154.656 52.5427 154.703 52.6548 154.703 52.7716C154.703 52.8884 154.656 53.0005 154.572 53.0831C154.488 53.1657 154.375 53.2122 154.256 53.2122Z" fill="#9944F6"/>
<path d="M154.256 62.8069H152.254C152.135 62.8069 152.021 62.7604 151.938 62.6778C151.854 62.5951 151.807 62.483 151.807 62.3661C151.807 62.2492 151.854 62.1371 151.938 62.0544C152.021 61.9717 152.135 61.9253 152.254 61.9253H154.256C154.375 61.9253 154.488 61.9717 154.572 62.0544C154.656 62.1371 154.703 62.2492 154.703 62.3661C154.703 62.483 154.656 62.5951 154.572 62.6778C154.488 62.7604 154.375 62.8069 154.256 62.8069Z" fill="#9944F6"/>
<path d="M154.256 72.406H152.254C152.135 72.406 152.021 72.3596 151.938 72.2769C151.854 72.1942 151.807 72.0821 151.807 71.9652C151.807 71.8483 151.854 71.7362 151.938 71.6535C152.021 71.5709 152.135 71.5244 152.254 71.5244H154.256C154.375 71.5244 154.488 71.5709 154.572 71.6535C154.656 71.7362 154.703 71.8483 154.703 71.9652C154.703 72.0821 154.656 72.1942 154.572 72.2769C154.488 72.3596 154.375 72.406 154.256 72.406Z" fill="#9944F6"/>
<path d="M154.256 82.0137H152.254C152.135 82.0137 152.021 81.9672 151.938 81.8846C151.854 81.802 151.807 81.6899 151.807 81.573C151.807 81.4561 151.854 81.344 151.938 81.2614C152.021 81.1788 152.135 81.1323 152.254 81.1323H154.256C154.375 81.1323 154.488 81.1788 154.572 81.2614C154.656 81.344 154.703 81.4561 154.703 81.573C154.703 81.6899 154.656 81.802 154.572 81.8846C154.488 81.9672 154.375 82.0137 154.256 82.0137Z" fill="#9944F6"/>
<path d="M154.256 91.5996H152.254C152.135 91.5996 152.021 91.5532 151.938 91.4705C151.854 91.3879 151.807 91.2758 151.807 91.1589C151.807 91.0421 151.854 90.93 151.938 90.8473C152.021 90.7647 152.135 90.7183 152.254 90.7183H154.256C154.375 90.7183 154.488 90.7647 154.572 90.8473C154.656 90.93 154.703 91.0421 154.703 91.1589C154.703 91.2758 154.656 91.3879 154.572 91.4705C154.488 91.5532 154.375 91.5996 154.256 91.5996Z" fill="#9944F6"/>
<path d="M154.256 101.199H152.254C152.135 101.199 152.021 101.153 151.938 101.07C151.854 100.987 151.807 100.875 151.807 100.758C151.807 100.641 151.854 100.529 151.938 100.446C152.021 100.364 152.135 100.317 152.254 100.317H154.256C154.375 100.317 154.488 100.364 154.572 100.446C154.656 100.529 154.703 100.641 154.703 100.758C154.703 100.875 154.656 100.987 154.572 101.07C154.488 101.153 154.375 101.199 154.256 101.199Z" fill="#9944F6"/>
<path d="M154.256 110.793H152.254C152.135 110.793 152.021 110.747 151.938 110.664C151.854 110.582 151.807 110.47 151.807 110.353C151.807 110.236 151.854 110.124 151.938 110.041C152.021 109.958 152.135 109.912 152.254 109.912H154.256C154.375 109.912 154.488 109.958 154.572 110.041C154.656 110.124 154.703 110.236 154.703 110.353C154.703 110.47 154.656 110.582 154.572 110.664C154.488 110.747 154.375 110.793 154.256 110.793Z" fill="#9944F6"/>
<path d="M256.793 116.924H154.64C154.522 116.924 154.408 116.877 154.324 116.795C154.24 116.712 154.193 116.6 154.193 116.483V48.9813C154.193 48.8644 154.24 48.7523 154.324 48.6696C154.408 48.587 154.522 48.5405 154.64 48.5405C154.759 48.5405 154.873 48.587 154.956 48.6696C155.04 48.7523 155.087 48.8644 155.087 48.9813V116.042H256.793C256.911 116.042 257.025 116.089 257.109 116.171C257.193 116.254 257.24 116.366 257.24 116.483C257.24 116.6 257.193 116.712 257.109 116.795C257.025 116.877 256.911 116.924 256.793 116.924Z" fill="#9944F6"/>
<path d="M171.246 56.7551V58.5716L165.657 71.3582H162.862L168.242 59.0489H162.611V61.5349H160.138V56.7551H171.246Z" fill="#9944F6"/>
<path d="M172.171 64.0601C172.171 59.3932 174.762 56.7551 178.181 56.7551C181.6 56.7551 184.204 59.3932 184.204 64.0601C184.204 68.727 181.614 71.3582 178.181 71.3582C174.747 71.3582 172.171 68.727 172.171 64.0601ZM181.508 64.0601C181.508 60.6327 180.153 59.047 178.181 59.047C176.208 59.047 174.867 60.6327 174.867 64.0601C174.867 67.4876 176.222 69.0663 178.181 69.0663C180.139 69.0663 181.508 67.4876 181.508 64.0601Z" fill="#9944F6"/>
<path d="M185.13 60.6832C185.13 58.3319 186.563 56.7551 188.634 56.7551C190.705 56.7551 192.16 58.311 192.16 60.6832C192.16 63.0554 190.727 64.6043 188.634 64.6043C186.542 64.6043 185.13 63.0345 185.13 60.6832ZM190.44 60.6832C190.44 59.0855 189.767 58.1854 188.634 58.1854C187.502 58.1854 186.828 59.1064 186.828 60.6832C186.828 62.26 187.545 63.174 188.634 63.174C189.724 63.174 190.44 62.274 190.44 60.6832ZM197.449 56.9017H199.506L189.473 71.2047H187.416L197.449 56.9017ZM194.761 67.4301C194.761 65.0788 196.195 63.5089 198.266 63.5089C200.337 63.5089 201.792 65.0788 201.792 67.4301C201.792 69.7813 200.358 71.3582 198.266 71.3582C196.173 71.3582 194.761 69.7744 194.761 67.4301ZM200.072 67.4301C200.072 65.8602 199.355 64.9392 198.266 64.9392C197.177 64.9392 196.453 65.8323 196.453 67.4301C196.453 69.0278 197.169 69.9279 198.259 69.9279C199.348 69.9279 200.072 68.9999 200.072 67.4301Z" fill="#9944F6"/>
<path d="M197.163 75.009H165.691V76.8345H197.163V75.009Z" fill="#9944F6"/>
<path d="M197.164 79.5725H160.138V82.3105H197.164V79.5725Z" fill="#9944F6"/>
<path d="M197.164 85.0486H160.138V86.8743H197.164V85.0486Z" fill="#9944F6"/>
<path d="M188.833 90.5249H160.138V92.3503H188.833V90.5249Z" fill="#9944F6"/>
<path d="M107.844 99.3918C107.844 99.3918 101.081 99.8864 97.3942 107.528C93.7075 115.169 91.1911 129.52 99.9022 129.9C108.613 130.279 107.827 128.177 107.827 128.177V124.352L102.235 122.703C101.956 122.62 101.697 122.483 101.474 122.299C101.251 122.115 101.068 121.888 100.936 121.632C100.804 121.377 100.726 121.097 100.706 120.811C100.687 120.525 100.726 120.237 100.822 119.967L103.765 111.724L107.844 99.3918Z" fill="#9944F6"/>
<path opacity="0.2" d="M107.844 99.3918C107.844 99.3918 101.081 99.8864 97.3942 107.528C93.7075 115.169 91.1911 129.52 99.9022 129.9C108.613 130.279 107.827 128.177 107.827 128.177V124.352L102.235 122.703C101.956 122.62 101.697 122.483 101.474 122.299C101.251 122.115 101.068 121.888 100.936 121.632C100.804 121.377 100.726 121.097 100.706 120.811C100.687 120.525 100.726 120.237 100.822 119.967L103.765 111.724L107.844 99.3918Z" fill="black"/>
<path d="M125.459 79.584C125.744 79.5345 126.036 79.8313 126.128 80.2517C126.22 80.672 126.061 81.0759 125.777 81.0759C125.493 81.0759 125.2 80.8369 125.108 80.4165C125.016 79.9961 125.175 79.6335 125.459 79.584Z" fill="#263238"/>
<path d="M126.279 85.181C126.65 85.1931 127.02 85.1256 127.362 84.9833C127.704 84.841 128.01 84.6272 128.261 84.3567C127.183 83.4126 126.241 82.3282 125.46 81.1335L126.279 85.181Z" fill="#EC837E"/>
<path d="M123.236 78.3637C123.445 78.118 123.71 77.9248 124.009 77.8001C124.309 77.6754 124.634 77.6228 124.958 77.6466C124.985 77.6554 125.015 77.6554 125.042 77.6466C125.111 77.6466 125.176 77.6197 125.225 77.5718C125.274 77.5238 125.301 77.4588 125.301 77.3911C125.302 77.3572 125.296 77.3235 125.284 77.2919C125.271 77.2604 125.252 77.2318 125.228 77.2078C125.203 77.1839 125.174 77.1651 125.142 77.1527C125.11 77.1402 125.076 77.1344 125.042 77.1356C124.638 77.088 124.228 77.1382 123.848 77.2818C123.467 77.4255 123.128 77.6581 122.86 77.9598C122.817 78.0077 122.793 78.0691 122.793 78.1329C122.795 78.2008 122.823 78.2656 122.871 78.3144C122.919 78.3632 122.983 78.3926 123.052 78.3967C123.115 78.4052 123.18 78.3937 123.236 78.3637Z" fill="#263238"/>
<path d="M121.455 92.7645C120.67 95.8227 120.619 99.6145 124.022 100.653C124.022 100.653 128.252 104.148 120.109 104.148C112.719 104.148 111.624 100.167 111.624 100.167C114.416 97.5372 113.94 92.105 113.162 88.1731L121.455 92.7645Z" fill="#FFC2BC"/>
<path d="M108.605 99.4907C108.605 99.4907 109.943 95.9957 111.766 94.957C113.588 93.9184 121.246 95.4681 122.433 95.9874C123.62 96.5067 124.707 99.2846 124.707 99.2846L108.605 99.4907Z" fill="#9944F6"/>
<path opacity="0.2" d="M108.605 99.4907C108.605 99.4907 109.943 95.9957 111.766 94.957C113.588 93.9184 121.246 95.4681 122.433 95.9874C123.62 96.5067 124.707 99.2846 124.707 99.2846L108.605 99.4907Z" fill="black"/>
<path d="M120.267 261.533C120.241 261.529 120.217 261.518 120.198 261.499C120.179 261.481 120.167 261.458 120.162 261.432C120.157 261.407 120.161 261.381 120.172 261.357C120.184 261.334 120.202 261.315 120.225 261.302C120.326 261.253 122.232 260.189 123.135 260.428C123.221 260.448 123.302 260.484 123.374 260.535C123.446 260.586 123.506 260.651 123.553 260.725C123.609 260.806 123.64 260.903 123.64 261.001C123.64 261.1 123.609 261.196 123.553 261.277C123.327 261.591 122.717 261.69 121.948 261.69C121.384 261.683 120.822 261.63 120.267 261.533ZM122.775 260.634C122.024 260.724 121.297 260.956 120.635 261.319C121.647 261.459 123.026 261.451 123.277 261.104C123.335 261.055 123.36 260.981 123.277 260.824C123.25 260.779 123.214 260.74 123.171 260.71C123.128 260.68 123.078 260.66 123.026 260.651C122.943 260.634 122.858 260.634 122.775 260.651V260.634Z" fill="#9944F6"/>
<path d="M120.218 261.509C120.185 261.478 120.164 261.437 120.159 261.393C120.196 260.631 120.49 259.903 120.995 259.324C121.095 259.24 121.21 259.177 121.336 259.139C121.461 259.101 121.592 259.088 121.723 259.102C122.082 259.143 122.207 259.324 122.207 259.464C122.308 260.091 121.004 261.228 120.343 261.525H120.293C120.267 261.525 120.241 261.519 120.218 261.509ZM121.656 259.349C121.57 259.348 121.485 259.365 121.406 259.397C121.327 259.43 121.256 259.478 121.196 259.538C120.787 260.001 120.533 260.577 120.469 261.187C121.146 260.783 122.024 259.868 121.965 259.538C121.965 259.538 121.965 259.398 121.714 259.398H121.639L121.656 259.349Z" fill="#9944F6"/>
<path d="M114.868 248.962H120.31L119.767 261.393H114.324L114.868 248.962Z" fill="#FFC2BC"/>
<path d="M121.045 261.195C124.723 263.429 125.86 263.528 130.116 264.492C131.052 264.69 130.433 266.916 128.201 266.916C124.506 266.916 124.121 266.751 120.97 266.751C118.269 266.751 115.176 266.866 113.028 266.908C112.964 266.916 112.899 266.916 112.836 266.908C112.633 266.861 112.457 266.736 112.347 266.561C112.238 266.387 112.203 266.176 112.25 265.976L113.32 261.212C113.345 261.107 113.404 261.014 113.489 260.946C113.574 260.879 113.68 260.842 113.789 260.841H119.732C120.195 260.838 120.649 260.96 121.045 261.195Z" fill="#263238"/>
<path d="M127.658 99.4083C122.248 99.0118 116.821 98.888 111.398 99.0374C109.977 99.1363 108.564 99.2764 107.159 99.4495C106.458 99.5376 105.782 99.7644 105.171 100.116C104.561 100.468 104.029 100.938 103.608 101.498C103.186 102.058 102.884 102.695 102.718 103.373C102.553 104.051 102.528 104.755 102.645 105.442C105.872 124.517 104.25 143.229 103.807 146.988L132.891 146.716C135.934 123.107 135.123 111.204 133.953 105.426C133.647 103.911 132.881 102.525 131.756 101.45C130.632 100.375 129.203 99.6629 127.658 99.4083Z" fill="#9944F6"/>
<path opacity="0.1" d="M127.658 99.4083C122.248 99.0118 116.821 98.888 111.398 99.0374C109.977 99.1363 108.564 99.2764 107.159 99.4495C106.458 99.5376 105.782 99.7644 105.171 100.116C104.561 100.468 104.029 100.938 103.608 101.498C103.186 102.058 102.884 102.695 102.718 103.373C102.553 104.051 102.528 104.755 102.645 105.442C105.872 124.517 104.25 143.229 103.807 146.988L132.891 146.716C135.934 123.107 135.123 111.204 133.953 105.426C133.647 103.911 132.881 102.525 131.756 101.45C130.632 100.375 129.203 99.6629 127.658 99.4083Z" fill="black"/>
<path opacity="0.2" d="M114.859 248.971L114.583 255.375H120.034L120.31 248.971H114.859Z" fill="black"/>
<path d="M110.429 79.0975C110.799 77.2039 111.917 75.5326 113.536 74.4507C115.155 73.3688 117.144 72.9648 119.065 73.3273C124.666 74.3659 126.982 81.9497 126.814 86.8626C126.647 92.3114 120.586 96.0043 115.746 92.7895C112.527 90.6462 111.967 87.5715 110.571 82.4278C110.266 81.343 110.218 80.2037 110.429 79.0975Z" fill="#FFC2BC"/>
<path d="M104.233 145.001C104.233 145.001 98.6572 162.617 94.3434 180.545C88.7171 203.881 75.1572 251.691 75.1572 251.691L84.7545 253.776C84.7545 253.776 104.551 198.185 109.751 181.427C114.508 166.128 123.018 145.018 123.018 145.018L104.233 145.001Z" fill="#263238"/>
<path opacity="0.3" d="M115.82 164.595C107.26 187.552 105.446 194.443 105.32 194.888C106.357 180.916 110.621 165.328 115.82 164.595C116.205 164.537 115.469 164.487 115.82 164.595Z" fill="black"/>
<path d="M114.199 145.001C114.199 145.001 113.564 164.529 113.162 182.754C112.786 199.48 113.162 254.139 113.162 254.139H122.358C122.358 254.139 129.439 198.375 131.312 181.37C133.126 165.032 133.318 145.001 133.318 145.001H114.199Z" fill="#263238"/>
<path d="M111.799 250.924L112.108 254.287H123.319C123.319 254.287 123.879 250.512 123.837 250.512L111.799 250.924Z" fill="#9944F6"/>
<path d="M74.8895 261.475C74.8804 261.499 74.8644 261.519 74.8435 261.533C74.8226 261.547 74.7978 261.555 74.7725 261.555C74.7471 261.555 74.7224 261.547 74.7015 261.533C74.6806 261.519 74.6645 261.499 74.6554 261.475C74.6053 261.385 73.5352 259.497 73.8194 258.607C73.8628 258.439 73.9707 258.294 74.1204 258.203C74.204 258.146 74.3031 258.116 74.4046 258.116C74.5061 258.116 74.6052 258.146 74.6889 258.203C74.9982 258.434 75.0901 259.068 75.0901 259.786C75.0717 260.353 75.0046 260.919 74.8895 261.475ZM74.0034 258.961C74.0798 259.701 74.3043 260.418 74.6638 261.072C74.8143 260.074 74.8143 258.722 74.4632 258.467C74.4632 258.409 74.3461 258.384 74.1789 258.467C74.132 258.493 74.0918 258.53 74.0614 258.575C74.031 258.619 74.0112 258.669 74.0034 258.722C73.9867 258.801 73.9867 258.882 74.0034 258.961Z" fill="#9944F6"/>
<path d="M74.8819 261.525C74.8687 261.543 74.8508 261.557 74.8302 261.565C74.8097 261.574 74.7871 261.577 74.7649 261.574C73.9948 261.536 73.2596 261.246 72.6749 260.75C72.5912 260.651 72.5288 260.537 72.4914 260.414C72.4541 260.29 72.4425 260.161 72.4576 260.033C72.4576 259.687 72.6749 259.571 72.8254 259.571C73.444 259.472 74.606 260.767 74.8986 261.41V261.459C74.8999 261.482 74.8941 261.505 74.8819 261.525ZM72.7334 260.115C72.743 260.28 72.8077 260.436 72.9174 260.561C73.387 260.963 73.9706 261.213 74.5893 261.278C74.1881 260.61 73.2685 259.736 72.9174 259.794C72.9174 259.794 72.7752 259.794 72.7752 260.041V260.115H72.7334Z" fill="#9944F6"/>
<path d="M77.2645 251.172L82.5731 251.567L80.1236 261.846L74.8066 261.475L77.2645 251.172Z" fill="#FFC2BC"/>
<path opacity="0.2" d="M77.3314 250.883L76.2529 255.409L81.5615 255.78L82.6483 251.246L77.3314 250.883Z" fill="black"/>
<path d="M73.5688 260.759C72.1392 262.407 71.3785 263.289 67.2235 264.583C66.304 264.864 67.1232 267.056 69.3553 266.834C73.0337 266.512 71.0273 266.52 74.1372 266.24C76.8208 266.009 79.914 265.861 82.0541 265.713C82.1264 265.72 82.1993 265.72 82.2715 265.713C82.4643 265.64 82.6231 265.5 82.7172 265.318C82.8114 265.137 82.8342 264.928 82.7815 264.732L81.285 260.066C81.2529 259.965 81.1862 259.878 81.0964 259.819C81.0065 259.76 80.899 259.734 80.7918 259.745L74.8729 260.264C74.3891 260.253 73.9206 260.431 73.5688 260.759Z" fill="#263238"/>
<path d="M74.0116 249.918L73.9531 253.339L85.4984 254.559C85.4984 254.559 86.4848 250.866 86.443 250.866L74.0116 249.918Z" fill="#9944F6"/>
<path d="M112.226 72.2227C114.985 71.1759 115.394 70.9286 117.008 68.4804C117.902 67.1121 117.777 65.9168 120.494 65.4799C121.942 65.2367 123.431 65.4994 124.705 66.2226C125.978 66.9458 126.955 68.0843 127.468 69.4418C127.981 70.7994 127.998 72.2908 127.515 73.6592C127.033 75.0275 126.081 76.187 124.824 76.9377C123.403 77.8032 125.51 75.7095 123.988 76.3442C122.467 76.9789 122.785 76.2536 122.693 77.9022C122.617 79.1633 123.395 80.3009 123.896 81.4714C124.398 82.6419 124.515 84.2163 123.47 84.9582C123.763 83.9938 121.38 86.6068 121.472 87.6289C121.723 90.4151 119.215 92.9704 116.414 93.3496C110.245 94.1739 106.19 87.1179 104.409 82.2627C101.993 75.8002 105.713 74.6874 112.226 72.2227Z" fill="#263238"/>
<path d="M122.308 80.1691C123.854 80.6307 124.64 82.8976 124.699 84.3319C124.749 85.9146 123.67 86.9037 122.283 85.8321C121.235 85.0041 120.492 83.8603 120.168 82.5761C119.808 81.0593 120.761 79.6992 122.308 80.1691Z" fill="#FFC2BC"/>
<path opacity="0.1" d="M127.733 99.8452C129.326 99.7609 130.903 100.188 132.23 101.061C133.556 101.935 134.559 103.209 135.09 104.692C136.636 108.566 139.713 117.172 141.285 121.607C141.367 121.843 141.518 122.05 141.719 122.202C141.92 122.355 142.161 122.446 142.414 122.464C142.666 122.483 142.919 122.428 143.14 122.306C143.362 122.184 143.542 122.002 143.659 121.78L145.757 117.881C145.757 117.881 148.859 118.458 150.021 121.129C151.183 123.8 144.169 131.087 140.524 131.07C136.427 131.07 131.11 121.178 129.656 116.669C127.893 111.242 127.239 105.523 127.733 99.8452Z" fill="white"/>
<path d="M145.757 119.142L148.156 115.128C148.156 115.128 146.802 112.655 147.688 111.007C148.574 109.358 149.452 110.693 150.313 110.182C151.174 109.671 153.105 106.184 154.033 107.94C154.961 109.696 156.115 112.729 151.333 116.315L148.75 122.712L145.757 119.142Z" fill="#FFC2BC"/>
<path d="M146.117 117.452C147.166 117.674 148.134 118.175 148.914 118.902C149.694 119.629 150.256 120.553 150.539 121.574V121.657C150.606 122.028 151.074 124.773 150.539 124.822C150.004 124.872 149.235 122.242 144.838 119.958C144.774 119.926 144.718 119.881 144.673 119.826C144.628 119.772 144.594 119.709 144.574 119.641C144.553 119.573 144.547 119.502 144.555 119.432C144.563 119.362 144.585 119.294 144.62 119.233L145.565 117.7C145.618 117.606 145.7 117.531 145.8 117.486C145.899 117.442 146.01 117.43 146.117 117.452Z" fill="#9944F6"/>
<path d="M146.117 117.452C147.166 117.674 148.134 118.175 148.914 118.902C149.694 119.629 150.256 120.553 150.539 121.574V121.657C150.606 122.028 151.074 124.773 150.539 124.822C150.004 124.872 149.235 122.242 144.838 119.958C144.774 119.926 144.718 119.881 144.673 119.826C144.628 119.772 144.594 119.709 144.574 119.641C144.553 119.573 144.547 119.502 144.555 119.432C144.563 119.362 144.585 119.294 144.62 119.233L145.565 117.7C145.618 117.606 145.7 117.531 145.8 117.486C145.899 117.442 146.01 117.43 146.117 117.452Z" fill="#9944F6"/>
<path d="M127.733 99.8452C129.326 99.7609 130.903 100.188 132.23 101.061C133.556 101.935 134.559 103.209 135.09 104.692C136.636 108.566 139.713 117.172 141.285 121.607C141.367 121.843 141.518 122.05 141.719 122.202C141.92 122.355 142.161 122.446 142.414 122.464C142.666 122.483 142.919 122.428 143.14 122.306C143.362 122.184 143.542 122.002 143.659 121.78L145.757 117.881C145.757 117.881 148.859 118.458 150.021 121.129C151.183 123.8 144.169 131.087 140.524 131.07C136.427 131.07 131.11 121.178 129.656 116.669C127.893 111.242 127.239 105.523 127.733 99.8452Z" fill="#9944F6"/>
<path opacity="0.1" d="M127.733 99.8452C129.326 99.7609 130.903 100.188 132.23 101.061C133.556 101.935 134.559 103.209 135.09 104.692C136.636 108.566 139.713 117.172 141.285 121.607C141.367 121.843 141.518 122.05 141.719 122.202C141.92 122.355 142.161 122.446 142.414 122.464C142.666 122.483 142.919 122.428 143.14 122.306C143.362 122.184 143.542 122.002 143.659 121.78L145.757 117.881C145.757 117.881 148.859 118.458 150.021 121.129C151.183 123.8 144.169 131.087 140.524 131.07C136.427 131.07 131.11 121.178 129.656 116.669C127.893 111.242 127.239 105.523 127.733 99.8452Z" fill="white"/>
<defs>
<linearGradient id="paint0_linear" x1="204.063" y1="127.946" x2="204.063" y2="195.47" gradientUnits="userSpaceOnUse">
<stop stop-color="#F3F3F3"/>
<stop offset="1" stop-color="#7B79E9"/>
</linearGradient>
<linearGradient id="paint1_linear" x1="240.447" y1="132.26" x2="240.447" y2="134.953" gradientUnits="userSpaceOnUse">
<stop stop-color="#43A047"/>
<stop offset="0.244792" stop-color="#4CAF50"/>
</linearGradient>
<linearGradient id="paint2_linear" x1="213.182" y1="162.953" x2="213.182" y2="169.869" gradientUnits="userSpaceOnUse">
<stop stop-color="#FFE700"/>
<stop offset="1" stop-color="#F5482F"/>
</linearGradient>
<linearGradient id="paint3_linear" x1="226.354" y1="155.167" x2="226.354" y2="157.861" gradientUnits="userSpaceOnUse">
<stop stop-color="#FFF8B6"/>
<stop offset="1" stop-color="#F5482F"/>
</linearGradient>
<linearGradient id="paint4_linear" x1="227.798" y1="158.906" x2="227.798" y2="161.601" gradientUnits="userSpaceOnUse">
<stop stop-color="#FFF8B6"/>
<stop offset="1" stop-color="#F5482F"/>
</linearGradient>
</defs>
</svg>
