<svg width="80" height="80" viewBox="0 0 80 80" fill="none" xmlns="http://www.w3.org/2000/svg">
<path d="M40 79.7857C62.0914 79.7857 80 62.148 80 40.3907C80 18.6334 62.0914 0.995605 40 0.995605C17.9086 0.995605 0 18.6334 0 40.3907C0 62.148 17.9086 79.7857 40 79.7857Z" fill="url(#paint0_linear)"/>
<path d="M65.2998 63.1637H14.6998C13.177 63.1637 11.9424 61.948 11.9424 60.448V20.3324C11.9424 18.8327 13.1768 17.6167 14.6998 17.6167H65.2998C66.8226 17.6167 68.0572 18.8325 68.0572 20.3324V60.448C68.0572 61.948 66.8228 63.1637 65.2998 63.1637Z" fill="white"/>
<path d="M65.3 17.6169H40.0645V63.164H65.3C66.8228 63.164 68.0574 61.9482 68.0574 60.4483V20.3325C68.0574 18.8327 66.823 17.6169 65.3 17.6169Z" fill="#E0F2FF"/>
<path d="M68.0572 20.3326C68.0572 18.8328 66.8228 17.6167 65.2998 17.6167H14.6998C13.177 17.6167 11.9424 18.8326 11.9424 20.3326V22.5721H68.0572V20.3326Z" fill="#1E495F"/>
<path d="M68.0574 20.3325C68.0574 18.8327 66.823 17.6167 65.3 17.6167H40.0645V22.5717H68.0574V20.3325Z" fill="#1D384E"/>
<path d="M15.9088 20.9518C16.3897 20.9518 16.7796 20.5678 16.7796 20.0942C16.7796 19.6205 16.3897 19.2366 15.9088 19.2366C15.4279 19.2366 15.0381 19.6205 15.0381 20.0942C15.0381 20.5678 15.4279 20.9518 15.9088 20.9518Z" fill="#FF533C"/>
<path d="M18.8121 20.9518C19.293 20.9518 19.6829 20.5678 19.6829 20.0942C19.6829 19.6205 19.293 19.2366 18.8121 19.2366C18.3312 19.2366 17.9414 19.6205 17.9414 20.0942C17.9414 20.5678 18.3312 20.9518 18.8121 20.9518Z" fill="#FFD153"/>
<path d="M21.7145 20.9518C22.1954 20.9518 22.5852 20.5678 22.5852 20.0942C22.5852 19.6205 22.1954 19.2366 21.7145 19.2366C21.2336 19.2366 20.8438 19.6205 20.8438 20.0942C20.8438 20.5678 21.2336 20.9518 21.7145 20.9518Z" fill="#CADBE6"/>
<path d="M61.9622 29.5283H53.4463V58.6859H61.9622V29.5283Z" fill="#FF533C"/>
<path d="M26.554 47.6326H18.0381V58.6856H26.554V47.6326Z" fill="#FF533C"/>
<path d="M38.3577 42.5793H29.8418V58.6859H38.3577V42.5793Z" fill="#FFA200"/>
<path d="M50.1585 39.0566H41.6426V58.6855H50.1585V39.0566Z" fill="#DF2E18"/>
<defs>
<linearGradient id="paint0_linear" x1="40" y1="0.995605" x2="40" y2="79.7857" gradientUnits="userSpaceOnUse">
<stop stop-color="#F5482F"/>
<stop offset="1" stop-color="#FFF8B6"/>
</linearGradient>
</defs>
</svg>
