<svg width="100" height="100" viewBox="0 0 100 100" fill="none" xmlns="http://www.w3.org/2000/svg">
<g clip-path="url(#clip0)">
<path d="M29.5635 9.65279L28.5755 9.78097C27.0504 9.97933 25.9746 11.3763 26.173 12.9006L37.276 98.4567H44.0212L32.6831 12.0561C32.4848 10.5309 31.0886 9.45519 29.5635 9.65279Z" fill="#996459"/>
<path d="M32.6832 12.0561C32.4849 10.5309 31.0887 9.45519 29.5636 9.65279L28.5756 9.78097C28.4893 9.79241 28.4054 9.80843 28.3223 9.82674C29.2302 10.1891 29.9214 11.0177 30.0564 12.0561L41.3945 98.4567H44.0213L32.6832 12.0561Z" fill="#875850"/>
<path d="M58.7744 53.1929L10.4933 59.4574C8.22968 59.7519 6.15525 58.1543 5.86076 55.8884L2.57401 30.5649C2.27952 28.3013 3.87864 26.2268 6.14228 25.9323L35.7138 22.094L54.4234 19.6656C56.687 19.3711 58.7615 20.9702 59.056 23.2338L61.534 42.3241L62.3427 48.5581C62.6372 50.824 61.0396 52.8984 58.7744 53.1929Z" fill="#F6C096"/>
<path d="M61.5343 42.3249L37.6611 39.225C37.5337 39.209 37.4063 39.1861 37.2827 39.1594C37.1568 38.9824 37.1568 38.739 37.2972 38.5605L40.9212 33.9051C41.8886 32.6477 41.6536 30.8426 40.3963 29.8737C39.1389 28.904 37.3338 29.139 36.3649 30.3963L34.292 33.059L35.7141 22.094L54.4237 19.6656C56.6873 19.3711 58.7618 20.9709 59.0562 23.2346L61.5343 42.3249Z" fill="#F59A93"/>
<path d="M43.169 45.14C43.169 45.7656 42.9714 46.3988 42.5594 46.9321C41.6195 48.1528 39.8677 48.3848 38.6409 47.4509L33.8482 43.798C33.63 43.6309 33.3164 43.6705 33.1478 43.8888L29.4475 48.6442C28.8959 49.3544 28.0689 49.7252 27.235 49.7252C26.6384 49.7252 26.0357 49.536 25.5268 49.1424C24.2366 48.1482 24.0001 46.2836 25.0003 44.9981L28.5709 40.4128C28.7418 40.1923 28.7006 39.8734 28.4786 39.7048L23.7865 36.1274C22.5292 35.1607 22.2942 33.3556 23.2639 32.096C24.2328 30.8387 26.0379 30.6044 27.2953 31.5734L32.0186 35.1729C32.2368 35.3393 32.5496 35.3003 32.7182 35.0821L34.2922 33.0588L34.0931 34.5923C33.8153 36.7309 35.2207 38.6962 37.2829 39.1593C37.3119 39.2005 37.347 39.2371 37.3874 39.2684L42.0101 42.7916C42.7692 43.37 43.169 44.2489 43.169 45.14Z" fill="white"/>
<path d="M69.6395 0.0244511L70.3406 0.116004C71.9451 0.324286 73.0765 1.79294 72.8682 3.39741L60.5315 98.4566H53.8779L66.3581 2.55283C66.5656 0.948371 68.035 -0.183831 69.6395 0.0244511Z" fill="#996459"/>
<path d="M70.3413 0.116001L69.6401 0.0244483C69.0435 -0.0526085 68.4667 0.0557288 67.9655 0.303684C69.177 0.788914 69.9575 2.04319 69.7821 3.3974L57.4453 98.4566H60.5322L72.8689 3.3974C73.0772 1.79294 71.9457 0.324284 70.3413 0.116001Z" fill="#875850"/>
<path d="M40.9209 33.9049L37.2969 38.5603C37.1566 38.7396 37.1566 38.9822 37.2824 39.1592C35.2202 38.6961 33.8149 36.7308 34.0926 34.5923L34.2917 33.0588L36.3646 30.3961C37.3336 29.1388 39.1387 28.9038 40.396 29.8735C41.6533 30.8424 41.8883 32.6476 40.9209 33.9049Z" fill="#EFF2FA"/>
<path d="M40.987 36.496L89.6855 42.8162C91.8354 43.0947 93.8038 41.5787 94.0823 39.4295L97.4232 13.6872C97.7024 11.538 96.1865 9.5688 94.0365 9.29033L45.3381 2.97014C43.1889 2.69091 41.2205 4.20763 40.9413 6.35683L37.6004 32.0992C37.3219 34.2484 38.8378 36.2168 40.987 36.496Z" fill="#F66444"/>
<path d="M61.626 31.2257C60.9401 31.1471 60.3145 30.7992 59.8857 30.259L55.0334 24.1441C54.1408 23.0187 54.3284 21.3822 55.4538 20.4896C56.5791 19.5969 58.2149 19.7846 59.1083 20.91L62.3439 24.9879L73.6552 16.0111C74.7798 15.1185 76.4163 15.3069 77.309 16.4323C78.2016 17.5568 78.0139 19.1933 76.8886 20.086L63.5402 30.6794C62.9993 31.1082 62.3111 31.305 61.626 31.2257Z" fill="white"/>
<path d="M68.5373 99.9999H30.4643C29.6121 99.9999 28.9209 99.3087 28.9209 98.4565C28.9209 97.6035 29.6121 96.9131 30.4643 96.9131H68.5373C69.3903 96.9131 70.0815 97.6035 70.0815 98.4565C70.0807 99.3087 69.3903 99.9999 68.5373 99.9999Z" fill="#5C546A"/>
</g>
<defs>
<clipPath id="clip0">
<rect width="100" height="100" fill="white"/>
</clipPath>
</defs>
</svg>
