<svg width="108" height="43" viewBox="0 0 108 43" fill="none" xmlns="http://www.w3.org/2000/svg">
<path d="M105.975 15.6084V28.228H104.283V15.6084H105.975ZM95.4326 26.9927C95.7635 27.0486 96.2499 27.0673 96.8526 27.0673C98.6032 27.0673 100.217 26.4493 100.217 24.6145C100.217 22.8921 98.6809 22.1804 96.8332 22.1804H95.4326V26.9927ZM95.4326 20.9446H96.9693C98.7587 20.9446 99.8093 20.0459 99.8093 18.8287C99.8093 17.3497 98.6422 16.7694 96.9303 16.7694C96.1525 16.7694 95.7051 16.8256 95.4326 16.8815V20.9446ZM93.7403 15.7767C94.4797 15.6273 95.6465 15.5146 96.8332 15.5146C98.5254 15.5146 99.6148 15.7956 100.432 16.4322C101.113 16.9191 101.521 17.668 101.521 18.6601C101.521 19.8773 100.684 20.9446 99.3035 21.4314V21.469C100.548 21.7684 102.007 22.7608 102.007 24.6331C102.007 25.7193 101.56 26.5431 100.899 27.161C99.9845 27.9659 98.5061 28.3406 96.3664 28.3406C95.1993 28.3406 94.3045 28.2655 93.7403 28.191V15.7767ZM83.1981 21.9932C83.1981 20.9259 83.1787 20.0084 83.1203 19.1659H84.6181L84.6762 20.9446H84.7539C85.1823 19.7276 86.2126 18.9598 87.3609 18.9598C87.5549 18.9598 87.6913 18.9787 87.8471 19.016V20.5701C87.6719 20.5328 87.4968 20.5139 87.2635 20.5139C86.0577 20.5139 85.2016 21.3942 84.9678 22.6297C84.9294 22.8545 84.8906 23.1166 84.8906 23.3973V28.228H83.1981V21.9932ZM79.4243 22.817C79.4439 21.7684 78.9769 20.1394 77.0511 20.1394C75.3198 20.1394 74.5614 21.6749 74.4256 22.817H79.4243ZM74.4059 23.9966C74.4449 26.2245 75.9233 27.1418 77.6349 27.1418C78.8604 27.1418 79.5997 26.9359 80.2416 26.6739L80.5333 27.8535C79.9301 28.1158 78.8994 28.4152 77.4017 28.4152C74.503 28.4152 72.772 26.5804 72.772 23.8469C72.772 21.1132 74.4449 18.9598 77.1878 18.9598C80.261 18.9598 81.0775 21.5625 81.0775 23.229C81.0775 23.5659 81.0388 23.8283 81.0194 23.9966H74.4059ZM60.0118 19.1659L61.2567 23.7718C61.5292 24.7831 61.7818 25.7193 61.957 26.6552H62.0154C62.2292 25.7377 62.5405 24.7645 62.8518 23.7907L64.3886 19.1659H65.8276L67.2866 23.697C67.6366 24.7831 67.9089 25.7377 68.1231 26.6552H68.1814C68.3372 25.7377 68.5898 24.7831 68.9008 23.7156L70.2434 19.1659H71.9353L68.9008 28.228H67.3447L65.9057 23.9031C65.5747 22.8921 65.3027 21.9932 65.0689 20.9259H65.0302C64.7967 22.0118 64.505 22.9483 64.1744 23.9215L62.657 28.228H61.1012L58.2612 19.1659H60.0118ZM49.8384 23.7156C49.8384 25.7007 51.0249 27.1983 52.6977 27.1983C54.3316 27.1983 55.5571 25.7193 55.5571 23.6783C55.5571 22.1428 54.7597 20.1956 52.7368 20.1956C50.7139 20.1956 49.8384 21.9932 49.8384 23.7156ZM57.3077 23.6224C57.3077 26.9738 54.8958 28.4341 52.62 28.4341C50.0719 28.4341 48.1074 26.6369 48.1074 23.7718C48.1074 20.7387 50.169 18.9598 52.7755 18.9598C55.479 18.9598 57.3077 20.8511 57.3077 23.6224ZM40.6766 21.8432C41.0462 21.937 41.513 21.9742 42.0772 21.9742C44.1194 21.9742 45.3643 21.0194 45.3643 19.2781C45.3643 17.6118 44.1391 16.8067 42.2717 16.8067C41.5327 16.8067 40.9685 16.8629 40.6766 16.9377V21.8432ZM38.9843 15.7581C39.8014 15.6273 40.8711 15.5146 42.2327 15.5146C43.9056 15.5146 45.131 15.8891 45.9091 16.5632C46.6288 17.1625 47.0568 18.0798 47.0568 19.2032C47.0568 20.3456 46.7065 21.2442 46.0452 21.8997C45.1504 22.817 43.6917 23.2849 42.0382 23.2849C41.5327 23.2849 41.0659 23.2665 40.6766 23.1728V28.228H38.9843V15.7581ZM25.7539 15.9796L4.98782 10.1425C4.83233 10.099 4.67711 10.0781 4.52475 10.0781C3.64929 10.0784 2.88632 10.7618 2.88632 11.6591V21.0945H4.11721V11.6591C4.11721 11.4146 4.32881 11.263 4.52503 11.263C4.56376 11.263 4.60307 11.2687 4.64294 11.28L25.409 17.117C25.583 17.1658 25.7046 17.3218 25.7046 17.4961V30.0836C25.7046 30.3282 25.4927 30.4798 25.2968 30.4798C25.2578 30.4798 25.2191 30.4743 25.1786 30.4631L20.4428 29.1315V30.3657L24.8337 31.6002C24.9892 31.6438 25.1447 31.6646 25.2968 31.6646C26.1723 31.6646 26.9352 30.9809 26.9352 30.0836V17.4961C26.9352 16.7943 26.4539 16.1764 25.7539 15.9796ZM18.9319 32.0953V19.3381C18.9319 18.5105 18.235 17.8394 17.375 17.8394C16.5152 17.8394 15.8183 18.5105 15.8183 19.3381V32.0953C15.8183 32.9229 16.5152 33.5938 17.375 33.5938C18.235 33.5938 18.9319 32.9229 18.9319 32.0953ZM14.3342 30.6922V20.9029C14.3342 20.0753 13.6373 19.4042 12.7772 19.4042C11.9174 19.4042 11.2206 20.0753 11.2206 20.9029V30.6922C11.2206 31.5199 11.9174 32.1907 12.7772 32.1907C13.6373 32.1907 14.3342 31.5199 14.3342 30.6922ZM9.73677 29.1765V22.3323C9.73677 21.5046 9.03959 20.8338 8.1798 20.8338C7.32001 20.8338 6.62283 21.5046 6.62283 22.3323V29.1765C6.62283 30.0044 7.32001 30.6752 8.1798 30.6752C9.03959 30.6752 9.73677 30.0044 9.73677 29.1765ZM3.58208 29.3212C2.72228 29.3212 2.02539 28.6501 2.02539 27.8225V23.8686C2.02539 23.0409 2.72228 22.3701 3.58208 22.3701C4.44187 22.3701 5.13905 23.0409 5.13905 23.8686V27.8225C5.13905 28.6501 4.44187 29.3212 3.58208 29.3212Z" fill="black"/>
</svg>
