<svg width="148" height="76" viewBox="0 0 148 76" fill="none" xmlns="http://www.w3.org/2000/svg">
<path d="M65.5321 40.6455C65.5321 46.0164 61.3304 49.9742 56.174 49.9742C51.0176 49.9742 46.8159 46.0164 46.8159 40.6455C46.8159 35.2368 51.0176 31.3169 56.174 31.3169C61.3304 31.3169 65.5321 35.2368 65.5321 40.6455ZM61.4355 40.6455C61.4355 37.2892 59.0003 34.9928 56.174 34.9928C53.3476 34.9928 50.9124 37.2892 50.9124 40.6455C50.9124 43.9682 53.3476 46.2982 56.174 46.2982C59.0003 46.2982 61.4355 43.964 61.4355 40.6455Z" fill="#EA4335"/>
<path d="M85.7196 40.6455C85.7196 46.0164 81.5179 49.9742 76.3615 49.9742C71.2051 49.9742 67.0034 46.0164 67.0034 40.6455C67.0034 35.241 71.2051 31.3169 76.3615 31.3169C81.5179 31.3169 85.7196 35.2368 85.7196 40.6455ZM81.623 40.6455C81.623 37.2892 79.1878 34.9928 76.3615 34.9928C73.5351 34.9928 71.0999 37.2892 71.0999 40.6455C71.0999 43.9682 73.5351 46.2982 76.3615 46.2982C79.1878 46.2982 81.623 43.964 81.623 40.6455Z" fill="#FBBC04"/>
<path d="M105.066 31.8805V48.6283C105.066 55.5175 101.004 58.3312 96.2005 58.3312C91.6792 58.3312 88.958 55.3072 87.9318 52.8341L91.4983 51.3495C92.1334 52.8678 93.6896 54.6595 96.1963 54.6595C99.2708 54.6595 101.176 52.7626 101.176 49.1919V47.8502H101.033C100.116 48.9816 98.3497 49.9699 96.1206 49.9699C91.4563 49.9699 87.1831 45.9071 87.1831 40.6792C87.1831 35.4134 91.4563 31.3169 96.1206 31.3169C98.3455 31.3169 100.112 32.3053 101.033 33.403H101.176V31.8847H105.066V31.8805ZM101.466 40.6792C101.466 37.3944 99.275 34.9928 96.4865 34.9928C93.6602 34.9928 91.2922 37.3944 91.2922 40.6792C91.2922 43.9303 93.6602 46.2982 96.4865 46.2982C99.275 46.2982 101.466 43.9303 101.466 40.6792Z" fill="#4285F4"/>
<path d="M111.48 22.0645V49.4026H107.485V22.0645H111.48Z" fill="#34A853"/>
<path d="M127.051 43.7161L130.231 45.8359C129.205 47.3542 126.731 49.9702 122.458 49.9702C117.159 49.9702 113.201 45.8737 113.201 40.6416C113.201 35.0941 117.193 31.313 122 31.313C126.841 31.313 129.209 35.1656 129.983 37.2475L130.407 38.3074L117.937 43.4722C118.892 45.3438 120.376 46.2985 122.458 46.2985C124.544 46.2985 125.991 45.2723 127.051 43.7161ZM117.264 40.3598L125.6 36.8984C125.142 35.7334 123.762 34.9216 122.139 34.9216C120.057 34.9216 117.159 36.7596 117.264 40.3598Z" fill="#EA4335"/>
<path d="M31.6911 38.2188V34.2611H45.0279C45.1583 34.9509 45.2256 35.7668 45.2256 36.6501C45.2256 39.6194 44.4139 43.2911 41.7978 45.9072C39.2533 48.5569 36.0021 49.9701 31.6953 49.9701C23.7126 49.9701 17 43.4678 17 35.485C17 27.5023 23.7126 21 31.6953 21C36.1115 21 39.2575 22.7328 41.6212 24.9914L38.8285 27.7841C37.1335 26.1943 34.8371 24.9577 31.6911 24.9577C25.8618 24.9577 21.3026 29.6557 21.3026 35.485C21.3026 41.3144 25.8618 46.0123 31.6911 46.0123C35.4722 46.0123 37.6256 44.494 39.0051 43.1145C40.1239 41.9957 40.8599 40.3975 41.1501 38.2146L31.6911 38.2188Z" fill="#4285F4"/>
</svg>
