<svg width="16" height="17" viewBox="0 0 16 17" fill="none" xmlns="http://www.w3.org/2000/svg">
<path d="M11.9825 10.3593C11.7001 10.1937 11.353 10.1972 11.0719 10.3641L9.64862 11.2121C9.33002 11.402 8.93211 11.3798 8.63993 11.1516C8.1349 10.7572 7.32168 10.0935 6.61421 9.38605C5.90674 8.67857 5.24309 7.86536 4.84866 7.36032C4.62049 7.06815 4.59823 6.67024 4.78814 6.35163L5.63613 4.92834C5.80378 4.6473 5.80518 4.29739 5.63961 4.01495L3.55128 0.447677C3.34885 0.102636 2.94676 -0.0671016 2.5579 0.028202C2.18016 0.120027 1.68973 0.344026 1.17565 0.858804C-0.434078 2.46853 -1.28903 5.18364 4.76449 11.2372C10.818 17.2907 13.5324 16.4364 15.1428 14.826C15.6583 14.3105 15.8816 13.8194 15.9741 13.441C16.068 13.0528 15.9011 12.6535 15.5567 12.4518C14.6969 11.9488 12.8423 10.8629 11.9825 10.3593Z" fill="white"/>
</svg>
