<svg width="24" height="24" viewBox="0 0 24 24" fill="none" xmlns="http://www.w3.org/2000/svg">
<path fill-rule="evenodd" clip-rule="evenodd" d="M2.54367 2.54367C1 4.08733 1 6.5726 1 11.5417V12.4583C1 17.4267 1 19.9127 2.54367 21.4563C4.08733 23 6.5726 23 11.5417 23H12.4583C17.4267 23 19.9127 23 21.4563 21.4563C23 19.9127 23 17.4274 23 12.4583V11.5417C23 6.57333 23 4.08733 21.4563 2.54367C19.9127 1 17.4274 1 12.4583 1H11.5417C6.57333 1 4.08733 1 2.54367 2.54367ZM5.35463 7.875H6.95843C7.36836 7.875 7.52236 8.05467 7.67636 8.49907C8.46103 10.7841 9.78396 12.7817 10.3274 12.7817C10.532 12.7817 10.6251 12.6879 10.6251 12.1694V9.80733C10.5884 9.13492 10.3534 8.84405 10.1794 8.62863C10.072 8.49563 9.98782 8.39139 9.98782 8.24387C9.98782 8.0642 10.1411 7.875 10.3956 7.875H12.9168C13.257 7.875 13.3751 8.05687 13.3751 8.4646V11.6429C13.3751 11.9824 13.5225 12.1019 13.6244 12.1019C13.8283 12.1019 13.9984 11.9824 14.3724 11.6084C15.5282 10.317 16.3436 8.32893 16.3436 8.32893C16.4456 8.0906 16.634 7.875 17.0418 7.875H18.6456C19.131 7.875 19.2337 8.12507 19.131 8.4646C18.9272 9.3996 16.9728 12.1525 16.9728 12.1525C16.8027 12.4246 16.7345 12.5603 16.9728 12.8661C17.0569 12.9839 17.2364 13.1598 17.4415 13.3608C17.6514 13.5665 17.8881 13.7986 18.0772 14.0218C18.7666 14.7969 19.2858 15.4511 19.4302 15.9013C19.563 16.3538 19.3334 16.5833 18.8751 16.5833H17.2706C16.841 16.5833 16.6249 16.3428 16.1575 15.8225C15.9594 15.602 15.7162 15.3313 15.3925 15.0074C14.4399 14.09 14.0329 13.9712 13.7946 13.9712C13.4719 13.9712 13.3751 14.0629 13.3751 14.5212V15.96C13.3751 16.3538 13.249 16.5833 12.2289 16.5833C10.5298 16.5833 8.66196 15.5515 7.33682 13.6478C5.34802 10.8611 4.80463 8.75353 4.80463 8.32893C4.80463 8.0906 4.89629 7.875 5.35463 7.875Z" fill="#7D81A4"/>
</svg>
