<svg width="1013" height="376" viewBox="0 0 1013 376" fill="none" xmlns="http://www.w3.org/2000/svg">
<path opacity="0.2" d="M420.902 -45.6124C235.779 -230.736 104.523 -434.64 41.9494 -614.639C-20.6371 -794.674 -14.4646 -950.619 74.9581 -1040.04C164.381 -1129.46 320.326 -1135.64 500.361 -1073.05C680.36 -1010.48 884.264 -879.221 1069.39 -694.098C1254.51 -508.975 1385.77 -305.07 1448.34 -125.072C1510.93 54.9635 1504.75 210.909 1415.33 300.332C1325.91 389.754 1169.96 395.927 989.929 333.34C809.93 270.767 606.025 139.511 420.902 -45.6124Z" stroke="#423FD9"/>
<path opacity="0.2" d="M924.228 146.741C912.743 147.622 903.622 156.743 902.741 168.228L902 178L901.259 168.228C900.378 156.743 891.257 147.622 879.772 146.741L870 146L879.772 145.259C891.257 144.378 900.378 135.257 901.259 123.772L902 114L902.741 123.772C903.622 135.257 912.743 144.378 924.228 145.259L934 146L924.228 146.741Z" fill="#423FD9"/>
</svg>
