<svg width="64" height="64" viewBox="0 0 64 64" fill="none" xmlns="http://www.w3.org/2000/svg">
<path fill-rule="evenodd" clip-rule="evenodd" d="M36.1932 22.0513L39.7287 25.5868L51.0424 14.2731L42.5571 5.78784L31.2434 17.1016L34.779 20.6371L32.6577 22.7584L29.6983 19.7991C27.7457 17.8464 24.5799 17.8464 22.6273 19.7991L21.9201 20.5062L19.0918 17.6778L17.6775 19.092L20.5059 21.9204L19.7988 22.6275C17.8462 24.5801 17.8462 27.7459 19.7988 29.6986L22.6273 32.527L20.5059 34.6483L16.9704 31.1129L5.65674 42.4266L14.142 50.9118L25.4557 39.5981L21.9201 36.0625L24.0415 33.9412L28.9912 38.8909L30.4054 37.4767L21.2131 28.2843C20.0415 27.1128 20.0415 25.2133 21.2131 24.0417L24.0415 21.2133C25.2131 20.0417 27.1125 20.0417 28.2841 21.2133L37.4765 30.4057L38.8907 28.9914L34.0719 24.1726L36.1932 22.0513ZM39.0216 12.1518L42.5571 8.61627L44.6785 10.7376L41.143 14.2732L39.0216 12.1518ZM37.6074 13.566L34.0718 17.1016L36.1932 19.2229L39.7287 15.6874L37.6074 13.566ZM41.143 17.1016L37.6074 20.6371L39.7287 22.7584L43.2642 19.2228L41.143 17.1016ZM44.6784 17.8086L48.2139 14.2731L46.0927 12.1519L42.5572 15.6874L44.6784 17.8086ZM16.9704 33.9413L19.0917 36.0625L15.5562 39.5981L13.4349 37.4768L16.9704 33.9413ZM12.0207 38.891L14.1419 41.0123L10.6064 44.5478L8.48516 42.4266L12.0207 38.891ZM17.6775 44.5479L15.5562 42.4265L12.0207 45.962L14.142 48.0834L17.6775 44.5479ZM16.9704 41.0123L19.0917 43.1337L22.6273 39.5981L20.5059 37.4768L16.9704 41.0123Z" fill="#423FD9"/>
<path d="M45.9618 47.3762L47.376 45.962L42.4263 41.0123L41.0121 42.4265L45.9618 47.3762Z" fill="#423FD9"/>
<path d="M48.7903 48.7905C49.7873 47.7935 50.5001 46.6231 50.9312 45.3775L52.8212 46.0317C52.2932 47.5571 51.4202 48.989 50.2045 50.2047C48.9887 51.4205 47.5568 52.2935 46.0314 52.8214L45.3773 50.9314C46.6229 50.5003 47.7933 49.7875 48.7903 48.7905Z" fill="#423FD9"/>
<path d="M54.3805 47.5443C53.748 49.0232 52.828 50.4095 51.6186 51.6188C50.4093 52.8282 49.0229 53.7482 47.5441 54.3807L48.3305 56.2196C50.0399 55.4885 51.6403 54.4256 53.0328 53.033C54.4254 51.6405 55.4883 50.0401 56.2194 48.3307L54.3805 47.5443Z" fill="#423FD9"/>
<path fill-rule="evenodd" clip-rule="evenodd" d="M48.9742 37.5767C49.1481 36.6687 48.968 36.2402 48.7902 36.0625C48.7885 36.0607 48.7867 36.059 48.785 36.0572C48.6499 35.9256 48.3866 35.7952 47.8686 35.8097C47.3409 35.8244 46.6469 35.9913 45.8202 36.3456C44.1723 37.0518 42.1906 38.4194 40.3049 40.3051C38.4193 42.1908 37.0517 44.1724 36.3454 45.8203C35.9911 46.647 35.8243 47.341 35.8096 47.8688C35.7949 48.3936 35.9289 48.6569 36.0623 48.7904C36.2401 48.9681 36.6685 49.1482 37.5765 48.9743C38.4544 48.8062 39.5717 48.3373 40.8113 47.5636L41.8702 49.2603C40.5071 50.1111 39.1552 50.7084 37.9527 50.9387C36.7803 51.1632 35.5173 51.0738 34.6481 50.2046C30.0268 45.5833 29.5833 38.2989 33.941 33.9412C38.2949 29.5873 45.5706 30.0263 50.1925 34.6364C50.1965 34.6403 50.2005 34.6443 50.2044 34.6482C51.0736 35.5174 51.163 36.7804 50.9385 37.9528C50.7082 39.1553 50.1109 40.5073 49.2601 41.8704L47.5635 40.8114C48.3372 39.5719 48.8061 38.4545 48.9742 37.5767ZM45.0324 34.5073C45.4053 34.3475 45.7762 34.2107 46.1409 34.1016C42.4707 32.1669 38.1027 32.6079 35.3552 35.3554C32.6077 38.1029 32.1667 42.4709 34.1014 46.1411C34.2105 45.7764 34.3473 45.4055 34.5071 45.0325C35.3364 43.0975 36.8712 40.9104 38.8907 38.8909C40.9103 36.8713 43.0974 35.3366 45.0324 34.5073Z" fill="#423FD9"/>
</svg>
