<svg width="64" height="64" viewBox="0 0 64 64" fill="none" xmlns="http://www.w3.org/2000/svg">
<path d="M45.5 17C46.3284 17 47 16.3284 47 15.5C47 14.6716 46.3284 14 45.5 14C44.6716 14 44 14.6716 44 15.5C44 16.3284 44.6716 17 45.5 17Z" fill="#423FD9"/>
<path fill-rule="evenodd" clip-rule="evenodd" d="M29 20L27 18.4L25 20H23L21 18.4L19 20H16L12 16L16 12H34.9355C36.4082 9.03656 39.4663 7 43 7C47.9706 7 52 11.0294 52 16C52 20.9706 47.9706 25 43 25C39.4663 25 36.4082 22.9634 34.9355 20H29ZM36.175 14H16.8284L14.8284 16L16.8284 18H18.2984L21 15.8387L23.7016 18H24.2984L27 15.8387L29.7016 18H36.175L36.7265 19.1099C37.8744 21.4197 40.2545 23 43 23C46.866 23 50 19.866 50 16C50 12.134 46.866 9 43 9C40.2545 9 37.8744 10.5803 36.7265 12.8901L36.175 14Z" fill="#423FD9"/>
<path d="M45.5 50C46.3284 50 47 49.3284 47 48.5C47 47.6716 46.3284 47 45.5 47C44.6716 47 44 47.6716 44 48.5C44 49.3284 44.6716 50 45.5 50Z" fill="#423FD9"/>
<path fill-rule="evenodd" clip-rule="evenodd" d="M27 51.4L29 53H34.9355C36.4082 55.9634 39.4663 58 43 58C47.9706 58 52 53.9706 52 49C52 44.0294 47.9706 40 43 40C39.4663 40 36.4082 42.0366 34.9355 45H16L12 49L16 53H19L21 51.4L23 53H25L27 51.4ZM36.175 47L36.7265 45.8901C37.8744 43.5803 40.2545 42 43 42C46.866 42 50 45.134 50 49C50 52.866 46.866 56 43 56C40.2545 56 37.8744 54.4197 36.7265 52.1099L36.175 51H29.7016L27 48.8387L24.2984 51H23.7016L21 48.8387L18.2984 51H16.8284L14.8284 49L16.8284 47H36.175Z" fill="#423FD9"/>
<path d="M17 32.5C17 33.3284 17.6716 34 18.5 34C19.3284 34 20 33.3284 20 32.5C20 31.6716 19.3284 31 18.5 31C17.6716 31 17 31.6716 17 32.5Z" fill="#423FD9"/>
<path fill-rule="evenodd" clip-rule="evenodd" d="M37 35.4L35 37H29.0645C27.5918 39.9634 24.5337 42 21 42C16.0294 42 12 37.9706 12 33C12 28.0294 16.0294 24 21 24C24.5337 24 27.5918 26.0366 29.0645 29H48L52 33L48 37H45L43 35.4L41 37H39L37 35.4ZM27.825 31L27.2735 29.8901C26.1256 27.5803 23.7455 26 21 26C17.134 26 14 29.134 14 33C14 36.866 17.134 40 21 40C23.7455 40 26.1256 38.4197 27.2735 36.1099L27.825 35H34.2984L37 32.8387L39.7016 35H40.2984L43 32.8387L45.7016 35H47.1716L49.1716 33L47.1716 31H27.825Z" fill="#423FD9"/>
</svg>
