<svg width="64" height="64" viewBox="0 0 64 64" fill="none" xmlns="http://www.w3.org/2000/svg">
<path d="M12 10H14V28H12V10Z" fill="#423FD9"/>
<path d="M50 10H52V26H50V10Z" fill="#423FD9"/>
<path fill-rule="evenodd" clip-rule="evenodd" d="M50 30C47.7909 30 46 31.7909 46 34V36C46 38.2091 47.7909 40 50 40V52H52V40C54.2091 40 56 38.2091 56 36V34C56 31.7909 54.2091 30 52 30H50ZM52 32H50C48.8954 32 48 32.8954 48 34V36C48 37.1046 48.8954 38 50 38H52C53.1046 38 54 37.1046 54 36V34C54 32.8954 53.1046 32 52 32Z" fill="#423FD9"/>
<path d="M31 52H33L33 32H31L31 52Z" fill="#423FD9"/>
<path fill-rule="evenodd" clip-rule="evenodd" d="M31 18C28.7909 18 27 19.7909 27 22V24C27 26.2091 28.7909 28 31 28H33C35.2091 28 37 26.2091 37 24V22C37 19.7909 35.2091 18 33 18V10H31V18ZM31 20H33C34.1046 20 35 20.8954 35 22V24C35 25.1046 34.1046 26 33 26H31C29.8954 26 29 25.1046 29 24V22C29 20.8954 29.8954 20 31 20Z" fill="#423FD9"/>
<path fill-rule="evenodd" clip-rule="evenodd" d="M12 52L12 42C9.79086 42 8 40.2091 8 38V36C8 33.7909 9.79086 32 12 32H14C16.2091 32 18 33.7909 18 36V38C18 40.2091 16.2091 42 14 42V52H12ZM14 34H12C10.8954 34 10 34.8954 10 36V38C10 39.1046 10.8954 40 12 40H14C15.1046 40 16 39.1046 16 38V36C16 34.8954 15.1046 34 14 34Z" fill="#423FD9"/>
</svg>
