<svg width="64" height="64" viewBox="0 0 64 64" fill="none" xmlns="http://www.w3.org/2000/svg">
<path d="M10 15C10.5523 15 11 14.5523 11 14C11 13.4477 10.5523 13 10 13C9.44772 13 9 13.4477 9 14C9 14.5523 9.44772 15 10 15Z" fill="#423FD9"/>
<path d="M14 14C14 14.5523 13.5523 15 13 15C12.4477 15 12 14.5523 12 14C12 13.4477 12.4477 13 13 13C13.5523 13 14 13.4477 14 14Z" fill="#423FD9"/>
<path d="M16 15C16.5523 15 17 14.5523 17 14C17 13.4477 16.5523 13 16 13C15.4477 13 15 13.4477 15 14C15 14.5523 15.4477 15 16 15Z" fill="#423FD9"/>
<path d="M26 29H20V27H26V29Z" fill="#423FD9"/>
<path d="M29 29H35V27H29V29Z" fill="#423FD9"/>
<path d="M35 39H20V37H35V39Z" fill="#423FD9"/>
<path d="M44 32L29 32V34L44 34V32Z" fill="#423FD9"/>
<path d="M44 29H38V27H44V29Z" fill="#423FD9"/>
<path d="M38 39H44V37H38V39Z" fill="#423FD9"/>
<path d="M20 32H26V34H20V32Z" fill="#423FD9"/>
<path d="M13 22H19V24H15V41H19V43H13V22Z" fill="#423FD9"/>
<path d="M45 43H51V22L45 22V24L49 24V41H45V43Z" fill="#423FD9"/>
<path fill-rule="evenodd" clip-rule="evenodd" d="M58 51H52.9C52.7704 51.6384 52.5192 52.2326 52.1716 52.7574L55.9497 56.5355L54.5355 57.9498L50.7574 54.1716C49.9669 54.6951 49.0191 55 48 55C45.581 55 43.5633 53.2822 43.1 51H6V10H58V51ZM56 12H8V16H56V12ZM56 18V49H52.9C52.4367 46.7178 50.419 45 48 45C45.581 45 43.5633 46.7178 43.1 49H8V18H56ZM48 53C49.6569 53 51 51.6569 51 50C51 48.3431 49.6569 47 48 47C46.3431 47 45 48.3431 45 50C45 51.6569 46.3431 53 48 53Z" fill="#423FD9"/>
</svg>
