<svg width="168" height="32" viewBox="0 0 168 32" fill="none" xmlns="http://www.w3.org/2000/svg">
<path d="M10.2331 16.0634V26.052H13.0962V0H8.82041C4.62027 0 1.08863 2.72867 1.08863 8.19837C1.08863 12.1 2.64003 14.2113 4.98605 15.3719L0.00390625 26.052H3.32113L7.84921 16.0634H10.2331ZM10.2331 13.7298H8.70689C6.22213 13.7298 4.1662 12.384 4.1662 8.19837C4.1662 3.86459 6.39871 2.37061 8.70689 2.37061H10.2331V13.7298Z" fill="#7D81A4"/>
<path d="M41.8285 23.7182H40.3402V7.6919H31.6372V9.25996C31.6372 14.137 31.448 19.8166 29.7326 23.7182H28.5848V29.6571H31.1831V26.0518H39.2176V29.6571H41.8285V23.7182ZM54.4415 24.8048L53.773 22.6193C53.0289 23.1379 51.7171 23.8664 50.09 23.8664C47.7819 23.8664 46.5836 21.681 46.5836 17.5201H54.4037V15.952C54.4037 9.72915 52.3604 7.43262 49.2324 7.43262C45.2466 7.43262 43.5691 11.7293 43.5691 17.6312C43.5691 23.2737 45.953 26.2987 49.8252 26.2987C51.6919 26.2987 53.2433 25.7184 54.4415 24.8048ZM24.0442 7.6919V15.4828H19.7305V7.6919H16.8169V26.0518H19.7305V17.8164H24.0442V26.0518H26.9073V7.6919H24.0442ZM65.2257 26.0518H68.3915L63.0688 16.3224L67.723 7.6919H64.7842L60.2814 16.1742V7.6919H57.3804V26.0518H60.2814V16.9027L65.2257 26.0518ZM75.2026 26.2987C76.9179 26.2987 78.1036 25.7555 79.1126 24.9159L78.4441 22.8046C77.7756 23.3849 76.6909 23.9281 75.2782 23.9281C72.9322 23.9281 71.8223 21.3106 71.8223 16.7175C71.8223 12.0998 73.298 9.80323 75.3918 9.80323C76.5774 9.80323 77.6999 10.4206 78.482 11.075L78.8856 8.38333C78.0657 7.86476 77.0945 7.43262 75.4296 7.43262C71.0403 7.43262 68.7699 11.112 68.7699 16.8657C68.7699 23.1379 71.179 26.2987 75.2026 26.2987ZM37.477 23.7182H32.4823C34.0463 19.8166 34.2355 14.174 34.2355 10.3095V9.98843H37.477V23.7182ZM49.2324 9.76619C50.9099 9.76619 51.427 12.0627 51.427 15.1865H46.6215C46.8107 11.9146 47.4413 9.76619 49.2324 9.76619Z" fill="#7D81A4"/>
<path d="M99.1757 24.5581H90.8951C91.8893 23.3481 92.4933 20.7675 92.8205 16.8659C93.1226 13.1124 93.2987 8.08724 93.412 1.49398H99.1757V24.5581ZM101.403 30.3858H102.85V24.5581H101.026V0H91.7508C91.6376 7.24765 91.5243 13.0013 91.1468 16.8659C90.7818 20.5823 90.1526 23.4962 88.8438 24.5581H88.0762V30.3858H89.5234L89.7751 26.052H101.139L101.403 30.3858ZM114.239 26.052H115.913V7.69214H114.39L108.299 20.5823C107.934 21.3849 107.557 22.1874 107.305 23.027H107.192C107.268 22.2245 107.343 21.4219 107.343 20.4342V7.69214H105.707V26.052H107.192L113.283 13.1124C113.686 12.3099 114.025 11.5444 114.277 10.7542H114.39C114.315 11.5073 114.239 12.3099 114.239 13.2606V26.052ZM125.301 25.0272C123.64 25.0272 122.595 24.2988 121.853 22.8048V12.5321C122.671 10.569 124.08 8.81571 125.754 8.81571C127.906 8.81571 129.24 11.6555 129.24 16.4708C129.24 22.2615 127.68 25.0272 125.301 25.0272ZM125.2 26.3731C128.686 26.3731 130.989 23.0641 130.989 16.3226C130.989 11.0011 129.165 7.32173 126.044 7.32173C123.967 7.32173 122.595 8.96388 121.777 10.7171L121.626 7.69214H120.104V31.7316H121.853V24.768C122.558 25.6816 123.778 26.3731 125.2 26.3731ZM135.067 17.1622H143.536C144.127 10.6431 142.051 7.32173 138.817 7.32173C135.658 7.32173 133.368 10.853 133.368 16.8659C133.368 22.8789 135.18 26.4101 139.157 26.4101C142.127 26.4101 143.536 24.3358 143.536 24.3358L142.982 22.953C142.982 22.953 141.674 24.9161 139.194 24.9161C136.476 24.9161 135.142 22.1874 135.067 17.1622ZM138.817 8.74163C140.717 8.74163 142.202 10.927 141.9 15.8164H135.104C135.255 11.2234 136.854 8.74163 138.817 8.74163ZM148.582 16.5449L155.076 26.052H157.014L150.407 16.2115L156.561 7.69214H154.862L148.582 16.3226V7.69214H146.833V26.052H148.582V16.5449ZM168 9.11204V7.69214H157.605V9.11204H161.947V26.052H163.696V9.11204H168Z" fill="#7D81A4"/>
</svg>
